<svg width="24" height="24" fill="none" xmlns="http://www.w3.org/2000/svg"><path fill-rule="evenodd" clip-rule="evenodd" d="M9 10.65a3.15 3.15 0 1 1 6.3 0 3.15 3.15 0 0 1-6.3 0m3.15-1.35a1.35 1.35 0 1 0 0 2.7 1.35 1.35 0 0 0 0-2.7" fill="#fff"/><path fill-rule="evenodd" clip-rule="evenodd" d="M12.15 4.8c-3.224 0-5.85 2.638-5.85 5.907 0 2.072 1.243 4.21 2.743 5.9.737.829 1.5 1.51 2.132 1.977a6 6 0 0 0 .792.512q.125.064.183.085.056-.02.183-.085a6 6 0 0 0 .791-.512 14.5 14.5 0 0 0 2.132-1.978C16.756 14.918 18 12.78 18 10.707c0-3.27-2.626-5.907-5.85-5.907M4.5 10.707C4.5 6.458 7.917 3 12.15 3c4.232 0 7.65 3.458 7.65 7.707 0 2.73-1.592 5.287-3.198 7.095a16.3 16.3 0 0 1-2.408 2.23 8 8 0 0 1-1.028.66c-.268.139-.644.308-1.016.308s-.75-.17-1.017-.309a8 8 0 0 1-1.028-.66 16.3 16.3 0 0 1-2.408-2.23C6.092 15.995 4.5 13.438 4.5 10.708" fill="#fff"/></svg>