<svg xmlns="http://www.w3.org/2000/svg" width="24" height="24" fill="none" data-c="1"><path fill="#fff" fill-rule="evenodd" d="M9.412 10.5a3.088 3.088 0 1 1 6.176 0 3.088 3.088 0 0 1-6.176 0M12.5 9.178a1.324 1.324 0 1 0 0 2.647 1.324 1.324 0 0 0 0-2.647" clip-rule="evenodd"/><path fill="#fff" fill-rule="evenodd" d="M12.5 4.765c-3.161 0-5.735 2.586-5.735 5.79 0 2.032 1.219 4.13 2.69 5.785a14 14 0 0 0 2.09 1.938c.31.23.574.397.775.502q.124.063.18.084c.037-.015.096-.04.179-.084.201-.105.466-.272.776-.502a14 14 0 0 0 2.09-1.938c1.471-1.656 2.69-3.753 2.69-5.784 0-3.205-2.575-5.791-5.735-5.791M5 10.555C5 6.39 8.35 3 12.5 3c4.149 0 7.5 3.39 7.5 7.556 0 2.676-1.561 5.184-3.135 6.956-.8.9-1.64 1.652-2.36 2.185-.36.266-.704.488-1.009.647-.263.137-.632.303-.996.303-.365 0-.734-.166-.997-.303a8 8 0 0 1-1.008-.647 16 16 0 0 1-2.36-2.185C6.56 15.739 5 13.232 5 10.556" clip-rule="evenodd"/></svg>