<svg width="86" height="34" viewBox="0 0 86 34" fill="none" xmlns="http://www.w3.org/2000/svg">
<path d="M22.46 26.1063V8.34901C23.6339 8.34901 24.7538 8.30179 25.8333 8.34901C26.2147 8.44312 26.5526 8.66444 26.7913 8.97646C28.4847 10.8993 30.1647 12.8491 31.9188 14.9068C32.5463 14.2321 33.1332 13.5575 33.7067 12.8828C34.8334 11.6481 35.9466 10.373 36.9923 9.09115C37.1781 8.81839 37.4342 8.60099 37.7335 8.46201C38.0329 8.32304 38.3642 8.26767 38.6925 8.30179C39.6168 8.35576 40.5411 8.30179 41.5261 8.30179V26.1063H37.161V15.3723L36.9316 15.2576C35.7914 16.607 34.6445 17.9023 33.5178 19.2314C32.0942 20.9046 32.0605 21.2554 30.448 19.2314C29.3686 17.8821 28.1946 16.6002 26.8386 15.035V26.1063H22.46Z" fill="black"/>
<path d="M55.6195 8.6462C52.3272 8.14019 48.8728 8.39657 45.54 8.32235C45.2901 8.33372 45.0417 8.36759 44.7979 8.42355V26.0999C48.0498 26.0999 51.1937 26.2348 54.3242 26.0594C55.565 26.0411 56.7886 25.7654 57.9174 25.2498C59.0462 24.7341 60.0557 23.9898 60.8819 23.0639C65.2875 17.9229 62.3865 9.69868 55.6195 8.6462ZM58.1968 17.5451C58.0348 20.4259 56.4359 22.4229 53.8047 22.7535C52.3218 22.8451 50.8347 22.8451 49.3519 22.7535V11.4663C51.0397 11.4941 52.7237 11.6384 54.3916 11.8981C56.9554 12.4581 58.3519 14.7047 58.1968 17.5451Z" fill="black"/>
<path d="M65.7192 19.2522L71.4607 13.5107V21.4651H79.4083L73.6871 27.193H65.7192V19.2522Z" fill="black"/>
<path d="M65.8477 7L71.3462 12.4985H80.4677V21.728L86 27.267V7H65.8477Z" fill="black"/>
<path d="M15.6321 26.2555H20.2401L12.4679 8.21484H7.27293L0 26.2555H4.72268L6.07202 22.6797H14.168L15.6321 26.2555ZM7.27293 19.3806L9.82317 12.4787L12.7377 19.3806H7.27293Z" fill="black"/>
</svg>
