<svg width="12" height="16" viewBox="0 0 12 16" fill="none" xmlns="http://www.w3.org/2000/svg">
<path d="M4.875 10.25H7.125L6.69375 7.83125C6.94375 7.70625 7.14063 7.525 7.28438 7.2875C7.42813 7.05 7.5 6.7875 7.5 6.5C7.5 6.0875 7.35313 5.73437 7.05938 5.44062C6.76563 5.14687 6.4125 5 6 5C5.5875 5 5.23438 5.14687 4.94063 5.44062C4.64688 5.73437 4.5 6.0875 4.5 6.5C4.5 6.7875 4.57188 7.05 4.71563 7.2875C4.85938 7.525 5.05625 7.70625 5.30625 7.83125L4.875 10.25ZM6 15.5C4.2625 15.0625 2.82812 14.0656 1.69688 12.5094C0.565625 10.9531 0 9.225 0 7.325V2.75L6 0.5L12 2.75V7.325C12 9.225 11.4344 10.9531 10.3031 12.5094C9.17188 14.0656 7.7375 15.0625 6 15.5ZM6 13.925C7.3 13.5125 8.375 12.6875 9.225 11.45C10.075 10.2125 10.5 8.8375 10.5 7.325V3.78125L6 2.09375L1.5 3.78125V7.325C1.5 8.8375 1.925 10.2125 2.775 11.45C3.625 12.6875 4.7 13.5125 6 13.925Z" fill="white"/>
</svg>
