<svg width="24" height="24" fill="none" xmlns="http://www.w3.org/2000/svg"><path d="M4.25 10.25c0-1.63 0-2.445.25-3.094A3.75 3.75 0 0 1 6.655 5C7.305 4.75 8.12 4.75 9.75 4.75h4.863c2.55 0 3.825 0 4.64.424a3.75 3.75 0 0 1 2.017 3.352c-.006.918-.603 2.045-1.796 4.298-.478.902-.716 1.352-1.038 1.704a3.75 3.75 0 0 1-1.831 1.103c-.462.119-.972.119-1.992.119H9.75c-1.63 0-2.445 0-3.094-.25A3.75 3.75 0 0 1 4.5 13.345c-.249-.649-.249-1.464-.249-3.094M10 19a2 2 0 1 1-4 0 2 2 0 0 1 4 0M18 19a2 2 0 1 1-4 0 2 2 0 0 1 4 0" fill="#1D2129"/><path d="M5.75 5.5a.75.75 0 0 0-1.5 0zm-1.5 6a.75.75 0 0 0 1.5 0zM3 2.75a.75.75 0 0 0 0 1.5zm2.75 8.75v-6h-1.5v6zm0 0v-6h-1.5v6zm0-6A2.75 2.75 0 0 0 3 2.75v1.5c.69 0 1.25.56 1.25 1.25z" fill="#1D2129"/></svg>