<svg width="24" height="24" fill="none" xmlns="http://www.w3.org/2000/svg"><path d="M9.5 19a1.5 1.5 0 1 1-3 0 1.5 1.5 0 0 1 3 0M17.5 19a1.5 1.5 0 1 1-3 0 1.5 1.5 0 0 1 3 0" stroke="#1D2129" stroke-width="1.5" stroke-linecap="round" stroke-linejoin="round"/><path d="M3 2.75a.75.75 0 0 0 0 1.5zm16.056 11.496a.75.75 0 0 0-1.234-.854zm.47-4.36a.75.75 0 1 0 1.348.658zM8 6.25h9.699v-1.5H8zm8.223 8H8v1.5h8.223zM5.75 12v-.5h-1.5v.5zm0-.5v-3h-1.5v3zm0 0v-6h-1.5v6zm13.971-2.014-.195.4 1.348.658.195-.4zm-1.899 3.906-.02.03 1.233.854.02-.03zM8 14.25A2.25 2.25 0 0 1 5.75 12h-1.5A3.75 3.75 0 0 0 8 15.75zm8.223 1.5c1.123 0 2.174-.55 2.812-1.474l-1.234-.853a1.92 1.92 0 0 1-1.578.827zm1.476-9.5c1.663 0 2.751 1.742 2.022 3.236l1.348.658c1.215-2.491-.599-5.394-3.37-5.394zM5.75 5.5A2.75 2.75 0 0 0 3 2.75v1.5c.69 0 1.25.56 1.25 1.25zM8 4.75A3.75 3.75 0 0 0 4.25 8.5h1.5A2.25 2.25 0 0 1 8 6.25z" fill="#1D2129"/></svg>