<svg width="16" height="16" viewBox="0 0 16 16" fill="none" xmlns="http://www.w3.org/2000/svg">
<path fill-rule="evenodd" clip-rule="evenodd" d="M7.52908 4.77506C6.49301 3.74078 4.81273 3.74078 3.77666 4.77506C2.75814 5.79181 2.74152 7.42971 3.72666 8.46648L3.7796 8.52066L7.88427 12.6182C7.9481 12.6819 8.05206 12.6819 8.11589 12.6182L12.2206 8.52066L12.2735 8.46649C13.2586 7.42972 13.242 5.79182 12.2235 4.77506C11.1874 3.74078 9.50715 3.74078 8.47108 4.77506L8.00008 5.24524L7.52908 4.77506ZM8.00008 3.42856C6.44111 2.29173 4.24251 2.42602 2.83466 3.83143C1.30134 5.3621 1.27778 7.82947 2.76413 9.38917L2.767 9.39218L2.83172 9.45842L6.94228 13.5619C7.52662 14.1452 8.47354 14.1452 9.05788 13.5619L13.1684 9.45842L13.2332 9.39218L13.236 9.38917C14.7224 7.82947 14.6988 5.3621 13.1655 3.83143C11.7576 2.42602 9.55905 2.29173 8.00008 3.42856Z" fill="url(#paint0_linear_7053_111933)"/>
<defs>
<linearGradient id="paint0_linear_7053_111933" x1="8.00008" y1="2.66602" x2="8.00008" y2="13.9993" gradientUnits="userSpaceOnUse">
<stop stop-color="#FA43DE"/>
<stop offset="1" stop-color="#F8504A"/>
</linearGradient>
</defs>
</svg>
