<svg width="14" height="14" viewBox="0 0 14 14" fill="none" xmlns="http://www.w3.org/2000/svg">
<path d="M5.64219 11.6988C6.79358 10.0898 7.98488 8.6615 8.87015 7.65608C9.39278 7.06255 9.88364 6.52271 10.3535 6.03707C10.7786 5.59752 11.2002 5.1945 11.6055 4.81529C12.2962 4.1688 13.1038 3.45265 13.6116 3.14594L12.9631 2.28613C12.0228 2.87442 11.1176 3.50278 10.4188 3.98564C10.0115 4.26705 9.63359 4.53754 9.27743 4.79517C8.92463 5.05041 8.56036 5.33072 8.17628 5.62476C7.50946 6.13522 6.65274 6.82141 5.82316 7.53048L3.7415 5.56442L1.29785 7.49026L5.64219 11.6988Z" fill="black"/>
</svg>
