<svg width="16" height="16" viewBox="0 0 16 16" fill="none" xmlns="http://www.w3.org/2000/svg">
<path d="M6.44835 13.3696C7.76423 11.5307 9.12571 9.89844 10.1375 8.74939C10.7347 8.07107 11.2957 7.45411 11.8327 6.89909C12.3186 6.39675 12.8004 5.93615 13.2635 5.50277C14.053 4.76392 14.9759 3.94547 15.5563 3.59494L14.8151 2.6123C13.7404 3.28464 12.706 4.00276 11.9073 4.55459C11.4419 4.87622 11.01 5.18534 10.6029 5.47977C10.1997 5.77147 9.7834 6.09183 9.34446 6.42788C8.58238 7.01126 7.60328 7.79547 6.65517 8.60584L4.27613 6.35892L1.4834 8.55988L6.44835 13.3696Z" fill="black"/>
</svg>
