<svg width="24" height="24" fill="none" xmlns="http://www.w3.org/2000/svg"><path fill-rule="evenodd" clip-rule="evenodd" d="M13.64 3.972c.489 0 .886.397.886.886v2.145a.886.886 0 0 1-1.773 0V4.858c0-.49.397-.886.886-.886M13.64 15.946c.489 0 .886.397.886.887v1.794a.886.886 0 0 1-1.773 0v-1.794c0-.49.397-.887.886-.887M13.64 8.628c.489 0 .886.397.886.886v4.274a.886.886 0 0 1-1.773 0V9.514c0-.49.397-.886.886-.886" fill="#fff"/><path fill-rule="evenodd" clip-rule="evenodd" d="M2.25 7.523C2.252 5.428 3.969 3.75 6.06 3.75h11.88c2.092 0 3.809 1.678 3.81 3.773v2.299a.886.886 0 0 1-.886.886c-.59 0-1.043.464-1.043 1.02s.453 1.02 1.043 1.02c.49 0 .886.396.886.886v2.297c0 2.095-1.715 3.774-3.81 3.774H6.06c-2.095 0-3.81-1.679-3.81-3.774v-2.297c0-.49.397-.887.886-.887.59 0 1.043-.463 1.043-1.019 0-.51-.406-.945-1.043-.945a.886.886 0 0 1-.886-.887zm3.81-2c-1.135 0-2.036.905-2.036 2l-.001 1.622c1.096.342 1.93 1.31 1.93 2.583a2.79 2.79 0 0 1-1.93 2.651v1.552c0 1.095.9 2 2.036 2H17.94c1.136 0 2.037-.905 2.037-2V14.38a2.79 2.79 0 0 1-1.93-2.65 2.79 2.79 0 0 1 1.93-2.652V7.523c0-1.094-.902-2-2.037-2z" fill="#fff"/></svg>