<svg xmlns="http://www.w3.org/2000/svg" width="24" height="24" fill="none" data-c="1"><path fill="#fff" fill-rule="evenodd" d="M13.708 4.208c.46 0 .833.373.833.833v2.017a.833.833 0 0 1-1.667 0V5.041c0-.46.374-.833.834-.833M13.708 15.466c.46 0 .833.373.833.833v1.687a.833.833 0 1 1-1.667 0v-1.687c0-.46.374-.833.834-.833M13.708 8.586c.46 0 .833.373.833.833v4.018a.833.833 0 0 1-1.667 0V9.419c0-.46.374-.833.834-.833" clip-rule="evenodd"/><path fill="#fff" fill-rule="evenodd" d="M3 7.547C3.002 5.577 4.616 4 6.583 4h11.169c1.967 0 3.581 1.577 3.581 3.547l.001 2.161a.833.833 0 0 1-.833.834.966.966 0 0 0-.98.959c0 .522.426.958.98.958.46 0 .833.373.833.833v2.16c0 1.97-1.612 3.548-3.581 3.548H6.582C4.612 19 3 17.422 3 15.453v-2.16c0-.461.373-.834.833-.834.555 0 .98-.436.98-.958 0-.48-.381-.889-.98-.889A.834.834 0 0 1 3 9.78zm3.582-1.88c-1.067 0-1.914.851-1.914 1.88l-.001 1.525c1.03.322 1.814 1.232 1.814 2.429 0 1.17-.764 2.148-1.814 2.492v1.46c0 1.03.847 1.88 1.915 1.88h11.17c1.068 0 1.915-.85 1.915-1.88v-1.46a2.62 2.62 0 0 1-1.814-2.492c0-1.17.763-2.149 1.813-2.493v-1.46c0-1.03-.848-1.881-1.915-1.881z" clip-rule="evenodd"/></svg>