<svg width="22" height="22" fill="none" xmlns="http://www.w3.org/2000/svg"><rect x="3.5" y="3.5" width="15" height="15" rx=".5" stroke="#fff"/><rect x="4.5" y="1.5" width="3" height="2" rx=".5" stroke="#fff"/><rect x="14.5" y="1.5" width="3" height="2" rx=".5" stroke="#fff"/><rect x="9.5" y="1.5" width="3" height="2" rx=".5" stroke="#fff"/><rect x="4.5" y="18.5" width="3" height="2" rx=".5" stroke="#fff"/><rect x="14.5" y="18.5" width="3" height="2" rx=".5" stroke="#fff"/><rect x="9.5" y="18.5" width="3" height="2" rx=".5" stroke="#fff"/><rect x="1.5" y="4.5" width="2" height="3" rx=".5" stroke="#fff"/><rect x="1.5" y="14.5" width="2" height="3" rx=".5" stroke="#fff"/><rect x="1.5" y="9.5" width="2" height="3" rx=".5" stroke="#fff"/><rect x="18.5" y="4.5" width="2" height="3" rx=".5" stroke="#fff"/><rect x="18.5" y="14.5" width="2" height="3" rx=".5" stroke="#fff"/><rect x="18.5" y="9.5" width="2" height="3" rx=".5" stroke="#fff"/><rect x="6.5" y="6.5" width="9" height="9" rx=".5" stroke="#fff"/><rect x="9" y="9" width="4" height="1" rx=".5" fill="#fff"/><rect x="9" y="12" width="4" height="1" rx=".5" fill="#fff"/></svg>