<svg width="22" height="22" fill="none" xmlns="http://www.w3.org/2000/svg"><path fill-rule="evenodd" clip-rule="evenodd" d="M19.182 18.182h-.727V2h.727zm-1.727-5.368v5.368H12v-1.636a1 1 0 0 0-1-1H3V2h9.91v9.818a1 1 0 0 0 1 1h3.454q.045 0 .09-.004m-3.546-1.996v1h3.455V9.182h-3.455v1.09a.454.454 0 1 1 0 .546m3.455-2.636v-.727h-3.455v.727zm0-4.364v2.546h-3.455v-1a.454.454 0 1 0 0-.546v-1zM13.909 1h5.273a1 1 0 0 1 1 1v16.182a1 1 0 0 1-1 1h-.822l.004.09V20a1 1 0 0 1-1 1h-1.637a1 1 0 0 1-1-1v-.727q0-.046.004-.091H7.45q.005.045.005.09V20a1 1 0 0 1-1 1H4.818a1 1 0 0 1-1-1v-.727q0-.046.004-.091H3a1 1 0 0 1-1-1V2a1 1 0 0 1 1-1zm3.455 1.727V2h-3.455v.727zM3 18.182h8v-1.636H3zm3.455 1.09H4.818V20h1.637zm9.272 0h1.637V20h-1.637zM11 5.637H4.818v6.182H11zm-6.182-1a1 1 0 0 0-1 1v6.182a1 1 0 0 0 1 1H11a1 1 0 0 0 1-1V5.636a1 1 0 0 0-1-1zm-.545-.909a.455.455 0 1 0 0-.909.455.455 0 0 0 0 .91m.454 10.455a.455.455 0 1 1-.909 0 .455.455 0 0 1 .91 0m6.819-10.455a.455.455 0 1 0 0-.909.455.455 0 0 0 0 .91M12 14.182a.455.455 0 1 1-.91 0 .455.455 0 0 1 .91 0m-7.727 2.727a.455.455 0 1 0 0 .91H6.09a.455.455 0 0 0 0-.91z" fill="#fff"/></svg>