<svg width="16" height="16" viewBox="0 0 16 16" fill="none" xmlns="http://www.w3.org/2000/svg">
<path fill-rule="evenodd" clip-rule="evenodd" d="M5.08333 1.54102C4.76117 1.54102 4.5 1.80218 4.5 2.12435C4.5 2.44652 4.76117 2.70768 5.08333 2.70768H11.553C11.8752 2.70768 12.1364 2.44652 12.1364 2.12435C12.1364 1.80218 11.8752 1.54102 11.553 1.54102H5.08333ZM2.40003 4.03361C2.40003 3.71144 2.6612 3.45027 2.98337 3.45027H13.2712C13.5934 3.45027 13.8546 3.71144 13.8546 4.03361C13.8546 4.35577 13.5934 4.61694 13.2712 4.61694H2.98336C2.6612 4.61694 2.40003 4.35577 2.40003 4.03361ZM3 6.35889H13C13.5523 6.35889 14 6.8066 14 7.35889V12.4589C14 13.0112 13.5523 13.4589 13 13.4589H3C2.44772 13.4589 2 13.0112 2 12.4589V7.35889C2 6.8066 2.44771 6.35889 3 6.35889ZM1 7.35889C1 6.25432 1.89543 5.35889 3 5.35889H13C14.1046 5.35889 15 6.25432 15 7.35889V12.4589C15 13.5635 14.1046 14.4589 13 14.4589H3C1.89543 14.4589 1 13.5635 1 12.4589V7.35889ZM6.91778 7.49106H5.90003L7.27614 9.87929H6.3659V10.3322H7.54133L7.5485 10.3391V10.9087H6.3659V11.3616H7.5485V12.3911H8.45157V11.3616H9.64133V10.9087H8.45157V10.3391L8.45873 10.3322H9.64133V9.87929H8.72392L10.1 7.49106H9.08228L8.00003 9.55674L6.91778 7.49106Z" fill="url(#paint0_linear_7053_111939)"/>
<defs>
<linearGradient id="paint0_linear_7053_111939" x1="9" y1="8" x2="7" y2="1.5" gradientUnits="userSpaceOnUse">
<stop stop-color="#E7DA69"/>
<stop offset="1" stop-color="#FF9900"/>
</linearGradient>
</defs>
</svg>
