<svg width="32" height="32" fill="none" xmlns="http://www.w3.org/2000/svg"><path fill-rule="evenodd" clip-rule="evenodd" d="M14.633 3h2.734c.592 0 1.087 0 1.493.028.423.029.823.09 1.21.251a3.67 3.67 0 0 1 1.984 1.984c.16.388.223.787.252 1.21q.015.242.021.527h4.34a1 1 0 1 1 0 2H25v14.778c0 .71 0 1.303-.04 1.788-.04.507-.13.982-.36 1.432a3.67 3.67 0 0 1-1.602 1.602c-.45.23-.925.319-1.432.36-.485.04-1.08.04-1.792.04h-7.547c-.713 0-1.307 0-1.793-.04-.507-.041-.983-.13-1.432-.36A3.67 3.67 0 0 1 7.4 26.998c-.23-.45-.32-.925-.36-1.432C7 25.081 7 24.486 7 23.774V9H5.333a1 1 0 1 1 0-2h4.34q.005-.285.021-.527c.03-.423.091-.822.252-1.21A3.67 3.67 0 0 1 11.93 3.28c.387-.16.786-.222 1.21-.251C13.545 3 14.04 3 14.632 3m-2.96 4h8.654a9 9 0 0 0-.017-.39c-.022-.322-.061-.478-.104-.581a1.67 1.67 0 0 0-.902-.902c-.102-.043-.259-.082-.58-.104-.33-.022-.756-.023-1.39-.023h-2.667c-.635 0-1.062 0-1.392.023-.32.022-.477.061-.58.104-.408.169-.732.493-.902.902-.042.103-.082.259-.103.58a9 9 0 0 0-.017.391M9 9v14.733c0 .764 0 1.276.033 1.67.031.383.087.566.149.687.16.314.414.569.728.728.12.062.303.118.687.149.394.032.907.033 1.67.033h7.467c.763 0 1.275 0 1.67-.033.382-.031.565-.087.686-.149.314-.16.569-.415.729-.728.061-.12.117-.303.148-.686.032-.395.033-.907.033-1.67V9zm4.333 3.333a1 1 0 0 1 1 1v9.334a1 1 0 0 1-2 0v-9.334a1 1 0 0 1 1-1m5.334 0a1 1 0 0 1 1 1v9.334a1 1 0 1 1-2 0v-9.334a1 1 0 0 1 1-1" fill="#fff"/></svg>