<svg width="16" height="16" fill="none" xmlns="http://www.w3.org/2000/svg"><g clip-path="url(#prefix__a)" fill-rule="evenodd" clip-rule="evenodd" fill="#1D2129"><path d="M8.448 13.066a.6.6 0 0 1 .6-.6H13.4a.6.6 0 0 1 0 1.2H9.048a.6.6 0 0 1-.6-.6M8.932 3.458l-5.648 7.064a.38.38 0 0 0-.074.324l.381 1.614 1.703-.022h.001a.42.42 0 0 0 .324-.154l.89-1.115 4.763-5.963.043-.054a.686.686 0 0 0-.248-.935 1 1 0 0 1-.057-.04l-.509-.395-.535-.416-.004-.003a.747.747 0 0 0-1.03.095m2.789-.248a1.885 1.885 0 0 1 .579 2.63l-.007.01-.007.009-.008.01-.015.02-.051.063-.836 1.05-3.929 4.916-.891 1.115-.469-.374.469.374v.001c-.304.378-.762.599-1.247.604l-2.183.028a.6.6 0 0 1-.592-.462l-.492-2.083c-.111-.472 0-.969.305-1.35L8 2.703l.009-.01a1.947 1.947 0 0 1 2.702-.267q0 0 .003.002zm-.39 1.922q.012-.016 0 0"/><path d="M6.937 4.035a.6.6 0 0 1 .841-.11l3.271 2.512a.6.6 0 0 1-.73.952L7.047 4.877a.6.6 0 0 1-.11-.842"/></g><defs><clipPath id="prefix__a"><path fill="#fff" d="M0 0h16v16H0z"/></clipPath></defs></svg>