<svg width="16" height="16" fill="none" xmlns="http://www.w3.org/2000/svg"><path fill-rule="evenodd" clip-rule="evenodd" d="M.5 2.442C.5 1.382 1.35.5 2.424.5h11.15c1.075 0 1.923.882 1.923 1.942v.702c0 .677-.257 1.33-.719 1.822l-3.634 3.865-.008.008a3.11 3.11 0 0 0-.873 2.168v1.715c0 .63-.34 1.216-.897 1.52L7.295 15.37c-.717.39-1.547-.15-1.547-.926v-3.428c0-.798-.303-1.562-.841-2.135l-.053-.05-3.633-3.864A2.66 2.66 0 0 1 .5 3.144zm5.402 5.313.037.035c.839.86 1.31 2.019 1.31 3.226v2.672l1.398-.763a.23.23 0 0 0 .117-.203v-1.715c0-1.197.462-2.35 1.291-3.208l3.63-3.859c.2-.213.313-.498.313-.796v-.702A.433.433 0 0 0 13.575 2H2.424A.434.434 0 0 0 2 2.442v.702c0 .298.113.583.313.795z" fill="#fff"/></svg>