<svg width="22" height="22" fill="none" xmlns="http://www.w3.org/2000/svg"><path d="M.5 2a.5.5 0 0 1 .5-.5h3a.5.5 0 0 1 .5.5v18a.5.5 0 0 1-.5.5H2a.5.5 0 0 1-.5-.5V5.059c0-.532-.3-1.018-.776-1.256A.4.4 0 0 1 .5 3.44zM4.5 4a.5.5 0 0 1 .5-.5h14.397000000000002q.141.002.24.068l.275-.418-.275.418c.277.183.716.492 1.01.786l.707.707a.5.5 0 0 1 .146.353V16a.5.5 0 0 1-.5.5H5a.5.5 0 0 1-.5-.5z" stroke="#fff"/><path d="M5 7h4s-.333 1.5-.333 3S9 13 9 13H5M16.296 7.263c-.32.719-.843 1.004-1.296 1.004s-.976-.285-1.296-1.004c-.194-.436-.224-.74-.194-.942a.7.7 0 0 1 .25-.45c.294-.255.807-.371 1.24-.371s.946.116 1.24.371a.7.7 0 0 1 .25.45c.03.203 0 .506-.194.942ZM16.296 12.683c-.32-.72-.843-1.005-1.296-1.005s-.976.285-1.296 1.005c-.194.435-.224.739-.194.941a.7.7 0 0 0 .25.45c.294.256.807.371 1.24.371s.946-.115 1.24-.37a.7.7 0 0 0 .25-.45c.03-.203 0-.507-.194-.942ZM17.71 11.269c-.72-.32-1.005-.843-1.005-1.296s.286-.977 1.005-1.296c.436-.194.739-.224.942-.194a.7.7 0 0 1 .45.25c.255.294.37.807.37 1.24s-.115.946-.37 1.24a.7.7 0 0 1-.45.25c-.203.03-.506 0-.942-.194ZM12.29 11.269c.72-.32 1.005-.843 1.005-1.296s-.286-.977-1.005-1.296c-.436-.194-.739-.224-.942-.194a.7.7 0 0 0-.45.25c-.255.294-.37.807-.37 1.24s.115.946.37 1.24a.7.7 0 0 0 .45.25c.203.03.506 0 .942-.194Z" stroke="#fff"/><circle cx="15" cy="10" r="4.5" stroke="#fff"/><circle cx="15" cy="10" r="1.5" stroke="#fff"/><rect x="6.5" y="16.5" width="3" height="2" rx=".5" stroke="#fff"/><rect x="12.5" y="16.5" width="3" height="2" rx=".5" stroke="#fff"/><rect x="15.5" y="16.5" width="3" height="2" rx=".5" stroke="#fff"/><rect x="9.5" y="16.5" width="3" height="2" rx=".5" stroke="#fff"/></svg>