<svg width="22" height="22" fill="none" xmlns="http://www.w3.org/2000/svg"><path d="M6.5 3a.5.5 0 0 1 .5-.5h9a.5.5 0 0 1 .5.5v18a.5.5 0 0 1-.5.5h-2.8a.5.5 0 0 1-.294-.096l-.524-.38a1.5 1.5 0 0 0-1.764 0l-.524.38a.5.5 0 0 1-.294.096H7a.5.5 0 0 1-.5-.5z" stroke="#fff"/><rect x="7.5" y=".5" width="2" height="2" rx=".5" stroke="#fff"/><rect x="11.5" y=".5" width="2" height="2" rx=".5" stroke="#fff"/><rect x="13.5" y=".5" width="2" height="2" rx=".5" stroke="#fff"/><rect x="9.5" y=".5" width="2" height="2" rx=".5" stroke="#fff"/><rect x="8.5" y="4.5" width="6" height="6" rx=".5" stroke="#fff"/><rect x="8.5" y="12.5" width="6" height="2" rx=".5" stroke="#fff"/><rect x="8.5" y="16.5" width="6" height="2" rx=".5" stroke="#fff"/></svg>