<svg width="22" height="22" fill="none" xmlns="http://www.w3.org/2000/svg"><g clip-path="url(#prefix__a)"><path fill-rule="evenodd" clip-rule="evenodd" d="M1 18.342q.09-.126.204-.24L2 17.306V4.912l-1-1zM3.765 21h14.323l-.014-.014-.986-.986H4.785l-.842.842q-.085.086-.178.158M20 17.433l.814.813q.102.103.186.216V3.785l-1 1zM17.306 2l1-1H3.546q.094.073.181.16l.84.84z" fill="#fff"/><path fill-rule="evenodd" clip-rule="evenodd" d="M18.324 5.769q.299.416.548.866l2.385-2.385A2.5 2.5 0 1 0 17.722.715l-2.393 2.393q.45.248.87.544l2.23-2.23a1.5 1.5 0 1 1 2.121 2.121zm.56 9.575q-.249.45-.546.868l2.17 2.17a1.5 1.5 0 0 1-2.122 2.12l-2.168-2.168q-.418.297-.868.547l2.33 2.329a2.5 2.5 0 1 0 3.535-3.536zm-12.25 3.529q-.449-.25-.865-.549l-2.11 2.11a1.5 1.5 0 1 1-2.121-2.121l2.114-2.114a9 9 0 0 1-.545-.87L.83 17.606a2.5 2.5 0 0 0 3.536 3.535zM3.12 6.65q.25-.45.547-.868l-2.171-2.17A1.5 1.5 0 0 1 3.616 1.49l2.172 2.172q.417-.297.868-.546L4.323.783A2.5 2.5 0 1 0 .788 4.318z" fill="#fff"/><path d="M13.5 6.5c0 .23-.09.54-.279.92a8 8 0 0 1-.735 1.158 1.837 1.837 0 0 1-2.972 0 8 8 0 0 1-.735-1.158c-.19-.38-.279-.69-.279-.92 0-.677.266-1.154.684-1.475C9.616 4.692 10.249 4.5 11 4.5c.75 0 1.384.192 1.816.525.418.321.684.798.684 1.475ZM13.5 15.5c0-.23-.09-.54-.279-.92a8 8 0 0 0-.735-1.158 1.837 1.837 0 0 0-2.972 0c-.29.39-.55.786-.735 1.158-.19.38-.279.69-.279.92 0 .677.266 1.154.684 1.475.432.333 1.065.525 1.816.525.75 0 1.384-.192 1.816-.525.418-.321.684-.798.684-1.475ZM15.5 13.5c-.23 0-.54-.09-.92-.279a8 8 0 0 1-1.158-.735 1.837 1.837 0 0 1 0-2.972c.39-.29.786-.55 1.158-.735.38-.19.69-.279.92-.279.677 0 1.154.266 1.475.684.333.432.525 1.065.525 1.816 0 .75-.192 1.384-.525 1.816-.321.418-.798.684-1.475.684ZM6.5 13.5c.23 0 .54-.09.92-.279a8 8 0 0 0 1.158-.735 1.837 1.837 0 0 0 0-2.972 8 8 0 0 0-1.158-.735c-.38-.19-.69-.279-.92-.279-.677 0-1.154.266-1.475.684C4.692 9.616 4.5 10.249 4.5 11c0 .75.192 1.384.525 1.816.321.418.798.684 1.475.684Z" stroke="#fff"/><path fill-rule="evenodd" clip-rule="evenodd" d="M11 19a8 8 0 1 0 0-16 8 8 0 0 0 0 16m0 1a9 9 0 1 0 0-18 9 9 0 0 0 0 18m0-3a6 6 0 1 0 0-12 6 6 0 0 0 0 12m0 1a7 7 0 1 0 0-14 7 7 0 0 0 0 14m1-7a1 1 0 1 1-2 0 1 1 0 0 1 2 0m1 0a2 2 0 1 1-4 0 2 2 0 0 1 4 0" fill="#fff"/><circle cx="2.5" cy="2.5" r=".5" fill="#fff"/><circle cx="2.5" cy="19.5" r=".5" fill="#fff"/><circle cx="19.5" cy="19.5" r=".5" fill="#fff"/><circle cx="19.5" cy="2.5" r=".5" fill="#fff"/></g><defs><clipPath id="prefix__a"><path fill="#fff" d="M0 0h22v22H0z"/></clipPath></defs></svg>