<svg width="24" height="24" fill="none" xmlns="http://www.w3.org/2000/svg"><path d="M21 13v-.1 0c0-.815 0-1.223-.062-1.612a5 5 0 0 0-.893-2.155c-.231-.319-.52-.607-1.096-1.184l-.585-.585c-2.652-2.651-3.977-3.977-5.582-4.231a5 5 0 0 0-1.564 0c-1.605.254-2.93 1.58-5.582 4.231v0C4.482 8.518 3.904 9.096 3.545 9.801a5 5 0 0 0-.3.725C3 11.279 3 12.096 3 13.728V18a3 3 0 0 0 3 3v0a3 3 0 0 0 3-3v-1a3 3 0 0 1 3-3v0a3 3 0 0 1 3 3v1a3 3 0 0 0 3 3v0a3 3 0 0 0 3-3v-1" stroke="#1D2129" stroke-width="1.5" stroke-linecap="round" stroke-linejoin="round"/></svg>