<svg width="22" height="22" fill="none" xmlns="http://www.w3.org/2000/svg"><g clip-path="url(#prefix__a)"><path d="M13.933 13.2h2.2a.367.367 0 0 0 .367-.367v-2.2a.366.366 0 0 0-.367-.366h-2.2a.367.367 0 0 0-.367.366v2.2a.367.367 0 0 0 .367.367M14.3 11h1.467v1.467H14.3zm-9.167 6.6h-2.2a.367.367 0 0 0-.367.367v2.2a.366.366 0 0 0 .367.366h2.2a.366.366 0 0 0 .367-.366v-2.2a.367.367 0 0 0-.367-.367m-.367 2.2H3.3v-1.467h1.466zm6.967-5.867a.367.367 0 0 0-.367.367v2.2a.367.367 0 0 0 .367.367h2.2a.367.367 0 0 0 .367-.367v-2.2a.367.367 0 0 0-.367-.367zm1.833 2.2H12.1v-1.466h1.467zm6.234-5.866h-2.2a.367.367 0 0 0-.367.366v2.2a.367.367 0 0 0 .367.367h2.2a.367.367 0 0 0 .366-.367v-2.2a.367.367 0 0 0-.366-.366m-.367 2.2h-1.466V11h1.466zm-4.4 1.833v2.2a.367.367 0 0 0 .367.367h2.2a.367.367 0 0 0 .366-.367v-2.2a.365.365 0 0 0-.366-.367h-2.2a.367.367 0 0 0-.367.367m.734.367h1.466v1.466h-1.466zm3.623-6.601h-8.023V2.2c0-.809.657-1.467 1.466-1.467S14.3 1.391 14.3 2.2v1.833c0 1.213.987 2.2 2.2 2.2s2.2-.987 2.2-2.2v-2.2a.367.367 0 0 0-.733 0v2.2c0 .81-.658 1.467-1.467 1.467a1.47 1.47 0 0 1-1.467-1.467V2.2c0-1.213-.987-2.2-2.2-2.2s-2.2.987-2.2 2.2v5.866H2.61a2.246 2.246 0 0 0-2.243 2.243v9.448A2.246 2.246 0 0 0 2.609 22h16.78a2.245 2.245 0 0 0 2.244-2.243v-9.448a2.245 2.245 0 0 0-2.243-2.243M20.9 19.758a1.51 1.51 0 0 1-1.51 1.51H2.611a1.51 1.51 0 0 1-1.51-1.51V10.31A1.51 1.51 0 0 1 2.61 8.8h16.78c.833 0 1.51.678 1.51 1.51zM15.4 17.6H6.6a.367.367 0 0 0-.367.367v2.2a.366.366 0 0 0 .367.366h8.8a.367.367 0 0 0 .367-.366v-2.2a.366.366 0 0 0-.367-.367m-.367 2.2H6.966v-1.467h8.067zm-12.1-6.6h2.2a.367.367 0 0 0 .367-.367v-2.2a.366.366 0 0 0-.367-.366h-2.2a.367.367 0 0 0-.367.366v2.2a.367.367 0 0 0 .367.367M3.3 11h1.466v1.467H3.3zm1.1 2.933a.367.367 0 0 0-.367.367v2.2a.367.367 0 0 0 .367.367h2.2a.367.367 0 0 0 .366-.367v-2.2a.367.367 0 0 0-.366-.367zm1.833 2.2H4.766v-1.466h1.467zM6.6 13.2h2.2a.367.367 0 0 0 .366-.367v-2.2a.366.366 0 0 0-.366-.366H6.6a.366.366 0 0 0-.367.366v2.2a.366.366 0 0 0 .367.367m.366-2.2h1.467v1.467H6.966zm3.3 2.2h2.2a.366.366 0 0 0 .367-.367v-2.2a.366.366 0 0 0-.367-.366h-2.2a.366.366 0 0 0-.366.366v2.2a.366.366 0 0 0 .367.367m.367-2.2H12.1v1.467h-1.467zm-2.567 2.933a.367.367 0 0 0-.366.367v2.2a.367.367 0 0 0 .366.367h2.2a.367.367 0 0 0 .367-.367v-2.2a.367.367 0 0 0-.366-.367zm1.834 2.2H8.433v-1.466H9.9zm9.167 1.467h-2.2a.367.367 0 0 0-.367.367v2.2a.366.366 0 0 0 .366.366h2.2a.366.366 0 0 0 .367-.366v-2.2a.367.367 0 0 0-.366-.367m-.367 2.2h-1.467v-1.467H18.7z" fill="#fff"/></g><defs><clipPath id="prefix__a"><path fill="#fff" d="M0 0h22v22H0z"/></clipPath></defs></svg>