<svg width="24" height="24" viewBox="0 0 24 24" fill="none" xmlns="http://www.w3.org/2000/svg">
<path fill-rule="evenodd" clip-rule="evenodd" d="M5.00008 2C3.89551 2 3.00008 2.89543 3.00008 4V15.5357L0.81332 19.5187C0.447433 20.1852 0.929627 21 1.6899 21H22.3103C23.0705 21 23.5527 20.1852 23.1868 19.5187L21.0001 15.5357V4C21.0001 2.89543 20.1046 2 19.0001 2H5.00008ZM10 18.5C10 18.2239 10.2239 18 10.5 18H13.5C13.7761 18 14 18.2239 14 18.5C14 18.7761 13.7761 19 13.5 19H10.5C10.2239 19 10 18.7761 10 18.5ZM7 13V6H17V13H7ZM5 5C5 4.44772 5.44772 4 6 4H18C18.5523 4 19 4.44772 19 5V15H5V5Z" fill="#BEBEBE"/>
</svg>
