<svg xmlns="http://www.w3.org/2000/svg" width="32" height="32" fill="none" data-c="1"><path fill="#fff" fill-rule="evenodd" d="M4 9.345A5.345 5.345 0 0 1 9.344 4h5.561a5.345 5.345 0 0 1 5.345 5.345v1.064a1.14 1.14 0 1 1-2.282 0V9.345a3.063 3.063 0 0 0-3.063-3.063H9.344a3.063 3.063 0 0 0-3.062 3.063v12.697a3.063 3.063 0 0 0 3.062 3.063h5.573a3.05 3.05 0 0 0 3.051-3.05v-1.076a1.14 1.14 0 0 1 2.282 0v1.076a5.333 5.333 0 0 1-5.334 5.332H9.345A5.345 5.345 0 0 1 4 22.042z" clip-rule="evenodd"/><path fill="#fff" fill-rule="evenodd" d="M11.982 15.694c0-.63.51-1.141 1.14-1.141H26.86a1.14 1.14 0 0 1 0 2.281H13.123c-.63 0-1.141-.51-1.141-1.14" clip-rule="evenodd"/><path fill="#fff" fill-rule="evenodd" d="M22.71 11.563a1.14 1.14 0 0 1 1.614-.004l3.34 3.325a1.14 1.14 0 0 1 0 1.617l-3.34 3.327a1.14 1.14 0 1 1-1.61-1.617l2.528-2.518-2.528-2.517a1.14 1.14 0 0 1-.004-1.614" clip-rule="evenodd"/></svg>