<svg width="101" height="32" viewBox="0 0 101 32" fill="none" xmlns="http://www.w3.org/2000/svg">
<path fill-rule="evenodd" clip-rule="evenodd" d="M88.5288 0.562835L98.9417 6.5664C100.182 7.28422 100.9 8.52409 100.9 9.99235V22.0321C100.9 23.4678 100.182 24.7402 98.9417 25.4581L88.5288 31.4616C87.2884 32.1795 85.8521 32.1795 84.579 31.4616L74.1661 25.4581C72.9257 24.7402 72.2075 23.5004 72.2075 22.0321V9.99235C72.2075 8.55672 72.9257 7.28422 74.1661 6.5664L84.579 0.562835C85.8521 -0.187612 87.2884 -0.187612 88.5288 0.562835ZM81.7391 11.95H83.5998V24.9686L86.5702 28.1662L89.5407 24.9686V11.95H91.4013C92.0215 11.95 92.5112 11.4606 92.5112 10.8407C92.5112 10.2207 92.0215 9.73133 91.4013 9.73133H87.6474V6.99057C88.0718 6.66429 88.3329 6.14224 88.3329 5.58756C88.3329 4.60872 87.5168 3.79302 86.5376 3.79302C85.5583 3.79302 84.7422 4.60872 84.7422 5.58756C84.7422 6.14224 85.0034 6.66429 85.4277 6.99057V9.73133H81.6738C81.0536 9.73133 80.564 10.2207 80.564 10.8407C80.5966 11.4606 81.1189 11.95 81.7391 11.95Z" fill="#E70017"/>
<path fill-rule="evenodd" clip-rule="evenodd" d="M34.636 9.33958C34.8645 9.33958 35.0604 9.30696 35.2236 9.2417C35.3868 9.17644 35.55 9.07856 35.6806 8.94805C35.8112 8.81754 35.9417 8.6544 36.0397 8.49125C36.1376 8.29549 36.2355 8.09972 36.3335 7.83869L37.7697 3.6623H36.7578L36.2029 5.55473C36.1702 5.75049 36.105 5.94626 36.0723 6.14203C36.0397 6.3378 35.9744 6.53357 35.9417 6.72934H35.9091C35.8438 6.53357 35.8112 6.3378 35.7459 6.14203C35.6806 5.94626 35.648 5.75049 35.5827 5.58735L34.9298 3.69493H33.8526L35.4195 7.67555L35.3542 7.90395C35.2889 8.06709 35.191 8.23023 35.093 8.36074C34.9625 8.49125 34.7993 8.52388 34.6034 8.52388C34.5708 8.52388 34.5055 8.52388 34.4402 8.49125C34.3749 8.49125 34.3423 8.45863 34.3096 8.45863L34.1138 9.27433C34.2117 9.30696 34.277 9.30696 34.3749 9.33958C34.4076 9.33958 34.5381 9.33958 34.636 9.33958ZM38.4226 9.37221C38.2594 9.37221 38.1288 9.37221 38.0309 9.33958C37.9329 9.30696 37.835 9.30696 37.7371 9.27433L37.9329 8.49125C38.0635 8.52388 38.1614 8.55651 38.2594 8.55651C38.4226 8.55651 38.5531 8.49125 38.6184 8.39337C38.6837 8.29549 38.7164 8.09972 38.7164 7.87132V3.62967H39.7936V7.80606C39.7936 8.03446 39.7609 8.23023 39.7283 8.426C39.6956 8.62177 39.5977 8.78491 39.4998 8.91542C39.4019 9.04593 39.2713 9.17644 39.0754 9.2417C38.8796 9.33958 38.6837 9.37221 38.4226 9.37221ZM39.2386 2.97711C39.4345 2.97711 39.5651 2.91185 39.6956 2.81397C39.8262 2.71608 39.8915 2.55294 39.8915 2.3898C39.8915 2.22666 39.8262 2.06352 39.6956 1.96564C39.5651 1.86775 39.4345 1.8025 39.2386 1.8025C39.0428 1.8025 38.9122 1.86775 38.7816 1.96564C38.6511 2.06352 38.5858 2.22666 38.5858 2.3898C38.5858 2.55294 38.6511 2.68345 38.7816 2.81397C38.9122 2.94448 39.0428 2.97711 39.2386 2.97711ZM40.9687 7.1535V7.74081H44.1677V6.85985H42.2744L44.1024 4.21697V3.62967H41.1645V4.478H42.764L40.9687 7.1535ZM44.9837 9.37221C45.2449 9.37221 45.4734 9.33958 45.6366 9.2417C45.7998 9.17644 45.963 9.04593 46.0609 8.91542C46.1588 8.78491 46.2568 8.62177 46.2894 8.426C46.3221 8.23023 46.3547 8.03446 46.3547 7.80606V3.62967H45.2775V7.83869C45.2775 8.06709 45.2449 8.23023 45.1796 8.36074C45.1143 8.45863 44.9837 8.52388 44.8205 8.52388C44.7226 8.52388 44.592 8.49125 44.4941 8.45863L44.2982 9.2417C44.3962 9.27433 44.4614 9.30696 44.592 9.30696C44.7226 9.37221 44.8531 9.37221 44.9837 9.37221ZM45.8324 2.97711C46.0283 2.97711 46.1588 2.91185 46.2894 2.81397C46.42 2.71608 46.4853 2.55294 46.4853 2.3898C46.4853 2.22666 46.42 2.06352 46.2894 1.96564C46.1588 1.86775 46.0283 1.8025 45.8324 1.8025C45.6366 1.8025 45.506 1.86775 45.3754 1.96564C45.2449 2.06352 45.1796 2.22666 45.1796 2.3898C45.1796 2.55294 45.2449 2.68345 45.3754 2.81397C45.506 2.94448 45.6366 2.97711 45.8324 2.97711ZM48.4438 7.80606C48.6397 7.80606 48.8029 7.74081 48.9335 7.6103C49.064 7.47978 49.1293 7.31664 49.1293 7.12087C49.1293 6.92511 49.064 6.76197 48.9335 6.63145C48.8029 6.50094 48.6397 6.43569 48.4438 6.43569C48.248 6.43569 48.0848 6.50094 47.9868 6.63145C47.8563 6.76197 47.791 6.92511 47.791 7.12087C47.791 7.31664 47.8563 7.47978 47.9868 7.6103C48.0848 7.74081 48.248 7.80606 48.4438 7.80606ZM52.1651 7.80606C52.3936 7.80606 52.6221 7.77344 52.8506 7.67555C53.0791 7.6103 53.3076 7.47978 53.5034 7.31664L53.0791 6.59883C52.9811 6.69671 52.8506 6.76197 52.72 6.82722C52.5894 6.89248 52.4588 6.92511 52.2956 6.92511C52.0019 6.92511 51.7734 6.82722 51.5775 6.59883C51.3816 6.37043 51.2837 6.07678 51.2837 5.68524C51.2837 5.2937 51.3816 5.00005 51.5775 4.77165C51.7734 4.54326 52.0345 4.41274 52.3283 4.41274C52.4588 4.41274 52.5568 4.44537 52.6547 4.478C52.7526 4.51063 52.8506 4.57588 52.9485 4.67377L53.4708 3.98858C53.3076 3.85807 53.1443 3.76018 52.9485 3.6623C52.7526 3.56441 52.5241 3.53179 52.2956 3.53179C52.0345 3.53179 51.7407 3.56441 51.5122 3.6623C51.2511 3.76018 51.0552 3.89069 50.8594 4.08646C50.6635 4.28223 50.5329 4.478 50.4024 4.77165C50.3044 5.03268 50.2392 5.32633 50.2392 5.68524C50.2392 6.01152 50.3044 6.30517 50.4024 6.5662C50.5003 6.82722 50.6309 7.05562 50.8267 7.21876C50.9899 7.41453 51.2184 7.54504 51.4469 7.64292C51.6101 7.77344 51.8713 7.80606 52.1651 7.80606ZM56.0822 7.80606C56.3433 7.80606 56.5718 7.77344 56.8003 7.67555C57.0288 7.57767 57.2573 7.44716 57.4205 7.25139C57.5837 7.05562 57.7469 6.85985 57.8449 6.59883C57.9428 6.3378 58.0081 6.04415 58.0081 5.71787C58.0081 5.39159 57.9428 5.06531 57.8449 4.80428C57.7469 4.54326 57.5837 4.31486 57.4205 4.11909C57.2573 3.92332 57.0288 3.79281 56.8003 3.69493C56.5718 3.59704 56.3107 3.56441 56.0822 3.56441C55.821 3.56441 55.5925 3.59704 55.3314 3.69493C55.1029 3.79281 54.8744 3.92332 54.7112 4.11909C54.548 4.31486 54.3848 4.51063 54.2868 4.80428C54.1889 5.06531 54.1236 5.35896 54.1236 5.71787C54.1236 6.04415 54.1889 6.3378 54.2868 6.59883C54.3848 6.85985 54.548 7.08825 54.7112 7.25139C54.8744 7.44716 55.1029 7.57767 55.3314 7.67555C55.5599 7.77344 55.821 7.80606 56.0822 7.80606ZM56.0822 6.92511C55.821 6.92511 55.5925 6.82722 55.4293 6.59883C55.2661 6.37043 55.2008 6.07678 55.2008 5.68524C55.2008 5.2937 55.2661 5.00005 55.4293 4.77165C55.5925 4.54326 55.7884 4.41274 56.0822 4.41274C56.3433 4.41274 56.5718 4.54326 56.735 4.77165C56.8982 5.00005 56.9635 5.2937 56.9635 5.68524C56.9635 6.07678 56.8982 6.37043 56.735 6.59883C56.5718 6.82722 56.3433 6.92511 56.0822 6.92511ZM59.2485 3.62967V7.70818H60.293V4.90216C60.5868 4.60851 60.848 4.44537 61.0765 4.44537C61.2723 4.44537 61.4029 4.51063 61.5008 4.64114C61.5987 4.77165 61.6314 5.00005 61.6314 5.2937V7.70818H62.7086V4.90216C63.0024 4.60851 63.2635 4.44537 63.492 4.44537C63.6879 4.44537 63.8184 4.51063 63.9164 4.64114C64.0143 4.77165 64.0469 5.00005 64.0469 5.2937V7.70818H65.1241V5.16319C65.1241 4.64114 65.0262 4.2496 64.8304 3.95595C64.6345 3.6623 64.3081 3.53179 63.8837 3.53179C63.6226 3.53179 63.3941 3.59704 63.1656 3.72755C62.9697 3.85807 62.7739 4.02121 62.578 4.21697C62.4801 3.98858 62.3495 3.82544 62.1537 3.69493C61.9905 3.56441 61.7293 3.49916 61.4355 3.49916C61.1744 3.49916 60.9459 3.56441 60.75 3.69493C60.5542 3.82544 60.3583 3.98858 60.1951 4.15172H60.1625L60.0972 3.59704H59.2485V3.62967ZM34.734 1.3457H64.2101C66.0055 1.3457 67.4744 2.81397 67.4744 4.60851V6.5662C67.4744 8.36074 66.0055 9.82901 64.2101 9.82901H34.734C32.9386 9.82901 31.4697 8.36074 31.4697 6.5662V4.60851C31.4697 2.81397 32.9386 1.3457 34.734 1.3457Z" fill="white"/>
<path fill-rule="evenodd" clip-rule="evenodd" d="M40.5766 25.0663C40.6746 25.1316 40.7072 25.1968 40.8051 25.36C41.0336 25.7515 41.8823 26.7956 42.1761 26.9914C42.2741 27.0566 42.2414 26.9914 42.3393 27.0893C42.4046 27.1545 42.4373 27.1545 42.4373 27.2524C42.3393 27.3503 42.1108 27.546 42.0129 27.6113C41.7191 27.8723 40.9031 28.5249 40.5766 28.6228C40.5766 28.3617 40.6093 28.4596 40.4787 28.3617L40.5766 28.3291C40.5766 28.2639 40.5766 28.2312 40.5766 28.166V28.1333C40.5766 28.1007 40.5766 28.1007 40.5766 28.1007C40.5766 28.0028 40.6093 28.0681 40.5114 27.9376C40.7072 27.8397 40.544 27.9702 40.6093 27.7418C40.6746 27.546 40.5766 27.4155 40.6093 27.0566C40.6093 26.5019 40.6746 26.1757 40.6419 25.5884V25.1968C40.5766 25.1968 40.5766 25.0663 40.5766 25.0663ZM44.1347 24.1201C44.1673 24.1201 44.1673 24.0875 44.2652 24.0875C44.3632 24.2506 44.4285 24.0875 44.2326 24.6421C44.2 24.7727 44.0367 25.0989 43.9715 25.1642C43.743 25.0663 43.4818 24.8705 43.286 24.7727L42.7637 24.479C42.6658 24.4137 42.6658 24.4464 42.6005 24.3485C42.829 24.3485 42.7963 24.2506 43.0575 24.2506C43.188 24.2506 43.3186 24.1854 43.4492 24.0875L43.5471 24.1854C43.6777 24.0875 43.5145 24.0548 43.7756 24.1201C43.8083 23.957 43.743 24.0222 44.102 23.9243C44.1347 23.9896 44.102 23.957 44.2 23.9896L44.1347 24.1201ZM41.4253 23.8264C41.458 23.7286 41.458 23.7286 41.6212 23.6633C41.7518 23.598 41.7191 23.5002 41.8497 23.598C41.7518 23.6959 41.7844 23.6307 41.6865 23.7612C41.5886 23.8591 41.5233 23.8917 41.4253 23.8264ZM49.7165 28.166C49.6839 28.1334 49.6513 28.1007 49.6186 28.0681C49.586 28.0355 49.5207 28.0028 49.4554 27.9702C48.8678 27.5787 48.4108 27.5134 47.6927 27.1219C46.9419 26.763 46.3544 26.5346 45.6036 26.0778C45.5057 26.0125 45.4077 25.9473 45.2772 25.882L44.9181 25.6862C44.6896 25.5557 44.4611 25.4252 44.2652 25.2947V25.2621L44.3305 25.1316C44.3632 25.0011 44.2326 25.1642 44.3958 24.6095C44.4285 24.479 44.4611 24.3811 44.5264 24.2506C44.559 24.1854 44.559 24.1854 44.5917 24.0875C44.7549 23.6307 44.8528 23.7286 45.1792 23.5002L45.6362 23.2391C45.8974 23.2065 45.7668 23.3044 46.1912 22.9781C46.4523 22.7823 46.6481 22.7497 46.7134 22.2277C46.7134 22.1298 46.6808 21.9014 46.6481 21.8361L46.4523 21.5425C46.3217 21.3793 45.9953 21.3467 45.7015 21.3467L45.6036 21.2488C45.5057 21.3793 45.6036 21.3467 45.5709 21.412C45.5057 21.5425 45.5709 21.3793 45.4404 21.4446L45.2445 21.4772C45.114 21.4772 45.1792 21.4772 45.0813 21.5425C44.7875 21.3467 44.9507 21.5098 44.657 21.3793C44.6243 21.412 44.5917 21.4446 44.559 21.4446C44.3958 21.5751 44.2979 21.7382 44.0368 21.9014L43.8082 22.0645C43.8082 21.9014 43.9062 21.6404 43.7756 21.4772L43.743 21.4446C43.9388 21.1509 43.7756 21.2488 43.6777 20.9878C43.645 20.8899 43.645 20.9552 43.645 20.8573C43.645 20.792 43.645 20.9225 43.645 20.792C43.645 20.7268 43.645 20.792 43.645 20.7594C43.6124 20.6941 43.6124 20.792 43.6124 20.6289C43.6777 20.5963 43.6777 20.5963 43.743 20.5636C43.8083 20.531 43.8083 20.531 43.8735 20.4984C43.9062 20.4657 43.9715 20.4657 44.0041 20.4331L44.0694 20.3679C44.1347 20.3352 44.3305 20.3352 44.4611 20.2047C44.559 20.1395 44.7222 20.1068 44.8528 20.0742C44.9834 20.0416 45.0487 20.009 45.1466 19.9763L45.5709 19.8458C45.6689 19.8132 45.6362 19.8458 45.6689 19.7806L45.7015 19.7479C45.7668 19.8458 45.8321 19.7806 45.8974 19.7479C45.9953 19.7153 46.1585 19.65 46.2564 19.6827C46.4523 19.7153 46.3544 19.5522 46.5176 19.6827C46.6808 19.8132 46.387 19.65 46.5829 19.7153C46.6481 19.6827 46.6481 19.65 46.7134 19.65H46.844C47.0399 19.6174 46.7787 19.65 46.9093 19.6174H47.2357C47.1378 19.4543 47.1378 19.6827 47.1378 19.4869C47.3336 19.5848 47.4316 19.5522 47.4642 19.5195H47.5621C47.6274 19.5195 47.5621 19.5195 47.6274 19.4869C47.758 19.4543 47.758 19.4869 47.8886 19.4216C48.0518 19.3238 48.0518 19.1933 48.1171 19.0301C48.1497 18.9322 48.1497 18.9975 48.1823 18.8996C48.215 18.8343 48.2476 18.7038 48.2803 18.6386C48.3129 18.4428 48.1823 18.3449 48.1823 18.1492L48.2476 18.0186C48.0844 17.986 48.0518 17.9534 48.0844 17.8229C47.9212 17.8229 47.8233 17.6924 47.3989 17.5945C47.301 17.5618 47.2031 17.5618 47.1051 17.5618C46.844 17.5292 46.9746 17.3987 46.6481 17.4313C46.3544 17.464 46.3544 17.464 46.0606 17.4313C46.0932 17.3661 46.0932 17.2682 46.1259 17.1703C46.1585 17.0398 46.1912 17.1051 46.2238 16.9419C46.2564 16.844 46.2238 16.8114 46.2891 16.7135L46.387 16.583C46.5829 16.6156 46.4849 16.583 46.6481 16.583C46.7134 16.583 46.6808 16.6156 46.7461 16.583C46.844 16.5504 46.7134 16.5177 46.9093 16.5504C47.2031 16.583 47.3989 16.6483 47.5948 16.5504C47.8233 16.4525 48.1171 16.7461 48.4108 16.4525C48.4761 16.3872 48.4108 16.4199 48.4761 16.3872L48.5741 16.322C48.7373 16.2241 48.7373 16.1262 48.7699 15.9631C48.8026 15.8326 48.8025 15.8652 48.8678 15.7673C48.9658 15.6042 48.8678 15.5063 49.031 15.3758C48.9331 15.3105 48.8678 15.18 48.8352 15.0495C48.7699 14.8537 48.7699 14.8211 48.7699 14.6253C48.5088 14.4622 48.7046 14.5274 48.5741 14.3643C48.4108 14.1685 48.0844 14.2338 47.8886 14.1685C47.758 14.1359 47.6601 14.1033 47.5295 14.1033C47.2684 14.038 47.1051 13.9075 46.844 13.9075C46.6481 13.9075 46.6808 13.9728 46.4849 13.8749C46.0932 13.6465 46.4197 13.516 46.2238 13.0592C46.1585 12.9287 46.1912 13.0265 46.1585 12.8634C46.1259 12.6676 46.0279 12.6024 45.8974 12.4719C45.8647 12.4066 45.8647 12.374 45.7994 12.3414C45.7015 12.2761 45.2772 12.113 45.1139 12.1456C44.9507 12.1782 45.0813 12.1782 44.9507 12.1782C44.8528 12.2108 44.8528 12.1782 44.7875 12.1782C44.5264 12.2108 44.6896 12.2761 44.4611 12.3414C44.4285 12.2435 44.4285 12.0803 44.2652 12.2108C44.1673 12.3087 44.1673 12.374 44.1673 12.5045C44.2652 12.5371 44.2326 12.5045 44.2979 12.5371C44.2 12.7329 44.2326 12.6024 44.1347 12.7329C44.102 12.7655 44.102 12.7655 44.102 12.7981C44.102 12.7981 44.102 12.7981 44.102 12.8308C44.102 12.8308 44.102 12.8308 44.102 12.8634L44.0368 12.9939C44.0041 13.0918 44.0041 13.2223 44.0041 13.3202C44.0367 13.516 44.0367 13.4507 44.102 13.3855V13.777C44.102 13.8749 44.102 13.8749 44.102 13.9728C44.102 14.038 44.0694 14.1359 44.0041 14.2012C43.9715 14.2012 43.3513 14.3643 43.286 14.3969C42.829 14.4948 42.3067 14.6579 41.8823 14.8537L41.1969 15.1147C41.2621 15.18 41.2621 15.18 41.2621 15.2453C41.1316 15.3105 41.0663 15.2779 40.9031 15.3758C40.9357 15.5389 40.9357 15.4084 41.001 15.5063C41.0663 15.6694 40.9031 15.5063 41.0663 15.6368C41.3927 15.9304 41.3601 16.061 41.8497 16.4199L42.7637 17.1051C42.829 17.1377 42.8616 17.1703 42.9269 17.2029C42.9922 17.2356 43.0248 17.3008 43.0575 17.3335C43.1554 17.3987 43.286 17.464 43.3839 17.5618C43.4818 17.6597 43.5145 17.8229 43.4165 17.9208C43.3839 17.9534 42.829 18.1818 42.6658 18.247C42.2741 18.4102 41.9803 18.6059 41.6538 18.8017C41.5559 18.867 41.4253 18.9322 41.2621 18.867C41.1642 18.9649 41.2295 18.9649 41.1316 18.9975L41.0663 18.8343C40.9684 18.867 41.0663 18.8017 41.0336 18.867L41.001 18.9322C40.9357 18.9322 40.8704 18.867 40.8051 18.867C40.5766 18.867 40.8051 18.8996 40.6093 18.9322C40.544 18.9649 40.4461 18.9322 40.3808 18.8996C40.1523 18.8343 40.2829 18.7038 39.9238 18.867L39.8585 18.8996C39.8585 19.128 40.0217 19.1606 40.0544 19.3564C40.1197 19.5522 40.1849 19.6174 40.3155 19.7479C40.544 19.9763 40.3808 20.5636 40.5114 20.8899C40.4787 20.9225 39.8585 21.0857 39.7932 21.0857C39.7932 20.8899 39.8585 20.8247 39.8912 20.6289L39.8259 20.5963C39.8585 20.4984 39.9238 20.4005 39.8585 20.27C39.8259 20.2047 39.8259 20.3352 39.7932 20.1395C39.7606 20.0416 39.7932 19.7806 39.8259 19.6827C39.7606 19.5848 39.7279 19.2911 39.8259 19.2259L39.7606 19.1606C39.6953 19.0954 39.7606 18.8996 39.7932 18.8017C39.7932 18.7038 39.7932 18.7691 39.8259 18.7038C39.8912 18.5407 39.8585 18.6386 39.8259 18.5407C39.8259 18.4754 39.8259 18.4428 39.8259 18.3776L39.9238 17.4966C39.8912 17.3661 39.8912 17.3661 39.9238 17.2029C39.9238 17.0398 39.8585 17.1051 39.8912 16.9419C39.9238 16.7461 39.9891 16.9745 39.9891 16.6809C39.9891 16.5177 39.9564 16.4851 39.9564 16.3546C39.9564 16.2241 40.0217 15.9631 40.0217 15.7999C40.0544 15.6042 40.0544 15.3758 40.0217 15.2126C39.9891 15.1147 40.0544 15.1147 40.0544 14.9842C40.087 14.5927 39.9238 14.7885 40.0217 14.4948C40.0217 14.4948 40.0217 14.4948 40.0217 14.4622C40.087 14.2664 40.0217 14.299 40.1196 14.2012C40.0544 14.038 40.0544 14.2664 40.0217 14.038C40.0544 13.8749 40.087 13.9401 40.0544 13.7117C40.0544 13.6138 40.0217 13.4507 40.0217 13.3202C39.9564 13.2876 39.8912 13.3855 39.9564 13.0265C40.0217 12.7329 40.087 12.5371 39.8259 12.2761C39.63 12.0477 39.5974 11.9172 39.2709 11.8193L38.8792 11.6888C38.5855 11.5909 38.5528 11.6888 38.3243 11.6562C38.2264 11.6562 38.1937 11.6235 38.0958 11.6235C38.0305 11.754 38.0632 11.7867 37.9 11.7867C37.9326 11.9172 37.9979 11.8193 37.9326 12.0477C37.9 12.1782 37.9 12.1782 37.9652 12.3414C38.0958 12.7329 38.1937 12.374 38.0632 12.9939C37.9652 13.516 37.8673 13.9728 37.8673 14.5274C37.7694 14.4948 37.7367 14.4296 37.6388 14.3643C37.5409 14.299 37.4756 14.2664 37.3777 14.2012C37.345 14.1685 37.2798 14.1359 37.2471 14.1359C37.0839 14.0706 36.8554 14.0706 36.6922 14.0054C35.8435 13.7444 35.4844 13.8749 35.158 13.7444C35.0927 13.8422 35.0601 13.8096 35.0274 13.9401C34.9948 14.1359 35.0601 14.038 34.9621 14.2338C34.8642 14.3969 34.8969 14.5601 34.8969 14.7885C35.0274 14.8211 35.0274 14.8211 35.0601 14.919C35.0927 15.0495 35.1906 15.0495 35.2559 15.18C35.3212 15.2779 35.4191 15.3431 35.5171 15.4084L36.4637 16.322C36.6269 16.4851 37.3124 17.0724 37.5083 17.1703C37.5083 17.1703 37.5082 17.1703 37.5409 17.1703C37.4103 17.3987 36.7575 17.7576 36.529 17.9534C36.1699 18.2144 35.7782 18.4102 35.4518 18.6712L34.3746 19.389C34.1787 19.5195 33.8849 19.7806 33.6564 19.7479L33.0362 19.7153C33.0036 19.7806 33.0362 19.7153 33.0036 19.7806C32.6772 20.2047 33.0689 20.1395 33.1015 20.4331C33.1342 20.6289 33.0689 20.6615 33.2974 20.7594C33.5912 20.8899 33.5585 20.8573 33.7544 21.0531L34.3093 21.5098C34.4399 21.6077 34.4725 21.673 34.7336 21.673C34.8969 21.673 35.1254 21.673 35.2886 21.6077C35.6803 21.412 35.7456 21.412 35.9088 21.0531C35.9741 20.9225 36.072 20.8247 36.1699 20.7268L36.5616 20.1068C36.5943 20.0416 36.529 20.1068 36.5943 20.0416C36.7575 19.8458 36.888 19.7806 36.986 19.5522C37.0186 19.4869 37.0513 19.4216 37.0839 19.3564C37.1818 19.2259 37.2471 19.0954 37.3124 18.9649L37.1818 18.8996C37.2471 18.8343 37.3124 18.8017 37.345 18.7038C37.3777 18.6059 37.4103 18.5733 37.5409 18.5081L37.5735 19.9111C37.5735 20.4331 37.6388 20.8573 37.6388 21.3141L37.6715 21.8361C37.7367 22.2603 37.802 22.195 37.4756 22.5213C37.2798 22.6845 37.0839 22.815 36.9207 23.0107C36.8228 23.1086 36.7575 23.2065 36.6595 23.2718L36.7575 23.3044C36.8228 23.337 36.7901 23.3044 36.888 23.337C36.888 23.4349 36.8554 23.4675 36.7901 23.5328C37.0186 23.7286 37.5735 23.8591 37.7041 23.9896C37.6388 24.0875 37.5409 24.1527 37.4756 24.2506L37.2471 24.5116C37.2145 24.5769 37.2145 24.5769 37.1492 24.6421L36.0067 26.2409C35.9414 26.3388 35.9088 26.4693 35.8108 26.5346L35.1906 27.4155C35.158 27.4482 35.158 27.5134 35.1254 27.5787L34.9948 27.8397C34.8969 27.9376 34.8642 27.905 34.8316 28.0355C34.7989 28.1334 34.7989 28.1334 34.7663 28.1986C34.7336 28.2639 34.701 28.2965 34.701 28.3944C34.6684 28.4923 34.701 28.5249 34.6357 28.5901C34.6031 28.6554 34.5704 28.688 34.6031 28.7533C34.7336 28.6554 34.5704 28.7533 34.6357 28.6554C34.701 28.5575 34.6684 28.6554 34.7663 28.5901C34.7663 28.5901 34.7989 28.5249 34.8316 28.4923C34.9621 28.3291 34.9621 28.4596 34.9948 28.4596L34.8316 28.7533L34.9295 28.9164L35.0274 28.8185C35.0274 28.8185 35.0601 28.7859 35.0927 28.7859C35.158 28.7533 35.158 28.7533 35.1906 28.688V28.5575L35.3212 28.5901C35.2886 28.7207 35.2233 28.7207 35.3212 28.8185L35.4191 28.688C35.4191 28.688 35.4191 28.688 35.4191 28.6554C35.4518 28.5901 35.4191 28.5901 35.4844 28.5575L35.5171 28.688C35.5497 28.7533 35.5497 28.6554 35.5171 28.7533L35.4844 28.8512C35.4191 29.0796 35.4844 28.8838 35.4844 28.9491C35.4844 29.0143 35.4518 29.0143 35.4518 29.1448C35.5497 29.0796 35.615 28.9817 35.6803 28.9164L36.072 29.0469C36.1699 28.8838 36.2678 28.7859 36.3005 28.6228C36.2026 28.5575 36.2352 28.6554 36.2026 28.5249C36.431 28.5249 36.3984 28.5575 36.529 28.5575C36.3658 28.427 36.5943 28.2965 36.6922 28.1333L36.7248 28.0355C36.7248 27.9376 36.7248 28.0681 36.7248 27.9702C36.6922 27.8723 36.6922 28.0355 36.6922 27.8723C36.7575 27.8723 36.7248 27.8723 36.7575 27.905C36.9207 28.0028 36.8554 27.9702 36.888 27.8723C36.9207 27.8397 36.888 27.8723 36.9207 27.8071C36.9207 27.7744 36.9533 27.7744 36.9533 27.7418C36.9533 27.7092 36.9207 27.7092 36.888 27.6766C37.2798 27.5134 36.986 27.5134 37.1492 27.3829C37.2145 27.3176 37.2471 27.3503 37.2798 27.3503L37.3124 26.9914C37.443 26.9914 37.4103 26.9587 37.5083 26.8609C37.6388 26.7303 37.4103 26.9261 37.5409 26.8282L37.8347 26.5019C37.8673 26.4367 37.8673 26.4367 37.9326 26.4041C38.0958 26.3388 37.9979 26.2735 38.1611 26.1104C38.259 26.0452 38.1937 25.9473 38.3243 25.8494L38.4875 25.6862C38.5528 25.7841 38.4549 26.0778 38.3896 26.2083C38.3243 26.3062 38.4222 26.2736 38.259 26.3714C38.3243 26.4693 38.357 26.4041 38.357 26.5019C38.3243 26.6977 38.3243 27.1545 38.3243 27.3829L38.357 28.7533C38.3243 28.9817 38.2264 29.2427 38.3243 29.4711C38.357 29.6016 38.357 29.6342 38.357 29.6995C38.4222 29.83 38.4222 29.7974 38.357 29.9605L38.6181 30.3194C38.716 30.4826 38.716 30.3847 38.7813 30.5478L38.9445 30.8415C39.0098 30.9067 39.0424 30.9394 39.0751 31.0046C39.173 31.2004 39.1077 31.2656 39.4015 31.2983L39.4342 31.1351C39.6953 31.1351 39.5321 31.1351 39.6627 31.2656C39.9238 31.2656 39.9238 31.233 39.9238 31.0046C40.0544 30.9394 39.9891 31.0046 40.087 30.8741L40.1849 30.8089C40.1849 30.8089 40.1849 30.8089 40.2176 30.8089H40.2502C40.3155 30.6131 40.2502 30.6783 40.4134 30.5805L40.8051 30.2868C41.0989 29.9932 41.0336 29.9605 41.1316 29.8626L41.4253 29.5364C41.5233 29.4058 41.5559 29.4058 41.6212 29.3406C41.6865 29.2753 41.6538 29.2753 41.6865 29.2101C41.7191 29.1448 41.7518 29.1774 41.7844 29.1122L41.6212 29.0796C41.6865 29.0143 41.7518 28.9817 41.8171 28.9164L42.1435 28.5249C42.2414 28.3944 42.2088 28.3944 42.2741 28.2639C42.3067 28.1986 42.5026 27.8723 42.5678 27.8397C42.6331 27.7744 42.6658 27.7092 42.6984 27.6113C42.731 27.546 42.7637 27.4155 42.8616 27.3829L43.8735 28.1007C44.657 28.5901 44.6243 28.6228 45.6689 29.0796C45.7994 29.1448 46.1585 29.1448 46.2891 29.1122C46.387 29.1122 46.3544 29.0796 46.4849 29.0796H46.5176L46.844 29.0469C47.301 29.0469 48.0518 28.8185 48.3129 28.7859C48.4108 28.7859 48.4108 28.8185 48.5088 28.7859C48.6067 28.7207 48.5414 28.688 48.672 28.6228L48.8352 28.5575C48.8352 28.5575 48.8352 28.5575 48.8678 28.5575C48.8678 28.5575 48.8678 28.5575 48.9005 28.5575C48.9984 28.5249 48.9984 28.5249 49.129 28.5575C49.1616 28.5249 49.1616 28.5249 49.1943 28.4923C49.2595 28.4596 49.1943 28.4596 49.2922 28.427C49.2269 28.3944 49.1943 28.3617 49.1616 28.2965C49.2595 28.2312 49.2595 28.2639 49.3575 28.3291C49.4228 28.3944 49.4228 28.3291 49.488 28.3944V28.3617L49.586 28.2312C49.7165 28.3291 49.586 28.2965 49.7818 28.2965C49.7165 28.1333 49.7818 28.0681 49.6839 27.9376C49.7165 28.1986 49.7492 28.2639 49.7165 28.166Z" fill="white"/>
<path fill-rule="evenodd" clip-rule="evenodd" d="M18.7063 25.7516C18.7389 25.6211 18.7716 25.6864 18.8042 25.5559L18.9021 25.6211C18.9021 25.6211 18.9021 25.6211 18.9021 25.6538L19.0653 25.5885C19.0001 25.719 18.8368 25.8169 18.7063 25.7516ZM19.9793 20.3354C20.3058 20.2701 20.1752 20.3354 20.469 20.3354C20.6648 20.368 20.5669 20.3027 20.6975 20.2701C20.7954 20.2375 20.8607 20.2375 20.9586 20.2049C20.9586 20.6617 20.926 20.629 20.8607 20.9879C20.828 21.1511 20.828 21.0858 20.7954 21.2163L20.5342 22.652L20.5016 23.5656C20.4363 23.6961 20.371 23.8266 20.2405 23.8918L20.2078 23.2066C20.2078 22.9456 20.2731 22.7172 20.3058 22.4562C20.3384 21.9668 20.371 21.3795 20.3384 20.89C20.3384 20.7595 20.1752 20.5311 20.0773 20.4333L20.012 20.368C19.9467 20.3354 20.012 20.4006 19.9793 20.3354ZM22.2643 21.249C22.199 21.2163 22.199 21.1511 22.0358 20.9227C21.8726 20.6617 21.5135 20.4985 21.285 20.3027L21.2197 20.2375C21.1545 20.2049 21.1871 20.2375 21.1545 20.1722C21.2197 20.1396 21.3503 20.107 21.383 20.107L22.1664 19.8786C22.5254 19.7807 23.0151 19.7154 23.2436 19.6176C23.2762 19.7154 23.2762 19.7481 23.2109 19.9438C23.1783 20.0743 22.6234 20.7922 22.5254 20.8574C22.4928 20.89 22.4928 20.89 22.4928 20.89L22.4602 20.9227L22.2643 21.249ZM19.1959 12.9614C19.2612 13.0267 19.2612 12.9614 19.2938 13.0919C19.1959 13.2877 19.098 13.3856 19.0327 13.5814L18.2166 14.6907C18.0208 14.9517 17.8249 15.1801 17.6617 15.4412L17.0089 16.4526C17.0089 16.4526 17.0089 16.4526 17.0089 16.4853C16.8456 16.7789 16.6172 17.2357 16.4539 17.5294C16.4213 17.5946 16.4213 17.562 16.3887 17.6272C16.2254 17.9209 16.1275 18.2145 15.9969 18.5082C15.9317 18.6713 15.9317 18.5735 15.8664 18.7692C15.8664 18.8019 15.5726 19.487 15.4747 19.846C15.442 20.0417 15.442 20.2701 15.4747 20.4659C15.5073 20.8248 15.5073 20.7269 15.6705 20.9227L15.7032 20.9879C15.7684 20.9227 15.7358 20.89 15.8337 20.89L15.9643 20.9879C15.9969 20.9879 16.0296 20.9879 16.1275 21.0206C16.1275 20.9879 16.1928 20.8574 16.1928 20.8574C16.2254 20.7922 16.4213 20.6617 16.4866 20.6943C16.5845 20.7269 16.5192 20.7595 16.6498 20.7922C16.6824 20.7269 16.7151 20.7269 16.7477 20.6617C16.7477 20.6617 16.7804 20.5964 16.7804 20.5638C16.813 20.4985 16.7477 20.5311 16.8456 20.4985C16.9436 20.5311 16.9762 20.5964 16.9109 20.7269C16.8783 20.7922 16.8456 20.7922 16.8456 20.8248V20.9553C17.0415 20.89 16.9762 20.7269 17.1394 20.629C17.2374 20.6617 17.2374 20.7269 17.3026 20.7922C17.3679 20.7595 17.4006 20.7595 17.4659 20.7595C17.4985 20.8248 17.4659 20.8248 17.4985 20.89C17.6617 20.89 17.5638 20.89 17.6617 20.8248L17.7923 20.7269C17.8249 20.6617 17.8576 20.629 17.8902 20.5964C17.9229 20.5638 18.0208 20.5311 18.0861 20.4659L18.1187 20.4006C18.2166 20.2701 18.3146 20.1396 18.3798 19.9765C18.5104 19.9765 18.5431 19.9765 18.6083 20.0743C18.6083 20.3027 18.4451 20.6943 18.3798 20.9227C18.184 21.6731 18.0534 21.6731 17.9228 22.6193C17.7923 23.6961 17.9229 23.8266 17.8902 24.2834C17.8902 24.4139 17.9229 24.577 17.9555 24.7075C18.0534 24.9359 18.0534 25.2296 18.2493 25.3601C18.3798 25.4254 18.3472 25.3601 18.4451 25.5232C18.5431 25.6864 18.5431 25.6211 18.641 25.719C18.5431 25.8495 18.641 25.6864 18.5757 25.7843C18.4451 25.9474 18.6083 26.0453 18.184 26.1432C18.0208 26.1758 18.0534 26.2411 17.9228 26.3063L17.3026 26.6652C17.1068 26.7631 16.9762 26.861 16.813 26.9589L16.356 27.2852C16.1928 27.4157 16.0949 27.5136 15.9317 27.6441C15.7684 27.8072 15.5073 28.0356 15.4094 28.264C15.3441 28.3619 15.3115 28.4598 15.2788 28.5577C15.3115 28.6555 15.3767 28.6555 15.4094 28.7534C15.442 28.8513 15.4094 28.9166 15.3767 29.0471C15.3441 29.3081 15.5073 29.3734 15.6052 29.4712C15.8011 29.6996 15.6705 29.6344 16.0296 29.7323C16.1928 29.7649 16.2581 29.7975 16.356 29.8954L16.4213 29.9607C16.4213 29.9607 16.4213 29.9607 16.4213 29.9933C16.4866 30.0912 16.8456 30.0585 16.9436 30.0259C17.1394 29.9607 17.4006 29.7975 17.5311 29.6017C17.6944 29.406 17.5311 29.3734 17.8249 29.1776C17.9228 29.0471 17.8902 29.0471 18.0534 29.0471L18.0208 28.9492C18.1513 28.8839 18.184 28.9166 18.2819 28.8513C18.7716 28.5903 18.8042 28.8187 19.1633 28.4924C19.2612 28.3945 19.2612 28.4271 19.3918 28.3619C19.5876 28.264 20.0773 27.9377 20.2078 27.8072C20.371 27.6441 20.371 27.6441 20.5995 27.5136C20.7301 27.4483 20.8933 27.3178 21.0239 27.2852C21.4482 27.122 21.1871 27.2199 21.4482 26.9915C21.5135 26.9262 21.8073 26.8284 21.9052 26.7631C21.9705 26.7305 22.0358 26.6978 22.1011 26.6652C22.199 26.6326 22.2643 26.6 22.3622 26.5673L23.9291 25.7516C23.9944 25.719 23.9617 25.719 24.027 25.719C24.1576 25.6864 24.3208 25.5232 24.4187 25.4254L24.4513 25.3927L24.5819 25.2622C24.6472 25.197 24.5819 25.2622 24.6146 25.2296L24.7451 25.0991C24.8104 25.0338 24.7778 25.0991 24.8431 25.0338L24.6798 24.9686C24.7125 24.8054 24.6798 24.9033 24.6798 24.7728C24.0596 24.7728 23.7985 24.6097 22.8519 24.6097C22.8192 24.6097 22.6887 24.6423 22.5907 24.6423C22.6234 24.5444 22.5907 24.6097 22.6234 24.5118C22.7213 24.2507 22.6887 24.4465 22.8519 24.2507L22.9498 24.1529C23.0477 24.0876 22.9824 24.1855 23.0151 24.055C22.9824 24.055 22.9172 24.0876 22.8845 24.055C22.9824 23.9571 22.9498 23.9245 23.0477 23.8918C23.0804 23.8918 23.0477 23.9245 23.0804 23.8592L23.5374 23.2066C23.6026 23.1414 23.6026 23.0761 23.6679 23.0109C23.8311 22.8477 23.9291 22.6193 24.0596 22.4562L24.3208 22.0647C24.3534 21.9994 24.3861 21.9341 24.4187 21.8363C24.4513 21.7384 24.484 21.7384 24.5166 21.6405C24.7778 20.9879 24.5166 21.249 24.7451 20.89C24.6472 20.629 24.3861 20.3027 24.1249 20.1722C23.9291 20.0417 23.8964 19.8786 23.57 19.7481C23.5047 19.7154 23.4068 19.6828 23.3415 19.6176C23.4394 19.5197 23.6353 19.4544 23.7332 19.3565C23.9291 19.1934 23.9291 19.226 24.1902 19.1608C24.0923 19.0955 24.027 19.0955 23.9617 18.965L23.9291 18.8345C23.9291 18.7366 24.0923 18.5082 24.1249 18.4429C23.9291 18.3777 23.8638 18.3124 23.7985 18.1493C23.7332 18.0188 23.7006 18.084 23.6679 17.9535V17.9209C23.6353 17.8883 23.57 17.8556 23.5374 17.8556C23.2762 17.7578 23.4068 17.9209 23.2762 17.7251C23.2109 17.6272 23.113 17.5946 23.0151 17.562C22.8192 17.5294 22.5581 17.3662 22.3622 17.3988C22.2969 17.3988 22.2969 17.4315 22.199 17.4315C22.1337 17.4315 22.0032 17.4641 21.9705 17.4641C21.5135 17.4967 21.8073 17.4641 21.2524 17.562C20.7301 17.6599 20.2405 17.7251 19.7508 17.9861C19.6855 18.0188 19.7182 18.0188 19.6203 18.0514C19.555 18.084 19.5223 18.0514 19.457 18.084C19.3918 18.1167 19.4244 18.1167 19.3265 18.1819C19.3591 17.9862 20.469 16.3547 20.6648 16.2895C21.1545 16.3221 21.6115 16.4853 21.9705 16.6484C22.7539 16.9747 23.5047 17.3662 24.2881 17.6925C24.5493 17.7904 24.6146 17.8556 24.941 17.8556C25.5286 17.8556 25.2348 17.6599 25.6591 17.7578C25.7244 17.562 25.6918 17.5294 25.9203 17.5946C25.8876 17.4967 25.8223 17.4315 25.855 17.3336C25.9203 17.2031 25.9203 17.2683 26.0182 17.2031L26.214 16.9747L25.8876 16.4853C25.6591 16.0937 25.5612 16.0937 25.2674 15.8653C25.1695 15.8001 25.1695 15.7348 25.0389 15.6696L24.5166 15.3433C24.4187 15.278 24.3208 15.278 24.2229 15.2128C24.1249 15.1475 24.027 15.1475 23.9291 15.0823C23.57 14.8865 23.0804 14.7233 22.656 14.6907C22.3622 14.6581 22.1337 14.6907 21.9379 14.5602C21.9705 14.3644 22.0684 14.3318 22.0684 14.0055C22.0684 13.7445 22.1011 13.6792 21.9379 13.4508C21.742 13.1246 21.4156 12.9288 21.0892 12.8309C20.8607 12.7657 20.6975 12.733 20.5016 12.7004C20.1425 12.6351 19.7508 12.1457 19.5223 12.472C19.457 12.5699 19.4244 12.6351 19.3918 12.7004L19.2612 12.8635C19.2286 12.9288 19.2285 12.9288 19.1959 12.9614Z" fill="white"/>
<path fill-rule="evenodd" clip-rule="evenodd" d="M52.2956 21.1835C52.3609 21.2161 52.3936 21.2487 52.4915 21.2487C52.5894 21.2487 52.6221 21.2487 52.72 21.2814L53.5687 21.3793C53.6993 21.3793 53.8625 21.314 53.9931 21.314C53.9931 21.4445 53.6666 21.8687 53.5687 22.0318C53.5361 22.0971 53.5361 22.1623 53.5034 22.2602C53.4381 22.4234 53.3076 22.4886 53.177 22.717C52.8179 23.3043 52.7853 23.2391 52.5568 23.5327C52.4915 23.598 52.4915 23.6306 52.4262 23.6632L52.3283 23.7937C52.2956 23.859 52.3936 23.7937 52.263 23.859C52.2304 23.859 52.2304 23.859 52.1977 23.859C52.1651 23.7285 52.3609 23.6632 52.1977 23.6958C52.0671 23.7285 52.1651 23.6959 52.1324 23.7611L51.6754 24.5116C51.5122 24.7399 51.5449 24.9031 51.2511 25.1315C51.0879 25.262 51.1858 25.3599 50.9573 25.5557C50.7941 25.7188 50.9247 25.6209 50.8267 25.7514L50.6635 25.9146C50.5656 26.0451 50.6309 25.9472 50.5656 26.143C50.5003 26.3061 50.435 26.4366 50.4677 26.6324C50.5003 26.7955 50.4677 26.7629 50.5656 26.8608C50.5982 26.7955 50.5982 26.7629 50.6309 26.7303L50.7614 26.5997C50.8267 26.6324 50.8594 26.665 50.892 26.6976V26.7303C50.892 26.8934 50.9573 26.7955 50.9247 26.9587C50.9247 27.0239 50.892 27.0239 50.892 27.0892C50.9247 27.0565 50.9573 27.0239 51.0226 26.9913C51.1858 26.8934 51.0226 26.9587 51.1205 26.9913C51.1205 26.9913 51.1205 27.1218 51.1532 26.9913C51.1858 26.8934 51.0552 26.926 51.0226 26.7955C51.1532 26.7303 51.0226 26.7629 51.1532 26.7303C51.5449 26.665 51.2837 26.665 51.5122 26.5997C51.5775 26.8281 51.5449 26.7629 51.4796 26.8608H51.6428C51.6428 26.7303 51.6428 26.7955 51.5775 26.6976C51.9039 26.6976 51.6102 26.7303 51.8713 26.5997C52.0345 26.5019 52.0345 26.5997 52.1977 26.4692L52.3283 26.3714C52.6547 26.0777 52.4589 26.143 52.5894 26.0124C52.72 25.8493 52.6221 25.9472 52.6547 25.8493L52.7526 25.7188C52.8179 25.6209 53.0791 25.4251 53.1443 25.2946C53.2749 25.0989 53.0791 25.262 53.3402 25.0989C53.3076 25.001 53.3402 25.1315 53.3076 25.001C53.4381 25.001 53.3728 25.001 53.4381 24.9357C53.5034 24.8705 53.4708 24.9031 53.5361 24.8378L53.8298 24.5768C53.8951 24.5116 54.1236 24.381 54.2216 24.381C54.2868 25.0662 54.2542 24.8378 54.2216 24.9031C54.2216 24.9357 54.1889 24.9031 54.1889 24.9683L54.2542 26.1756C54.2542 26.3061 54.2542 26.2735 54.2542 26.3714C54.2542 26.4692 54.2868 26.665 54.2868 26.7955C54.2868 26.9587 54.2542 27.0892 54.2542 27.2197C54.2542 27.5133 54.2542 27.807 54.2542 28.1006C54.2868 28.3943 54.2216 28.2638 54.2216 28.4922L54.2868 28.3617C54.2868 28.5248 54.2542 28.5248 54.2542 28.6879C54.2542 28.8185 54.2542 28.9163 54.2542 29.0469C54.2542 29.3405 54.1889 30.1562 54.2868 30.4172C54.3521 30.5477 54.3195 30.6783 54.4827 30.7435C54.5153 30.6783 54.4827 30.6456 54.548 30.5804C54.6133 30.613 54.8744 30.9393 55.1029 31.0698L55.3314 31.2003C55.3967 31.1024 55.364 31.1351 55.364 31.1024L55.4293 31.1351C55.821 31.2656 55.821 31.1024 55.8863 31.0045C55.9516 30.874 55.9516 30.9719 55.9842 30.8414C56.0169 30.7435 55.9842 30.7109 56.0495 30.613C56.1801 30.352 56.1148 30.3194 56.3433 30.091C56.1801 30.0257 56.4739 30.1888 56.278 30.0583C56.2127 30.0257 56.3107 30.0583 56.2454 30.0257C56.1475 29.9931 56.278 30.0583 56.2127 30.0257C56.2127 29.9604 56.2127 29.8952 56.2127 29.8626C56.1475 29.5363 56.2127 29.4384 56.2127 29.21C56.2127 29.1447 56.2127 29.0142 56.2127 28.949C56.2454 28.6879 56.1801 28.4596 56.1801 28.2638C56.1801 28.1006 56.2127 28.2312 56.2454 28.068C56.2454 28.0028 56.2454 28.1006 56.2454 28.0028C56.2454 27.9701 56.2454 27.9049 56.2454 27.8396C56.3107 27.8722 56.3107 27.9375 56.3433 27.9049C56.3433 27.9049 56.3433 27.9049 56.376 27.9049V27.7744C56.376 27.7417 56.376 27.7417 56.376 27.6765C56.376 27.6112 56.4412 27.5786 56.4412 27.5133C56.4086 27.4807 56.3433 27.4807 56.3107 27.5133C56.2454 27.5786 56.3433 27.7091 56.3107 27.807C56.3107 27.807 56.3107 27.807 56.3107 27.7744L56.2127 27.2849C56.2127 27.1544 56.2454 27.1871 56.3107 27.1871L56.2454 26.9913C56.2454 26.9913 56.2454 26.9587 56.2454 26.926C56.2454 26.8281 56.1475 26.7629 56.1475 26.6976C56.2127 26.5019 56.2127 26.7303 56.2127 26.5019C56.2127 26.3387 56.2454 26.4366 56.2454 26.2735C56.3433 26.2408 56.3107 26.3061 56.376 26.2408C56.376 26.0777 56.3433 25.9146 56.5392 25.8819V25.5883C56.4739 25.6862 56.5065 25.7514 56.4086 25.7514C56.376 25.6862 56.4086 25.6535 56.4739 25.5883C56.376 25.5557 56.4086 25.6209 56.3433 25.6209C56.278 25.6209 56.2127 25.5883 56.1475 25.5557C56.2127 25.2294 56.2127 25.262 56.4086 25.2294C56.5392 25.1967 56.5065 25.2946 56.5392 25.1315C56.5065 25.0989 56.5392 25.1315 56.4739 25.1315L56.376 25.0989L56.3107 25.0662C56.2454 25.0336 56.3107 25.0662 56.2454 25.001C56.3107 24.9357 56.278 24.9683 56.3107 24.9357H56.3433C56.3433 24.9357 56.3433 24.9357 56.376 24.9357V24.7073C56.278 24.8052 56.3433 24.7399 56.278 24.8705C56.2127 24.7726 56.2454 24.6747 56.2454 24.5442C56.5718 24.5442 57.1594 24.5768 57.4205 24.4137L57.7469 24.2179C57.8122 24.1853 57.8122 24.1526 57.9102 24.12C57.9102 23.8264 58.0081 23.8916 58.0407 23.6958C58.0081 23.598 58.0081 23.598 58.0081 23.5327C57.9754 23.3043 58.106 23.3696 57.8775 23.1085C57.5511 22.7496 57.0941 22.5539 56.6045 22.3907C56.278 22.2602 56.5065 22.1623 56.5065 21.9339C56.5065 21.836 56.5065 21.7055 56.5065 21.6403C56.5065 21.6077 56.5392 21.3793 56.5392 21.3466C56.5065 21.2161 56.4412 21.314 56.4086 21.1182C56.4086 20.9877 56.4412 21.053 56.4739 21.0203C56.5392 20.9225 56.5718 20.6941 56.6045 20.5309V20.4983C56.6371 20.433 56.735 20.4004 56.8003 20.3678C56.8656 20.3352 56.9309 20.3352 56.9962 20.3025L57.4205 20.172C57.6817 20.1068 57.9754 20.0741 58.2039 19.9436C58.4324 19.8131 58.8568 19.8131 58.9874 19.7152C59.1832 19.5521 59.0853 19.5195 59.1832 19.4216C59.2811 19.3237 59.4444 19.3237 59.5423 19.2911C59.4444 19.1605 59.4117 19.2258 59.2485 19.1605C59.0526 19.0953 59.2159 19.0627 59.02 18.9321C59.1179 18.8669 59.1832 18.8343 59.2485 18.769C59.3464 18.7038 59.3791 18.7038 59.5096 18.6711L59.2811 18.6385C59.2485 18.5732 59.3138 18.6059 59.3464 18.508C59.1179 18.508 59.1506 18.4754 59.02 18.2796L59.1179 18.247C58.9874 18.1817 58.9547 18.2796 58.9221 18.0838C58.7915 18.0838 58.6936 18.0512 58.563 17.9859L58.4651 17.8554C58.3019 17.6923 58.3345 17.7249 58.1713 17.7249C58.1713 17.7249 58.1713 17.7249 58.1387 17.7249C58.1387 17.7249 58.1386 17.7249 58.106 17.7249C58.106 17.7249 58.106 17.7249 58.0734 17.7249C58.0407 17.7249 58.0734 17.7249 58.0081 17.7249C57.9102 17.7249 57.8449 17.7902 57.6817 17.7249C57.5837 17.6923 57.4858 17.627 57.3552 17.6597C57.0288 17.7249 57.2899 17.8554 56.735 17.5618C56.6371 17.4965 56.5392 17.4965 56.4412 17.4313C56.5065 17.1376 56.4739 16.5503 56.4739 16.1261H56.3107L56.4412 15.7346C56.4412 15.7346 56.4412 15.7346 56.4086 15.7346L56.278 15.6693C56.3107 15.6041 56.3433 15.6041 56.376 15.5062C56.3107 15.4736 56.3433 15.5388 56.2454 15.5062C56.2454 15.3104 56.278 15.3431 56.3433 15.1799C56.2454 15.1147 56.2454 15.1147 56.2454 14.9841C56.2127 14.8536 56.2454 14.9189 56.1148 14.821C56.2454 14.7558 56.2127 14.7884 56.3433 14.6905C56.2454 14.6579 56.2454 14.6579 56.2127 14.5926L56.0495 14.1684C56.0495 14.1684 56.0495 14.1684 56.0495 14.1358L55.919 14.0053C55.8537 13.9727 55.7557 13.94 55.7231 13.9074C55.6905 13.8748 55.7558 13.8748 55.6252 13.8422C55.5599 13.8095 55.5599 13.8422 55.4946 13.8095C55.364 13.7769 55.4293 13.7443 55.2988 13.679C55.1682 13.6464 55.2008 13.6464 55.0703 13.6138C54.9397 13.7117 55.0376 13.7117 54.8091 13.7117C54.6785 13.7117 54.5806 13.7117 54.4827 13.7443C54.3848 14.0053 54.548 13.9727 54.6133 14.1032C54.548 14.1684 54.5806 14.1358 54.4827 14.2011C54.3848 14.299 54.4174 14.2337 54.3848 14.3642L54.2542 14.6905C54.2215 14.821 54.2542 14.7884 54.2868 14.8863C54.3521 15.082 54.2868 15.3104 54.2868 15.5062C54.2868 15.6693 54.2542 15.8325 54.2542 15.963C54.2542 16.1914 54.3848 16.1588 54.3848 16.2566C54.3848 16.4198 54.3848 16.6808 54.2542 16.8439C54.2215 16.9092 54.2542 16.8766 54.1889 16.8766C54.1889 16.8766 54.1563 16.9092 54.1563 16.8766L54.1236 18.6059C53.8298 18.7038 53.1443 19.03 52.8832 19.1932C52.72 19.2911 52.0998 19.6826 52.0019 19.8131C51.9039 19.9436 51.806 20.0089 51.7081 20.1068C51.3817 20.5309 51.5775 20.3678 51.5122 20.5309C51.5122 20.5309 51.4796 20.5636 51.4469 20.5962C51.7407 20.6941 51.7081 20.7267 51.806 20.8246L52.0019 21.0203C52.0671 21.1835 52.1977 21.0856 52.2956 21.1835Z" fill="white"/>
<path fill-rule="evenodd" clip-rule="evenodd" d="M28.3686 13.5488C28.4013 13.6466 28.4013 13.614 28.4666 13.7119C28.5319 13.875 28.6298 13.875 28.6951 14.0382C28.6951 14.0382 28.6951 14.0382 28.6951 14.0708C28.7604 14.2013 28.8256 14.2666 28.8583 14.3971C29.0541 15.0496 29.0541 15.898 29.0215 16.6484C29.0215 16.7789 28.9889 16.7789 28.9889 16.9421C28.9889 17.04 28.9889 17.1052 28.9562 17.2357C28.8583 17.9535 29.0541 21.5426 29.0541 22.8478C29.0541 23.3046 29.0541 23.7287 29.0541 24.1855C29.0541 24.4139 29.0215 24.6097 29.0215 24.7728C29.0215 24.9033 29.0541 24.936 29.0215 25.0338C28.9236 26.0127 28.793 27.2852 28.4339 28.1335L28.3686 28.3945C28.336 28.4598 28.336 28.4598 28.336 28.525C28.2381 28.7208 28.0749 28.6882 27.8464 28.7208L25.9531 28.7534C25.4635 28.7534 25.3655 28.6882 24.9738 28.5577H24.8433C25.0065 28.7534 25.3003 28.7861 25.4961 28.9818C25.594 29.0797 25.5614 29.0797 25.7246 29.1124C25.9205 29.1776 26.1816 29.2755 26.3775 29.406C26.508 29.4713 26.4427 29.4713 26.508 29.5365C26.606 29.6344 26.508 29.5039 26.8345 29.6997C26.965 29.7975 27.0956 29.7975 27.1282 29.9933V30.0259C27.1609 30.1891 27.2914 29.9281 27.422 30.1565C27.4873 30.3196 27.4873 30.287 27.6832 30.3848C27.8137 30.4501 27.9117 30.4827 28.0096 30.548C28.0749 30.5806 28.0749 30.5806 28.1728 30.6459C28.2707 30.7111 28.2381 30.6785 28.3034 30.7764C28.4013 30.7764 28.4013 30.7764 28.4666 30.7438L28.5319 30.8416C28.5971 30.8743 28.5971 30.8743 28.6951 30.8743L28.7277 31.0374C28.793 31.0374 28.793 31.0048 28.8583 31.0374L28.9236 31.07C28.9562 31.07 29.0541 31.0048 29.1521 31.0048C29.4132 30.9069 29.3479 30.809 29.5438 30.7764C29.5764 30.8416 29.5111 30.809 29.6091 30.8416C29.6743 30.8416 29.6743 30.809 29.8049 30.8416C29.9681 30.8743 30.0987 30.6785 30.0661 30.6132C29.9355 30.4175 30.0987 30.7438 30.0334 30.548C30.2619 30.5154 30.3925 30.3848 30.5231 30.2217C30.6536 30.0912 30.7842 29.8954 30.8168 29.7323C30.8495 29.5691 30.98 29.3734 31.0453 29.1776L31.2412 28.5577C31.2738 28.4272 31.3391 28.2314 31.3718 28.1335C31.5023 27.6441 31.1433 27.9051 31.2738 27.6441L31.3391 27.5788C31.437 27.5136 31.4697 27.5136 31.535 27.4157C31.535 27.4157 31.4697 27.4157 31.437 27.4157H31.4044C31.4044 27.4157 31.4044 27.4157 31.3718 27.4157C31.3718 27.4157 31.3718 27.4157 31.3391 27.4157C31.3718 27.3178 31.4044 27.3178 31.4697 27.2199C31.535 27.122 31.535 26.9263 31.535 26.7958L31.6003 26.4368C31.6003 26.3716 31.6003 26.3063 31.6003 26.2411V26.1106C31.6329 25.9474 31.6982 25.7517 31.6982 25.5233C31.6982 25.458 31.6982 25.4254 31.6982 25.3275C31.6982 25.0338 31.7308 24.7402 31.7308 24.4792V22.2278C31.7635 22.0321 31.7635 21.6405 31.6655 21.4774H31.7635C31.7635 21.249 31.7308 21.0532 31.7308 20.8248C31.7308 20.6617 31.6982 20.3354 31.6982 20.1396L31.6655 19.4544C31.6329 19.1934 31.6329 18.9976 31.6329 18.704C31.6329 18.2798 31.6003 17.1052 31.535 16.6158L31.437 15.9306C31.4044 15.7348 31.3718 15.4738 31.3065 15.3107C31.2738 15.2454 31.2738 15.2454 31.2412 15.1802L31.078 14.756C30.8821 14.3645 30.3598 13.7119 30.0334 13.5161C30.0008 13.4835 29.9681 13.4835 29.9028 13.4509C29.8376 13.4182 29.8376 13.4182 29.7723 13.3856C29.4459 13.2225 28.8583 13.092 28.5319 13.2877C28.4339 13.3856 28.4339 13.4509 28.3686 13.5488Z" fill="white"/>
<path fill-rule="evenodd" clip-rule="evenodd" d="M64.2426 29.047C64.1773 28.9818 64.1447 28.9818 64.1447 28.8513C64.2426 28.8513 64.3079 28.8839 64.2752 28.9818C64.2752 29.1123 64.3079 28.9818 64.2426 29.047ZM68.4861 25.98C68.4208 25.7842 68.4208 25.8169 68.3882 25.6211C68.3882 25.4906 68.3556 25.2622 68.3229 25.1969H68.4208C68.1923 24.7075 68.3556 24.5444 68.225 24.2181C68.0944 23.8918 68.0944 23.6308 67.9965 23.5655C67.8986 23.5329 67.8986 23.5982 67.9638 23.4676C67.8986 23.435 67.8659 23.435 67.8006 23.4024L67.8659 23.2719C67.8006 23.2392 67.768 23.2066 67.7353 23.174C67.7353 23.174 67.7353 23.174 67.7353 23.1414C67.768 23.1414 67.768 23.1414 67.8006 23.1087L67.8333 23.0761C67.768 23.0435 67.768 23.0761 67.7353 23.0109C67.7027 22.9456 67.768 23.0108 67.7027 22.913L67.6048 21.8362C67.6048 21.7057 67.5721 21.6405 67.5721 21.5426C67.5721 21.4773 67.5721 21.51 67.5721 21.4121C67.5069 21.2163 67.5395 21.1184 67.5069 21.0532C67.4742 21.0205 67.5068 21.0532 67.4742 21.0205C67.4416 20.9227 67.4742 21.0532 67.4742 20.9879C67.5395 20.7269 67.4089 20.8248 67.4089 20.6616C67.3763 20.4659 67.4089 20.0417 67.4742 19.8786L67.3436 19.9112C67.3763 19.9764 67.3763 19.9764 67.3763 20.0743C67.3436 20.107 67.3763 20.0743 67.3436 20.0743H67.2784C67.311 20.2048 67.2784 20.1396 67.3763 20.1722C67.3763 20.2701 67.3763 20.368 67.311 20.4659C67.2784 20.368 67.311 20.4006 67.311 20.3353L67.2131 20.7921C67.4089 20.8574 67.2131 20.6943 67.3763 20.8574C67.3763 20.9227 67.3763 20.9227 67.3436 20.9227L67.311 21.0205C67.2784 21.0858 67.311 21.0532 67.2784 21.0858C67.2457 21.1184 67.2784 21.0858 67.2457 21.1184C67.2457 21.1184 67.2457 21.1184 67.2131 21.1184C67.2131 21.1184 67.2131 21.1184 67.1804 21.1184C67.1804 21.6078 67.1151 21.4121 67.0825 21.6078C67.1478 21.6405 67.1151 21.6405 67.2131 21.6078C67.1804 21.7057 67.2131 21.6405 67.1151 21.7384C67.2457 21.8362 67.1478 21.9015 67.1478 22.032C67.1151 22.293 67.2784 22.0973 67.1804 22.3257C67.1478 22.4562 67.1478 22.4562 67.1478 22.6193C67.1478 22.7172 67.1478 22.913 67.1478 22.9456C67.1151 23.174 67.0499 22.9456 67.0172 23.174C66.9846 23.3698 66.9846 23.6634 67.0172 23.8266C67.0499 24.0549 67.0825 23.8918 67.2131 24.0549L67.1151 24.0876C67.0499 24.1202 67.0499 24.0876 67.0172 24.1202V24.1855C67.0172 24.2833 66.9846 24.3812 66.9846 24.5117C66.9846 24.9685 66.9519 25.458 66.854 25.9148C66.7561 26.4694 66.0706 26.6978 65.5483 26.7305C65.3851 26.7305 65.1892 26.7305 65.026 26.6978L64.569 26.5999C64.2752 26.5347 64.0794 26.4042 63.8835 26.241C63.7203 26.1105 63.5245 25.8169 63.4918 25.5885C63.4918 25.4906 63.4592 25.5558 63.4592 25.4253C63.4265 25.2948 63.4265 25.3274 63.4265 25.2296C63.3939 25.0012 63.4265 24.9359 63.198 25.0012C63.0675 24.838 63.0348 24.6423 63.2307 24.5117C63.1654 24.3486 63.296 24.6423 63.198 24.4465C63.198 24.4139 63.198 24.4465 63.1654 24.3812L63.2633 24.3486C63.1654 24.2833 63.1328 24.3486 63.1328 24.2181C63.1328 24.0876 63.1654 24.1528 63.1654 24.0549C63.1654 23.9897 63.1654 24.0223 63.1654 23.9897C63.0675 23.7287 63.1654 23.8266 63.1654 23.696C63.1654 23.6308 63.1328 23.7613 63.1328 23.5982C63.1328 23.4024 63.296 23.4024 63.1654 23.2066L63.1328 23.174C63.1001 23.1087 63.0675 23.0435 63.1001 22.9782C63.1001 22.9782 63.1001 22.9782 63.1001 22.9456C63.1001 22.9456 63.1001 22.9456 63.1001 22.913C63.1328 22.8151 63.1328 22.8803 63.1001 22.7825C63.1654 22.7172 63.198 22.7498 63.2307 22.6846C63.2307 22.6519 63.2633 22.5214 63.2633 22.4888C63.2633 22.4235 63.2633 22.3257 63.2633 22.2604C63.2633 22.1951 63.2633 22.2278 63.296 22.1951C63.3286 22.1625 63.3286 22.1951 63.3286 22.1299H63.1654C63.1654 21.9994 63.198 22.032 63.2307 21.9668C63.198 21.8689 63.198 21.9668 63.1328 21.8362C63.2633 21.7384 63.2307 21.6078 63.2307 21.4773L63.3286 20.89C63.3613 20.7269 63.5245 20.4332 63.3613 20.2701C63.4918 20.2048 63.4592 20.3027 63.4592 20.1722C63.4592 20.107 63.4918 20.107 63.4265 20.0091C63.5245 19.9438 63.4918 20.0091 63.5245 19.9112C63.5571 19.8133 63.4918 19.8459 63.5898 19.748C63.5571 19.6502 63.5571 19.748 63.4918 19.6175C63.6224 19.487 63.6224 19.6175 63.655 19.4544C63.4592 19.3565 63.8183 19.487 63.6224 19.4544C63.5571 19.4544 63.6224 19.4544 63.5571 19.4218C63.5571 19.2586 63.5898 19.2586 63.6877 19.2586C63.6877 18.9976 63.753 19.1607 63.8835 18.9323C63.9162 18.8345 63.9488 18.6387 63.9815 18.5408C63.9162 18.5082 63.8835 18.5082 63.8509 18.4755C63.9488 18.1166 63.9162 18.0514 64.112 17.6925C64.1773 17.5946 64.21 17.3988 64.1773 17.2357C64.1447 17.1378 64.0467 16.9747 64.0467 16.8441C64.4058 16.5505 63.8183 16.0284 63.5245 15.9632C63.296 15.8979 63.4265 15.9632 63.2633 15.8327C63.1654 15.7674 63.0675 15.7674 62.9695 15.7022L62.4146 15.4085C62.0882 15.4411 62.1208 15.3106 61.5659 15.4411C60.7499 15.6369 60.3908 16.1916 60.0644 16.3873L59.9012 16.5505C59.8685 16.5831 59.8359 16.5831 59.8032 16.6484C59.8359 16.6484 59.8032 16.6484 59.9012 16.681C60.0317 16.7136 60.097 16.6157 60.2602 16.6484C60.3908 16.6484 60.5866 16.7463 60.7172 16.7789L61.2069 16.8441C61.4027 16.8441 61.468 16.8441 61.6965 16.9094C61.7618 17.2683 61.5659 18.1166 61.5659 18.6713H61.5333C61.5333 18.6713 61.5333 18.6713 61.5006 18.6713C61.5006 18.6713 61.5006 18.6713 61.468 18.6713C61.3701 18.6713 61.468 18.6387 61.4027 18.6713L61.468 18.7366C61.5333 18.8018 61.5006 18.7692 61.5006 18.8345L61.468 19.0302C61.3701 19.1934 61.3374 19.1934 61.3374 19.4218C61.3048 19.5849 61.3048 19.5196 61.2721 19.6502C61.2395 19.748 61.2721 19.8133 61.2395 19.9112C61.2069 20.107 61.2069 20.0091 61.2069 20.2701C61.2069 20.4006 61.1416 20.5311 61.1416 20.6943C61.0763 20.9879 61.1416 21.3468 61.0763 21.5752C61.011 21.9015 61.1416 21.4447 61.2069 21.7057C61.2069 21.7384 61.2069 21.771 61.2069 21.8036C61.1416 22.032 61.011 21.7057 61.0436 22.5867C61.0436 23.0108 61.0436 23.1414 61.1416 23.5655L61.3374 25.099C61.3701 25.2296 61.3701 25.1317 61.468 25.2296L61.3701 25.458C61.5659 25.5885 61.468 25.5885 61.5333 25.8495C61.5659 25.9474 61.5659 25.98 61.5986 26.0779C61.6312 26.1758 61.6312 26.1758 61.6965 26.2737C61.7944 26.4042 61.7618 26.5347 61.8597 26.6652C61.925 26.7631 61.925 26.7305 61.9903 26.861C62.0556 26.9915 62.0229 26.9262 62.1208 27.0241C62.2514 27.1546 62.1208 27.0567 62.1861 27.1872C62.2188 27.2525 62.2841 27.3178 62.3493 27.4156L62.4473 27.5135C62.5126 27.6114 62.6431 27.7419 62.6758 27.8398C62.839 28.264 63.0348 27.8724 63.198 28.1008C63.1328 28.1661 63.0675 28.1661 62.9695 28.1661C62.9695 28.264 63.0022 28.264 63.0022 28.3292C63.0022 28.3619 62.9369 28.3292 63.1001 28.4271C63.2307 28.525 63.3613 28.4924 63.4918 28.5903C63.655 28.7208 63.3286 28.6555 63.6224 28.7208L63.9162 28.786C64.0467 28.9492 63.9488 28.8513 64.1773 28.9165C64.2752 28.9492 64.3732 28.9818 64.5037 28.9818V28.9492C64.5364 28.9165 64.5037 28.9165 64.5364 28.9165L64.667 28.9818C64.6996 28.9165 64.6017 28.9818 64.6996 28.9165C64.8628 29.0144 64.667 28.9818 64.8302 29.0797C64.9607 29.0144 64.8302 29.0797 64.8955 28.9165C65.026 28.9165 64.9934 28.9492 65.1239 28.9492L64.9607 29.047C65.0587 29.047 65.1239 29.0797 65.1892 29.047C65.2219 29.0144 65.1892 29.047 65.2219 29.0144C65.2872 28.9492 65.2219 29.0144 65.2545 28.9492L65.2872 28.8513C65.3851 28.8513 65.4177 28.8839 65.4504 28.9165C65.4177 28.9492 65.3198 29.047 65.4177 29.047C65.5483 29.047 65.3851 28.9818 65.6136 28.9492C65.6136 28.9818 65.6136 29.0144 65.6136 29.0144V29.0797C66.2664 29.0797 66.4623 28.7534 66.854 28.7534C66.9519 28.6229 66.8214 28.7534 66.8866 28.6555C66.9193 28.6229 66.9519 28.6555 67.0172 28.5576L67.0825 28.3619C67.2457 28.4271 66.9519 28.2966 67.1478 28.3945C67.2131 28.4271 67.1804 28.4597 67.311 28.2966C67.3763 28.1987 67.4416 28.1335 67.5721 28.1335C67.5721 28.264 67.5395 28.1987 67.5069 28.2966C67.6374 28.3292 67.6701 28.3292 67.768 28.2313C67.8986 28.1335 67.8333 28.1661 67.8333 27.9377C67.9638 27.9377 67.9312 27.9051 67.9965 28.0029C68.0291 27.8724 68.0291 27.9051 68.0291 27.8072C68.0291 27.6767 68.0291 27.644 68.0944 27.6114C68.1597 27.644 68.1597 27.6767 68.225 27.7746C68.2576 27.7419 68.225 27.7746 68.2576 27.7093L68.2903 27.5135C68.3556 27.2851 68.1923 27.4483 68.3229 27.2525L68.4861 27.4483C68.4861 27.1872 68.4208 27.4156 68.4861 27.0241C68.4861 26.9915 68.4861 26.861 68.4861 26.8283C68.4535 26.6978 68.4208 26.7631 68.4208 26.6326C68.5841 26.6326 68.4861 26.6326 68.5514 26.6978C68.682 26.7957 68.4535 26.7631 68.5841 26.7305C68.6493 26.5999 68.5841 26.3715 68.5514 26.2737C68.4861 26.1431 68.3556 26.0126 68.4861 25.98Z" fill="white"/>
<path fill-rule="evenodd" clip-rule="evenodd" d="M8.783 19.5521L8.48922 19.5848C8.39129 19.5848 8.35865 19.5848 8.26072 19.5848C8.13015 19.5848 7.9343 19.5848 7.73844 19.5848C7.2488 19.5848 6.66124 19.6826 6.23689 19.7805C6.04103 19.8458 5.42082 19.911 5.0944 19.9763L3.36435 20.3026C3.00528 20.3026 3.29906 20.3026 3.07056 20.3678C3.00528 20.4005 2.93999 20.4005 2.87471 20.4005C2.67885 20.4005 2.67885 20.4005 2.58093 20.4983C2.41771 20.5962 2.45036 20.531 2.22186 20.531C2.22186 20.3026 2.12393 20.4005 2.09129 20.2047C2.05865 20.2373 2.05865 20.2373 1.96072 20.2373C2.026 20.3352 2.026 20.2699 1.99336 20.4005C1.96072 20.4983 1.96072 20.531 1.96072 20.6289C1.53637 20.6615 1.79751 20.6941 1.47108 20.6941C1.43844 20.792 1.47108 20.7594 1.43844 20.8572C1.30787 20.8246 1.4058 20.8246 1.34051 20.8246C1.34051 20.8246 1.34051 20.8246 1.30787 20.8246C1.1773 20.792 1.20994 20.8572 1.1773 20.8246L0.981445 20.9878C0.981445 21.0204 0.948802 21.053 0.948802 21.053C0.883517 20.9878 0.948802 20.9878 0.818232 20.9551L0.752947 21.0856C0.557093 20.9225 0.589735 21.053 0.491808 21.1835C0.426523 21.2814 0.426523 21.1835 0.39388 21.2814C0.328595 21.4119 0.361238 21.4119 0.230668 21.5424C0.328595 21.934 0.100098 21.7708 0.100098 22.195C0.230668 22.2603 0.328595 22.2276 0.459165 22.3255L1.1773 22.8802C1.30787 23.0107 1.24258 22.9128 1.4058 23.0433C1.43844 23.076 1.47108 23.1086 1.53637 23.1412L1.83015 23.3044C1.96072 23.4022 1.86279 23.3044 1.99336 23.337L2.45036 23.598C2.51564 23.5001 2.54828 23.5328 2.7115 23.5328C2.97264 23.5654 3.03792 23.6306 3.20113 23.5654H3.23378C3.29906 23.5328 3.36435 23.5328 3.42963 23.5328C3.7887 23.4022 3.52756 23.5001 3.75606 23.4675C3.85398 23.2717 3.75606 23.4022 4.04984 23.1412C4.40891 22.8149 4.21305 23.0107 4.44155 22.9128C4.53948 22.8802 4.44155 22.9128 4.57212 22.8476C4.70269 22.7823 5.02911 22.717 5.15968 22.6844C5.58404 22.5865 6.49803 22.3908 6.95502 22.3255C7.18352 22.2929 7.37937 22.2276 7.57523 22.195C7.7058 22.195 7.77108 22.195 7.90165 22.1624C8.22808 22.0971 8.06487 22.0971 8.39129 22.0971C8.61979 22.0971 8.52186 22.0319 9.14207 22.0319C9.37057 22.0319 9.53378 22.0319 9.82756 22.0319C10.2846 22.0319 10.9048 22.0645 11.3291 22.0319C11.7535 21.9666 12.896 22.0971 13.3529 22.2929L13.6467 22.3908C13.7773 22.4234 13.8426 22.456 13.9405 22.4887C14.4628 22.6518 14.1364 22.5213 14.7239 22.2276C14.8545 22.1624 14.8545 22.1624 14.8871 21.9992C14.9851 21.7382 15.0504 21.6403 14.9851 21.3793C14.9198 21.0204 14.8871 20.792 14.5934 20.5636L13.9405 19.9763C13.6467 19.6826 13.9732 19.911 13.5162 19.6174C13.3856 19.5521 13.3856 19.5195 13.2877 19.4216C13.1571 19.3237 13.1571 19.4216 12.9612 19.4216C12.6675 19.4216 12.8307 19.2585 12.5369 19.389C12.2105 19.5195 12.4063 19.3237 12.0799 19.4869C11.884 19.5848 11.2312 19.5195 11.0027 19.5195C10.3172 19.4542 9.46849 19.5521 8.783 19.5521Z" fill="white"/>
<path fill-rule="evenodd" clip-rule="evenodd" d="M26.1488 18.6057C26.1488 18.8015 26.1162 18.932 26.0835 19.0951C26.0509 19.2583 26.0182 19.4214 25.9856 19.5519C25.9203 19.7803 25.7571 20.3024 25.7571 20.4655C25.7571 20.7265 25.6918 20.9223 25.6592 21.1507V21.6727C25.6592 21.7706 25.6592 21.738 25.6592 21.8359V22.619C25.6592 22.6842 25.6592 22.6842 25.6918 22.7495C25.7245 23.0105 25.7571 22.9779 25.7571 23.2389C25.7571 23.3368 25.855 23.5325 25.8877 23.6304C26.0509 23.9241 26.0509 23.8262 26.1815 23.8588C26.2794 23.8915 26.1815 23.8915 26.3447 23.8915L26.41 23.7936C26.5405 23.6304 26.5732 23.7936 26.7037 23.5652L26.769 23.4673C26.769 23.4347 26.8017 23.4347 26.8017 23.4347C26.867 23.3368 26.9322 23.2715 27.0954 23.2389C27.1934 23.3041 27.1281 23.3041 27.226 23.3368C27.226 23.3041 27.2587 23.2715 27.2587 23.2389C27.3892 23.0431 27.5198 23.141 27.5524 23.1084C27.5851 23.0431 27.5851 22.9779 27.6177 22.9126C27.7483 22.5863 27.7157 22.8147 27.7157 22.5863C27.7157 22.5211 27.7483 22.4232 27.7483 22.3579C27.8789 21.9664 27.8136 21.1181 27.8462 20.857C27.8789 20.7265 27.9115 20.5634 27.9442 20.4002C28.0094 20.1066 27.9768 19.6498 28.0421 19.3561V19.3235C28.0747 19.2583 28.14 19.193 28.0094 18.9972C27.8789 18.8015 27.9115 18.8667 27.7483 18.7362C27.6177 18.6383 27.6177 18.5404 27.5198 18.4426C27.4545 18.3773 27.4219 18.4099 27.3566 18.3447L26.9322 18.051C26.6385 17.8879 26.8996 17.9531 26.7037 17.9205C26.6058 17.8879 26.5732 17.9531 26.5079 17.9858C26.2141 18.1489 26.41 18.0184 26.2467 18.2468C26.0835 18.4099 26.1488 18.3121 26.1488 18.6057Z" fill="white"/>
<path fill-rule="evenodd" clip-rule="evenodd" d="M59.2156 19.911C59.2483 19.9763 59.2809 19.9437 59.3136 20.0089H59.2483C59.1177 20.0742 59.183 20.1068 59.183 20.1394L59.1177 20.6941C59.0524 20.9551 59.0851 20.8246 58.9545 20.8246C58.9545 20.9225 58.9545 20.9225 58.9871 20.9551C58.9545 21.053 58.9871 21.0204 58.9219 21.1183C58.8239 21.2488 58.7913 21.2488 58.7586 21.4119L58.6607 21.8361C58.6281 21.9013 58.6281 21.8687 58.6281 21.9013C58.4975 22.1624 58.3669 22.6844 58.3343 22.9454C58.3016 23.076 58.269 23.2065 58.2364 23.337L58.1384 23.859C58.1058 24.0874 58.1058 24.3158 58.1384 24.5116C58.1384 24.7074 57.9752 25.0336 58.0079 25.2947C58.0405 25.5231 57.9426 25.882 57.9099 26.1104C57.8773 26.3061 58.0079 26.6977 58.0732 26.8934L58.2364 26.7629C58.3996 26.6977 58.269 26.6324 58.4649 26.4693L58.5628 26.3714C58.5954 26.4367 58.5954 26.5019 58.6281 26.5672L58.6607 26.5998C58.726 26.5345 58.726 26.5345 58.7586 26.4693L58.8239 26.5672C58.9545 26.4367 59.0198 26.5019 59.183 26.4367C59.2809 26.3714 59.4115 26.2735 59.3789 26.1756C59.4441 26.1756 59.4441 26.3061 59.5421 25.9472L59.4441 25.9146C59.4768 25.8167 59.4441 25.8493 59.4768 25.7841C59.5421 25.4252 59.5747 25.6536 59.4768 25.4578L59.5747 25.4252L59.64 25.001C59.6726 24.8705 59.6073 24.8705 59.7053 24.7074C59.7053 24.7074 59.7053 24.6747 59.6726 24.7074L59.5747 24.6095C59.5747 24.5442 59.6073 24.5116 59.6073 24.479C59.64 24.3811 59.7053 24.3485 59.7379 24.2506C59.7379 24.2506 59.7379 24.2506 59.7379 24.2179C59.8032 24.0548 59.7706 23.8264 59.9338 23.6959C59.8358 23.6633 59.8685 23.6959 59.8032 23.6306C59.8685 23.5328 59.8358 23.5001 59.9011 23.4022C59.8032 23.337 59.7379 23.5654 59.8358 23.1412C59.9338 23.2065 59.8685 23.2391 59.9664 23.2065C60.0317 23.1738 59.9991 23.1412 59.9991 23.0433H59.9664L59.8685 22.9781L59.9991 22.9454C59.9664 22.8802 59.9338 22.8476 59.8685 22.8149C59.8358 22.7823 59.9011 22.9128 59.8032 22.7823C59.8685 22.6844 59.9011 22.717 59.9991 22.6518C60.1296 22.5539 60.0317 22.5213 60.0317 22.4887C60.0317 22.4887 59.9664 22.4887 60.0317 22.3908C60.097 22.2276 60.2276 22.3581 60.0643 22.0971C60.097 22.0319 60.1296 22.0319 60.1623 21.934C60.1296 21.9013 60.097 21.9013 60.0317 21.8361C60.3581 21.3793 60.1296 21.4119 60.1949 21.314C60.2928 21.1509 60.2928 21.3793 60.3255 21.1835C60.2928 21.0856 60.3255 21.1509 60.1949 21.1509C60.1949 20.9878 60.2928 21.0204 60.2276 20.9225H60.3908C60.3908 20.792 60.3581 20.8246 60.3255 20.792L60.2928 20.7594C60.4561 20.7267 60.4234 20.5962 60.4234 20.4983C60.4234 20.4331 60.4234 20.531 60.4561 20.4005C60.3255 20.3678 60.3581 20.3678 60.2928 20.3026C60.3581 20.1721 60.2928 20.3026 60.3908 20.2047C60.2928 20.1721 59.9991 19.8132 59.8032 19.7153C59.8032 19.7153 59.8032 19.7153 59.7706 19.7153L59.5094 19.6174C59.4115 19.5848 59.3136 19.7805 59.2156 19.911Z" fill="white"/>
<path fill-rule="evenodd" clip-rule="evenodd" d="M18.7065 25.7514C18.8371 25.8167 19.0003 25.7188 19.0656 25.5883L18.9024 25.6535C18.9024 25.6535 18.9024 25.6535 18.9024 25.6209L18.8045 25.5557C18.7718 25.6862 18.7392 25.6535 18.7065 25.7514Z" fill="white"/>
<path fill-rule="evenodd" clip-rule="evenodd" d="M51.512 27.0241C51.4793 26.9588 51.512 26.9588 51.414 26.9262C51.3814 26.9262 51.2508 26.9262 51.1855 26.8936C51.2835 27.0567 51.414 27.122 51.512 27.0241Z" fill="white"/>
<path fill-rule="evenodd" clip-rule="evenodd" d="M64.2429 29.0468C64.2757 28.9816 64.2429 29.1121 64.2757 28.9816C64.3084 28.8837 64.2429 28.8511 64.1445 28.8511C64.1773 28.9816 64.1773 28.9816 64.2429 29.0468Z" fill="white"/>
</svg>
