<svg width="22" height="22" viewBox="0 0 22 22" fill="none" xmlns="http://www.w3.org/2000/svg">
<rect x="2.5" y="1.5" width="17" height="19" rx="0.5" stroke="white"/>
<rect x="2.5" y="4.5" width="2" height="6" rx="0.5" stroke="white"/>
<rect x="14.5" y="3.5" width="3" height="8" rx="0.5" stroke="white"/>
<rect x="6.5" y="4.5" width="6" height="6" rx="0.5" stroke="white"/>
<rect x="7.25" y="16.25" width="6.5" height="0.5" rx="0.25" stroke="white" stroke-width="0.5"/>
<rect x="7.25" y="18.25" width="6.5" height="0.5" rx="0.25" stroke="white" stroke-width="0.5"/>
<rect x="4.25" y="16.25" width="1.5" height="0.5" rx="0.25" stroke="white" stroke-width="0.5"/>
<rect x="7.25" y="14.25" width="6.5" height="0.5" rx="0.25" stroke="white" stroke-width="0.5"/>
<rect x="4.25" y="14.25" width="1.5" height="0.5" rx="0.25" stroke="white" stroke-width="0.5"/>
<rect x="4.25" y="18.25" width="1.5" height="0.5" rx="0.25" stroke="white" stroke-width="0.5"/>
<rect x="15.25" y="13.25" width="0.5" height="3.5" rx="0.25" stroke="white" stroke-width="0.5"/>
<rect x="17.25" y="13.25" width="0.5" height="3.5" rx="0.25" stroke="white" stroke-width="0.5"/>
<circle cx="15.5" cy="18.5" r="0.5" fill="white"/>
<circle cx="7.5" cy="3.5" r="0.5" fill="white"/>
<circle cx="7.5" cy="11.5" r="0.5" fill="white"/>
<circle cx="9.5" cy="11.5" r="0.5" fill="white"/>
<circle cx="11.5" cy="11.5" r="0.5" fill="white"/>
<circle cx="17.5" cy="18.5" r="0.5" fill="white"/>
<circle cx="9.5" cy="3.5" r="0.5" fill="white"/>
<circle cx="11.5" cy="3.5" r="0.5" fill="white"/>
<rect x="15.5" y="5" width="1" height="5" rx="0.5" fill="white"/>
</svg>
