<svg width="24" height="24" fill="none" xmlns="http://www.w3.org/2000/svg"><path d="M20.25 4.75a.75.75 0 0 0 1.5 0zM4 3.75h5.5v-1.5H4zM9.75 4v5.5h1.5V4zM9.5 9.75H4v1.5h5.5zM3.75 9.5V4h-1.5v5.5zM4 14.25h5.5v-1.5H4zm5.75.25V20h1.5v-5.5zm-.25 5.75H4v1.5h5.5zM3.75 20v-5.5h-1.5V20zM14.5 3.75H20v-1.5h-5.5zm5.5 6h-5.5v1.5H20zm-5.75-.25V4h-1.5v5.5zm6-5.5v.75h1.5V4zm0 4.75v.75h1.5v-.75zm-5.75 5.5H20v-1.5h-5.5zm5.75.25V20h1.5v-5.5zM20 20.25h-5.5v1.5H20zM14.25 20v-5.5h-1.5V20zm.25.25a.25.25 0 0 1-.25-.25h-1.5c0 .966.784 1.75 1.75 1.75zm5.75-.25a.25.25 0 0 1-.25.25v1.5A1.75 1.75 0 0 0 21.75 20zM20 14.25a.25.25 0 0 1 .25.25h1.5A1.75 1.75 0 0 0 20 12.75zm-5.5-1.5a1.75 1.75 0 0 0-1.75 1.75h1.5a.25.25 0 0 1 .25-.25zm0-3a.25.25 0 0 1-.25-.25h-1.5c0 .966.784 1.75 1.75 1.75zm5.5 1.5a1.75 1.75 0 0 0 1.75-1.75h-1.5a.25.25 0 0 1-.25.25zm0-7.5a.25.25 0 0 1 .25.25h1.5A1.75 1.75 0 0 0 20 2.25zm-5.5-1.5A1.75 1.75 0 0 0 12.75 4h1.5a.25.25 0 0 1 .25-.25zM4 20.25a.25.25 0 0 1-.25-.25h-1.5c0 .966.784 1.75 1.75 1.75zM9.75 20a.25.25 0 0 1-.25.25v1.5A1.75 1.75 0 0 0 11.25 20zm-.25-5.75a.25.25 0 0 1 .25.25h1.5a1.75 1.75 0 0 0-1.75-1.75zM4 12.75a1.75 1.75 0 0 0-1.75 1.75h1.5a.25.25 0 0 1 .25-.25zm0-3a.25.25 0 0 1-.25-.25h-1.5c0 .966.784 1.75 1.75 1.75zm5.75-.25a.25.25 0 0 1-.25.25v1.5a1.75 1.75 0 0 0 1.75-1.75zM9.5 3.75a.25.25 0 0 1 .25.25h1.5A1.75 1.75 0 0 0 9.5 2.25zM4 2.25A1.75 1.75 0 0 0 2.25 4h1.5A.25.25 0 0 1 4 3.75z" fill="#1D2129"/></svg>