<svg xmlns="http://www.w3.org/2000/svg" width="14" height="14" fill="none" data-c="1"><path fill="#fff" d="M3 10.5a.5.5 0 1 0 .999 0 .5.5 0 0 0-.999 0"/><path fill="#fff" d="M12.826 3.545a.463.463 0 0 0-.571-.301.5.5 0 0 0-.206.118l-2.11 2.11-1.334-.094-.094-1.333L10.64 1.95a.467.467 0 0 0-.184-.774A3.67 3.67 0 0 0 5.76 3.842a3.67 3.67 0 0 0 .087 1.946l-4.335 4.333a1.69 1.69 0 0 0-.253 2.113 1.67 1.67 0 0 0 1.234.763q.089.006.176 0c.442 0 .865-.175 1.177-.486l4.362-4.36a3.67 3.67 0 0 0 4.688-2.623c.16-.655.135-1.341-.07-1.983m-.564 1.787a3 3 0 0 1-4.024 2.123l-.204-.08-4.668 4.666a1 1 0 0 1-1.55-.17 1.03 1.03 0 0 1 .187-1.277l4.634-4.632-.08-.204a3 3 0 0 1 2.78-4.093q.296 0 .585.06L7.844 3.802l.13 1.833.017.083a.46.46 0 0 0 .293.297l1.918.143 2.08-2.076c.082.413.075.839-.02 1.25"/></svg>