<svg width="20" height="20" fill="none" xmlns="http://www.w3.org/2000/svg"><path d="M5 11.666q-.687 0-1.177-.49A1.6 1.6 0 0 1 3.333 10q0-.688.49-1.177T5 8.333t1.177.49q.49.489.49 1.177 0 .687-.49 1.177-.489.49-1.177.49m5 0q-.687 0-1.177-.49A1.6 1.6 0 0 1 8.333 10q0-.688.49-1.177T10 8.333t1.177.49q.49.489.49 1.177 0 .687-.49 1.177-.489.49-1.177.49m5 0q-.687 0-1.177-.49a1.6 1.6 0 0 1-.49-1.176q0-.688.49-1.177T15 8.333t1.177.49q.49.489.49 1.177 0 .687-.49 1.177-.489.49-1.177.49" fill="#fff"/></svg>