<svg width="120" height="120" fill="none" xmlns="http://www.w3.org/2000/svg"><path fill-rule="evenodd" clip-rule="evenodd" d="M97.057 6.792a4.391 4.391 0 1 1 7.077 5.2l-5.348 7.28a4.391 4.391 0 0 1-7.078-5.2zm4.165 1.747a1.06 1.06 0 0 0-1.479.226l-5.348 7.28a1.058 1.058 0 0 0 1.705 1.253l5.348-7.28a1.06 1.06 0 0 0-.226-1.479M17.867 49.93c0-21.35 17.307-38.656 38.656-38.656s38.656 17.306 38.656 38.655c0 21.35-17.307 38.656-38.656 38.656-21.35 0-38.656-17.307-38.656-38.656m38.656-41.99c-23.19 0-41.99 18.8-41.99 41.99s18.8 41.989 41.99 41.989a41.8 41.8 0 0 0 20.935-5.583l5.45 5.45a8.31 8.31 0 0 0 2.422 6.455l16.817 16.818a8.335 8.335 0 0 0 11.786 0l3.626-3.627a8.333 8.333 0 0 0 0-11.786l-16.817-16.817a8.32 8.32 0 0 0-6.457-2.422l-4.652-4.652a41.8 41.8 0 0 0 8.879-25.826c0-23.19-18.8-41.989-41.99-41.989m34.149 73.569-3.201-3.201a42.2 42.2 0 0 1-7.124 6.202l3.661 3.662a8.4 8.4 0 0 1 1.322-1.717l3.626-3.626a8.4 8.4 0 0 1 1.716-1.32M75.794 44.881a1.667 1.667 0 1 0-1.49-2.982L61.226 48.44a1.667 1.667 0 0 0 0 2.982l13.078 6.538a1.667 1.667 0 1 0 1.49-2.981L65.698 49.93zm-39.29-2.236a1.667 1.667 0 0 0 .745 2.236l10.096 5.048-10.096 5.048a1.667 1.667 0 0 0 1.491 2.981l13.078-6.538a1.667 1.667 0 0 0 0-2.982L38.74 41.9a1.667 1.667 0 0 0-2.236.746m-7.74 7.282c0-15.33 12.428-27.758 27.758-27.758S84.28 34.598 84.28 49.928 71.853 77.686 56.522 77.686 28.764 65.258 28.764 49.928m27.758-31.091c-17.171 0-31.091 13.92-31.091 31.09 0 17.172 13.92 31.092 31.091 31.092 17.172 0 31.092-13.92 31.092-31.091s-13.92-31.091-31.092-31.091m59.045 4.098a4.39 4.39 0 0 0-5.518-2.848l-8.606 2.746a4.391 4.391 0 1 0 2.67 8.367l8.606-2.746a4.39 4.39 0 0 0 2.848-5.519m-4.505.328a1.059 1.059 0 0 1 .644 2.015l-8.607 2.746a1.058 1.058 0 0 1-.643-2.015zM3.164 74.734a4.391 4.391 0 1 0 2.457 8.432l8.673-2.527a4.391 4.391 0 1 0-2.457-8.432zm.213 4.512a1.06 1.06 0 0 1 .72-1.311l8.672-2.528a1.058 1.058 0 0 1 .592 2.031l-8.673 2.528a1.06 1.06 0 0 1-1.311-.72M11.98 97.66a4.39 4.39 0 0 1-.783-6.16l5.53-7.143a4.391 4.391 0 0 1 6.945 5.377l-5.531 7.143a4.39 4.39 0 0 1-6.16.783m1.853-4.12a1.058 1.058 0 1 0 1.672 1.296l5.531-7.143a1.058 1.058 0 0 0-1.672-1.295z" fill="url(#prefix__a)" fill-opacity=".5" opacity=".5"/><defs><linearGradient id="prefix__a" x1="0" y1="51.874" x2="116.63" y2="71.123" gradientUnits="userSpaceOnUse"><stop stop-color="#BEBEBE" stop-opacity=".2"/><stop offset=".344" stop-color="#BEBEBE" stop-opacity=".8"/><stop offset=".698" stop-color="#BEBEBE" stop-opacity=".8"/><stop offset="1" stop-color="#BEBEBE" stop-opacity=".2"/></linearGradient></defs></svg>