<svg width="32" height="32" fill="none" xmlns="http://www.w3.org/2000/svg"><path d="M6.667 28a2.57 2.57 0 0 1-1.884-.783A2.57 2.57 0 0 1 4 25.333V6.667q0-1.1.783-1.884A2.57 2.57 0 0 1 6.667 4h18.666q1.1 0 1.884.783.783.784.783 1.884V10h-2.667V6.667H6.667v18.666h18.666V22H28v3.333q0 1.1-.783 1.884a2.57 2.57 0 0 1-1.884.783zm10.666-5.333a2.57 2.57 0 0 1-1.883-.784A2.57 2.57 0 0 1 14.667 20v-8q0-1.1.783-1.883a2.57 2.57 0 0 1 1.883-.784h9.334q1.099 0 1.883.784.783.783.783 1.883v8q0 1.1-.783 1.883a2.57 2.57 0 0 1-1.883.784zM26.667 20v-8h-9.334v8zm-5.334-2q.834 0 1.417-.583.583-.584.583-1.417t-.583-1.417A1.93 1.93 0 0 0 21.333 14q-.833 0-1.416.583A1.93 1.93 0 0 0 19.333 16q0 .834.584 1.417.583.583 1.416.583" fill="#F5F5F5"/></svg>