<svg width="22" height="22" fill="none" xmlns="http://www.w3.org/2000/svg"><rect x=".5" y="3.5" width="21" height="15" rx=".5" stroke="#fff"/><rect x="17" y="13.5" width="2" height="2" rx=".5" stroke="#fff"/><rect x="14" y="13.5" width="5" height="2" rx=".5" stroke="#fff"/><path d="M14.354 6.854c.25-.25.4-.331.453-.354h3.386c.052.023.203.103.453.354l.708.707a.5.5 0 0 1 .146.353V11a.5.5 0 0 1-.5.5h-5a.5.5 0 0 1-.5-.5V7.914a.5.5 0 0 1 .146-.353zm.474-.362Zm3.344 0Z" stroke="#fff"/><rect x="2.5" y="6.5" width="9" height="9" rx=".5" stroke="#fff"/><circle cx="7" cy="11" r="3.5" stroke="#fff"/><circle cx="7" cy="11" r="1.5" stroke="#fff"/><path fill-rule="evenodd" clip-rule="evenodd" d="M8.012 9.274c.291.172.536.415.708.706l2.835-2.835-.707-.708zm.925 1.226a2 2 0 0 1 0 1H12v-1zm-.214 1.516a2 2 0 0 1-.707.707l2.832 2.832.707-.707zm-1.223.921a2 2 0 0 1-1 0V16h1zm-1.52-.216a2 2 0 0 1-.706-.71l-2.837 2.837.708.708zM5.063 11.5a2 2 0 0 1 0-1H2v1zm.214-1.516-2.84-2.84.708-.707 2.839 2.84a2 2 0 0 0-.707.707M6.5 9.063a2 2 0 0 1 1 0V6h-1z" fill="#fff"/><rect x="15" y="8.5" width="1" height="2" rx=".5" fill="#fff"/><rect x="17" y="8.5" width="1" height="2" rx=".5" fill="#fff"/></svg>