<svg width="16" height="16" viewBox="0 0 16 16" fill="none" xmlns="http://www.w3.org/2000/svg">
<path fill-rule="evenodd" clip-rule="evenodd" d="M2.59432 3.25493C2.53389 3.25041 2.45006 3.25 2.29272 3.25H2.125C1.77982 3.25 1.5 2.97018 1.5 2.625C1.5 2.27982 1.77982 2 2.125 2H2.29272C2.29856 2 2.3044 2 2.31024 2C2.4431 1.99999 2.57477 1.99997 2.68769 2.00843C2.81338 2.01784 2.95938 2.03995 3.11062 2.10685C3.32367 2.20109 3.50602 2.35295 3.63727 2.5452C3.73055 2.68183 3.77877 2.82142 3.81082 2.9433C3.83955 3.05253 3.86338 3.18171 3.88741 3.31202C3.88852 3.31802 3.88963 3.32402 3.89074 3.33002L3.99135 3.875L12.1408 3.875C12.3357 3.87498 12.5206 3.87496 12.6743 3.8885C12.839 3.90302 13.0389 3.93746 13.231 4.0524C13.4902 4.20755 13.6855 4.45185 13.7789 4.74076C13.8477 4.9539 13.8362 5.15656 13.8133 5.32024C13.792 5.47281 13.7504 5.65272 13.7067 5.84231L12.7164 10.1336C12.6879 10.2569 12.6596 10.3796 12.6276 10.4834C12.5917 10.5998 12.5398 10.7324 12.4457 10.8614C12.3131 11.0433 12.1338 11.1862 11.9262 11.2748C11.7795 11.3374 11.6386 11.3582 11.5171 11.3671C11.4081 11.375 11.2814 11.375 11.154 11.375L4.62503 11.375C4.32361 11.375 4.06513 11.1599 4.01041 10.8635L2.66151 3.55695C2.63293 3.40213 2.61734 3.31981 2.60192 3.26119C2.60139 3.25917 2.60038 3.25541 2.60038 3.25541C2.60038 3.25541 2.59644 3.25509 2.59432 3.25493ZM4.22212 5.125L5.1452 10.125L11.1372 10.125C11.2882 10.125 11.3682 10.1246 11.426 10.1204L11.4316 10.12L11.4332 10.1148C11.4503 10.0595 11.4686 9.98165 11.5026 9.83429L12.4833 5.58429C12.5342 5.36392 12.5626 5.23847 12.5754 5.14694C12.576 5.14266 12.5765 5.13864 12.577 5.13486C12.5731 5.13446 12.569 5.13407 12.5646 5.13368C12.4726 5.12557 12.3441 5.125 12.1179 5.125H4.22212ZM4 13.25C4 12.5596 4.55964 12 5.25 12C5.94036 12 6.5 12.5596 6.5 13.25C6.5 13.9404 5.94036 14.5 5.25 14.5C4.55964 14.5 4 13.9404 4 13.25ZM10.25 13.25C10.25 12.5596 10.8096 12 11.5 12C12.1904 12 12.75 12.5596 12.75 13.25C12.75 13.9404 12.1904 14.5 11.5 14.5C10.8096 14.5 10.25 13.9404 10.25 13.25Z" fill="url(#paint0_linear_7053_111937)"/>
<defs>
<linearGradient id="paint0_linear_7053_111937" x1="10" y1="13" x2="4.5" y2="3" gradientUnits="userSpaceOnUse">
<stop stop-color="#6E4EFF"/>
<stop offset="1" stop-color="#31FEF3"/>
</linearGradient>
</defs>
</svg>
