<svg width="292" height="261" fill="none" xmlns="http://www.w3.org/2000/svg"><path fill-rule="evenodd" clip-rule="evenodd" d="m274.736 11.565 19.38-11.35a1.55 1.55 0 0 1 2.334 1.338v106.66a1.55 1.55 0 0 1-.767 1.338l-19.38 11.351a1.55 1.55 0 0 1-2.334-1.338V12.904c0-.551.291-1.06.767-1.339M42.196 144.06 252.275 24.944a1.55 1.55 0 0 1 2.315 1.348v106.321c0 .558-.3 1.073-.786 1.349L43.726 253.078a1.55 1.55 0 0 1-2.315-1.349V145.408c0-.558.3-1.073.785-1.348m86.56-94.343-129.968 73.44a1.55 1.55 0 0 0-.788 1.35v19.598a1.55 1.55 0 0 0 2.313 1.351l129.968-73.44a1.55 1.55 0 0 0 .788-1.35V51.067a1.55 1.55 0 0 0-2.313-1.35m166.931 82.849-129.968 73.439a1.55 1.55 0 0 0-.788 1.35v19.599a1.55 1.55 0 0 0 2.313 1.35l129.968-73.44a1.55 1.55 0 0 0 .788-1.35v-19.598c0-1.187-1.28-1.935-2.313-1.35m-296.915 36.2 20.93-12.143a1.55 1.55 0 0 1 2.329 1.341v106.669a1.55 1.55 0 0 1-.772 1.341L.329 278.117A1.55 1.55 0 0 1-2 276.776V170.107c0-.553.294-1.064.772-1.341" fill="url(#prefix__a)"/><defs><linearGradient id="prefix__a" x1="148" y1="-.37" x2="148" y2="279.47" gradientUnits="userSpaceOnUse"><stop stop-color="#E61C44"/><stop offset="1" stop-color="#E61C44" stop-opacity="0"/></linearGradient></defs></svg>