<svg width="32" height="32" fill="none" xmlns="http://www.w3.org/2000/svg"><path d="M8 26.666q-1.665 0-2.833-1.166Q4 24.333 4 22.666h-.667a2 2 0 0 1-2-2V8q0-1.1.784-1.884A2.57 2.57 0 0 1 4 5.333h16.667a2 2 0 0 1 2 2v3.333h3.5a1 1 0 0 1 .8.4l3.5 4.667a1 1 0 0 1 .2.6v5.333a1 1 0 0 1-1 1H28q0 1.667-1.166 2.834-1.167 1.166-2.834 1.166-1.665 0-2.833-1.166Q20 24.333 20 22.666h-8q0 1.667-1.166 2.834Q9.667 26.666 8 26.666M8 24q.567 0 .95-.384a1.3 1.3 0 0 0 .384-.95 1.3 1.3 0 0 0-.384-.95 1.3 1.3 0 0 0-.95-.383 1.3 1.3 0 0 0-.95.383 1.3 1.3 0 0 0-.383.95q0 .567.383.95Q7.434 24 8 24m-4-4h1.067q.566-.6 1.3-.967A3.6 3.6 0 0 1 8 18.666q.9 0 1.633.367.735.367 1.3.967H20V8H4zm20 4q.567 0 .95-.384a1.3 1.3 0 0 0 .384-.95 1.3 1.3 0 0 0-.384-.95 1.3 1.3 0 0 0-.95-.383 1.3 1.3 0 0 0-.95.383 1.3 1.3 0 0 0-.383.95q0 .567.383.95.384.384.95.384m-1.333-6.667h5.666l-3-4h-2.666z" fill="#F5F5F5"/></svg>