<svg width="24" height="24" fill="none" xmlns="http://www.w3.org/2000/svg"><path d="M21.703 5.754a18 18 0 0 0 .295-2.954c.005-.307.008-.46-.09-.595a.6.6 0 0 0-.112-.113c-.135-.097-.288-.095-.594-.09-1.801.028-6.337.413-9.709 3.376-.114.1-.171.151-.232.18l-.062.026c-.064.02-.135.024-.277.032l-5.067.264c-.474.024-.71.037-.91.077a2.75 2.75 0 0 0-2.175 2.29c-.03.202-.03.439-.03.913v0c0 .479 0 .718.03.92a2.75 2.75 0 0 0 2.197 2.293c.202.039.44.049.918.07l1.21.05c.125.006.187.009.246.026q.062.018.117.052c.052.031.097.075.186.164l3.621 3.622c.089.088.133.133.165.185q.034.055.051.117c.017.059.02.122.025.247l.052 1.209c.02.478.03.717.07.918a2.75 2.75 0 0 0 2.292 2.197c.203.03.442.03.92.03v0c.474 0 .712 0 .913-.03a2.75 2.75 0 0 0 2.29-2.174c.04-.2.053-.437.078-.91l.263-5.068c.008-.142.011-.213.033-.277l.025-.062c.03-.06.08-.117.18-.231.479-.545.89-1.121 1.244-1.71m-12.842 9.76C5.71 21.87 3.743 22.02 2.72 21.997c-.255-.006-.382-.008-.509-.102a.6.6 0 0 1-.108-.107c-.093-.127-.096-.255-.101-.509-.022-1.023.128-2.99 1.44-4.303q.096-.096.198-.185c.231-.204-.347.305-.207.21.727-.497 2.548-.44 3.243.102.133.104.12.09.125.095v0c.006.006-.009-.008.095.125.542.695.6 2.516.102 3.243-.095.14.414-.438.21-.207q-.09.102-.184.197m5.075-10.865a1.56 1.56 0 0 0 0 2.208v0c.61.61 1.597.61 2.207 0v0a1.56 1.56 0 0 0 0-2.208v0a1.56 1.56 0 0 0-2.207 0" stroke="#1D2129" stroke-width="1.5" stroke-linecap="round" stroke-linejoin="round"/></svg>