<svg width="24" height="24" fill="none" xmlns="http://www.w3.org/2000/svg"><path d="M3.17 15.166a4 4 0 0 0-.505.414c-1.1 1.1-1.48 2.542-1.606 3.62a9 9 0 0 0-.052 1.382c.007.175.135 1.167.145 1.269.102.01 1.094.137 1.269.145.348.014.833.012 1.382-.052 1.078-.126 2.52-.506 3.62-1.606.137-.137.276-.31.414-.504.337-.477.505-.715.608-1.242.071-.366.016-1.014-.116-1.363-.19-.502-.5-.813-1.122-1.433-.62-.621-.93-.932-1.433-1.122-.35-.132-.997-.187-1.363-.116-.527.103-.765.271-1.242.608" fill="#1D2129"/><path fill-rule="evenodd" clip-rule="evenodd" d="M17.38 1.303a18 18 0 0 1 2.671-.29c.671-.023 1.007-.034 1.304.127.194.104.402.312.507.507.16.297.149.632.127 1.303-.023.67-.094 1.603-.29 2.671-.377 2.047-1.224 4.653-3.128 6.817l-.25 4.794a9 9 0 0 1-.027.426 3.75 3.75 0 0 1-3.54 3.361c-.095.005-.206.005-.427.005-.223 0-.335 0-.43-.005a3.75 3.75 0 0 1-3.543-3.395c-.009-.095-.014-.206-.023-.43l-.047-1.104-3.373-3.372-1.104-.047a9 9 0 0 1-.43-.024 3.75 3.75 0 0 1-3.395-3.542c-.004-.096-.004-.207-.004-.43 0-.222 0-.333.004-.427a3.75 3.75 0 0 1 3.362-3.541c.094-.01.204-.015.425-.027l4.795-.25c2.163-1.904 4.77-2.75 6.816-3.127m-2.191 8.88a2.368 2.368 0 1 1-4.736 0 2.368 2.368 0 0 1 4.736 0" fill="#1D2129"/></svg>