<svg width="24" height="24" fill="none" xmlns="http://www.w3.org/2000/svg"><path d="M14 14h-4m4 0v3.23c0 1.966 0 2.95-.373 3.317a1.25 1.25 0 0 1-1.062.345c-.518-.078-1.096-.873-2.253-2.463v0c-.12-.164-.179-.246-.22-.337a1 1 0 0 1-.072-.22c-.02-.098-.02-.2-.02-.402V14m4 0 1.5-2.357M10 14 6.521 8.533C5.151 6.38 4.467 5.305 4.726 4.43a2 2 0 0 1 .408-.743C5.732 3 7.008 3 9.558 3h5.282c2.191 0 3.287 0 3.859.52a2 2 0 0 1 .626 1.14c.131.762-.457 1.687-1.634 3.536v0l-.045.07" stroke="#000" stroke-width="1.5" stroke-linecap="round" stroke-linejoin="round"/></svg>