<svg xmlns="http://www.w3.org/2000/svg" width="24" height="24" fill="none" data-c="1"><path fill="#fff" fill-rule="evenodd" d="M5.698 9.895a6.316 6.316 0 0 1 12.604 0h.435c.698 0 1.263.565 1.263 1.263v2.526c0 .698-.566 1.263-1.263 1.263h-.547a6.33 6.33 0 0 1-4.247 4.748A6.3 6.3 0 0 1 12 20h-1.263a1.263 1.263 0 0 1-1.263-1.263v-.842c0-.698.565-1.263 1.263-1.263h2.526c.593 0 1.09.408 1.226.959a4.63 4.63 0 0 0 2.143-3.907v-3.368a4.632 4.632 0 0 0-9.264 0v4.631H5.263A1.263 1.263 0 0 1 4 13.684v-2.526c0-.698.566-1.263 1.263-1.263z" clip-rule="evenodd"/></svg>