<svg width="20" height="20" fill="none" xmlns="http://www.w3.org/2000/svg"><path fill-rule="evenodd" clip-rule="evenodd" d="M3.764 7.917a6.25 6.25 0 0 1 12.473 0h.43c.69 0 1.25.56 1.25 1.25v2.5c0 .69-.56 1.25-1.25 1.25h-.542a6.26 6.26 0 0 1-4.202 4.699 6.3 6.3 0 0 1-1.923.301H8.75c-.69 0-1.25-.56-1.25-1.25v-.833c0-.69.56-1.25 1.25-1.25h2.5a1.25 1.25 0 0 1 1.214.95 4.58 4.58 0 0 0 2.12-3.867V8.334a4.583 4.583 0 1 0-9.167 0v4.583H3.334c-.69 0-1.25-.56-1.25-1.25v-2.5c0-.69.56-1.25 1.25-1.25z" fill="#fff"/></svg>