<svg xmlns="http://www.w3.org/2000/svg" width="24" height="24" fill="none" data-c="1"><path fill="#fff" fill-rule="evenodd" d="M3.03 17.572c0-.573.464-1.037 1.037-1.037h6.53a1.037 1.037 0 1 1 0 2.073h-6.53a1.037 1.037 0 0 1-1.037-1.036M12.475 7.525c0-.573.464-1.037 1.036-1.037h6.531a1.037 1.037 0 0 1 0 2.073h-6.53a1.037 1.037 0 0 1-1.037-1.036M3 7.469C3 5.546 4.568 4 6.486 4s3.486 1.546 3.486 3.469-1.568 3.468-3.486 3.468S3 9.391 3 7.47m3.486-1.396c-.787 0-1.413.632-1.413 1.396S5.7 8.864 6.486 8.864 7.9 8.232 7.9 7.469c0-.764-.626-1.396-1.413-1.396M14.686 17.531c0-1.923 1.568-3.468 3.487-3.468a3.477 3.477 0 0 1 3.485 3.468c0 1.922-1.567 3.469-3.485 3.469-1.919 0-3.487-1.546-3.487-3.469m3.487-1.395c-.788 0-1.414.632-1.414 1.395s.626 1.396 1.414 1.396 1.412-.632 1.412-1.396-.625-1.395-1.412-1.395" clip-rule="evenodd"/></svg>