<svg width="24" height="24" fill="none" xmlns="http://www.w3.org/2000/svg"><path fill-rule="evenodd" clip-rule="evenodd" d="M2.282 17.184c0-.598.485-1.083 1.083-1.083h6.826a1.083 1.083 0 1 1 0 2.166H3.365a1.083 1.083 0 0 1-1.083-1.083M12.152 6.684c0-.598.485-1.083 1.084-1.083h6.825a1.083 1.083 0 0 1 0 2.166h-6.825a1.083 1.083 0 0 1-1.084-1.083M2.25 6.625C2.25 4.615 3.889 3 5.893 3c2.005 0 3.644 1.616 3.644 3.625S7.898 10.25 5.893 10.25 2.25 8.634 2.25 6.625m3.643-1.458c-.822 0-1.476.66-1.476 1.458s.654 1.459 1.476 1.459c.823 0 1.477-.66 1.477-1.459 0-.798-.654-1.458-1.477-1.458M14.463 17.142c0-2.01 1.64-3.625 3.645-3.625s3.642 1.616 3.642 3.625-1.637 3.625-3.642 3.625-3.645-1.616-3.645-3.625m3.645-1.459c-.824 0-1.478.66-1.478 1.459 0 .797.654 1.458 1.478 1.458.822 0 1.476-.66 1.476-1.458 0-.799-.654-1.459-1.476-1.459" fill="#fff"/></svg>