<svg width="22" height="22" fill="none" xmlns="http://www.w3.org/2000/svg"><path fill-rule="evenodd" clip-rule="evenodd" d="M2 2h18v.446l-.371.398a2 2 0 0 0-.538 1.365v.186a2 2 0 0 0 .538 1.364l.371.398v1.637H2V6.157l.371-.398a2 2 0 0 0 .538-1.364v-.186a2 2 0 0 0-.538-1.365L2 2.446zM1 2a1 1 0 0 1 1-1h18a1 1 0 0 1 1 1v.446a1 1 0 0 1-.269.682l-.371.398a1 1 0 0 0-.27.683v.186a1 1 0 0 0 .27.682l.371.398a1 1 0 0 1 .269.682v1.637a1 1 0 0 1-1 1h-.827q.009.066.009.134v.598a1 1 0 0 1-1 1h-1.636a1 1 0 0 1-1-1v-.598q0-.069.008-.134h-.927q.01.066.01.134v.598a1 1 0 0 1-1 1H12a1 1 0 0 1-.546-.162 1 1 0 0 1-.545.162H9.273a1 1 0 0 1-.546-.162 1 1 0 0 1-.545.162H6.545A1 1 0 0 1 6 10.364a1 1 0 0 1-.545.162H3.818a1 1 0 0 1-1-1v-.598q0-.069.01-.134H2a1 1 0 0 1-1-1V6.157a1 1 0 0 1 .269-.682l.371-.398a1 1 0 0 0 .27-.682v-.186a1 1 0 0 0-.27-.683l-.371-.398A1 1 0 0 1 1 2.446zm2.818 6.928h1.637v.598H3.818zm7.091 0H9.273v.598h1.636zm1.091 0h1.636v.598H12zm6.182 0h-1.636v.598h1.636zm-11.637 0h1.637v.598H6.545zm.728-5.196H5.636v2.33h1.637zm-1.637-1a1 1 0 0 0-1 1v2.33a1 1 0 0 0 1 1h1.637a1 1 0 0 0 1-1v-2.33a1 1 0 0 0-1-1zm4.546 1h1.636v2.33h-1.636zm-1 0a1 1 0 0 1 1-1h1.636a1 1 0 0 1 1 1v2.33a1 1 0 0 1-1 1h-1.636a1 1 0 0 1-1-1zm7.182 0h-1.637v2.33h1.637zm-1.637-1a1 1 0 0 0-1 1v2.33a1 1 0 0 0 1 1h1.637a1 1 0 0 0 1-1v-2.33a1 1 0 0 0-1-1zM2 12.474h18v.446l-.371.398a2 2 0 0 0-.538 1.365v.186a2 2 0 0 0 .538 1.364l.371.398v1.637H2v-1.637l.371-.398a2 2 0 0 0 .538-1.364v-.186a2 2 0 0 0-.538-1.365L2 12.92zm-1 0a1 1 0 0 1 1-1h18a1 1 0 0 1 1 1v.446a1 1 0 0 1-.269.683L20.36 14a1 1 0 0 0-.27.682v.186a1 1 0 0 0 .27.682l.371.398a1 1 0 0 1 .269.682v1.637a1 1 0 0 1-1 1h-.827q.009.066.009.134V20a1 1 0 0 1-1 1h-1.636a1 1 0 0 1-1-1v-.598q0-.068.008-.134h-.927q.01.066.01.134V20a1 1 0 0 1-1 1H12a1 1 0 0 1-.546-.162 1 1 0 0 1-.545.162H9.273a1 1 0 0 1-.546-.162 1 1 0 0 1-.545.162H6.545A1 1 0 0 1 6 20.838a1 1 0 0 1-.545.162H3.818a1 1 0 0 1-1-1v-.598q0-.068.01-.134H2a1 1 0 0 1-1-1v-1.637a1 1 0 0 1 .269-.682l.371-.398a1 1 0 0 0 .27-.682v-.186A1 1 0 0 0 1.64 14l-.371-.398A1 1 0 0 1 1 12.92zm4.455 6.928H3.818V20h1.637zm3.818 0h1.636V20H9.273zm4.363 0H12V20h1.636zm2.91 0h1.636V20h-1.636zm-8.364 0H6.545V20h1.637zm-2.546-5.196h1.637v2.33H5.636zm-1 0a1 1 0 0 1 1-1h1.637a1 1 0 0 1 1 1v2.33a1 1 0 0 1-1 1H5.636a1 1 0 0 1-1-1zm7.182 0h-1.636v2.33h1.636zm-1.636-1a1 1 0 0 0-1 1v2.33a1 1 0 0 0 1 1h1.636a1 1 0 0 0 1-1v-2.33a1 1 0 0 0-1-1zm4.545 1h1.637v2.33h-1.637zm-1 0a1 1 0 0 1 1-1h1.637a1 1 0 0 1 1 1v2.33a1 1 0 0 1-1 1h-1.637a1 1 0 0 1-1-1z" fill="#fff"/></svg>