<svg width="32" height="32" fill="none" xmlns="http://www.w3.org/2000/svg"><g clip-path="url(#prefix__a)"><circle cx="16.335" cy="16.335" r="13.335" fill="#000" fill-opacity=".5"/><path fill-rule="evenodd" clip-rule="evenodd" d="M5.667 16.333c0-5.89 4.775-10.666 10.666-10.666S27 10.442 27 16.333 22.224 27 16.333 27c-5.89 0-10.666-4.776-10.666-10.667M16.333 3C8.97 3 3 8.97 3 16.333s5.97 13.334 13.333 13.334 13.334-5.97 13.334-13.334S23.697 3 16.333 3m3.933 18.047-4.714-4.714 4.714-4.714-1.885-1.885-6.6 6.6 6.6 6.599z" fill="#fff"/></g><defs><clipPath id="prefix__a"><path fill="#fff" d="M0 0h32v32H0z"/></clipPath></defs></svg>