<svg width="24" height="24" viewBox="0 0 24 24" fill="none" xmlns="http://www.w3.org/2000/svg">
<path d="M21 7H8M21 12H18.5238M8 12H13.5714M21 17H8" stroke="black" stroke-width="1.5" stroke-linecap="round" stroke-linejoin="round"/>
<path d="M3 7.09091C3 6.48842 3.48842 6 4.09091 6H4.90909C5.51158 6 6 6.48842 6 7.09091C6 7.6934 5.51158 8.18182 4.90909 8.18182H4.09091C3.48842 8.18182 3 7.6934 3 7.09091Z" fill="black"/>
<path d="M3 12C3 11.3975 3.48842 10.9091 4.09091 10.9091H4.90909C5.51158 10.9091 6 11.3975 6 12C6 12.6025 5.51158 13.0909 4.90909 13.0909H4.09091C3.48842 13.0909 3 12.6025 3 12Z" fill="black"/>
<path d="M3 16.9091C3 16.3066 3.48842 15.8182 4.09091 15.8182H4.90909C5.51158 15.8182 6 16.3066 6 16.9091C6 17.5116 5.51158 18 4.90909 18H4.09091C3.48842 18 3 17.5116 3 16.9091Z" fill="black"/>
</svg>
