<svg width="16" height="17" fill="none" xmlns="http://www.w3.org/2000/svg"><g clip-path="url(#prefix__clip0_7585_116173)" fill="#A7F522"><path d="M10.762 7.269c-.674 0-1.223.549-1.223 1.223v3.4c0 .673.549 1.223 1.223 1.223h4.315v2.161a.3.3 0 01-.3.3H1.223a.3.3 0 01-.301-.3V5.108a.3.3 0 01.3-.3h13.553c.165 0 .301.134.301.3v2.16h-4.315zm1.048-5.34a.322.322 0 01.399.232l.43 1.723H4.771l7.04-1.955zm3.729 6.263H16V5.108c0-.674-.55-1.224-1.224-1.224h-1.185l-.487-1.948a1.241 1.241 0 00-1.541-.896L1.323 3.884h-.1C.55 3.885 0 4.434 0 5.108v10.168c0 .675.55 1.224 1.224 1.224h13.552c.675 0 1.224-.55 1.224-1.224v-3.084h-5.238a.3.3 0 01-.3-.3v-3.4a.3.3 0 01.3-.3h4.777z"/><path d="M11.79 10.184a1.263 1.263 0 102.526 0 1.263 1.263 0 00-2.527 0z"/></g><defs><clipPath id="prefix__clip0_7585_116173"><path fill="#fff" transform="translate(0 .5)" d="M0 0h16v16H0z"/></clipPath></defs></svg>
