<svg width="61" height="14" fill="none" xmlns="http://www.w3.org/2000/svg"><g clip-path="url(#prefix__a)" fill="#000"><path d="M-.109 2.094-.132.434 4.076.386l2.748 2.682.023 1.801L8.412 6.4l.023 2.008 1.147-.013.063 5.019-3.976.049L5.6 7.917zM9.493 4.904l1.348 1.438 2.474-.032-.036-2.72 1.706-1.75L14.97.227l-3.951.046.008.654-1.562 1.547zM48.097.666 58.3.542l2.257 2.207.126 10.637-10.862.132-1.661-1.626-.056-4.498 2.156-.027 1.314 1.283.03 2.323 5.8-.071-.073-6.25-1.629-1.589-5.23.058zM32.223.623 46.102.459l.026 2.194-8.373 8.578 6.92-.087 1.513 1.175.011 1.085-13.766.165-.038-3.293 2.167-2.22 2.303-.025 4.941-4.78-7.739.095-1.833-1.795zM17.097.666 27.3.542l2.259 2.202.128 10.644-10.861.131-1.666-1.627-.052-4.497 2.157-.026 1.314 1.282.025 2.322 5.805-.07-.078-6.25-1.627-1.594-5.227.063z"/></g><defs><clipPath id="prefix__a"><path fill="#fff" d="M0 0h61v14H0z"/></clipPath></defs></svg>