<svg width="137" height="24" fill="none" xmlns="http://www.w3.org/2000/svg"><path fill-rule="evenodd" clip-rule="evenodd" d="M20 18.112h5.454v5.636h-7.272L4.848 6.84H0V.5h6.667L20 18.112zm21.345 0h-5.454L22.557.5h-6.666v6.34h4.848l13.333 16.908h7.273v-5.636zm10.436 0h5.455v5.636h-7.273L36.63 6.84H31.78V.5h6.667L51.78 18.112zm21.342 0h-5.455L54.335.5h-6.667v6.34h4.849L65.85 23.748h7.273v-5.636zm10.436 0h5.454v5.636H81.74L68.407 6.84H63.56V.5h6.666L83.56 18.112zm21.345 0h-5.455L86.116.5h-6.667v6.34h4.849L97.63 23.748h7.273v-5.636zm10.432 0h5.454v5.636h-7.272L100.184 6.84h-4.848V.5h6.667l13.333 17.612zm15.891 0h5.454v5.636h-7.273L116.075 6.84h-4.848V.5h6.666l13.334 17.612z" fill="#fff" fill-opacity=".9"/></svg>