<svg xmlns="http://www.w3.org/2000/svg" viewBox="0 0 612.89 348.85"><defs><style>.prefix__cls-1,.prefix__cls-4{fill:none}.prefix__cls-1{stroke:#a7f522;stroke-width:.5px}.prefix__cls-1,.prefix__cls-4{stroke-miterlimit:10}.prefix__cls-3{fill:#fff}.prefix__cls-4{stroke:#fff}</style></defs><g id="prefix__图层_2" data-name="图层 2"><g id="prefix__图层_1-2" data-name="图层 1"><ellipse class="prefix__cls-1" cx="281.01" cy="118.84" rx="230.32" ry="44.05" transform="rotate(-15.31 281.061 118.862)"/><ellipse class="prefix__cls-1" cx="281.01" cy="196.63" rx="230.32" ry="44.05" transform="rotate(-15.31 281.058 196.652)"/><path d="M111.29 286a16.51 16.51 0 0 0-16.46-16.46 16.51 16.51 0 0 0 16.46-16.47 16.52 16.52 0 0 0 16.47 16.47A16.51 16.51 0 0 0 111.29 286M487.21 75.13a23 23 0 0 0-23-22.95 23 23 0 0 0 23-23 23 23 0 0 0 23 23 23 23 0 0 0-23 22.95" fill="#a7f522"/><path class="prefix__cls-3" d="M0 14.09h14.09v14.09H0zM14.09 0h14.09v14.09H14.09zM0 42.26h14.09v14.09H0zm14.09-14.09h14.09v14.09H14.09zM0 70.43h14.09v14.09H0zm14.09-14.08h14.09v14.09H14.09zM0 98.61h14.09v14.09H0zm14.09-14.09h14.09v14.09H14.09zm555.85 165.72h14.09v14.09h-14.09zm14.09-14.09h14.09v14.09h-14.09zm-14.09 42.26h14.09v14.09h-14.09z"/><path class="prefix__cls-3" d="M584.03 264.33h14.09v14.09h-14.09zm-14.09 42.26h14.09v14.09h-14.09zm14.09-14.09h14.09v14.09h-14.09zm-14.09 42.26h14.09v14.09h-14.09zM584.03 320.67h14.09v14.09h-14.09zm-254.69-44.53v-4.08h10.37l6.69 6.69v4.44l3.83 3.82v4.95h2.82v12.37h-9.8v-13.65zm23.59 7.21 3.28 3.58h6.1v-6.7l4.26-4.26v-3.99h-9.74v1.61l-3.9 3.76zm18.83-11.2h25.16l5.5 5.5v26.23h-26.78l-4.06-4.05v-11.09h5.32l3.2 3.2v5.72h14.31v-15.41l-3.97-3.97h-12.89zm76.8 0h25.16l5.5 5.5v26.23h-26.78l-4.06-4.05v-11.09h5.32l3.2 3.2v5.72h14.31v-15.41l-3.97-3.97h-12.89zm-40.9-.14h34.21v5.41l-20.89 20.9h17.07l3.69 2.94v2.67h-33.95v-8.12l5.41-5.41h5.68l12.32-11.63h-19.08l-4.47-4.47z"/><path class="prefix__cls-4" d="m73.3 327.72-21.26-21.26 6.13-6.13 20.35 20.34v-22.69h9.78v39.52H50.09v-9.78zm45.53 0-21.27-21.26 6.14-6.13 20.34 20.34v-22.69h9.79v39.52H95.61v-9.78z"/><path d="M26.87 327.72 5.61 306.46l6.13-6.13 20.35 20.34v-22.69h9.78v39.52H3.65v-9.78z" stroke="#fff" fill="#fff" stroke-miterlimit="10"/><path class="prefix__cls-4" d="M427.88 14.39V9.35h12.77l8.24 8.24v5.47l4.7 4.71v6.09h3.48v15.23H445V32.27zm29.04 8.87 4.04 4.41h7.5v-8.26l5.25-5.24V9.26h-11.99v1.98l-4.8 4.64zm23.18-13.8h30.97l6.77 6.78v32.29h-32.96l-5-4.99V29.89h6.55l3.94 3.94v7.05h17.61V21.9l-4.88-4.89h-15.87zm94.55 0h30.97l6.77 6.78v32.29h-32.96l-5-4.99V29.89h6.55l3.94 3.94v7.05h17.61V21.9l-4.88-4.89h-15.88zm-50.36-.16h42.13v6.66l-25.73 25.72h21.01l4.55 3.62v3.29h-41.79V38.6l6.66-6.66h6.99l15.17-14.32h-23.49l-5.51-5.5z"/><path class="prefix__cls-3" d="M152.41 144.79c1 1.49 3.69 2.5 5.42 3.31-2.21 7.09-4.08 8.67-9 8.67h-5.32c-6.22 0-7.37-2.44-5.89-8.43l1.82-7.33-5.46.38c-2.78 8.86-5.7 13.61-19.35 15.67a15 15 0 0 0-2.59-6c10.83-1.25 13.08-4.36 15-10.44l-11.35.38 1.62-6.51h43.16l-1.64 6.51h-12.26l-2 8.05c-.38 1.63-.48 1.39 1 1.39h3.55c1.33.01 2.19-1.14 3.29-5.65m-33.09-15.56 3.16-12.74 17.24-.39a21 21 0 0 0-.48-3.11l7.28-1.34a31 31 0 0 1 1.06 5.22l16.52-.38-3.16 12.74h-7.28l1.48-6.08h-27.39l-1.49 6.08zm9.38-3.5h24.19l-1.58 6.37h-24.19zm67.87.05a106 106 0 0 0-1.29 10.68 87 87 0 0 0 6.18-9.63l6.61 2.45a90.4 90.4 0 0 1-12.5 17.1c.24 2.39 1 3.59 1.77 3.59 1.29 0 2.87-2.78 4.26-8.34a14.86 14.86 0 0 0 4.7 4.65c-3 9.15-5.37 10.78-10 10.78-3.45 0-5.61-2.4-6.66-5.56a39.4 39.4 0 0 1-8.43 5.6 34.4 34.4 0 0 0-4-6c.62-.29 1.29-.62 1.91-1-.38.14-.72.24-1.1.34a20.3 20.3 0 0 1-5.7-.39c.05-1.82.14-4.31-.38-5.7a22 22 0 0 1 2.58-.14 2.35 2.35 0 0 0 2.16-1.34c.53-.19 1.39-2.2 2.68-7l-5.12.76a47 47 0 0 1-2.83 7.81 1.3 1.3 0 0 1 .43-.05c-2.2 5.37-4.64 10.4-7.71 13.75a22.6 22.6 0 0 0-4.89-5.37c4.65-5.46 7.19-14 8.72-20.26l3.5-14 19.44-.39c.48-2.2 1-4.4 1.54-6.61l7.13.77c-.62 2.2-1.19 4.41-1.62 6.61l5.84-.62a29.7 29.7 0 0 0-4.07-3.26l4.69-3.78a32.7 32.7 0 0 1 6.37 5l-2.68 2.25h4.9l-1.72 6.85zm-24.71 18.49a.14.14 0 0 0 0 .09h-.1c-.1 0 .1-.04.1-.09M189.63 125l-12.6.39-1.1 4.55H188a27 27 0 0 0-1.2 3.25c-2.34 8.77-3.49 13.18-4.83 15.19a42.4 42.4 0 0 0 6.08-4.79 101.3 101.3 0 0 1 1.58-18.59m36.16 24.39c2.3 1.39 6.13 1.39 10.44 1.39 4.7 0 12.36-.48 17.15-.86-.86 1.92-3 5.36-3.16 7.23-3.35-.14-10.11.1-14.51.1-6 0-9.58-.91-12.07-2.92-2-1-3.21-2.16-3.93-2.16-2.11 0-5.75 3.31-8.86 6.32l-3.5-6.7a47 47 0 0 1 6.66-4.07l3-10.88h-5l1.58-6.41h11.63l-4.21 15.71c1.15.28 2.16 1.48 3.78 2.73l.82-.43a12.8 12.8 0 0 0-2.83-5.42c6.18-1.91 9-5.46 10.59-9.34l-7.52.39 1.48-5.94h12.84l1.2-4.79-5.23.33a41 41 0 0 1-3.92 4.31 31 31 0 0 0-5-4.26 34.8 34.8 0 0 0 8.29-10.72l6.18 2.2a26 26 0 0 1-1.48 2.73l2.63-.38 1.34-5.36h6.9l-1.34 5.36h9.39l-1.44 5.8h-9.39l-1.19 4.79h11.35l-1.46 5.93h-7.66l-1.82 7.28c-.34 1.43-.58 1.19 0 1.19h1c.57 0 1.34-.95 2.2-4.74.86 1.49 3.5 2.49 5.17 3.31-2 6.46-3.73 7.8-7.52 7.8h-3c-5.18 0-5.9-2.44-4.46-8.28l1.63-6.56-2.11.38c-2.52 6.27-5.73 11.3-14.64 14.94m-8.91-32.57 5.8-3.45a34.3 34.3 0 0 1 5.75 7.57l-6.43 3.74c-.71-2.3-3-5.51-5.12-7.86m67.68 5.75-8.43 33.82h-5.46l.58-2.21h-10l-.72 2.88h-5.22l8.58-34.49h5.46l.72-2.92h-6.18l1.53-6.08h22.23l-1.54 6.08h-5.75l-.71 2.92zm-11.4 24h-10l-.62 2.35h10zm1.77-7.28h-1.29c-2.2 0-2.87-1.15-2.06-4.26l1.68-6.71h-1.1l-1.06 4.17c-.67 2.58-1.63 5.89-3.73 7.9a8.4 8.4 0 0 0-1.82-2.11l-1.2 3.59h10zm-9.77-1.44a13.07 13.07 0 0 0 3.16-6.18l.87-3.35h-1.44zm8.62-15.23h1.44l.72-2.92h-1.44zm3.88 5.7h-1.43l-1.87 7.42a1.5 1.5 0 0 1-.14.34h.28a1.6 1.6 0 0 1 .86.24l.1.09zm18.4 9.53.71-2.82h-5.93l-3.36 13.26c-.48 2.11-.57 2 1.11 2h4.21c1.63 0 2.63-1.49 4.12-7.38 1.1 1.53 3.74 2.64 5.36 3.5-2.39 8.14-4.4 10.34-9.77 10.34h-5.94c-5.84 0-7.47-2.34-5.79-9.14l4.79-19.16h12.83l1.87-7.57h-13l1.68-6.71h19.75l-5.89 23.71zm25.53 11.54c2.3 1.39 6.13 1.39 10.44 1.39 4.69 0 12.36-.48 17.15-.86-.87 1.92-3 5.36-3.17 7.23-3.35-.14-10.1.1-14.51.1-6 0-9.58-.91-12.07-2.92-2-1-3.21-2.16-3.93-2.16-2.1 0-5.74 3.31-8.86 6.32l-3.49-6.7a47.6 47.6 0 0 1 6.65-4.07l3-10.88h-5l1.58-6.41h11.64l-4.21 15.71c1.14.28 2.15 1.48 3.78 2.73l.81-.43a12.8 12.8 0 0 0-2.82-5.42c6.18-1.91 8.95-5.46 10.58-9.34l-7.52.39 1.49-5.94H336l1.2-4.79-5.22.33a42 42 0 0 1-3.93 4.31 30.7 30.7 0 0 0-5-4.26 35 35 0 0 0 8.26-10.72l6.18 2.2a25 25 0 0 1-1.49 2.73l2.64-.38 1.34-5.36h6.9l-1.35 5.36h9.39l-1.43 5.8h-9.39l-1.2 4.79h11.35l-1.48 5.94h-7.67l-1.82 7.28c-.33 1.43-.57 1.19 0 1.19h1c.58 0 1.34-.95 2.2-4.74.87 1.49 3.5 2.49 5.18 3.31-2 6.46-3.74 7.8-7.52 7.8h-3c-5.17 0-5.89-2.44-4.45-8.28l1.63-6.56-2.11.38c-2.51 6.26-5.71 11.29-14.62 14.93m-8.91-32.57 5.79-3.45a34 34 0 0 1 5.75 7.57l-6.42 3.74c-.72-2.3-3.02-5.51-5.12-7.86m54.22 22.56-3.12 11.26c-.76 3.11-1.39 4.74-3.11 6-2.2.82-4.41.77-7.52.39-.1-1.73 0-4.55-.72-6.37a7.8 7.8 0 0 0 3.12.24 1.52 1.52 0 0 0 1.67-1.11l2.21-8.71-4.46 1.1-.19-6.76c1.72-.33 3.78-.76 6-1.24l2.16-7.28H358l1.58-6.37h4.93l2.16-8.62h6.75l-2.16 8.62h4.75l-1.58 6.37h-4.75l-1.48 5.75 4.07-1L372 138c-1.7.47-3.38 1-5.1 1.38m31.18 5.37-1.53 6.13h-11.12l-1.63 6.51h-7l1.63-6.51h-10.81l1.53-6.13H380l.58-2.4h-8.48l1.53-6h8.48l.86-3.5h7l-.87 3.5h8.29l-1.53 6h-8.29l-.57 2.4zm-4.79-18.3a43 43 0 0 0 9.72 3.78 35 35 0 0 0-5.17 5.7 36.5 36.5 0 0 1-10.16-5.84 49.2 49.2 0 0 1-13.07 5.17 20.4 20.4 0 0 0-2.68-5.6 42.4 42.4 0 0 0 11.49-4.26 28.8 28.8 0 0 1-3-6.18l-3 .33 1.54-6.08H399l1-.24 3.79 2.54a43.8 43.8 0 0 1-10.5 10.68m-4.65-4c1.68-1.15 3-2.2 4.22-3.2l-6.18.57a13.4 13.4 0 0 0 1.96 2.65zm61.07 9.22-33.29.38c-2.2 8.1-6.08 19.07-12.93 25.44a23 23 0 0 0-4.89-5.27c6.52-6.22 9.58-16.14 11.4-23.22l3-13.27c11.68-.53 24.62-1.92 32.9-4l4.89 5.9c-9.44 2.25-20.84 3.35-31.33 4L418.2 125h33.14zm-4.12 4.41-5.27 21.07h-7.42l.48-1.82h-13.94l-.53 2h-7l5.32-21.26zM421 148.91h14l1.58-6.41H422.6zm46 .15c-1.24 5.12-5.74 9.53-12.54 11.3l-1.3-4.79c3.69-1 6.57-3 7.67-4.93-2.59-.1-4.79-2.2-3.93-5.61a5.61 5.61 0 0 1 5.65-4c4.07.03 5.6 3.19 4.45 8.03"/><path class="prefix__cls-4" d="M150.88 207.25a35.7 35.7 0 0 0 6.27 2.16 31 31 0 0 0-5 5.65c-7.71-2.44-11.59-7.14-13-14l-4.17.39-1.58 6.22 7.09-.81c-.77 1.72-1.87 4.36-1.92 5.84-10.06 1.54-12.07 2.06-13.31 2.73l-.05-.52a13.5 13.5 0 0 0-1.15-5.66 7.8 7.8 0 0 0 3.78-4.79l.77-3h-3.31l1.44-5.8H133l.57-2.35h-5.41l1.44-5.74h5.4l.62-2.45h-6l-.24.87c-2.11 8.57-6 21.45-12.7 29.17a27 27 0 0 0-5.55-4.22c6.22-7.09 9.48-18.06 11.4-25.72l3.47-13.94h37.75l-3.45 13.84h-6.09l-.62 2.45h6.23l-1.44 5.74h-6.22l-.58 2.35H160l-1.44 5.8h-4.79l3.26 2.63c-1.93 1.1-3.95 2.11-6.15 3.16zm3.78-28 .53-2.15h-23.66l-.53 2.15zm-9.58 16.38.58-2.35h-5.75l-.57 2.35zm2-8.09.62-2.45H142l-.62 2.45zm-.67 16.09c1.53-1 2.92-1.72 4-2.44l-5.08.57a12.3 12.3 0 0 0 1.1 1.9zm19.46 6.83a34.5 34.5 0 0 0-5.75-4.69 49 49 0 0 0 10.78-12.7l6.95 2.69a72.9 72.9 0 0 1-11.98 14.7zm21.13-3.11c-.91 3.69-1.82 5.46-4.36 6.7-3.07.87-6.37.82-10.4.44-.14-2.11-.33-5.27-1.15-7.29a32.6 32.6 0 0 0 6.28.39c1.24 0 2.06-.53 2.2-1.2l3.93-15.76h-17.91l1.72-6.94h43.15l-1.72 6.94h-17.58zm-14.14-28.26 1.73-6.9h34.1l-1.72 6.9zm31.9 28.74-7.71 2.39c0-3.93-1.43-10-3.21-14.7l6.85-2.06c1.87 4.4 3.83 10.25 4.07 14.37zm44.31-26.25c-.62 1-1.15 1.82-1.77 2.68l7.33-.38 1.15-.34 3.59 3.26a64.5 64.5 0 0 1-7 6.47l-.72 2.1h4.94l-1.54 6.18h-5l-1.67 6.85c-.77 3-1.3 4.55-3.31 5.75-2.34.77-4.74.62-7.8.24a21.5 21.5 0 0 0-.77-6.23 16.6 16.6 0 0 0 3.93.43 1.68 1.68 0 0 0 1.72-1.05l1.49-6h-5.46l1.53-6.18h5.51l.76-4.21c.67-.48 1.34-1 2-1.58l-5.12.29 1.15-3.21c-1.25-1-3.16-2.16-4.46-3.12a19 19 0 0 1 1.25-1.48l-6.18.72-1.24 4.4 8.52-.38s-.91 2.2-1.24 3.4c-4.17 14.32-6 20.21-7.76 22.42a10.4 10.4 0 0 1-3.5 1.82 16.6 16.6 0 0 1-4.69-.43c0-1.68.19-4-.24-5.42a11 11 0 0 1 1.67-.19 2.4 2.4 0 0 0 2.16-1.48c.86-.58 2.49-4.31 5.31-14.23l-2.2.77c-1.91 5.51-4 10.63-7.42 15.23a3 3 0 0 1 .33-.1 31.8 31.8 0 0 1-5.12 6.13 13.9 13.9 0 0 0-3.45-4.88c-1 1.68-1.92 3.3-2.87 4.88l-5.66-4.11a184 184 0 0 0 9.63-15.81l4.84 4.21c-1.73 3.26-3.55 6.61-5.37 9.82 6.33-6.46 9.39-16.67 12.12-26.82l-3 .38 1.63-6-3 3a43.7 43.7 0 0 0-6.33-4.7l4.65-4.59a68 68 0 0 1 6.7 4.16l-1.43 1.63 6-.38a29 29 0 0 0-1.29-4.65l6.52-1.72a42 42 0 0 1 2 5.6l-3.64 1.15h6.94l-.76 2.59a55 55 0 0 0 4.6-9.34l6.22 1.87c-.52 1.39-1.1 2.73-1.72 4.07l9.15-.39-1.68 6.52zm-29.7 10.3a46.4 46.4 0 0 0-6.32-4.5l4.7-4.65a72 72 0 0 1 6.6 4zm5.13 16.57c0 .05.05.1.05.14h-.15s.05-.09.1-.14zm45.12-6.18a48.5 48.5 0 0 1-9.77 9.44 20.4 20.4 0 0 0-3.93-6c3.45-2.25 7.14-6 10.68-10.73-1.63-3-3.35-6.37-5-9.29l5.27-3.45c1.15 2.06 2.49 4.36 3.74 6.37a61 61 0 0 0 4.5-8.57l-11.78.38 1.53-6.08h13.65l1.15-.24 4.07 1.87a99.2 99.2 0 0 1-9.58 19.83 56.4 56.4 0 0 1 3.64 8l-6.21 4.2a31 31 0 0 0-1.96-5.73zm22 2a3.15 3.15 0 0 0 1.82 2c1.3 0 2.73-2.64 4-7.33.86 1.92 3.49 3.88 4.6 4.93-3.5 9.54-6.66 11.12-9.06 10.83a8.62 8.62 0 0 1-7.76-5.8 29.7 29.7 0 0 1-7 4 21.6 21.6 0 0 0-4.69-5.41 37.1 37.1 0 0 0 10.06-5.7A93 93 0 0 1 284.9 188l-4.27.86.77-6.37 4.65-.91c.71-3.78 1.63-7.85 2.58-12.26l7.09.77c-1 4-1.91 7.85-2.63 11.4l13.89-2-.72 6.23-6.9.81 4.79 3.74a75.1 75.1 0 0 1-12.55 13.97zm-.91-7.76a74.7 74.7 0 0 0 8.67-10.3l-7.47 1.63c-.55 3.32-.91 6.34-1.22 8.64zm6.18-23.71 5.37-3.07c1.38 2 3.54 4.89 4.59 6.66l-5.89 3.5a53.4 53.4 0 0 0-4.09-7.12zm50.8 40.63h-30.22l1.67-6.61h12.41l2.06-8.29h-8.81l1.62-6.46h8.82l1.67-6.71-4.26.39c-1.34 2.34-2.63 4.45-3.64 5.94-1.2-1.35-3.93-2.83-5.51-3.84a26 26 0 0 1 1.5-2.15l-2.88 1.2a20 20 0 0 0 0-2.88l-7.76 30.85h-7l6.47-25.87c-.72 1.67-1.39 3.25-2.06 4.59l-4.7-2.58a76.5 76.5 0 0 0 5.51-12.69l3.64.91 2.44-9.82h7l-2.35 9.19 2.78-.81c.38 1.48.76 3.25 1 4.5a68 68 0 0 0 4.79-11.06l6.42 1.77c-.77 2.11-1.59 4.21-2.45 6.23l2.73-.39 2.25-9.1h6.95l-2.25 9.1h9.19l-1.63 6.56h-9.19l-1.68 6.71h8.19l-1.63 6.46h-8.19l-2.06 8.29h10.88zm22.23.62c-2.3.82-4.46.67-7.14.29-.24-1.77-.43-4.4-1.25-6a7.8 7.8 0 0 0 3.21.24 1.52 1.52 0 0 0 1.68-1l.38-1.49h-5.46l-2.2 8.72h-6.42l7-28h18.78l-5.41 21.7c-.73 2.81-1.36 4.35-3.17 5.54zm12-30.65-6.71 1.72a9.7 9.7 0 0 1 .15-2.3c-11.07 1.39-13.17 1.78-14.47 2-.33-1.49-.62-4.65-1.24-6.56.62.09 1.82-.87 2.73-2.16.95-.53 4-3.83 6-7.23l7.09 2.59a72 72 0 0 1-6.46 7.28l5.36-1.06a32 32 0 0 0-1-3.45l6-1.53c1.27 3.3 2.52 7.63 2.52 10.7zm-13.36 15.76h-5.46l-.48 1.87h5.46zm-4.22-5.08h5.46l.43-1.63h-5.46zm28.16 8.86c1.06 1.44 3.55 2.4 5.27 3.21-2.1 6.8-4 8.43-8.95 8.43h-5.85c-6.18 0-7.42-2.35-5.94-8.38l3.55-14.13h6.89l-1.72 5.56a59 59 0 0 0 8.48-4.17l3.88 5.51a105 105 0 0 1-13.27 4.88l-1.1 3.07c-.43 1.82-.43 1.63 1.2 1.63H389c1.46 0 2.37-1.25 3.47-5.61zm-9.67-20.07 3.3-13.26H393l-1.82 6a72 72 0 0 0 8.24-3.83l3.69 5.46a98.6 98.6 0 0 1-12.79 4.31l-.81 2c-.43 1.78-.48 1.58 1.1 1.58h3.93c1.39 0 2.25-1.05 3.16-4.74 1 1.44 3.54 2.4 5.22 3.16-2 6.23-3.83 7.67-8.53 7.67h-5.7c-6.23-.01-7.42-2.36-5.89-8.35zm37.81 25.01-4.6 4a24 24 0 0 0-2.54-2.06 35.7 35.7 0 0 1-12.45 4.79c-.58-1.63-1.2-4-2.3-5.27a31.1 31.1 0 0 0 9.53-3.21c-1.68-1-3.64-2.06-5.6-3.26.76-.95 2-2.3 3.21-3.73l-2.83.33 1.39-5.55 5.75-.34c.67-.91 1.24-1.82 1.77-2.68l1 .33 1-3.16a33 33 0 0 1-7.23 4.27 20.6 20.6 0 0 0-2.73-5.27 30 30 0 0 0 8.14-4.31l-5.8.24 1.34-5.42 3.31-.38a17.8 17.8 0 0 0-.86-5.56l4.93-1.38a18 18 0 0 1 1.48 5.89l-4.45 1.43h4.26l2.06-8.28h6.37l-1.63 5.94a61 61 0 0 0 4.32-5.89l5.5 2.92c-2.06 2-3.92 3.93-5.41 5.31h3.88l-1.28 5.42-6.08.19c1.58 1 3.21 2.11 3.92 2.58l-4.31 4.27c-.67-.91-1.82-2.11-2.92-3.36l-1.39 4.6h-6.27l4.69 1.54a13 13 0 0 1-1 1.43l5-.33 1-.19 3.5 1.72a38 38 0 0 1-8.29 10.82 12.5 12.5 0 0 1 2.62 1.61zm-3.4-8.72-4.5.67a14.6 14.6 0 0 1-1.73 2c.77.19 1.68.62 2.4.86a20 20 0 0 0 3.83-3.53zM452 177.94l-1.58 6.42-3 .38a73.2 73.2 0 0 1-8.57 16.86 17.4 17.4 0 0 0 6.37 7.86 28.2 28.2 0 0 0-5.37 5.12 23.5 23.5 0 0 1-5.7-7.52 34.7 34.7 0 0 1-12.26 7.86 23.2 23.2 0 0 0-2.54-5.85 30.1 30.1 0 0 0 12.65-8.76 45.3 45.3 0 0 1-.77-7.95 30.4 30.4 0 0 1-2.73 3.4 30 30 0 0 0-4-5c4.83-4.7 9.19-13.08 12.36-21.8l6 1.68c-1 2.64-2.06 5.22-3.21 7.71zm-29.22-.34h4l-3.5-1.91zm18.4 6.37-4.17.77a55 55 0 0 0 .09 8.38 64.5 64.5 0 0 0 4.09-9.12zm20.51 13.08-2.88 10.25c-.72 3-1.34 4.65-3 5.89-2.05.86-4.26.82-7.23.43-.05-1.67.05-4.5-.67-6.32a12 12 0 0 0 3.12.38 1.8 1.8 0 0 0 1.72-1.19l2-7.81-4.07 1-.19-6.76c1.63-.29 3.54-.67 5.6-1.15l2.16-7.28h-4.5l1.58-6.37h4.5l2.2-8.72h6.33l-2.21 8.72h4.51L469 184.5h-4.5l-1.5 5.89 4-.95-.33 6.32c-1.67.43-3.26.86-4.98 1.29zm23.66 2.2h8.28l-3.88 15.57h-6.22l.28-1H474l-.29 1h-5.94l3.07-12a45.7 45.7 0 0 1-7.48 12.31 23 23 0 0 0-4.79-4.65c6.09-6.8 9.25-17.39 11.11-24.86l3.6-14.41h27.06L496.65 186h-8l-.91 3.64h9.15l-1.44 5.79h-9.14zm-11.83-3.44c-.43 1.24-.87 2.53-1.39 3.83l6.7-.39 1-3.83zm2.73-9.44-.91 3.64 5.89-.38.91-3.64zm-.05 18.54-.86 3.4h9.82l.86-3.4zm1.63-24.82h13.74l.77-3h-13.75z"/></g></g></svg>