<svg width="265" height="23" fill="none" xmlns="http://www.w3.org/2000/svg"><path d="m195.226 8.266 6.459 6.46h24.844l3.297-3.297h11.345l2.834 2.833h20.242" stroke="url(#prefix__a)" stroke-miterlimit="10"/><path d="M200.614 7.251h-2.109l5.428 5.54h2.114z" fill="url(#prefix__b)"/><path d="M203.955 7.251h-2.108l5.427 5.54h2.114z" fill="url(#prefix__c)"/><path d="M207.296 7.251h-2.108l5.427 5.54h2.109z" fill="url(#prefix__d)"/><path d="M210.638 7.251h-2.109l5.428 5.54h2.108z" fill="url(#prefix__e)"/><path d="M213.979 7.251h-2.114l5.433 5.54h2.108z" fill="url(#prefix__f)"/><path d="m228.57 15.093 2.181-2.13h9.711l2.377 2.091z" fill="url(#prefix__g)"/><path d="m69.02 8.266-6.464 6.46H37.712l-3.296-3.297h-11.34l-2.834 2.833H0" stroke="url(#prefix__h)" stroke-miterlimit="10"/><path d="M63.627 7.251h2.114l-5.433 5.54H58.2z" fill="url(#prefix__i)"/><path d="M60.292 7.251h2.109l-5.433 5.54h-2.109z" fill="url(#prefix__j)"/><path d="M56.95 7.251h2.11l-5.434 5.54h-2.108z" fill="url(#prefix__k)"/><path d="M53.61 7.251h2.108l-5.433 5.54h-2.108z" fill="url(#prefix__l)"/><path d="M50.268 7.251h2.109l-5.428 5.54h-2.114z" fill="url(#prefix__m)"/><path d="m35.677 15.093-2.181-2.13h-9.717l-2.37 2.091z" fill="url(#prefix__n)"/><g clip-path="url(#prefix__o)"><path d="m78.409 3.977.435-3.023L78.09.06h6.052l-.558 3.905H84.6l-.374 2.755H83.19l-.463 3.347.803-.245-.463 3.207-.77.245-.96 6.856a2.37 2.37 0 0 1-.83 1.467 2.33 2.33 0 0 1-1.54.557h-4.78l2.064-2.789.619-4.462-1.757.558.463-3.19 1.724-.525.708-5.02h-1.634l.373-2.744zM91.238 2.56h2.683l.122-.77L92.872.62h6.258l-.278 1.94h3.781l-.401 2.929H98.45l-.368 2.465h3.051l-.402 2.929h-3.05l-.341 2.465h3.062l-.43 2.928H96.91l-.34 2.471h3.793l-.401 2.895H88.555l-.062.497h-4.825l2.377-16.957-.988.307.497-3.514L91.606 0zm-2.282 16.176h2.711l.368-2.46h-2.744zm.77-5.4h2.683l.34-2.465h-2.683zm.742-5.393h2.71l.341-2.466h-2.683z" fill="url(#prefix__p)"/><path d="m106.839 3.347-.96-1.116h10.855l.156-1.082L115.903 0h7.58l-.334 2.231h7.552l-.402 2.929h-18.563l-3.664 17.007h-5.277z" fill="url(#prefix__q)"/><path d="m131.287 21.09 2.404-13.599h1.818l-2.376 13.599zm4.719-14.397h-2.471l.435-2.928h2.465l.402-2.867-.619-.898h4.657l-.524 3.76h2.443l-.441 2.933h-2.437L137.729 22.2h-3.904zm2.99 12.646 1.199-11.842h1.818l-1.171 11.842zm13.314.585.402-2.928h-4.747l-2.231 5.21h-4.29l3.548-8.172h-3.023l.401-2.9h5.489l.245-1.635h4.875l-.267 1.657h5.488l-.401 2.9h-8.54l-.279.614h8.233l-.831 5.862a1.45 1.45 0 0 1-.558 1.015c-.302.258-.685.4-1.082.402h-4.317zm-2.125-13.476h2.091l.926-1.757h3.827l-.898 1.757h2.839l-.558 4.072h-3.904l.189-1.417h-8.149l-.184 1.417h-3.793l.558-4.072h3.207l-.402-1.757h3.855zm-.865-4.775.062-.457-1.01-1.183h5.678l-.228 1.64h4.903l-.313 2.399h-14.056l.312-2.399z" fill="url(#prefix__r)"/><path d="m184.745 0-1.444 2.588h3.664l-1.478 10.598h-9.097l-.212 1.445h9.99l-.424 2.945h-9.968l-.63 4.624h-5.857l.647-4.624h-9.929l.402-2.934h9.923l.218-1.445h-9.048L162.98 2.6h4.256l-.457-1.612L165.97 0h6.443l.714 2.588h4.283l.988-1.723-.709-.865zm-17.604 10.542h3.766l.184-1.322h-3.754zm.558-3.943h3.76l.184-1.356h-3.749zm12.919 3.943.184-1.322h-3.855l-.184 1.322zM177.5 5.243l-.184 1.356h3.854l.184-1.356z" fill="url(#prefix__s)"/></g><defs><linearGradient id="prefix__a" x1="195.031" y1="11.535" x2="264.247" y2="11.535" gradientUnits="userSpaceOnUse"><stop stop-color="#3FD3ED"/><stop offset="1" stop-color="#6E40DE"/></linearGradient><linearGradient id="prefix__b" x1="197.552" y1="8.83" x2="219.462" y2="14.346" gradientUnits="userSpaceOnUse"><stop stop-color="#3FD3ED"/><stop offset="1" stop-color="#6E40DE"/></linearGradient><linearGradient id="prefix__c" x1="197.747" y1="8.038" x2="219.662" y2="13.56" gradientUnits="userSpaceOnUse"><stop stop-color="#3FD3ED"/><stop offset="1" stop-color="#6E40DE"/></linearGradient><linearGradient id="prefix__d" x1="197.948" y1="7.246" x2="219.863" y2="12.768" gradientUnits="userSpaceOnUse"><stop stop-color="#3FD3ED"/><stop offset="1" stop-color="#6E40DE"/></linearGradient><linearGradient id="prefix__e" x1="198.149" y1="6.454" x2="220.059" y2="11.976" gradientUnits="userSpaceOnUse"><stop stop-color="#3FD3ED"/><stop offset="1" stop-color="#6E40DE"/></linearGradient><linearGradient id="prefix__f" x1="198.35" y1="5.662" x2="220.26" y2="11.184" gradientUnits="userSpaceOnUse"><stop stop-color="#3FD3ED"/><stop offset="1" stop-color="#6E40DE"/></linearGradient><linearGradient id="prefix__g" x1="228.57" y1="14.028" x2="242.839" y2="14.028" gradientUnits="userSpaceOnUse"><stop stop-color="#3FD3ED"/><stop offset="1" stop-color="#6E40DE"/></linearGradient><linearGradient id="prefix__h" x1="69.216" y1="11.535" x2="0" y2="11.535" gradientUnits="userSpaceOnUse"><stop stop-color="#3FD3ED"/><stop offset="1" stop-color="#6E40DE"/></linearGradient><linearGradient id="prefix__i" x1="66.695" y1="8.83" x2="44.779" y2="14.346" gradientUnits="userSpaceOnUse"><stop stop-color="#3FD3ED"/><stop offset="1" stop-color="#6E40DE"/></linearGradient><linearGradient id="prefix__j" x1="66.495" y1="8.038" x2="44.585" y2="13.56" gradientUnits="userSpaceOnUse"><stop stop-color="#3FD3ED"/><stop offset="1" stop-color="#6E40DE"/></linearGradient><linearGradient id="prefix__k" x1="66.294" y1="7.246" x2="44.384" y2="12.768" gradientUnits="userSpaceOnUse"><stop stop-color="#3FD3ED"/><stop offset="1" stop-color="#6E40DE"/></linearGradient><linearGradient id="prefix__l" x1="66.093" y1="6.454" x2="44.183" y2="11.976" gradientUnits="userSpaceOnUse"><stop stop-color="#3FD3ED"/><stop offset="1" stop-color="#6E40DE"/></linearGradient><linearGradient id="prefix__m" x1="65.898" y1="5.662" x2="43.982" y2="11.184" gradientUnits="userSpaceOnUse"><stop stop-color="#3FD3ED"/><stop offset="1" stop-color="#6E40DE"/></linearGradient><linearGradient id="prefix__n" x1="35.677" y1="14.028" x2="21.408" y2="14.028" gradientUnits="userSpaceOnUse"><stop stop-color="#3FD3ED"/><stop offset="1" stop-color="#6E40DE"/></linearGradient><linearGradient id="prefix__p" x1="65.49" y1="5.957" x2="192.376" y2="38.549" gradientUnits="userSpaceOnUse"><stop stop-color="#fff"/><stop offset=".49" stop-color="#3FD3ED"/><stop offset=".96" stop-color="#6755E0"/></linearGradient><linearGradient id="prefix__q" x1="67.202" y1="-.714" x2="194.088" y2="31.878" gradientUnits="userSpaceOnUse"><stop stop-color="#fff"/><stop offset=".49" stop-color="#3FD3ED"/><stop offset=".96" stop-color="#6755E0"/></linearGradient><linearGradient id="prefix__r" x1="69.105" y1="-8.11" x2="195.985" y2="24.481" gradientUnits="userSpaceOnUse"><stop stop-color="#fff"/><stop offset=".49" stop-color="#3FD3ED"/><stop offset=".96" stop-color="#6755E0"/></linearGradient><linearGradient id="prefix__s" x1="71.151" y1="-16.092" x2="198.037" y2="16.499" gradientUnits="userSpaceOnUse"><stop stop-color="#fff"/><stop offset=".49" stop-color="#3FD3ED"/><stop offset=".96" stop-color="#6755E0"/></linearGradient><clipPath id="prefix__o"><path fill="#fff" d="M74.186 0h112.779v22.2H74.186z"/></clipPath></defs></svg>