<svg width="284" height="110" viewBox="0 0 284 110" fill="none" xmlns="http://www.w3.org/2000/svg">
<path d="M277.26 71.3099L269.09 89.1899L279 93.7199L250.45 105.5L238.89 75.3899L249.04 80.0299L257.2 62.1499L277.26 71.3099Z" fill="#9964FF"/>
<path d="M280.25 74.2999L272.08 92.1799L281.99 96.7099L253.44 108.49L241.88 78.3799L252.03 83.0199L260.19 65.1399L280.25 74.2999Z" stroke="white" stroke-miterlimit="10"/>
<path d="M34.6499 60.6601C36.067 59.7782 37.297 58.6263 38.2699 57.2701H35.5499L35.6699 56.1901H38.9199C39.0999 55.8301 39.2499 55.4701 39.3899 55.1201H40.6799C40.5099 55.5701 40.3599 55.9201 40.2399 56.1901H45.2399L45.0999 57.2701H39.6999C39.5999 57.4501 39.3799 57.7801 39.0599 58.2701H43.0599C43.3174 58.2523 43.5718 58.3347 43.7699 58.5001C43.8533 58.5855 43.9178 58.6876 43.9591 58.7996C44.0005 58.9115 44.0178 59.031 44.0099 59.1501C44.0158 59.23 44.0158 59.3102 44.0099 59.3901L43.4999 64.3901C43.4872 64.6879 43.3824 64.9744 43.1999 65.2101C43.1082 65.3005 42.9985 65.3704 42.8778 65.4152C42.7571 65.46 42.6283 65.4788 42.4999 65.4701C42.1025 65.4605 41.7071 65.4102 41.3199 65.3201C41.0148 65.2605 40.7142 65.1803 40.4199 65.0801L40.5399 64.0801C41.0546 64.2255 41.5794 64.3324 42.1099 64.4001H42.1599C42.205 64.417 42.2548 64.417 42.2999 64.4001C42.3367 64.3547 42.3578 64.2985 42.3599 64.2401L42.4599 63.1801H37.8399L37.5899 65.4201H36.3999L36.9799 60.4201C36.6199 60.7201 36.2099 61.0301 35.7399 61.3501L34.6499 60.6601ZM42.5799 61.1901H38.0599L37.9499 62.1901H42.4999L42.5799 61.1901ZM42.7699 59.2501H38.2799L38.1599 60.2501H42.6799L42.7699 59.2501Z" fill="white"/>
<path d="M49.43 61C49.26 61.53 48.98 62.3101 48.59 63.3301C48.38 63.8701 48.1 64.57 47.73 65.42H46.48C47.1477 63.9828 47.7288 62.5068 48.22 61H49.43ZM47.36 57.7001L49.49 58.91L49.34 60.12L47.18 58.89L47.36 57.7001ZM48 55.19L50.16 56.42L50 57.6301L47.79 56.4001L48 55.19ZM51.75 60.69C51.65 61.6247 51.4659 62.5484 51.2 63.4501C50.9579 64.2321 50.5484 64.9521 50 65.56L48.88 65.18C49.4073 64.5874 49.833 63.9116 50.14 63.18C50.4187 62.3859 50.5934 61.559 50.66 60.7201L51.75 60.69ZM50.47 57.2701L50.6 56.19H53.1L52.8 55.05H54.05L54.4 56.19H57.12L57 57.2701H53.58C53.0216 57.9635 52.4133 58.6152 51.76 59.2201L53.31 59.1C53.81 59.1 54.37 59.01 54.98 58.94L54.47 57.7701H55.61L56.79 60.39H55.6L55.41 59.94C54.7 60.02 54 60.09 53.31 60.14L51.15 60.26C50.9629 60.2783 50.7741 60.2509 50.6 60.18C50.4627 60.1188 50.35 60.0131 50.28 59.8801C50.2413 59.8059 50.2208 59.7237 50.22 59.64C50.2282 59.5306 50.2581 59.4238 50.3079 59.326C50.3577 59.2282 50.4263 59.1412 50.51 59.07C51.1035 58.5023 51.6644 57.9013 52.19 57.2701H50.47ZM53.77 60.7001L53.22 65.32H52.12L52.67 60.7001H53.77ZM54.77 60.7001H55.85L55.5 64.1C55.5 64.1 55.5 64.1501 55.5 64.18C55.5 64.21 55.57 64.3001 55.71 64.3001C55.9419 64.3035 56.1735 64.28 56.4 64.2301C56.6494 64.1741 56.8936 64.0971 57.13 64L56.98 65.14C56.7704 65.2074 56.5566 65.2609 56.34 65.3001C56.1193 65.3431 55.8948 65.3632 55.67 65.3601H55.3C55.0519 65.3783 54.8059 65.3034 54.61 65.1501C54.534 65.0648 54.4762 64.965 54.4401 64.8567C54.404 64.7484 54.3903 64.6338 54.4 64.52C54.3935 64.4402 54.3935 64.3599 54.4 64.28L54.77 60.7001Z" fill="white"/>
<path d="M59.4599 63.92L59.5599 63.15H63.1599L63.2199 62.66H59.8199L60.1099 60.33C60.1273 60.1299 60.2203 59.944 60.3699 59.81C60.5366 59.6764 60.7466 59.6087 60.9599 59.62H67.1299C67.7599 59.62 68.0499 59.9 67.9799 60.45L67.7599 62.66H64.3699L64.3099 63.15H67.9999L67.9099 63.92H64.2299V64.41H68.7799L68.6699 65.22H58.6699L58.7699 64.41H62.9999V63.92H59.4599ZM68.9199 59.21H59.1899L59.2699 58.44H68.9999L68.9199 59.21ZM67.9999 58.06H60.2899L60.5299 56.06C60.5299 55.61 60.8699 55.39 61.4099 55.39H67.4699C67.5744 55.3827 67.6792 55.3976 67.7775 55.4338C67.8757 55.47 67.9652 55.5267 68.0399 55.6C68.1107 55.6771 68.162 55.7699 68.1899 55.8707C68.2177 55.9715 68.2211 56.0776 68.1999 56.18L67.9999 58.06ZM63.3399 61.47H60.9999V61.94H63.2999L63.3399 61.47ZM63.4599 60.34H61.1699L61.1199 60.8H63.4099L63.4599 60.34ZM61.4599 57.34H66.8899L66.9999 57H61.5299L61.4599 57.34ZM67.0699 56H61.6499V56.36H66.9999L67.0699 56ZM64.4399 61.9H66.7199V61.43H64.4899L64.4399 61.9ZM66.8299 60.76V60.3H64.6099V60.76H66.8299Z" fill="white"/>
<path d="M80.4 55.6499L80.28 56.7399H76.79L76.58 58.5599V58.8799H80.9L80.7 59.9999H76.2C75.7705 61.1254 75.159 62.1726 74.39 63.0999C74.0022 63.579 73.574 64.024 73.11 64.4299C72.6976 64.7986 72.2407 65.1144 71.75 65.3699L70.54 64.7999C71.5199 64.2402 72.4044 63.528 73.16 62.6899C73.9038 61.9044 74.503 60.9938 74.93 59.9999H71.25L71.38 58.8799H75.28V58.6599L75.52 56.7399H72.18L72.32 55.6499H80.4ZM76.22 60.4799H77.43L77 63.8599C76.992 63.9062 76.992 63.9536 77 63.9999C76.9977 64.0278 77.0019 64.056 77.0123 64.082C77.0227 64.1081 77.039 64.1313 77.06 64.1499C77.1264 64.1891 77.2033 64.2065 77.28 64.1999H78.36C78.7691 64.1976 79.1772 64.1608 79.58 64.0899C79.9619 64.0158 80.3367 63.9088 80.7 63.7699L80.56 64.9999C79.8014 65.2095 79.017 65.3105 78.23 65.2999H76.79C76.5185 65.3206 76.2486 65.2424 76.03 65.0799C75.9422 64.999 75.8733 64.8997 75.8284 64.789C75.7834 64.6784 75.7635 64.5592 75.77 64.4399C75.77 64.3499 75.77 64.2799 75.77 64.2399L76.22 60.4799Z" fill="white"/>
<path d="M92.84 64.1399L92.49 65.2499H89.87C89.0608 65.2658 88.2592 65.0911 87.53 64.7399C86.8153 64.3782 86.198 63.85 85.73 63.1999C85.126 63.9908 84.4121 64.6912 83.61 65.2799L82.47 64.8499C83.4778 64.0994 84.3647 63.1989 85.1 62.1799C84.7382 61.4852 84.45 60.7546 84.24 59.9999L84.02 60.4499C83.9521 60.5978 83.8753 60.7414 83.79 60.8799H82.59C83.0848 59.9807 83.5321 59.0561 83.93 58.1099C84.3414 57.1575 84.6986 56.1827 85 55.1899H86.2L85.7 56.5999H87.7C87.7906 56.5964 87.881 56.6134 87.9641 56.6498C88.0472 56.6861 88.1211 56.7409 88.18 56.8099C88.301 56.9635 88.3646 57.1545 88.36 57.3499C88.3698 57.4463 88.3698 57.5435 88.36 57.6399C87.976 59.271 87.3346 60.8306 86.46 62.2599C86.8439 62.8619 87.3736 63.3573 88 63.6999C88.7211 64.0151 89.5034 64.1654 90.29 64.1399H92.84ZM85.28 57.6999L84.92 58.5599C85.08 59.4513 85.3627 60.3161 85.76 61.1299C86.3033 60.0846 86.7453 58.9896 87.08 57.8599C87.08 57.8599 87.08 57.8599 87.08 57.7799C87.08 57.6999 87.08 57.6999 86.96 57.6999H85.28ZM89.66 63.4099H88.5L89.5 55.1799H90.67L89.66 63.4099ZM93 61.0699H91.84L90.71 57.3399H91.83L93 61.0699Z" fill="white"/>
<path d="M101 63.46C102.231 64.0038 103.514 64.4193 104.83 64.7L103.83 65.56C102.449 65.2057 101.109 64.7097 99.8299 64.08C98.4222 64.715 96.9457 65.1848 95.4299 65.48L94.4299 64.65C95.8701 64.3473 97.2819 63.9225 98.6499 63.38C97.8316 62.7829 97.0865 62.0915 96.4299 61.32H95.7699L95.8899 60.32H103C103.203 60.3067 103.403 60.3711 103.56 60.5C103.624 60.5577 103.676 60.6287 103.71 60.7081C103.745 60.7875 103.762 60.8734 103.76 60.96C103.75 61.1657 103.66 61.3595 103.51 61.5C102.744 62.2395 101.903 62.8965 101 63.46ZM97.7999 57.65L96.4199 59.92H95.1899L96.6199 57.65H97.7999ZM105 56L104.88 57H102.12L101.78 59.82H100.61L100.94 57H99.6399L99.2999 59.82H98.1499L98.4899 57H95.4899L95.6199 56H99.8299L99.4699 55H100.77L101.14 56H105ZM97.8499 61.3C98.4577 61.8798 99.1286 62.3897 99.8499 62.82C100.568 62.4392 101.239 61.9761 101.85 61.44C101.858 61.414 101.858 61.386 101.85 61.36C101.85 61.36 101.85 61.31 101.77 61.3H97.8499ZM103.79 57.63L104.79 59.92H103.59L102.59 57.63H103.79Z" fill="white"/>
<path d="M110.5 63.51C109.72 63.73 109.06 63.9 108.5 64.02C107.94 64.14 107.16 64.31 106.5 64.43L106.64 63.3C107.29 63.19 107.73 63.11 107.96 63.05L108.3 60.17H107L107.12 59.17H108.39L108.64 57H107.26L107.38 55.95H111.14L111 57H109.8L109.55 59.17H110.73L110.61 60.17H109.43L109.13 62.79L109.83 62.61L110.59 62.4L110.5 63.51ZM114.6 58.88C114.509 59.6178 114.345 60.3447 114.11 61.05H115.01L114.7 64.05V64.11C114.7 64.22 114.76 64.27 114.87 64.27H115.3C115.596 64.2631 115.89 64.2296 116.18 64.17C116.478 64.1098 116.77 64.0194 117.05 63.9L116.91 65.07C116.666 65.1671 116.411 65.231 116.15 65.26C115.82 65.3193 115.485 65.3495 115.15 65.35H114.36C114.243 65.3595 114.126 65.3459 114.014 65.3098C113.903 65.2738 113.799 65.2161 113.71 65.14C113.635 65.0523 113.577 64.9507 113.541 64.8409C113.505 64.7311 113.491 64.6152 113.5 64.5C113.494 64.4201 113.494 64.3399 113.5 64.26L113.76 61.78C113.147 63.2851 112.104 64.5758 110.76 65.49L109.65 65C110.732 64.3158 111.642 63.392 112.31 62.3C112.954 61.2116 113.356 59.9975 113.49 58.74L113.64 57.29H114.8L114.6 58.88ZM116.08 55.54C116.337 55.5222 116.592 55.6046 116.79 55.77C116.88 55.8574 116.951 55.9636 116.996 56.0811C117.04 56.1986 117.059 56.3245 117.05 56.45C117.056 56.5232 117.056 56.5968 117.05 56.67L116.46 61.67H115.32L115.9 56.67H112.8L112.2 61.67H111.07L111.69 56.48C111.704 56.2186 111.811 55.9706 111.99 55.78C112.214 55.6136 112.492 55.5353 112.77 55.56L116.08 55.54Z" fill="white"/>
<path d="M119.25 56.1199C119.55 56.1199 119.91 56.0299 120.33 55.9899C120.75 55.9499 121.1 55.9399 121.33 55.9399C123.14 55.9399 124.05 56.5499 124.05 57.7799C124.05 57.8599 124.05 57.9899 124.05 58.1699C124.016 58.6842 123.82 59.1745 123.49 59.5699C123.127 59.9299 122.704 60.2243 122.24 60.4399C122.03 60.5311 121.835 60.6524 121.66 60.7999C121.547 60.8966 121.461 61.0206 121.41 61.1599C121.362 61.3306 121.325 61.5044 121.3 61.6799V62.1399H119.96L120.04 61.5299C120.064 61.0953 120.202 60.6747 120.44 60.3099C120.699 59.9687 121.044 59.7028 121.44 59.5399C121.665 59.4466 121.882 59.3363 122.09 59.2099C122.254 59.1161 122.394 58.9862 122.5 58.8299C122.618 58.653 122.693 58.451 122.72 58.2399V58.0999C122.726 57.9739 122.698 57.8485 122.638 57.7374C122.578 57.6263 122.489 57.5338 122.38 57.4699C122.041 57.3048 121.665 57.2324 121.29 57.2599C120.566 57.2702 119.844 57.3371 119.13 57.4599L119.25 56.1199ZM119.61 63.9999C119.629 63.8133 119.714 63.6396 119.85 63.5099C119.992 63.3969 120.169 63.3367 120.35 63.3399H120.7C120.786 63.3353 120.871 63.348 120.952 63.3772C121.033 63.4064 121.107 63.4515 121.17 63.5099C121.23 63.5747 121.273 63.6533 121.296 63.7387C121.319 63.8242 121.32 63.9139 121.3 63.9999V64.3599C121.284 64.5526 121.195 64.7317 121.05 64.8599C120.912 64.9806 120.733 65.0449 120.55 65.0399H120.2C120.113 65.0451 120.027 65.0317 119.945 65.0007C119.864 64.9696 119.791 64.9217 119.73 64.8599C119.673 64.7914 119.632 64.7107 119.611 64.624C119.591 64.5372 119.59 64.4469 119.61 64.3599V63.9999Z" fill="white"/>
<path d="M130.46 61.1001C131.16 60.5312 131.828 59.9235 132.46 59.2801C133.021 58.7117 133.536 58.0998 134 57.4501H131.48L131.63 56.3201H134.7C134.913 55.9302 135.107 55.5297 135.28 55.1201H136.63C136.469 55.5298 136.285 55.9304 136.08 56.3201H141.2L141.07 57.4501H135.4C134.918 58.2156 134.38 58.9442 133.79 59.6301L133.16 65.3401H132L132.47 61.0501C132.151 61.3473 131.818 61.6277 131.47 61.8901L130.46 61.1001ZM133.74 65.1001L133.88 63.9901H136.46L136.77 61.1001H134.42L134.55 60.0301H136.88L137.09 58.1201H138.29L138.08 60.0301H140.51L140.38 61.1001H138L137.66 64.0001H140.72L140.58 65.1101L133.74 65.1001Z" fill="white"/>
<path d="M145.24 65L145.4 63.85C145.882 64.0346 146.377 64.1849 146.88 64.3H146.94C146.992 64.3037 147.044 64.2887 147.086 64.2575C147.129 64.2263 147.158 64.1811 147.17 64.13L147.38 62.37H143L143.13 61.3H147.51V61L149.21 59.89H145.03L145.15 58.89H150.24C150.452 58.8783 150.662 58.9344 150.84 59.05C150.905 59.0921 150.958 59.1499 150.995 59.2181C151.032 59.2862 151.051 59.3626 151.05 59.44C151.044 59.5903 151.001 59.7368 150.924 59.866C150.847 59.9953 150.739 60.1033 150.61 60.18L149 61.31H153L152.87 62.38H148.6L148.31 64.73C148.285 64.9525 148.187 65.1602 148.03 65.32C147.859 65.4593 147.64 65.5274 147.42 65.51H147.15C146.498 65.4043 145.858 65.2334 145.24 65ZM151.79 56.9C152.092 56.8701 152.394 56.9519 152.64 57.13C152.73 57.2179 152.8 57.3241 152.845 57.4415C152.889 57.5589 152.908 57.6846 152.9 57.81C152.907 57.8899 152.907 57.9701 152.9 58.05L152.76 59.29H151.56L151.73 57.98H144.83L144.67 59.29H143.46L143.6 58C143.611 57.6983 143.723 57.4091 143.92 57.18C144.028 57.0879 144.154 57.0184 144.29 56.9754C144.425 56.9325 144.568 56.9171 144.71 56.93H149.93L150.93 55.07H152.17L151.25 56.93L151.79 56.9ZM145.79 55.01L146.47 56.61H145.2L144.58 55.01H145.79ZM148.52 55.01L149.14 56.61H147.9L147.35 55.01H148.52Z" fill="white"/>
<path d="M163.64 59.8801L162.72 57.8801H163.83L165.22 60.8801H164.06L163.8 60.3201C163.455 61.1657 162.991 61.9572 162.42 62.6701C163.121 63.5687 163.962 64.3487 164.91 64.9801L163.83 65.5601C163.031 64.9783 162.321 64.2845 161.72 63.5001C160.933 64.3153 160.013 64.9914 159 65.5001L158 64.8601C159.168 64.2706 160.226 63.486 161.13 62.5401C160.754 61.8956 160.42 61.2276 160.13 60.5401L159.97 60.8301H159L159.07 61.0101L158.17 61.5501C158.02 61.1001 157.85 60.6501 157.66 60.1801L157 65.5201H155.89L156.53 60.3801C156.165 61.1792 155.727 61.9425 155.22 62.6601L154.32 62.1301C155.272 60.8818 156.056 59.5134 156.65 58.0601H155.28L155.43 57.0001H156.95L157.18 55.1201H158.28L158 57.0001H159.07L159 58.0601H157.93V58.4401C158.21 59.0001 158.54 59.6801 158.93 60.5001L160.5 57.8701H161.69L160.52 59.8701H161C161.238 60.4921 161.526 61.094 161.86 61.6701C162.275 61.1189 162.611 60.5132 162.86 59.8701L163.64 59.8801ZM165.2 56.3601L165.06 57.3601H159.36L159.48 56.3601H161.78L161.36 55.1301H162.54L162.96 56.3601H165.2Z" fill="white"/>
<path d="M166.65 64.67L167.85 62.03H169L167.89 64.67H166.65ZM172.11 56.46L172 57.46H170.54V57.57C171.09 58.1234 171.604 58.7113 172.08 59.33L171.23 59.92C171.01 59.56 170.74 59.15 170.41 58.7L170.09 61.52H169L169.29 58.99C168.769 59.6192 168.197 60.2045 167.58 60.74L166.76 60.08C167.711 59.3081 168.57 58.429 169.32 57.46H167.71L167.83 56.46H169.58L169.72 55.25H170.83L170.68 56.46H172.11ZM174.47 65.09C174.119 65.1906 173.762 65.2642 173.4 65.31C172.982 65.3622 172.561 65.3889 172.14 65.39H170.38C170.245 65.3988 170.111 65.3803 169.983 65.3356C169.856 65.2909 169.739 65.221 169.64 65.13C169.552 65.0384 169.484 64.9301 169.439 64.8116C169.395 64.693 169.375 64.5666 169.38 64.44C169.368 64.3404 169.368 64.2396 169.38 64.14L169.7 61.86H170.81L170.53 64.08V64.18C170.53 64.25 170.53 64.3 170.59 64.32C170.648 64.3384 170.711 64.3384 170.77 64.32H172.1C172.919 64.3107 173.733 64.1896 174.52 63.96L174.47 65.09ZM172.26 63.6L171.56 61.91H172.65L173.42 63.6H172.26ZM176.39 61.43H171.92L172.5 56.55C172.507 56.2541 172.613 55.9691 172.8 55.74C172.999 55.5685 173.258 55.4823 173.52 55.5H176C176.257 55.4822 176.512 55.5646 176.71 55.73C176.798 55.8145 176.866 55.9175 176.91 56.0317C176.953 56.1459 176.97 56.2683 176.96 56.39C176.966 56.4632 176.966 56.5368 176.96 56.61L176.39 61.43ZM173.2 59.73L173.12 60.48H175.42L175.5 59.73H173.2ZM175.71 58.1H173.38L173.3 58.84H175.61L175.71 58.1ZM175.9 56.45H173.57L173.49 57.21H175.8L175.9 56.45ZM174.4 62H175.53L176.69 64.63H175.44L174.4 62Z" fill="white"/>
<path d="M181.44 64.1699C181.23 63.6929 180.986 63.2317 180.71 62.7899C180.393 63.7394 179.855 64.5998 179.14 65.2999L178.2 64.8499C178.484 64.5839 178.752 64.3 179 63.9999C179.221 63.7151 179.415 63.4105 179.58 63.0899C179.937 62.33 180.164 61.5152 180.25 60.6799L180.58 57.3799H181.5L181.15 60.7599C181.119 61.0965 181.066 61.4306 180.99 61.7599C181.3 62.1799 181.52 62.4699 181.63 62.6399C181.766 62.8319 181.889 63.0323 182 63.2399L182.28 63.6799L181.44 64.1699ZM182.22 55.5799C182.74 55.5799 183 55.8499 183 56.3899C183.006 56.4798 183.006 56.57 183 56.6599L182.42 61.9999H181.42L182.02 56.5399H180.3L179.72 61.9999H178.78L179.38 56.5099C179.39 56.241 179.484 55.982 179.65 55.7699C179.745 55.6872 179.857 55.6249 179.977 55.5871C180.097 55.5492 180.224 55.5366 180.35 55.5499L182.22 55.5799ZM182.97 62.2499L183.08 61.3599H184.31L184.41 60.5199H182.92L183.02 59.6199H184.52L184.6 58.7799H183.32L183.42 57.8899H184.7L184.79 57.0499H183.22L183.33 56.1399H184.59L184.26 55.1399H185.26L185.62 56.1399H186.82L187.28 55.1399H188.33L187.83 56.1399H189.28L189.19 57.0499H187.43L187.34 57.8899H187.93C188.186 57.8722 188.441 57.9352 188.66 58.0699C188.743 58.1386 188.808 58.2263 188.85 58.3255C188.891 58.4248 188.909 58.5326 188.9 58.6399C188.9 58.7299 188.9 58.8099 188.9 58.8599L188.8 59.6199H189.35L189.26 60.5199H188.68L188.45 62.2499H187.19C187.759 63.0788 188.45 63.8171 189.24 64.4399L188.39 65.0099C187.747 64.4417 187.208 63.7647 186.8 63.0099L186.56 65.2699H185.61L185.94 62.1999H185.18L184.85 65.2699H183.85L184.07 63.2699C183.607 63.9144 183.063 64.4959 182.45 64.9999L181.62 64.4499C182.51 63.8291 183.311 63.0889 184 62.2499H182.97ZM186.14 60.5199H185.37L185.27 61.3599H186L186.14 60.5199ZM186.33 58.7799H185.55L185.46 59.6199H186.24L186.33 58.7799ZM186.52 57.0499H185.73L185.64 57.8899H186.42L186.52 57.0499ZM187.07 60.5199L186.98 61.3599H187.61L187.71 60.5199H187.07ZM187.82 59.6199L187.92 58.7799H187.25L187.17 59.6199H187.82Z" fill="white"/>
<path d="M194.49 55.1899L193.92 56.5999H195.7C195.942 56.5808 196.182 56.656 196.37 56.8099C196.445 56.8901 196.503 56.9846 196.541 57.0876C196.579 57.1907 196.595 57.3003 196.59 57.4099C196.58 57.5407 196.564 57.6709 196.54 57.7999C196.244 59.2463 195.677 60.6238 194.87 61.8599C194.027 63.1855 192.965 64.3588 191.73 65.3299L190.67 64.7399C191.932 63.7669 193.024 62.5909 193.9 61.2599L192.38 59.9999L192.03 60.6899H190.77C191.7 58.9083 192.528 57.0754 193.25 55.1999L194.49 55.1899ZM193.49 57.6999C193.36 57.9999 193.15 58.4499 192.86 59.0599L194.49 60.2899C194.881 59.5267 195.173 58.7169 195.36 57.8799C195.366 57.8469 195.366 57.813 195.36 57.7799C195.36 57.7299 195.36 57.6999 195.23 57.6999H193.49ZM201.12 61.6999H199.85L198.47 58.0699L197.61 65.3799H196.47L197.64 55.1799H198.8L198.49 57.8499H199.49L201.12 61.6999Z" fill="white"/>
<path d="M203.62 60.74H202.62L203.28 57.34H204.22L203.62 60.74ZM206.02 55.08L204.8 65.43H203.68L204.88 55.08H206.02ZM210.08 61.08C210.394 61.7907 210.79 62.462 211.26 63.08C211.765 63.7294 212.323 64.3349 212.93 64.89L211.85 65.46C210.753 64.3874 209.862 63.1233 209.22 61.73C208.897 62.4421 208.491 63.1134 208.01 63.73C207.566 64.3204 207.045 64.8484 206.46 65.3L205.29 64.81C205.964 64.2863 206.578 63.6893 207.12 63.03C207.61 62.4254 208.008 61.7514 208.3 61.03H206.54L206.66 59.92H208.66C208.735 59.6246 208.785 59.3236 208.81 59.02L208.97 57.65H207.29L207.41 56.57H209.09L209.28 54.99H210.47L210.28 56.57H211.64C211.776 56.5497 211.915 56.5616 212.046 56.6047C212.176 56.6478 212.295 56.7209 212.392 56.8181C212.489 56.9154 212.562 57.034 212.605 57.1646C212.648 57.2951 212.66 57.434 212.64 57.57C212.64 57.64 212.64 57.73 212.64 57.86L212.36 59.96H213.19L213 61.1L210.08 61.08ZM206.85 57.36L207.09 59.58H206.15L206 57.38L206.85 57.36ZM209.92 59.36C209.898 59.5525 209.861 59.7431 209.81 59.93H211.16L211.46 57.66H210.12L209.92 59.36Z" fill="white"/>
<path d="M215.25 56.1199C215.55 56.1199 215.91 56.0299 216.33 55.9899C216.75 55.9499 217.1 55.9399 217.33 55.9399C219.14 55.9399 220.05 56.5499 220.05 57.7799C220.05 57.8599 220.05 57.9899 220.05 58.1699C220.016 58.6842 219.82 59.1745 219.49 59.5699C219.127 59.9299 218.704 60.2243 218.24 60.4399C218.03 60.5311 217.835 60.6524 217.66 60.7999C217.547 60.8966 217.461 61.0206 217.41 61.1599C217.362 61.3306 217.325 61.5044 217.3 61.6799V62.1399H215.96L216.04 61.5299C216.064 61.0953 216.202 60.6747 216.44 60.3099C216.699 59.9687 217.044 59.7028 217.44 59.5399C217.665 59.4466 217.882 59.3363 218.09 59.2099C218.254 59.1161 218.394 58.9862 218.5 58.8299C218.618 58.653 218.693 58.451 218.72 58.2399V58.0999C218.726 57.9739 218.698 57.8485 218.638 57.7374C218.578 57.6263 218.489 57.5338 218.38 57.4699C218.041 57.3048 217.665 57.2324 217.29 57.2599C216.566 57.2702 215.844 57.3371 215.13 57.4599L215.25 56.1199ZM215.61 63.9999C215.629 63.8133 215.714 63.6396 215.85 63.5099C215.992 63.3969 216.169 63.3367 216.35 63.3399H216.7C216.786 63.3353 216.871 63.348 216.952 63.3772C217.033 63.4064 217.107 63.4515 217.17 63.5099C217.23 63.5747 217.273 63.6533 217.296 63.7387C217.319 63.8242 217.32 63.9139 217.3 63.9999L217.25 64.3599C217.234 64.5526 217.145 64.7317 217 64.8599C216.862 64.9806 216.683 65.0449 216.5 65.0399H216.15C216.063 65.0451 215.976 65.0317 215.895 65.0007C215.814 64.9696 215.741 64.9217 215.68 64.8599C215.623 64.7914 215.582 64.7107 215.561 64.624C215.541 64.5372 215.54 64.4469 215.56 64.3599L215.61 63.9999Z" fill="white"/>
<path d="M28.43 78.47H32.43L32.32 79.58H22.71L22.83 78.47H24.32L24.87 74H26L25.45 78.47H27.17L28 72.22H29.2L28.89 74.6999H31.8L31.68 75.8099H28.76L28.43 78.47ZM30.08 69.47C30.2412 69.4662 30.4001 69.5085 30.5382 69.5917C30.6763 69.6749 30.7879 69.7957 30.86 69.94L33.38 73.8399L31.94 74.01L29.86 70.62H27.16L24.24 74.01L22.76 73.8399L26.13 70C26.2289 69.869 26.3509 69.7571 26.49 69.6699C26.6257 69.5902 26.7832 69.5552 26.94 69.57L30.08 69.47Z" fill="white"/>
<path d="M44.7999 78.5599L44.6799 79.6799H34.6799L34.7999 78.5599H37.6599L38.7399 69.6599H39.9999L38.9199 78.5599H40.1799L41.2599 69.6599H42.5199L41.4399 78.5599H44.7999ZM35.6099 71.4199H36.8199L37.4099 76.2299H36.1799L35.6099 71.4199ZM43.7399 76.2899H42.4799L43.8799 71.4199H45.0899L43.7399 76.2899Z" fill="white"/>
<path d="M52.78 73.5601L52.68 74.3601H56.68L56.54 75.4401H52.67C53.2696 76.1196 53.94 76.733 54.67 77.2701C55.4061 77.7896 56.1856 78.2446 57 78.6301L56 79.4301C54.6768 78.6854 53.4816 77.7333 52.46 76.6101L52 79.9001H50.85L51.22 76.7401C50.6634 77.2739 50.0648 77.7622 49.43 78.2001C48.7893 78.6299 48.1212 79.0174 47.43 79.3601L46.49 78.5201C47.3644 78.1363 48.2042 77.6779 49 77.1501C49.7547 76.6507 50.4581 76.0779 51.1 75.4401H47.32L47.45 74.3601H51.45L51.54 73.5601H52.78ZM48.08 70.1701C49.29 70.1701 50.7 70.1001 52.29 69.9801C53.88 69.8601 55.39 69.7401 56.68 69.5701L56.58 70.6801C55.21 70.8401 53.78 70.9601 52.31 71.0401C50.84 71.1201 49.51 71.2001 47.97 71.2401L48.08 70.1701ZM49.08 73.6401L48.44 71.6401H49.57L50.27 73.6401H49.08ZM51.86 73.2501L51.31 71.4401H52.46L53.06 73.2501H51.86ZM56.26 71.4001L55.19 73.6701H53.94L55 71.4001H56.26Z" fill="white"/>
<path d="M62.4801 79.46L62.3301 79.22C62.2701 79.11 62.1001 78.84 61.8301 78.41C61.5601 77.98 61.2801 77.57 61.0001 77.19C60.625 78.1596 60.049 79.0388 59.3101 79.77L58.3101 79.3C58.6442 78.9446 58.958 78.5707 59.2501 78.18C59.4917 77.8697 59.6995 77.5344 59.8701 77.18C60.2422 76.3673 60.4787 75.4992 60.5701 74.61L60.9101 71.78H61.9101L61.5601 74.7C61.5142 75.1858 61.4306 75.6672 61.3101 76.14C62.0616 77.0297 62.7531 77.9685 63.3801 78.95L62.4801 79.46ZM66.1001 69.54L65.6401 70.76H68.0701C68.2174 70.7437 68.3665 70.7604 68.5066 70.8088C68.6467 70.8573 68.7742 70.9362 68.8801 71.04C68.9659 71.1603 69.0262 71.2968 69.0572 71.4413C69.0881 71.5858 69.0891 71.7351 69.0601 71.88V72.22C69.0601 72.46 69.0001 72.91 68.9501 73.58C68.9001 74.25 68.8401 74.86 68.7701 75.41C68.6301 76.72 68.4801 77.88 68.3301 78.89C68.3145 79.1695 68.1891 79.4315 67.9812 79.6188C67.7732 79.8061 67.4996 79.9036 67.2201 79.89H66.9101C66.4301 79.81 66.0601 79.73 65.7901 79.67C65.5201 79.61 65.2201 79.51 64.8801 79.39L65.0001 78.28C65.4901 78.42 65.8201 78.5 66.0001 78.53C66.4401 78.63 66.7301 78.68 66.8701 78.7H67.0001C67.0295 78.7024 67.0591 78.6983 67.0868 78.688C67.1145 78.6776 67.1395 78.6612 67.1601 78.64C67.2005 78.5624 67.2243 78.4773 67.2301 78.39C67.3701 77.54 67.5101 76.48 67.6401 75.2C67.7401 74.2 67.8501 73.03 67.9501 71.8H65.1901C64.9701 72.28 64.7401 72.74 64.5001 73.17H63.3301L63.0001 76.35H62.0001L62.6501 70.92H60.6501L60.0301 76.35H59.0301L59.6601 70.95C59.6679 70.6651 59.7699 70.3908 59.9501 70.17C60.1686 70.0075 60.4385 69.9293 60.7101 69.95H62.9001C63.0169 69.9405 63.1345 69.9541 63.246 69.9902C63.3576 70.0262 63.4609 70.0839 63.5501 70.16C63.694 70.341 63.7653 70.5692 63.7501 70.8C63.7563 70.8932 63.7563 70.9868 63.7501 71.08L63.5101 73.08C63.8542 72.493 64.1615 71.8852 64.4301 71.26C64.6401 70.77 64.8701 70.18 65.1201 69.5L66.1001 69.54ZM66.7701 74.25L67.2801 77.25H66.3501L66.2701 76.74C65.5901 76.87 64.9201 76.97 64.2701 77.05H64.1301C64.0208 77.0554 63.9121 77.0314 63.8153 76.9803C63.7186 76.9293 63.6373 76.8532 63.5801 76.76C63.5122 76.6524 63.4774 76.5272 63.4801 76.4C63.4798 76.2515 63.5214 76.1059 63.6001 75.98C64.1267 74.9611 64.5941 73.9127 65.0001 72.84H66.0001C65.607 73.9438 65.1392 75.0197 64.6001 76.06C65.1601 75.99 65.6601 75.91 66.1101 75.82L65.8601 74.25H66.7701Z" fill="white"/>
<path d="M73.5501 75.4501C73.3401 76.1001 73.0801 76.8601 72.7601 77.7001C72.4401 78.5401 72.2001 79.0801 71.9301 79.7001H70.6201C71.1701 78.4401 71.7301 77.0301 72.3201 75.4701L73.5501 75.4501ZM71.4201 72.0901L73.6101 73.3201L73.4701 74.6001L71.2501 73.3501L71.4201 72.0901ZM72.0501 69.5901L74.2701 70.8001L74.0901 72.0501L71.9101 70.8401L72.0501 69.5901ZM80.2101 80.0801C79.1756 79.597 78.2021 78.9928 77.3101 78.2801C76.2881 78.9675 75.1737 79.5062 74.0001 79.8801L73.1101 79.0001C74.2814 78.6261 75.3979 78.0982 76.4301 77.4301C75.7736 76.7331 75.2212 75.945 74.7901 75.0901H74.3001L74.4301 74.0001H79.4301C79.6825 73.9855 79.9325 74.0559 80.1401 74.2001C80.2227 74.2673 80.2884 74.353 80.3318 74.4503C80.3753 74.5476 80.3952 74.6537 80.3901 74.7601C80.376 74.9927 80.3075 75.2188 80.1901 75.4201C79.6627 76.2603 78.9847 76.996 78.1901 77.5901C79.1075 78.2421 80.0933 78.7921 81.1301 79.2301L80.2101 80.0801ZM78.7601 71.0001H76.5201C76.434 71.5429 76.283 72.0734 76.0701 72.5801C75.8721 73.0377 75.6058 73.4625 75.2801 73.8401L74.1401 73.4201C74.4889 73.0312 74.7787 72.5932 75.0001 72.1201C75.2061 71.6591 75.3442 71.1707 75.4101 70.6701C75.4249 70.4431 75.5166 70.2279 75.6701 70.0601C75.8474 69.9255 76.0683 69.8613 76.2901 69.8801H79.1001C79.6601 69.8801 79.9401 70.1401 79.9401 70.6601C79.9475 70.7332 79.9475 70.8069 79.9401 70.8801L79.7901 72.3001C79.7852 72.3399 79.7852 72.3802 79.7901 72.4201C79.7901 72.4201 79.7901 72.5001 79.7901 72.5101C79.8561 72.5236 79.9241 72.5236 79.9901 72.5101C80.3687 72.5133 80.7458 72.4628 81.1101 72.3601L81.0001 73.4701C80.8439 73.5217 80.6832 73.5585 80.5201 73.5801C80.3404 73.5942 80.1598 73.5942 79.9801 73.5801H79.4401C78.8601 73.5801 78.5701 73.3201 78.5701 72.8001C78.5641 72.7302 78.5641 72.66 78.5701 72.5901L78.7601 71.0001ZM76.0001 75.1101C76.3408 75.7535 76.7831 76.3377 77.3101 76.8401C77.8585 76.4298 78.3436 75.9413 78.7501 75.3901C78.8301 75.2801 78.8701 75.2201 78.8701 75.1801C78.8701 75.1401 78.7901 75.1101 78.6301 75.1101H76.0001Z" fill="white"/>
<path d="M82.6499 75.06C84.067 74.1781 85.297 73.0262 86.2699 71.67H83.5499L83.6699 70.59H86.9199C87.0999 70.23 87.2499 69.87 87.3899 69.52H88.6799C88.5099 69.97 88.3599 70.32 88.2399 70.59H93.2399L93.0999 71.67H87.6999C87.5999 71.85 87.3799 72.18 87.0599 72.67H91.0599C91.3174 72.6522 91.5718 72.7346 91.7699 72.9C91.8533 72.9854 91.9178 73.0875 91.9591 73.1995C92.0005 73.3114 92.0178 73.4309 92.0099 73.55C92.0158 73.6299 92.0158 73.7101 92.0099 73.79L91.4999 78.79C91.4872 79.0878 91.3824 79.3743 91.1999 79.61C91.1082 79.7004 90.9985 79.7703 90.8778 79.8151C90.7571 79.86 90.6283 79.8787 90.4999 79.87C90.1025 79.8604 89.7071 79.8101 89.3199 79.72C89.0148 79.6604 88.7142 79.5802 88.4199 79.48L88.5399 78.48C89.0546 78.6254 89.5794 78.7323 90.1099 78.8C90.155 78.8169 90.2048 78.8169 90.2499 78.8C90.2867 78.7546 90.3077 78.6984 90.3099 78.64L90.4099 77.58H85.8399L85.5899 79.82H84.3999L84.9799 74.82C84.6199 75.12 84.2099 75.43 83.7399 75.75L82.6499 75.06ZM90.5799 75.59H86.0599L85.9499 76.59H90.4999L90.5799 75.59ZM90.7699 73.65H86.2799L86.1599 74.65H90.6799L90.7699 73.65Z" fill="white"/>
<path d="M94.5901 79.6799L95.8101 77.6799H97.0001L95.8801 79.6799H94.5901ZM99.8001 75.6799L98.0001 75.8299L97.8701 76.8299C97.8548 77.0034 97.7716 77.1637 97.6386 77.2761C97.5057 77.3885 97.3337 77.4438 97.1601 77.4299C96.9983 77.4285 96.8372 77.4083 96.6801 77.3699L96.3901 77.2999L95.6701 77.1399L95.8001 76.2699C96.1247 76.3766 96.46 76.447 96.8001 76.4799H96.8901C96.8901 76.4799 96.9801 76.4799 97.0101 76.3299L97.0001 75.8999C96.6001 75.8999 96.2101 75.9699 95.8401 75.9799H94.7801L94.8801 75.1899H95.8801C96.2501 75.1899 96.6401 75.1899 97.0501 75.1199V74.8699L97.8601 74.4499H95.4301L95.5201 73.6499H99.0801C99.2202 73.6423 99.3585 73.6848 99.4701 73.7699C99.5166 73.8072 99.5542 73.8543 99.5802 73.908C99.6061 73.9616 99.6198 74.0203 99.6201 74.0799C99.6164 74.1658 99.5887 74.249 99.5401 74.3199C99.4838 74.4006 99.4081 74.4659 99.3201 74.5099L98.3201 75.0399H98.6301C99.0723 75.0169 99.5129 74.9702 99.9501 74.8999L99.8001 75.6799ZM100.29 70.8999H95.4201L95.5401 70.0699H97.4701L97.3201 69.4199H98.3901L98.5601 70.0699H100.4L100.29 70.8999ZM99.7501 73.1899H95.5701L95.7201 72.0599C95.7328 71.8314 95.8331 71.6165 96.0001 71.4599C96.2009 71.3271 96.4398 71.2639 96.6801 71.2799H99.1401C99.6301 71.2799 99.8801 71.5099 99.8801 71.9699C99.8862 72.0365 99.8862 72.1034 99.8801 72.1699L99.7501 73.1899ZM96.6501 72.4699H98.8601L98.9201 71.9899H96.7201L96.6501 72.4699ZM97.6501 77.6999H98.7801L99.2701 79.6999H98.1201L97.6501 77.6999ZM102.71 69.5299L102.57 70.7999H103.47C103.717 70.7802 103.963 70.8435 104.17 70.9799C104.251 71.0598 104.314 71.1571 104.352 71.2645C104.39 71.3719 104.403 71.4867 104.39 71.5999C104.396 71.6798 104.396 71.76 104.39 71.8399L103.92 75.9199C103.914 75.9463 103.914 75.9736 103.92 75.9999C103.92 76.0799 103.92 76.1199 104.05 76.1199C104.19 76.096 104.327 76.0592 104.46 76.0099C104.676 75.9419 104.881 75.8443 105.07 75.7199L104.92 76.8999C104.75 76.9888 104.568 77.0528 104.38 77.0899C104.223 77.1354 104.063 77.1655 103.9 77.1799C103.761 77.199 103.62 77.1864 103.486 77.1431C103.353 77.0998 103.231 77.0269 103.13 76.9299C103.039 76.8276 102.972 76.7063 102.934 76.5748C102.896 76.4433 102.888 76.305 102.91 76.1699L103.43 71.7999H102.43V72.2699C102.354 72.8566 102.241 73.4378 102.09 74.0099C102.53 74.4299 102.85 74.7499 103.09 75.0099L102.4 75.6999L102.23 75.5099C102.07 75.3199 101.93 75.1599 101.81 75.0399C101.471 75.8929 100.987 76.6811 100.38 77.3699L99.3801 77.0399C100.091 76.2165 100.641 75.2666 101 74.2399L100.14 73.4299L100.71 72.7999C100.812 72.859 100.909 72.9258 101 72.9999C101.091 73.096 101.188 73.1862 101.29 73.2699C101.371 72.9401 101.434 72.6063 101.48 72.2699V71.8099H100.42L100.55 70.8099H101.55L101.69 69.5399L102.71 69.5299ZM100 77.6999H101.13L101.87 79.6999H100.67L100 77.6999ZM102.48 77.6999H103.64L104.7 79.6999H103.43L102.48 77.6999Z" fill="white"/>
<path d="M113.19 69.53C113.081 70.3511 112.928 71.1656 112.73 71.97C113.132 73.3739 113.717 74.7188 114.47 75.97C115.202 77.1719 116.089 78.2715 117.11 79.24L115.78 79.79C114.999 78.9809 114.308 78.0889 113.72 77.13C113.082 76.0911 112.546 74.9926 112.12 73.85C111.218 76.1926 109.723 78.2603 107.78 79.85L106.48 79.31C107.933 78.1029 109.156 76.6427 110.09 75C111.043 73.3057 111.639 71.4337 111.84 69.5L113.19 69.53Z" fill="white"/>
<path d="M119.25 70.5201C119.55 70.5201 119.91 70.4301 120.33 70.3901C120.75 70.3501 121.1 70.3901 121.33 70.3901C123.14 70.3901 124.05 71.0001 124.05 72.2301C124.05 72.3101 124.05 72.4401 124.05 72.6201C124.016 73.1343 123.82 73.6246 123.49 74.0201C123.127 74.3801 122.704 74.6744 122.24 74.8901C122.03 74.9812 121.835 75.1025 121.66 75.2501C121.547 75.3468 121.461 75.4707 121.41 75.6101C121.362 75.7808 121.325 75.9545 121.3 76.1301V76.5901H119.96L120.04 75.9801C120.064 75.5455 120.202 75.1248 120.44 74.7601C120.699 74.4188 121.044 74.1529 121.44 73.9901C121.665 73.8968 121.882 73.7864 122.09 73.6601C122.254 73.5663 122.394 73.4363 122.5 73.2801C122.618 73.1032 122.693 72.9012 122.72 72.6901V72.5001C122.726 72.374 122.698 72.2486 122.638 72.1376C122.578 72.0265 122.489 71.934 122.38 71.8701C122.041 71.705 121.665 71.6325 121.29 71.6601C120.566 71.6704 119.844 71.7373 119.13 71.8601L119.25 70.5201ZM119.61 78.4001C119.629 78.2134 119.714 78.0397 119.85 77.9101C119.992 77.797 120.169 77.7369 120.35 77.7401H120.7C120.786 77.7354 120.871 77.7481 120.952 77.7773C121.033 77.8065 121.107 77.8517 121.17 77.9101C121.23 77.9749 121.273 78.0535 121.296 78.1389C121.319 78.2243 121.32 78.314 121.3 78.4001V78.7601C121.284 78.9528 121.195 79.1319 121.05 79.2601C120.912 79.3808 120.733 79.445 120.55 79.4401H120.2C120.113 79.4453 120.027 79.4319 119.945 79.4008C119.864 79.3698 119.791 79.3218 119.73 79.2601C119.673 79.1916 119.632 79.1108 119.611 79.0241C119.591 78.9374 119.59 78.8471 119.61 78.7601V78.4001Z" fill="white"/>
<path d="M135 78.7101C134.996 78.8563 134.963 79.0002 134.901 79.1328C134.839 79.2653 134.75 79.3835 134.64 79.4801C134.388 79.6424 134.086 79.7064 133.79 79.6601C133.402 79.6268 133.018 79.5633 132.64 79.4701L132.78 78.4701C133.043 78.5384 133.31 78.5886 133.58 78.6201H133.7C133.728 78.6225 133.756 78.6183 133.782 78.6079C133.808 78.5974 133.831 78.5811 133.85 78.5601C133.894 78.5026 133.919 78.4325 133.92 78.3601L134.17 76.2801H132.5C132.396 76.9563 132.246 77.6246 132.05 78.2801C131.875 78.8548 131.65 79.4135 131.38 79.9501L130.32 79.5901C130.669 78.957 130.944 78.2859 131.14 77.5901C131.332 76.8169 131.472 76.0318 131.56 75.2401L132.05 70.9801C132.07 70.6856 132.19 70.4068 132.39 70.1901C132.613 70.0115 132.896 69.9255 133.18 69.9501H134.93C135.199 69.9287 135.468 69.9916 135.7 70.1301C135.787 70.2111 135.853 70.311 135.895 70.422C135.937 70.533 135.952 70.6521 135.94 70.7701C135.949 70.8999 135.949 71.0302 135.94 71.1601L135 78.7101ZM132.66 75.1101H134.31L134.51 73.5501H132.84L132.66 75.1101ZM134.84 70.9101H133.14L132.95 72.5701H134.63L134.84 70.9101ZM140 78.8301C139.984 79.0891 139.882 79.3354 139.71 79.5301C139.519 79.6788 139.281 79.7534 139.04 79.7401H138.79C138.343 79.7129 137.9 79.6358 137.47 79.5101L137.59 78.5101C137.918 78.5956 138.253 78.6558 138.59 78.6901H138.72C138.748 78.6925 138.776 78.6883 138.802 78.6779C138.828 78.6674 138.851 78.6511 138.87 78.6301C138.915 78.5619 138.94 78.4819 138.94 78.4001L139.2 76.2801H137.2C137.096 76.9554 136.949 77.6234 136.76 78.2801C136.59 78.8517 136.362 79.4045 136.08 79.9301L135.08 79.5701C135.43 78.9387 135.702 78.2671 135.89 77.5701C136.09 76.799 136.227 76.0132 136.3 75.2201L136.8 70.9601C136.821 70.6679 136.937 70.3906 137.13 70.1701C137.358 69.9935 137.643 69.908 137.93 69.9301H140C140.266 69.9088 140.532 69.9717 140.76 70.1101C140.847 70.1911 140.913 70.291 140.955 70.402C140.997 70.513 141.012 70.6321 141 70.7501C141.009 70.8799 141.009 71.0102 141 71.1401L140 78.8301ZM137.33 75.1101H139.33L139.53 73.5501H137.53L137.33 75.1101ZM139.84 70.9101H137.84L137.64 72.5701H139.64L139.84 70.9101Z" fill="white"/>
<path d="M151.89 80C150.82 79.501 149.813 78.8766 148.89 78.14C147.881 78.8515 146.79 79.4391 145.64 79.89L144.64 79.07C145.814 78.5889 146.939 77.9962 148 77.3C147.383 76.6627 146.849 75.9504 146.41 75.18C145.672 76.8285 144.725 78.3747 143.59 79.78L142.34 79.47C143.202 78.4316 143.953 77.3054 144.58 76.11C145.254 74.8276 145.816 73.4893 146.26 72.11H143.51L143.64 70.97H146.64C146.78 70.44 146.9 69.97 147 69.48H148.29C148.2 70 148.09 70.48 147.96 70.97H153.26L153.12 72.11H147.64C147.48 72.58 147.34 73 147.21 73.35H151C151.262 73.3317 151.523 73.4021 151.74 73.55C151.823 73.6233 151.889 73.7144 151.932 73.8165C151.976 73.9186 151.995 74.0292 151.99 74.14C151.985 74.3314 151.948 74.5207 151.88 74.7C151.434 75.7413 150.749 76.6629 149.88 77.39C150.843 78.0618 151.876 78.6283 152.96 79.08L151.89 80ZM147.23 74.46C147.647 75.2694 148.206 75.9975 148.88 76.61C149.524 76.0823 150.066 75.4418 150.48 74.72C150.514 74.6673 150.541 74.6101 150.56 74.55C150.56 74.55 150.56 74.49 150.48 74.48H150.29L147.23 74.46Z" fill="white"/>
<path d="M158.85 72.1101C158.3 72.8901 157.9 73.4301 157.66 73.7401L156.99 79.7401H155.82L156.33 75.4101L155.88 75.9301H154.47C155.22 75.1001 155.81 74.4001 156.24 73.8401C156.54 73.4601 156.96 72.8401 157.5 72.1101H158.85ZM158.93 69.6201C158.35 70.3801 157.84 71.0201 157.42 71.5401C157 72.0601 156.52 72.5401 156.05 73.1001H154.55C155.09 72.5401 155.64 71.9201 156.21 71.2401L156.87 70.4101L157.49 69.6201H158.93ZM161.75 75.1501C161.905 75.5964 162.099 76.0281 162.33 76.4401L163.47 75.9801L164.06 75.7201L164.58 75.4801L164.46 76.6001L164.21 76.7101C163.61 76.9701 163.21 77.1601 162.88 77.2601C163.519 78.035 164.27 78.7092 165.11 79.2601L164.04 79.8901C162.46 78.6737 161.279 77.0126 160.65 75.1201H159.83L159.42 78.3501V78.4301C159.412 78.463 159.412 78.4972 159.42 78.5301C159.42 78.5301 159.42 78.5301 159.48 78.5301H159.67C159.78 78.5301 160.06 78.4201 160.51 78.2701C160.806 78.1833 161.096 78.0798 161.38 77.9601V79.1601C161.1 79.2701 160.77 79.3801 160.38 79.4901C159.99 79.6001 159.61 79.7201 159.38 79.7701C159.247 79.7854 159.113 79.7854 158.98 79.7701C158.51 79.7701 158.27 79.5001 158.27 78.9601C158.263 78.8703 158.263 78.78 158.27 78.6901L159.2 70.8601C159.219 70.5704 159.335 70.2956 159.53 70.0801C159.782 69.9089 160.086 69.8311 160.39 69.8601H163.65C164.34 69.8601 164.65 70.1601 164.65 70.7601C164.657 70.8266 164.657 70.8936 164.65 70.9601L164.16 75.0901L161.75 75.1501ZM163.35 73.0201H160.1L160 74.1301H163.27L163.35 73.0201ZM163.6 71.0001H160.36L160.22 72.1001H163.47L163.6 71.0001Z" fill="white"/>
<path d="M172.47 69.53L172.12 69.87L171.78 70.19H175.36C175.563 70.1861 175.765 70.2271 175.95 70.31C176.099 70.3645 176.225 70.4664 176.31 70.6C176.36 70.6882 176.384 70.7887 176.38 70.89C176.364 71.1363 176.257 71.3678 176.08 71.54C174.78 72.7203 173.211 73.5648 171.51 74H172.67L172.07 74.56H175.53C175.72 74.5551 175.909 74.5962 176.08 74.68C176.217 74.7374 176.33 74.8397 176.4 74.97C176.441 75.0541 176.461 75.1466 176.46 75.24C176.445 75.4975 176.347 75.7432 176.18 75.94C175.785 76.4543 175.304 76.8973 174.76 77.25C174.077 77.7044 173.354 78.096 172.6 78.42C171.77 78.7776 170.919 79.0815 170.05 79.33C169.161 79.5957 168.256 79.8061 167.34 79.96L166.58 79.02C168.213 78.7374 169.819 78.3159 171.38 77.76L169.73 76.58C169.24 76.96 168.89 77.22 168.73 77.36H167C168.433 76.32 169.767 75.2434 171 74.13C170.12 74.4034 169 74.6734 167.64 74.94L166.97 73.94C168.348 73.7355 169.708 73.4279 171.04 73.02L169.63 72.02C169.48 72.15 169.21 72.35 168.83 72.62H167.2C168.475 71.6637 169.697 70.6388 170.86 69.55L172.47 69.53ZM170.66 71.2L170.46 71.37L172.3 72.57C173.081 72.2653 173.823 71.8692 174.51 71.39C174.61 71.31 174.66 71.26 174.66 71.24C174.66 71.24 174.66 71.24 174.58 71.24H170.66V71.2ZM170.93 75.54L170.72 75.72L170.51 75.9L172.51 77.22C173.286 76.8314 174.009 76.344 174.66 75.77C174.75 75.7 174.79 75.64 174.79 75.6C174.79 75.56 174.7 75.54 174.5 75.54H170.93Z" fill="white"/>
<path d="M180.74 74.73C180.299 75.5247 179.811 76.2927 179.28 77.03L178.4 76.53C179.318 75.2711 180.121 73.9324 180.8 72.53H179.26L179.4 71.48H181.13L181.38 69.48H182.5L182.25 71.48H183.6L183.47 72.53H182.12V72.83C182.66 73.69 183.12 74.49 183.49 75.22L182.62 75.79C182.35 75.19 182.12 74.71 181.94 74.35L181.27 79.79H180.15L180.74 74.73ZM188.04 79.61H183.1L184.17 70.86C184.196 70.6142 184.305 70.3848 184.48 70.21C184.566 70.1224 184.669 70.0533 184.782 70.0068C184.896 69.9604 185.017 69.9376 185.14 69.94H188.19C188.325 69.9375 188.458 69.9649 188.581 70.0202C188.704 70.0755 188.813 70.1574 188.9 70.26C188.99 70.3706 189.055 70.4993 189.091 70.6372C189.128 70.7752 189.134 70.9194 189.11 71.06L188.04 79.61ZM184.32 78.61H187.05L187.3 76.61H184.58L184.32 78.61ZM187.65 73.82H184.92L184.7 75.65H187.42L187.65 73.82ZM188 71H185.28L185 72.82H187.73L188 71Z" fill="white"/>
<path d="M196.52 70.9399H195.14L195 72.0799H195.4C196 72.0799 196.3 72.3399 196.3 72.8699C196.306 72.9331 196.306 72.9967 196.3 73.0599L195.53 79.5999H190.58L191.36 72.8299C191.366 72.7211 191.394 72.6147 191.443 72.5172C191.492 72.4197 191.56 72.3332 191.643 72.263C191.727 72.1927 191.823 72.1403 191.928 72.1088C192.032 72.0773 192.142 72.0675 192.25 72.0799H192.73L192.86 70.9399H191.25L191.36 69.9399H196.63L196.52 70.9399ZM191.85 77.5499L191.73 78.6499H194.66L194.78 77.5499H191.85ZM192.05 75.7399L191.96 76.6399H194.88L194.98 75.8199H194.39C193.94 75.8199 193.74 75.5999 193.78 75.1699L193.97 73.0599H193.6C193.516 73.6123 193.403 74.1598 193.26 74.6999C193.141 75.1342 192.974 75.5536 192.76 75.9499L192.05 75.7399ZM192.05 75.4699C192.395 74.7049 192.625 73.8926 192.73 73.0599H192.31L192.05 75.4699ZM194.17 70.9399H193.75L193.63 72.0799H194.05L194.17 70.9399ZM195.26 73.0599H194.76L194.58 74.8399C194.58 74.9099 194.58 74.9499 194.72 74.9499H195.04L195.26 73.0599ZM196.72 74.6599C196.723 74.3741 196.826 74.0983 197.01 73.8799C197.114 73.7917 197.236 73.7258 197.366 73.6863C197.497 73.6467 197.634 73.6344 197.77 73.6499H199.48L199.79 70.9799H196.9L197.02 69.9799H200C200.28 69.957 200.559 70.0312 200.79 70.1899C200.876 70.2757 200.942 70.3793 200.983 70.4933C201.025 70.6073 201.041 70.7291 201.03 70.8499C201.037 70.9398 201.037 71.0301 201.03 71.1199L200.57 74.7099H197.91L197.51 78.3499C197.51 78.3499 197.51 78.3999 197.51 78.4399C197.508 78.4625 197.512 78.4852 197.52 78.5061C197.529 78.527 197.543 78.5455 197.56 78.5599C197.616 78.5743 197.674 78.5743 197.73 78.5599H198.42C198.853 78.5625 199.285 78.5223 199.71 78.4399C200.152 78.3517 200.584 78.2211 201 78.0499L200.87 79.2899C200.487 79.4199 200.092 79.5104 199.69 79.5599C199.239 79.6145 198.785 79.6412 198.33 79.6399H197.33C196.67 79.6399 196.33 79.3399 196.33 78.7599C196.323 78.6934 196.323 78.6264 196.33 78.5599L196.72 74.6599Z" fill="white"/>
<path d="M207.86 69.3999H209L208.85 70.7599H211.37C211.52 70.7472 211.671 70.7656 211.814 70.8137C211.957 70.8619 212.088 70.9389 212.2 71.0399C212.291 71.1537 212.356 71.2861 212.391 71.4278C212.425 71.5694 212.428 71.7169 212.4 71.8599L211.86 76.8599H208.14L208 78.2999V78.3999C207.997 78.4314 208.003 78.463 208.017 78.4913C208.031 78.5195 208.053 78.5433 208.08 78.5599C208.169 78.5811 208.261 78.5811 208.35 78.5599H210C210.941 78.5803 211.879 78.4521 212.78 78.1799L212.64 79.3599C211.78 79.5762 210.897 79.6837 210.01 79.6799H208.01C207.701 79.7037 207.393 79.6189 207.14 79.4399C207.041 79.3452 206.965 79.2296 206.916 79.1015C206.868 78.9735 206.849 78.8363 206.86 78.6999C206.86 78.6999 206.86 78.5499 206.86 78.4099L207 76.8999H203.45L204.07 71.7799C204.083 71.4809 204.204 71.1968 204.41 70.9799C204.663 70.8095 204.966 70.7318 205.27 70.7599H207.71L207.86 69.3999ZM207.29 74.3299H204.92L204.74 75.8199H207.11L207.29 74.3299ZM207.57 71.8399H205.24L205.05 73.2799H207.41L207.57 71.8399ZM208.31 75.8399H210.81L210.98 74.3499H208.48L208.31 75.8399ZM211.08 73.2999L211.25 71.8599H208.76L208.6 73.2999H211.08Z" fill="white"/>
<path d="M215.81 70.6499C215.822 70.3966 215.917 70.1542 216.08 69.9599C216.259 69.8123 216.489 69.7406 216.72 69.7599H218.22C218.337 69.7436 218.457 69.7545 218.569 69.7918C218.681 69.8291 218.783 69.8918 218.868 69.9749C218.952 70.0581 219.016 70.1596 219.054 70.2714C219.093 70.3833 219.105 70.5025 219.09 70.6199C219.09 70.7299 219.09 70.8099 219.09 70.8599L218.19 78.7999C218.198 78.9395 218.172 79.0789 218.116 79.2068C218.059 79.3347 217.974 79.4475 217.866 79.5361C217.758 79.6247 217.63 79.6867 217.494 79.7168C217.357 79.747 217.215 79.7447 217.08 79.7099C216.74 79.6875 216.404 79.6237 216.08 79.5199L216.19 78.5199C216.427 78.6061 216.671 78.6697 216.92 78.7099H217.03C217.1 78.7099 217.14 78.7099 217.16 78.6499C217.19 78.5873 217.207 78.5193 217.21 78.4499L217.48 76.0299H216.23C216.1 76.9599 215.97 77.7099 215.84 78.2899C215.719 78.8331 215.535 79.36 215.29 79.8599L214.29 79.4999C214.547 78.9746 214.742 78.4208 214.87 77.8499C215.05 77.1166 215.177 76.3713 215.25 75.6199L215.81 70.6499ZM217.73 73.4299H216.53L216.34 74.9999H217.56L217.73 73.4299ZM218.02 70.8199H216.87L216.66 72.4499H217.84L218.02 70.8199ZM224 72.0599C223.39 73.3099 222.94 74.2299 222.63 74.8099C222.95 75.5599 223.25 76.3599 223.56 77.1899L224.12 72.8599H225.12L224.3 79.5999H219.69C219.1 79.5999 218.8 79.3399 218.8 78.8299C218.794 78.7533 218.794 78.6765 218.8 78.5999L219.49 72.8899H220.49L220 77.2399C220.73 76.2399 221.27 75.3699 221.63 74.7499C221.15 73.5799 220.77 72.6799 220.48 72.0299H221.41C221.56 72.3699 221.69 72.6699 221.81 72.9199C221.93 73.1699 222.05 73.4599 222.17 73.7699C222.47 73.1799 222.75 72.6199 223.01 72.0599H224ZM223 70.4799H225.31L225.2 71.5399H219.38L219.5 70.4799H221.74L221.39 69.3999H222.63L223 70.4799ZM219.82 78.5399H223.35L223.49 77.4199L222.69 77.6099L222.47 77.0099L222.35 76.6799L222.03 75.8299C221.67 76.4499 221.29 77.0399 220.88 77.6199L219.97 77.3799L219.82 78.5399Z" fill="white"/>
<path d="M227.25 70.5201C227.55 70.5201 227.91 70.4301 228.33 70.3901C228.75 70.3501 229.1 70.3901 229.33 70.3901C231.14 70.3901 232.05 71.0001 232.05 72.2301C232.05 72.3101 232.05 72.4401 232.05 72.6201C232.016 73.1343 231.82 73.6246 231.49 74.0201C231.127 74.3801 230.704 74.6744 230.24 74.8901C230.03 74.9812 229.835 75.1025 229.66 75.2501C229.547 75.3468 229.461 75.4707 229.41 75.6101C229.362 75.7808 229.325 75.9545 229.3 76.1301V76.5901H227.96L228.04 75.9801C228.064 75.5455 228.202 75.1248 228.44 74.7601C228.699 74.4188 229.044 74.1529 229.44 73.9901C229.665 73.8968 229.882 73.7864 230.09 73.6601C230.254 73.5663 230.394 73.4363 230.5 73.2801C230.618 73.1032 230.693 72.9012 230.72 72.6901V72.5001C230.726 72.374 230.698 72.2486 230.638 72.1376C230.578 72.0265 230.489 71.934 230.38 71.8701C230.041 71.705 229.665 71.6325 229.29 71.6601C228.566 71.6704 227.844 71.7373 227.13 71.8601L227.25 70.5201ZM227.61 78.4001C227.629 78.2134 227.714 78.0397 227.85 77.9101C227.992 77.797 228.169 77.7369 228.35 77.7401H228.7C228.786 77.7354 228.871 77.7481 228.952 77.7773C229.033 77.8065 229.107 77.8517 229.17 77.9101C229.23 77.9749 229.273 78.0535 229.296 78.1389C229.319 78.2243 229.32 78.314 229.3 78.4001L229.25 78.7601C229.234 78.9528 229.145 79.1319 229 79.2601C228.862 79.3808 228.683 79.445 228.5 79.4401H228.15C228.063 79.4453 227.976 79.4319 227.895 79.4008C227.814 79.3698 227.741 79.3218 227.68 79.2601C227.623 79.1916 227.582 79.1108 227.561 79.0241C227.541 78.9374 227.54 78.8471 227.56 78.7601L227.61 78.4001Z" fill="white"/>
<path d="M274.57 0H0V47.57H274.57V0Z" fill="url(#paint0_linear_5132_109570)"/>
<path d="M21.6101 13.06L17.8301 39.72H9.83008L13.4001 14.72L10.8001 15.2L11.5101 10.2L22.3201 8L21.6101 13.06ZM28.4801 20.58L24.5601 36.47H19.1501L23.0601 20.58H28.4801ZM24.8701 9.14L24.0001 8H31.9201L30.9201 11.35H48.1401L46.3801 18.04H39.7001L40.3601 15.53H29.6601L28.6601 18.87H22.0001L24.8701 9.14ZM35.8701 36.82C35.7434 37.6439 35.3115 38.3899 34.6601 38.91C34.0276 39.4411 33.2259 39.7284 32.4001 39.72H24.0801L28.0801 35.63L30.6301 17.24H38.6301L35.8701 36.82ZM45.2001 20.58L44.6201 36.51H39.2101L39.7401 20.58H45.2001Z" fill="white"/>
<path d="M61.87 35.63L63.5 23.93H60.2401L57.0801 39.72H49.55L54.7901 13.81L53.42 12.22H70.2301L69.4801 9.5L68.25 8H76.6101L77.7601 12.18H89.3701L88.8001 16.4H78.9401L81.45 25.47L87.13 22.26L86.34 28.11L82.77 30.11L84.09 34.78H85.3701L87.3001 33.1L86.3001 39.7H78L76.32 33.7L70 37.3L70.8301 31.45L75 29.12L71.42 16.4H61.78L61.0801 19.75H70.7601L68.7601 34.31C68.6193 35.1383 68.1994 35.8934 67.57 36.45C66.9532 37.0054 66.1501 37.3088 65.32 37.3H59.94L61.87 35.63ZM87.8701 11.39H79.4701L79 8.48H87.3601L87.8701 11.39Z" fill="white"/>
<path d="M100.94 16.4H109.3L104.68 21.4H106.75L110.75 25.01L115.75 21.4H117.51L114.34 16.4H122.7L127.5 23.93H122.96L115.48 29.34L126.9 39.72H116L109.35 33.72L100.95 39.72H90.1201L104.64 29.34L98.7401 23.93H94.0001L100.94 16.4ZM108.47 10.55L108.6 9.72L107.19 8H117.19L116.84 10.51H129.78L129.16 14.69H94.9201L95.5301 10.51L108.47 10.55Z" fill="white"/>
<path d="M150.18 28.55L144.11 30.13L143.18 36.82C143.056 37.6376 142.636 38.3811 142 38.91C141.372 39.442 140.573 39.7296 139.75 39.72H131.44L135.35 35.72L135.84 32.37L131.08 33.6L131.74 28.98L136.5 27.75L137.42 21.06H132.84L133.46 16.88H138L138.35 14.16L134.52 14.77L135.14 10.59L150.58 8L150 12.22L146.61 12.8L146.04 16.8H153.83L152.51 9.24L151.41 8H159.77L161.31 16.8H169.8L169.19 21H162L162.88 26L168.88 23.09L168.09 28.55L163.65 30.66L164.4 34.8H166L168 33.12L167 39.72H157.8L156.8 33.96L149.8 37.3L150.6 31.85L155.96 29.3L154.49 21H145.38L144.77 25.49L150.84 23.91L150.18 28.55ZM169.67 14.73H162.15L161.31 8.88H168.84L169.67 14.73Z" fill="white"/>
<path d="M171.61 39L173.9 34.82L176 19.57H174.6L175.17 15.57H184.1L181.64 33L187.71 34.81H207.71L207.07 39H184.15L179.84 37.72L179.13 39H171.61ZM182.56 8.89997L184.37 13.83H177.68L175.88 8.89997H182.56ZM199.15 20.9L199.06 21.65L200.3 23.45L202.41 20.95L202.58 19.76H192.42L189.87 33.13H183.27L187.8 9.12997L210.24 8.46997L209.62 12.65L193.62 13.31L193.14 15.78H209.2L208.39 22L203.73 27.1L207.6 33.26L200.91 33.35L199.28 30.62L196.73 33.62H190L196.24 27.2L193.24 22.27L193.41 21L199.15 20.9Z" fill="white"/>
<path d="M211.78 38.1399L214.78 22.6499H219.78L216.78 38.1399H211.78ZM234.62 12.6199L228.68 13.0199L228.1 17.2399H234.79L234.22 21.4199H227.49L224.94 39.7199H218.25L220.8 21.4199H214.16L214.73 17.2399H221.42L221.94 13.4999L215.61 13.8999L216.18 9.71994L235.18 8.43994L234.62 12.6199ZM226.83 38.1399L228.19 22.6499H233.19L231.82 38.1399H226.83ZM241.74 12.2199L238.58 34.7999H233.58L236.75 12.2199H241.74ZM251 8.87994L247 36.8199C246.899 37.6385 246.488 38.3869 245.85 38.9099C245.227 39.4436 244.43 39.7316 243.61 39.7199H236.17L240.05 35.6299L243.65 10.1599L242.6 8.87994H251Z" fill="white"/>
<path d="M260.31 36.69H253.62L254.2 32.51H260.88L260.31 36.69ZM261.1 30.53H254.42L257.14 11.78H263.83L261.1 30.53Z" fill="white"/>
<defs>
<linearGradient id="paint0_linear_5132_109570" x1="-0.8159" y1="23.78" x2="273.297" y2="23.78" gradientUnits="userSpaceOnUse">
<stop stop-color="#9C09ED"/>
<stop offset="0.09" stop-color="#8F15E7"/>
<stop offset="0.51" stop-color="#564BCE"/>
<stop offset="0.83" stop-color="#326CBF"/>
<stop offset="1" stop-color="#2479B9"/>
</linearGradient>
</defs>
</svg>
