<svg width="354" height="99" fill="none" xmlns="http://www.w3.org/2000/svg"><path d="M330.951 96.24H5.631l22.29-58.51h325.32z" fill="#fff"/><path d="M325.32 87.37H0l22.29-58.51h325.32z" fill="url(#prefix__a)"/><path d="m74.163 46.669-3.42 24.396h-13.68l3.42-24.396zM44.75 51.76h-2.622l.532-3.687h3.192l.532-1.823-1.14-1.33h7.752l-.912 3.154h7.068l-2.964 21.203a3 3 0 0 1-1.026 1.786 2.88 2.88 0 0 1-1.938.723h-6.27l3.344-3.497 2.318-16.53H51.02l-5.776 20.027h-6.308zm20.786 15.124 2.242-16.075h-2.052l-2.242 16.075zm29.219-18.05H84.61l2.014-3.953h14.06l6.688 26.98h-7.22zM93.692 51 82.824 71.863h-7.22L86.472 51zm36.249-3.344h3.306l.152-.95-1.444-1.444h7.714l-.342 2.394h4.636l-.494 3.61h-4.636l-.456 3.04h3.762l-.494 3.61h-3.762l-.418 3.04h3.762l-.532 3.61h-3.762l-.418 3.04h4.674l-.494 3.572h-14.06l-.076.608h-5.928l2.926-20.9-1.216.38.608-4.333 7.448-2.431zm-15.808 1.748.532-3.724-.95-1.102h7.486l-.684 4.825h1.254l-.456 3.382h-1.292l-.57 4.105.988-.304-.57 3.951-.95.305-1.178 8.474a3.02 3.02 0 0 1-1.026 1.824 2.92 2.92 0 0 1-1.9.683h-5.89l2.546-3.42.76-5.471-2.166.684.57-3.99 2.128-.647.874-6.193h-2.014l.456-3.383zm12.996 18.201h3.344l.418-3.04h-3.344zm.95-6.65h3.306l.418-3.04h-3.306zm.912-6.65h3.344l.418-3.04h-3.306zm20.175-5.7-1.178-1.33h13.376l.19-1.33-1.216-1.444h9.348l-.418 2.774h9.31l-.494 3.61h-22.876l-4.522 20.938h-6.498zm56.123-4.104-3.762 5.852 10.716 21.508h-7.22l-7.524-15.275-9.804 15.275h-7.22l16.948-26.41-.798-.95zm41.493 12.807h-6.536l-2.014 14.478h-7.106l2.014-14.479h-6.954l.532-3.8h6.954l1.102-7.638-1.254-1.33h8.55l-1.292 8.968h6.536zm-31.274 14.554 2.356-16.53h-2.584l.494-3.61h9.082l-2.052 14.668 3.382-.532-.57 3.913zm8.132-26.638 1.406 5.054h-5.776l-1.368-5.055zm31.043 6.27-1.254-5.51-1.444-1.444h7.03l1.558 6.954h8.55l-.532 3.648h-7.182l.912 3.951 5.586-2.964-.684 4.712-4.028 2.166 1.14 4.94h2.128l1.33-1.063-.722 4.94h-7.638l-1.406-6.043-8.74 4.636.646-4.712 7.182-3.838-1.558-6.726h-4.864l.532-3.648zm28.538-6.954-3.496 24.776q-.151 1.063-1.026 1.786-.836.721-1.9.722h-6.004l3.344-3.496 3.078-22.116-.798-1.672zm-7.334 2.926-2.622 18.543h-5.016l2.622-18.543zm-13.49 1.14-.608-3.306h4.826l.608 3.305zm33.743-4.586h10.68l13.14 13.93-15.35 14.64H289l20.64-14.82z" fill="#fff"/><defs><linearGradient id="prefix__a" x1="179.99" y1="34.001" x2="347.99" y2="77.001" gradientUnits="userSpaceOnUse"><stop stop-color="#F30BFF"/><stop offset="1" stop-color="#3B1C89"/></linearGradient></defs></svg>