<svg width="163" height="281" viewBox="0 0 163 281" fill="none" xmlns="http://www.w3.org/2000/svg">
<path d="M142 71H163V260.742L152 269L142 261.5V71Z" fill="url(#paint0_linear_2877_96178)"/>
<path d="M21 71H0V260.742L11 269L21 261.5V71Z" fill="url(#paint1_linear_2877_96178)"/>
<path d="M158 71.1034H5V240.329L82.5813 280.103L158 242.5V71.1034Z" fill="url(#paint2_linear_2877_96178)" stroke="#6AE4FF"/>
<path d="M151 80H12V234.651L82.4823 271L151 236.635V80Z" fill="url(#paint3_linear_2877_96178)" stroke="#6AE4FF"/>
<path d="M157.022 32.689C163.99 44.7354 160.056 60.195 148.092 67.4235L106.618 92.4838L93.6315 70.9916L157.022 32.689Z" fill="url(#paint4_linear_2877_96178)" stroke="#6AE4FF"/>
<path d="M153 39.5364C157.789 47.4625 155.246 57.7704 147.32 62.5596L112.187 83.7879L103.516 69.4363L153 39.5364Z" fill="url(#paint5_linear_2877_96178)"/>
<path d="M4.67688 32.689C-2.29065 44.7354 1.64353 60.195 13.6067 67.4235L55.0815 92.4838L68.0677 70.9916L4.67688 32.689Z" fill="url(#paint6_linear_2877_96178)" stroke="#6AE4FF"/>
<path d="M8.69922 39.5364C3.90999 47.4625 6.45299 57.7704 14.3792 62.5596L49.512 83.7879L58.1837 69.4363L8.69922 39.5364Z" fill="url(#paint7_linear_2877_96178)"/>
<path d="M152.624 65.747C154.741 77.7157 146.911 89.2396 134.932 91.63L93.2769 99.9418L88.9875 78.445L152.624 65.747Z" fill="url(#paint8_linear_2877_96178)" stroke="#6AE4FF"/>
<path d="M147.311 70.1289C148.902 78.101 143.729 85.8531 135.757 87.4439L100.42 94.4948L97.5402 80.0602L147.311 70.1289Z" fill="url(#paint9_linear_2877_96178)"/>
<path d="M8.54678 65.747C6.42967 77.7157 14.2598 89.2396 26.2391 91.63L67.894 99.9418L72.1834 78.445L8.54678 65.747Z" fill="url(#paint10_linear_2877_96178)" stroke="#6AE4FF"/>
<path d="M13.8599 70.1289C12.2691 78.101 17.4422 85.8531 25.4143 87.4439L60.7504 94.4948L63.6307 80.0602L13.8599 70.1289Z" fill="url(#paint11_linear_2877_96178)"/>
<defs>
<linearGradient id="paint0_linear_2877_96178" x1="175.5" y1="236.897" x2="134.884" y2="264.416" gradientUnits="userSpaceOnUse">
<stop offset="0.328125" stop-color="#9A6B08"/>
<stop offset="0.953125" stop-color="#FDDB86"/>
</linearGradient>
<linearGradient id="paint1_linear_2877_96178" x1="-11" y1="255.897" x2="19.2656" y2="235.519" gradientUnits="userSpaceOnUse">
<stop stop-color="#FDDB86"/>
<stop offset="1" stop-color="#9A6B08"/>
</linearGradient>
<linearGradient id="paint2_linear_2877_96178" x1="88.1043" y1="280.103" x2="90.2799" y2="110.496" gradientUnits="userSpaceOnUse">
<stop stop-color="#70A2FF"/>
<stop offset="1" stop-color="#2657B5"/>
</linearGradient>
<linearGradient id="paint3_linear_2877_96178" x1="87.5" y1="271" x2="89.5" y2="116" gradientUnits="userSpaceOnUse">
<stop stop-color="#A9C7FF"/>
<stop offset="1" stop-color="#2657B5"/>
</linearGradient>
<linearGradient id="paint4_linear_2877_96178" x1="163.772" y1="43.2019" x2="101.366" y2="84.3675" gradientUnits="userSpaceOnUse">
<stop stop-color="#EED181"/>
<stop offset="1" stop-color="#B87D2D"/>
</linearGradient>
<linearGradient id="paint5_linear_2877_96178" x1="156.385" y1="47.2862" x2="107.851" y2="76.6117" gradientUnits="userSpaceOnUse">
<stop offset="0.12" stop-color="#8A3909"/>
<stop offset="0.43" stop-color="#DFB03A"/>
<stop offset="0.73" stop-color="#F0CF77"/>
<stop offset="0.99" stop-color="#FFECB9"/>
</linearGradient>
<linearGradient id="paint6_linear_2877_96178" x1="-2.07285" y1="43.2019" x2="60.3336" y2="84.3675" gradientUnits="userSpaceOnUse">
<stop stop-color="#EED181"/>
<stop offset="1" stop-color="#B87D2D"/>
</linearGradient>
<linearGradient id="paint7_linear_2877_96178" x1="5.31448" y1="47.2862" x2="53.8481" y2="76.6117" gradientUnits="userSpaceOnUse">
<stop offset="0.12" stop-color="#8A3909"/>
<stop offset="0.43" stop-color="#DFB03A"/>
<stop offset="0.73" stop-color="#F0CF77"/>
<stop offset="0.99" stop-color="#FFECB9"/>
</linearGradient>
<linearGradient id="paint8_linear_2877_96178" x1="155.111" y1="76.3672" x2="91.3127" y2="91.7466" gradientUnits="userSpaceOnUse">
<stop stop-color="#EED181"/>
<stop offset="1" stop-color="#B87D2D"/>
</linearGradient>
<linearGradient id="paint9_linear_2877_96178" x1="147.795" y1="77.5366" x2="98.9802" y2="87.277" gradientUnits="userSpaceOnUse">
<stop offset="0.12" stop-color="#8A3909"/>
<stop offset="0.43" stop-color="#DFB03A"/>
<stop offset="0.73" stop-color="#F0CF77"/>
<stop offset="0.99" stop-color="#FFECB9"/>
</linearGradient>
<linearGradient id="paint10_linear_2877_96178" x1="6.05951" y1="76.3672" x2="69.8582" y2="91.7466" gradientUnits="userSpaceOnUse">
<stop stop-color="#EED181"/>
<stop offset="1" stop-color="#B87D2D"/>
</linearGradient>
<linearGradient id="paint11_linear_2877_96178" x1="13.3761" y1="77.5366" x2="62.1907" y2="87.277" gradientUnits="userSpaceOnUse">
<stop offset="0.12" stop-color="#8A3909"/>
<stop offset="0.43" stop-color="#DFB03A"/>
<stop offset="0.73" stop-color="#F0CF77"/>
<stop offset="0.99" stop-color="#FFECB9"/>
</linearGradient>
</defs>
</svg>
