<svg width="331" height="20" fill="none" xmlns="http://www.w3.org/2000/svg"><path d="m3.082 5.36.28-1.96-.5-.58h3.94l-.36 2.54h1.06l-.26 1.78h-1.04l-.32 2.26.9-.26-.3 2.08-.9.26-.6 4.36a1.47 1.47 0 0 1-.54.96q-.44.36-1 .36h-3.1l1.34-1.8.4-2.84-1.12.32.3-2.1 1.1-.32.46-3.28h-1.02l.26-1.78zm5.94 3.44.32-2.26h-1.66l.28-1.9h1.64l.16-1.04-.52-.8h3.74l-2.04 14.38h-3.1l.38-2.68h-1.66l.28-1.9h1.64l.28-1.9h-1.64l.26-1.9zm4.8-6.02h3.1l-.26 1.84h1.6l-.28 1.9h-1.6l-.32 2.28h1.64l-.26 1.9h-1.64l-.28 1.88h1.68l-.28 1.9h-1.66l-.38 2.7h-3.1zm21.718 8.36-.8 5.7H18.78l.8-5.7zM28.2 6.58l.7 1.72h1.48l2.12-2.56.04-.3h-7.96l-.96 1.14h-3.8l2.82-3.34-.4-.46h4.58l-.64.76H36.6l-.4 2.86-3.2 3.8H19.7l.28-1.9h5.12l-.7-1.72zm3 8.36.26-1.9H23.1l-.26 1.9zM91.942 4.12l-.34-.58h6.34l-1.8 12.82h-5.92zm16.44-.96-.7 4.96h-6.62l-1.68 9.04h-2.76l2.48-14zm-1.28 9.22-3.28.86-.22 1.68h2.36l.84-.76-.42 3.02h-6.14l1.2-8.58h3.04l-.34 2.36 3.28-.86zm-1.44-7.4h-4.28l-.2 1.32h4.28zm-11.6 9.58.54-3.82h-1.2l-.54 3.82zm-.4-5.7h1.2l.5-3.52h-1.2zM116.8 4.68l-1.54.1-.2 1.42h2.1l-.28 1.9h-2.08l-1.28 9.08h-2.86l1.28-9.08h-1.9l.28-1.9h1.88l.18-1.24-1.9.1.26-1.9 6.34-.38zm5.46 11.18a1.6 1.6 0 0 1-.54.96q-.44.36-1.02.36h-3.2l1.8-1.86 1.16-8.36h3.04zm-3.66-12.6-.38-.48h3.22l-.52 1.52h6l-.8 3.04h-2.28l.3-1.14h-3.84l-.5 1.52h-2.66zm7.16 5.22-.5 7.6h-1.9l.5-7.6zm-6.06 0-1.66 7.6h-1.9l1.66-7.6zm-8.24.38-1.44 7.6h-1.52l1.44-7.6zm5.14 0-.72 6.46h-1.52l.72-6.46zM184.143 8.62l-.04.34.56.82.96-1.14.08-.54h-4.62l-1.16 6.08h-3l2.06-10.9 10.2-.3-.28 1.9-7.26.3-.22 1.12h7.3l-.38 2.8-2.12 2.32 1.76 2.8-3.04.04-.74-1.24-1.16 1.36h-3.08l2.84-2.92-1.38-2.24.08-.58zm-12.52 8.22 1.04-1.9.96-6.92h-.64l.26-1.82h4.06l-1.12 7.92 2.76.82h9.08l-.28 1.9h-10.42l-1.96-.58-.32.58zm4.98-13.68.82 2.24h-3.04l-.82-2.24zm23.659 1.7-2.7.18-.26 1.92h3.04l-.26 1.9h-3.06l-1.16 8.32h-3.04l1.16-8.32h-3.02l.26-1.9h3.04l.24-1.7-2.88.18.26-1.9 8.64-.58zm7.46-1.7-1.8 12.7a1.5 1.5 0 0 1-.52.96q-.441.36-1.02.36h-3.38l1.76-1.86 1.64-11.58-.48-.58zm-4.22 1.52-1.44 10.26h-2.26l1.44-10.26zm-13.62 11.78 1.38-7.04h2.28l-1.38 7.04zm6.84 0 .62-7.04h2.28l-.62 7.04zm27.118-7.98-.1.76h-4.18l-.18 1.32h6.08l-.26 1.9h-6.08l-.36 2.48h.94l1.36-1.9h3.42l-1.36 1.9h2.1l-.26 1.9h-16.72l.26-1.9h2.34l-.8-1.9h3.42l.72 1.9h.78l.36-2.48h-6.08l.26-1.9h6.08l.18-1.32h-4.18l.1-.76h-2.26l3.8-4.86-.4-.46h10.64l2.7 5.32zm-9.16-1.14h6.52l-1.14-2.28h-3.58zm29.838-4.18-.26 1.88h-2.98l-.38.96h2.9l-1 7.18h-1.8l-.3-.48.7-4.96h-3.36l-.7 4.96-.42.48h-1.82l1-7.18h2.16l.4-.96h-2.44l.26-1.88zm-10.1 8.62-.7 5.1h-7.04l.7-5.1zm-2.72-.42-.54-.52-.8.52h-3.28l.24-1.64h2.68l-.6-.56-.02.04h-2.04l1.56-3.02h2.12l-.16.28h4.6l-.24 1.7-2.36 1.56h2.16l-.24 1.64zm9.02-2.92-.6 4.26 2.5 4.44h-2.98l-.9-2.5-1.78 2.5h-2.78l3.74-4.5.6-4.2zm-7.16-3.34h-3.64l-.12.88h-2.34l.32-2.22h2.68l.04-.2-.66-.76h3.62l-.14.96h2.78l-.32 2.22h-2.34zm-2.24 10.28.3-2.08h-1.84l-.3 2.08zm-.6-7.5.74.74.94-.74zM268.243 4.44h1.74l.08-.5-.76-.76h4.06l-.18 1.26h2.44l-.26 1.9h-2.44l-.24 1.6h1.98l-.26 1.9h-1.98l-.22 1.6h1.98l-.28 1.9h-1.98l-.22 1.6h2.46l-.26 1.88h-7.4l-.04.32h-3.12l1.54-11-.64.2.32-2.28 3.92-1.28zm-8.32.92.28-1.96-.5-.58h3.94l-.36 2.54h.66l-.24 1.78h-.68l-.3 2.16.52-.16-.3 2.08-.5.16-.62 4.46a1.6 1.6 0 0 1-.54.96q-.44.36-1 .36h-3.1l1.34-1.8.4-2.88-1.14.36.3-2.1 1.12-.34.46-3.26h-1.06l.24-1.78zm6.84 9.58h1.76l.22-1.6h-1.76zm.5-3.5h1.74l.22-1.6h-1.74zm.48-3.5h1.76l.22-1.6h-1.74zm10.619-3-.62-.7h7.04l.1-.7-.64-.76h4.92l-.22 1.46h4.9l-.26 1.9h-12.04l-2.38 11.02h-3.42zM307.9 2.78l-1.98 3.08 5.64 11.32h-3.8l-3.96-8.04-5.16 8.04h-3.8l8.92-13.9-.42-.5zm17.458 12.16-1.54 2.24h-6.46l-.5-.46-.64.46h-3.8l2.74-2-1.5-1.38.26-1.9h-.74l.26-1.9h.74l.1-.64h2.66l-.1.64h1.9l.1-.64h2.66l-.1.64h.78l-.26 1.9h-.78l-.26 1.9-1.9 1.38 1.94 1.8 3.16-4.6-1.74-3.52h3.04l.48.96.66-.96v-.02l.36-2.64h-.72l-.68 1.9h-3.04l1.72-4.86-.38-.46h3.6l-.54 1.52h3.92l-.26 1.9h-.58l-.36 2.64-2.44 3.54 2.4 4.8h-3.04zm-10.36-7.98h-1.14l.28-1.9h3.04l.22-1.54-.34-.74h3.1l-.32 2.28h3.04l-.28 1.9h-1.24l.92 2.28h-2.28l-.56-1.38-.2 1.38h-2.66l.22-1.52-.98 1.52h-2.28zm5.86-3.8h2.28l-.6 1.52h-2.28zm-4.02 1.52h-2.28l-.16-1.52h2.28zm1.52 8.18.12-.96h-1.9l-.12.96.84.78z" fill="#fff"/></svg>