<svg width="163" height="281" fill="none" xmlns="http://www.w3.org/2000/svg"><path d="M142 71h21v189.742L152 269l-10-7.5z" fill="url(#prefix__a)"/><path d="M21 71H0v189.742L11 269l10-7.5z" fill="url(#prefix__b)"/><path d="M158 71.103H5V240.33l77.581 39.774L158 242.5z" fill="url(#prefix__c)" stroke="#6AE4FF"/><path d="M151 80H12v154.651L82.482 271 151 236.635z" fill="url(#prefix__d)" stroke="#6AE4FF"/><path d="M157.022 32.689c6.968 12.046 3.034 27.506-8.93 34.735l-41.474 25.06-12.986-21.492z" fill="url(#prefix__e)" stroke="#6AE4FF"/><path d="M153 39.536c4.789 7.926 2.246 18.234-5.68 23.024l-35.133 21.228-8.671-14.352z" fill="url(#prefix__f)"/><path d="M4.677 32.689c-6.968 12.046-3.033 27.506 8.93 34.735l41.475 25.06 12.986-21.492z" fill="url(#prefix__g)" stroke="#6AE4FF"/><path d="M8.7 39.536C3.91 47.462 6.452 57.77 14.38 62.56l35.132 21.228 8.672-14.352z" fill="url(#prefix__h)"/><path d="M152.624 65.747c2.117 11.969-5.713 23.493-17.692 25.883l-41.655 8.312-4.29-21.497z" fill="url(#prefix__i)" stroke="#6AE4FF"/><path d="M147.311 70.129c1.591 7.972-3.582 15.724-11.554 17.315l-35.337 7.05-2.88-14.434z" fill="url(#prefix__j)"/><path d="M8.547 65.747C6.43 77.716 14.26 89.24 26.239 91.63l41.655 8.312 4.29-21.497z" fill="url(#prefix__k)" stroke="#6AE4FF"/><path d="M13.86 70.129c-1.59 7.972 3.582 15.724 11.554 17.315l35.336 7.05 2.88-14.434z" fill="url(#prefix__l)"/><defs><linearGradient id="prefix__a" x1="175.5" y1="236.897" x2="134.884" y2="264.416" gradientUnits="userSpaceOnUse"><stop offset=".328" stop-color="#9A6B08"/><stop offset=".953" stop-color="#FDDB86"/></linearGradient><linearGradient id="prefix__b" x1="-11" y1="255.897" x2="19.266" y2="235.519" gradientUnits="userSpaceOnUse"><stop stop-color="#FDDB86"/><stop offset="1" stop-color="#9A6B08"/></linearGradient><linearGradient id="prefix__c" x1="88.104" y1="280.103" x2="90.28" y2="110.496" gradientUnits="userSpaceOnUse"><stop stop-color="#70A2FF"/><stop offset="1" stop-color="#2657B5"/></linearGradient><linearGradient id="prefix__d" x1="87.5" y1="271" x2="89.5" y2="116" gradientUnits="userSpaceOnUse"><stop stop-color="#A9C7FF"/><stop offset="1" stop-color="#2657B5"/></linearGradient><linearGradient id="prefix__e" x1="163.772" y1="43.202" x2="101.366" y2="84.368" gradientUnits="userSpaceOnUse"><stop stop-color="#EED181"/><stop offset="1" stop-color="#B87D2D"/></linearGradient><linearGradient id="prefix__f" x1="156.385" y1="47.286" x2="107.851" y2="76.612" gradientUnits="userSpaceOnUse"><stop offset=".12" stop-color="#8A3909"/><stop offset=".43" stop-color="#DFB03A"/><stop offset=".73" stop-color="#F0CF77"/><stop offset=".99" stop-color="#FFECB9"/></linearGradient><linearGradient id="prefix__g" x1="-2.073" y1="43.202" x2="60.334" y2="84.368" gradientUnits="userSpaceOnUse"><stop stop-color="#EED181"/><stop offset="1" stop-color="#B87D2D"/></linearGradient><linearGradient id="prefix__h" x1="5.314" y1="47.286" x2="53.848" y2="76.612" gradientUnits="userSpaceOnUse"><stop offset=".12" stop-color="#8A3909"/><stop offset=".43" stop-color="#DFB03A"/><stop offset=".73" stop-color="#F0CF77"/><stop offset=".99" stop-color="#FFECB9"/></linearGradient><linearGradient id="prefix__i" x1="155.111" y1="76.367" x2="91.313" y2="91.747" gradientUnits="userSpaceOnUse"><stop stop-color="#EED181"/><stop offset="1" stop-color="#B87D2D"/></linearGradient><linearGradient id="prefix__j" x1="147.795" y1="77.537" x2="98.98" y2="87.277" gradientUnits="userSpaceOnUse"><stop offset=".12" stop-color="#8A3909"/><stop offset=".43" stop-color="#DFB03A"/><stop offset=".73" stop-color="#F0CF77"/><stop offset=".99" stop-color="#FFECB9"/></linearGradient><linearGradient id="prefix__k" x1="6.06" y1="76.367" x2="69.858" y2="91.747" gradientUnits="userSpaceOnUse"><stop stop-color="#EED181"/><stop offset="1" stop-color="#B87D2D"/></linearGradient><linearGradient id="prefix__l" x1="13.376" y1="77.537" x2="62.191" y2="87.277" gradientUnits="userSpaceOnUse"><stop offset=".12" stop-color="#8A3909"/><stop offset=".43" stop-color="#DFB03A"/><stop offset=".73" stop-color="#F0CF77"/><stop offset=".99" stop-color="#FFECB9"/></linearGradient></defs></svg>