<svg width="163" height="281" fill="none" xmlns="http://www.w3.org/2000/svg"><path d="M158 71.103H5V240.33l77.581 39.774L158 242.5z" fill="url(#prefix__a)" stroke="#FFB774"/><path d="M151 80H12v154.651L82.482 271 151 236.635z" fill="url(#prefix__b)" stroke="#FFB774"/><path d="M153.741 41.482c6.968 12.047 3.033 27.506-8.93 34.735l-41.474 25.06L90.35 79.785z" fill="url(#prefix__c)" stroke="#FFB774"/><path d="M149.719 48.33c4.789 7.926 2.246 18.234-5.68 23.023L108.906 92.58l-8.672-14.352z" fill="url(#prefix__d)"/><path d="M9.677 41.482c-6.968 12.047-3.033 27.506 8.93 34.735l41.475 25.06 12.986-21.492z" fill="url(#prefix__e)" stroke="#FFB774"/><path d="M13.7 48.33c-4.79 7.926-2.247 18.234 5.68 23.023L54.511 92.58l8.672-14.352z" fill="url(#prefix__f)"/><path d="M150.888 74.382c2.117 11.97-5.713 23.493-17.692 25.883l-41.655 8.312-4.29-21.497z" fill="url(#prefix__g)" stroke="#FFB774"/><path d="M145.575 78.764c1.591 7.972-3.582 15.725-11.554 17.315l-35.336 7.051-2.88-14.434z" fill="url(#prefix__h)"/><path d="M11.883 73.382c-2.117 11.97 5.713 23.493 17.693 25.883l41.654 8.312 4.29-21.497z" fill="url(#prefix__i)" stroke="#FFB774"/><path d="M17.196 77.764c-1.59 7.972 3.583 15.725 11.555 17.315l35.336 7.051 2.88-14.434z" fill="url(#prefix__j)"/><defs><linearGradient id="prefix__a" x1="88.104" y1="280.103" x2="90.28" y2="110.496" gradientUnits="userSpaceOnUse"><stop stop-color="#AA7C60"/><stop offset="1" stop-color="#723A1B"/></linearGradient><linearGradient id="prefix__b" x1="87.5" y1="271" x2="89.5" y2="116" gradientUnits="userSpaceOnUse"><stop stop-color="#D2AC95"/><stop offset="1" stop-color="#723A1B"/></linearGradient><linearGradient id="prefix__c" x1="160.621" y1="51.91" x2="98.749" y2="92.794" gradientUnits="userSpaceOnUse"><stop stop-color="#9FC4D0"/><stop offset=".234" stop-color="#DEF7FF"/><stop offset=".404" stop-color="#65899C"/><stop offset=".523" stop-color="#2B3846"/></linearGradient><linearGradient id="prefix__d" x1="107.164" y1="79.293" x2="145.491" y2="53.548" gradientUnits="userSpaceOnUse"><stop stop-color="#9FC4D0"/><stop offset=".627" stop-color="#DEF7FF"/><stop offset="1" stop-color="#344A62"/></linearGradient><linearGradient id="prefix__e" x1="2.797" y1="51.91" x2="64.669" y2="92.794" gradientUnits="userSpaceOnUse"><stop stop-color="#9FC4D0"/><stop offset=".234" stop-color="#DEF7FF"/><stop offset=".404" stop-color="#65899C"/><stop offset=".523" stop-color="#2B3846"/></linearGradient><linearGradient id="prefix__f" x1="56.254" y1="79.293" x2="17.927" y2="53.548" gradientUnits="userSpaceOnUse"><stop stop-color="#9FC4D0"/><stop offset=".627" stop-color="#DEF7FF"/><stop offset="1" stop-color="#344A62"/></linearGradient><linearGradient id="prefix__g" x1="153.509" y1="84.971" x2="90.235" y2="100.278" gradientUnits="userSpaceOnUse"><stop stop-color="#9FC4D0"/><stop offset=".234" stop-color="#DEF7FF"/><stop offset=".404" stop-color="#65899C"/><stop offset=".523" stop-color="#2B3846"/></linearGradient><linearGradient id="prefix__h" x1="101.208" y1="91.64" x2="140.529" y2="81.812" gradientUnits="userSpaceOnUse"><stop stop-color="#9FC4D0"/><stop offset=".627" stop-color="#DEF7FF"/><stop offset="1" stop-color="#344A62"/></linearGradient><linearGradient id="prefix__i" x1="9.263" y1="83.971" x2="72.537" y2="99.278" gradientUnits="userSpaceOnUse"><stop stop-color="#9FC4D0"/><stop offset=".234" stop-color="#DEF7FF"/><stop offset=".404" stop-color="#65899C"/><stop offset=".523" stop-color="#2B3846"/></linearGradient><linearGradient id="prefix__j" x1="61.563" y1="90.64" x2="22.243" y2="80.812" gradientUnits="userSpaceOnUse"><stop stop-color="#9FC4D0"/><stop offset=".627" stop-color="#DEF7FF"/><stop offset="1" stop-color="#344A62"/></linearGradient></defs></svg>