<svg width="340" height="69" viewBox="0 0 340 69" fill="none" xmlns="http://www.w3.org/2000/svg">
<path d="M318.519 69H5L26.4813 10H340L318.519 69Z" fill="white"/>
<path d="M313.519 60H0L21.4814 1H335L313.519 60Z" fill="#707070"/>
<path d="M62.1628 19.648L58.7428 44.044H45.0628L48.4828 19.648H62.1628ZM32.7508 24.74H30.1288L30.6608 21.054H33.8528L34.3848 19.23L33.2448 17.9H40.9968L40.0848 21.054H47.1528L44.1888 42.258C44.0621 42.9673 43.7201 43.5627 43.1628 44.044C42.6054 44.5253 41.9594 44.766 41.2248 44.766H34.9548L38.2988 41.27L40.6168 24.74H39.0208L33.2448 44.766H26.9368L32.7508 24.74ZM53.5368 39.864L55.7788 23.79H53.7268L51.4848 39.864H53.5368ZM82.7558 21.814H72.6098L74.6238 17.862H88.6838L95.3718 44.842H88.1518L82.7558 21.814ZM81.6918 23.98L70.8238 44.842H63.6038L74.4718 23.98H81.6918ZM117.941 20.636H121.247L121.399 19.686L119.955 18.242H127.669L127.327 20.636H131.963L131.469 24.246H126.833L126.377 27.286H130.139L129.645 30.896H125.883L125.465 33.936H129.227L128.695 37.546H124.933L124.515 40.586H129.189L128.695 44.158H114.635L114.559 44.766H108.631L111.557 23.866L110.341 24.246L110.949 19.914L118.397 17.482L117.941 20.636ZM102.133 22.384L102.665 18.66L101.715 17.558H109.201L108.517 22.384H109.771L109.315 25.766H108.023L107.453 29.87L108.441 29.566L107.871 33.518L106.921 33.822L105.743 42.296C105.616 43.0307 105.274 43.6387 104.717 44.12C104.16 44.576 103.526 44.804 102.817 44.804H96.9268L99.4728 41.384L100.233 35.912L98.0668 36.596L98.6368 32.606L100.765 31.96L101.639 25.766H99.6248L100.081 22.384H102.133ZM115.129 40.586H118.473L118.891 37.546H115.547L115.129 40.586ZM116.079 33.936H119.385L119.803 30.896H116.497L116.079 33.936ZM116.991 27.286H120.335L120.753 24.246H117.447L116.991 27.286ZM137.166 21.586L135.988 20.256H149.364L149.554 18.926L148.338 17.482H157.686L157.268 20.256H166.578L166.084 23.866H143.208L138.686 44.804H132.188L137.166 21.586ZM193.289 17.482L189.527 23.334L200.243 44.842H193.023L185.499 29.566L175.695 44.842H168.475L185.423 18.432L184.625 17.482H193.289ZM234.782 30.288H228.246L226.232 44.766H219.126L221.14 30.288H214.186L214.718 26.488H221.672L222.774 18.85L221.52 17.52H230.07L228.778 26.488H235.314L234.782 30.288ZM203.508 44.842L205.864 28.312H203.28L203.774 24.702H212.856L210.804 39.37L214.186 38.838L213.616 42.752L203.508 44.842ZM211.64 18.204L213.046 23.258H207.27L205.902 18.204H211.64ZM242.683 24.474L241.429 18.964L239.985 17.52H247.015L248.573 24.474H257.123L256.591 28.122H249.409L250.321 32.074L255.907 29.11L255.223 33.822L251.195 35.988L252.335 40.928H254.463L255.793 39.864L255.071 44.804H247.433L246.027 38.762L237.287 43.398L237.933 38.686L245.115 34.848L243.557 28.122H238.693L239.225 24.474H242.683ZM271.221 17.52L267.725 42.296C267.624 43.0053 267.282 43.6007 266.699 44.082C266.142 44.5633 265.508 44.804 264.799 44.804H258.795L262.139 41.308L265.217 19.192L264.419 17.52H271.221ZM263.887 20.446L261.265 38.99H256.249L258.871 20.446H263.887ZM250.397 21.586L249.789 18.28H254.615L255.223 21.586H250.397Z" fill="white"/>
<path d="M284.14 17H294.82L307.96 30.93L292.61 45.57H277L297.64 30.75L284.14 17Z" fill="white"/>
</svg>
