<svg width="340" height="69" fill="none" xmlns="http://www.w3.org/2000/svg"><path d="M318.519 69H5l21.481-59H340l-21.481 59z" fill="#fff"/><path d="M313.519 60H0L21.481 1H335l-21.481 59z" fill="url(#prefix__paint0_linear_7307_113054)"/><path d="M43.48 38.704h3.904l4.192-12.16h6.08l-4.192 12.16h4.32l-.416 3.04H31.832l.416-3.04H37.4l-1.632-12.192h6.08l1.632 12.192zm.896-17.024l.16-1.216-1.056-1.216h7.296l-.352 2.432h9.152l-.448 3.04h-24.32l.448-3.04h9.12zm29.117 12.48l.129 7.584h-4.544l-.032-1.504-8.8 1.504 3.072-21.888h13.376L74.9 32.624H66.07l-.64 4.672 3.52-.576-.032-2.56h4.575zM85.11 22.896h-2.752l-2.72 19.392h-4.544l3.136-22.432h11.84l-2.432 17.28a2.528 2.528 0 01-.833 1.568 2.422 2.422 0 01-1.632.608H80.95l2.177-2.272 1.983-14.144zm-14.305 6.688l.256-1.824h-4.288l-.255 1.824h4.287zm-3.36-6.688l-.255 1.824h4.288l.256-1.824h-4.288zm34.526 6.144l.16-1.056h-2.88l1.024-7.296h2.432l.416-.736-.608-.672h4.832l-.832 1.408h3.36l-1.024 7.296h-2.912l-.16 1.056h3.232l-.32 2.432h-5.248l-.288.704h5.472l-.608 4.256c-.064.49-.299.917-.704 1.28-.405.341-.917.512-1.536.512h-3.2l1.44-1.152.384-2.656h-2.08l-1.408 3.744h-2.496l2.208.544h16.608l-.416 3.04H98.387l-3.232-.928-.576.896h-4.768l2.112-3.136 1.504-10.816h-1.024l.416-3.04h5.76l-1.824 13.024.768.192 2.496-6.464h-1.6l.32-2.432h3.232zm14.336-9.76l-.96 2.368h4.032l-.416 2.976h-.928l-.608 4.352-2.272 3.808 2.176 5.312h-3.136l-1.12-2.848-1.632 2.848h-3.2l3.2-5.472-1.984-5.088h3.584l.544 1.376.704-1.184.416-3.104h-.576l-.832 2.112h-3.776l2.88-7.456h3.904zm-17.92.576l.48 3.648h-4.8l-.48-3.648h4.8zm4.736 3.52h3.072l.128-.768h-3.072l-.128.768zm2.688 2.784l.096-.704h-3.072l-.096.704h3.072zm32.35 16.032l1.44-1.76.224-1.728h-6.368l-.48 3.488h-5.248l1.696-12h16.864l-1.408 9.888c-.086.619-.278 1.13-.576 1.536-.299.384-.736.576-1.312.576h-4.832zm-2.208-18.272l.096-.8h-5.728l.32-2.4h5.76l.032-.224-1.152-1.184h6.88l-.224 1.408h5.792l-.32 2.4h-5.792l-.128.8h4.8l-.352 2.432h-4.768l-.128.8h6.272l-.352 2.432h-18.272l.352-2.432h6.431l.129-.8h-5.056l.352-2.432h5.056zm-15.616 18.272l1.888-13.568h-1.728l.448-3.136h7.136l-1.664 11.936 1.568-.448-.48 3.296-7.168 1.92zm7.072-22.336l.8 3.968h-5.024l-.8-3.968h5.024zm6.368 16.704h6.368l.128-.928h-6.368l-.128.928zm.416-3.072h6.368l.128-.864h-6.368l-.128.864zm18.621-10.88l.48-3.36h4.864l-.48 3.36h.896l.48-3.328h4.864l-.48 3.328h1.216l-.416 3.04h-1.248l-1.312 9.408L158.542 38l3.328 4.288h-5.152l-1.184-1.472-1.568 1.472h-5.152l4.544-4.256-2.304-2.976 1.312-9.408h-1.184l.416-3.04h1.216zm15.136 6.976l.256-1.824 3.936-4.864h-6.592l.416-3.04h12.16l-.608 4.256-3.296 4.096-.192 1.376h3.936l-.416 3.04h-3.936l-1.056 7.552a2.482 2.482 0 01-.896 1.536 2.5 2.5 0 01-1.632.576h-6.304l2.88-2.976.928-6.688h-3.968l.416-3.04h3.968zm-11.072 5.152l1.28-9.088h-.896l-1.28 9.088.384.48.512-.48zm28.766 7.488l7.2-5.792-4.096-3.616-3.84 9.408h-6.24l7.072-17.44h-4.032l.416-2.848h4.768l.703-1.696-.543-.896h7.2l-1.056 2.592h13.92l-.416 2.848h-14.688l-.928 2.304h14.592l-.512 3.712-6.176 5.408 6.496 6.048h-5.952l-3.744-3.264-3.68 3.232h-6.464zm4.192-12.096l-.448 1.12h4.288l2.591 2.432 3.521-2.848.096-.704h-10.048zm47.357-9.056l-2.88 20.544h-11.52l2.88-20.544h11.52zm-24.768 4.288h-2.208l.448-3.104h2.688l.448-1.536-.96-1.12h6.528l-.768 2.656h5.952l-2.496 17.856a2.525 2.525 0 01-.864 1.504 2.42 2.42 0 01-1.632.608h-5.28l2.816-2.944 1.952-13.92h-1.344l-4.864 16.864h-5.312l4.896-16.864zm17.504 12.736l1.888-13.536h-1.728l-1.888 13.536h1.728zm24.606-15.2h-8.544l1.696-3.328h11.84l5.632 22.72h-6.08l-4.544-19.392zm-.896 1.824l-9.152 17.568h-6.08l9.152-17.568h6.08zM284.14 17h10.68l13.14 13.93-15.35 14.64H277l20.64-14.82L284.14 17z" fill="#fff"/><defs><linearGradient id="prefix__paint0_linear_7307_113054" x1="-90.5" y1="-27.5" x2="220.509" y2="206.36" gradientUnits="userSpaceOnUse"><stop offset=".035" stop-color="#CA1023"/><stop offset="1" stop-color="#FFA800"/></linearGradient></defs></svg>
