<svg width="364" height="203" viewBox="0 0 364 203" fill="none" xmlns="http://www.w3.org/2000/svg">
<path d="M75.1272 170.105L317.76 181.804L341.668 132.974L82.2512 142.641L75.1272 170.105Z" fill="url(#paint0_linear_5132_108380)"/>
<path d="M3.54432 72.5185L13.5179 152.356C14.0522 156.655 17.4238 159.941 21.5016 160.088C60.9967 161.556 254.775 166.561 301.725 167.765C307.719 167.918 313.007 163.607 314.45 157.392C319.756 134.503 332.26 80.7847 337.818 57.4168C339.212 51.6071 334.944 46.0308 329.331 46.3133L11.4237 62.4343C6.54131 62.6861 2.89948 67.3413 3.54432 72.5185Z" fill="url(#paint1_linear_5132_108380)"/>
<path d="M4.38484 43.8137L8.68379 29.6885C9.70939 26.3231 13.2284 23.8112 17.5458 23.3691L201.971 4.58269C204.984 4.23873 208.018 5.02185 210.489 6.78127L239.058 28.19C245.728 33.1891 241.705 42.1186 232.561 42.5976L15.2796 54.082C8.22932 54.4812 2.70211 49.2917 4.38484 43.8137Z" fill="url(#paint2_linear_5132_108380)"/>
<path d="M210.059 28.6043L26 42.0239L26.5649 49.7722L210.624 36.3526L210.059 28.6043Z" fill="#F30BFF"/>
<path d="M36.3067 44.1849L36.8517 35.6082L34.4903 35.7851L33.0507 47.4131L27.5939 47.8217L29.9837 28.742L28.9084 27.6673L41.0983 26.7544L40.4076 24.8165L39.4353 23.8304L45.4983 23.3763L46.555 26.3457L54.9794 25.7148L54.7916 28.7774L47.6436 29.3127L49.9548 35.7501L53.8969 33.1123L53.6403 37.3994L51.1655 39.0609L52.3761 42.3717L53.3015 42.3024L54.6148 40.9847L54.2712 45.8238L48.2082 46.2779L46.6706 42.0289L42.269 44.9578L42.5575 40.6682L45.4623 38.7499L42.1869 29.7213L35.1985 30.2447L34.8695 32.7082L41.8899 32.1824L41.213 42.8548C41.1529 43.4797 40.9047 44.0224 40.4685 44.4829C40.0308 44.9222 39.5034 45.1649 38.8865 45.2111L34.9934 45.5026L36.3067 44.1849ZM53.8171 25.1921L47.7541 25.6462L47.2773 23.564L53.3403 23.1099L53.8171 25.1921ZM72.8051 26.8186L83.7505 25.9989L82.7349 41.5742C82.6747 42.1991 82.4257 42.7312 81.988 43.1705C81.5486 43.5884 81.0205 43.8205 80.4036 43.8667L74.1172 44.3375L76.7054 41.1915L77.4678 29.5179L71.2452 29.9839L70.1289 32.2175L74.3092 31.9045L75.7979 38.4997L70.0859 38.9275L69.0445 34.4488L63.7781 45.1118L57.7151 45.5659L65.1502 30.4404L58.0661 30.9709L58.2858 27.906L66.7102 27.2751L69.108 22.4425L68.3438 21.6654L75.6195 21.1205L72.8051 26.8186ZM65.5308 23.0955L66.2365 26.0911L60.4606 26.5237L59.7549 23.528L65.5308 23.0955ZM102.174 21.7953L104.95 21.5874L105.018 20.78L103.714 19.6582L110.192 19.1731L110.055 21.205L113.949 20.9134L113.761 23.976L109.868 24.2676L109.676 26.8491L112.835 26.6125L112.647 29.6751L109.488 29.9117L109.328 32.4908L112.487 32.2542L112.268 35.3192L109.109 35.5558L108.949 38.1349L112.874 37.841L112.684 40.8716L100.877 41.7559L100.851 42.2712L95.8729 42.644L97.0156 24.9092L96.0184 25.3048L96.2565 21.6287L102.358 19.118L102.174 21.7953ZM89.0086 24.2573L89.2212 21.0966L88.3541 20.231L94.6405 19.7602L94.3696 23.8558L95.4226 23.777L95.2524 26.6457L94.1675 26.727L93.9469 30.2092L94.7575 29.8917L94.5273 33.2463L93.7487 33.5613L93.2924 40.7515C93.2322 41.3764 92.9833 41.9085 92.5455 42.3477C92.1062 42.7657 91.5887 42.997 90.993 43.0416L86.0469 43.412L87.9698 40.3799L88.2639 35.737L86.488 36.4476L86.7157 33.0612L88.4621 32.3848L88.8065 27.1284L87.1152 27.2551L87.2854 24.3864L89.0086 24.2573ZM101.067 38.7252L103.875 38.5149L104.035 35.9358L101.227 36.1461L101.067 38.7252ZM101.446 33.0811L104.223 32.8732L104.382 30.294L101.606 30.502L101.446 33.0811ZM101.794 27.4394L104.602 27.2291L104.762 24.6499L101.986 24.8579L101.794 27.4394ZM118.378 21.384L117.305 20.3412L128.537 19.5L128.613 18.3711L127.501 17.235L135.351 16.6471L135.175 19.0029L142.993 18.4174L142.805 21.4799L123.595 22.9186L121.114 40.7858L115.657 41.1944L118.378 21.384ZM165.249 14.408L162.458 19.5589L172.809 36.9463L166.746 37.4004L159.467 25.0455L152.195 38.4902L146.132 38.9442L158.703 15.7005L157.973 14.9529L165.249 14.408ZM182.304 16.789L182.089 18.6342L201.746 17.162L201.558 20.2246L181.71 21.7111L179.987 36.4088L174.53 36.8175L177.057 15.2886L175.982 14.2139L201.447 12.3068L201.259 15.3694L182.304 16.789ZM200.833 22.108L199.995 34.9104L183.018 36.1818L183.856 23.3794L200.833 22.108ZM195.337 32.2749L195.763 25.5363L188.487 26.0811L188.061 32.8198L195.337 32.2749ZM213.374 27.2017L208.523 27.5649L209.484 13.8228L214.334 13.4596L213.374 27.2017ZM213.134 31.7122L208.284 32.0754L208.471 29.0129L213.322 28.6496L213.134 31.7122Z" fill="white"/>
<g filter="url(#filter0_d_5132_108380)">
<path d="M225.861 178.96C225.861 178.96 277.018 162.329 308.56 129.682C320.616 117.197 334.913 90.9915 337.48 52.4913L354.805 55.6173L330.325 28.8103L312.902 53.6643L327.549 52.6326C327.549 52.6326 322.943 93.1041 299.391 115.643C268.156 145.539 200.454 164.454 200.454 164.454L225.861 178.96Z" fill="#9964FF"/>
</g>
<path d="M12.3874 8.10181L6.12939 15.6864L22.6988 32.4031L27.2863 30.4441L12.3874 8.10181Z" fill="url(#paint3_linear_5132_108380)"/>
<path d="M3.10141 28.571L0 36.8803L21.7957 37.1935L22.4159 34.4606L3.10141 28.571Z" fill="url(#paint4_linear_5132_108380)"/>
<path d="M29.016 76.6869C30.12 77.5189 31.048 78.3509 31.8 79.1829L30.984 79.9829C30.312 79.1829 29.4 78.3349 28.232 77.4389L29.016 76.6869ZM38.376 90.8149C37.496 90.8149 36.536 90.7989 35.512 90.7829C34.472 90.7669 33.624 90.6709 32.984 90.4949C32.344 90.3029 31.768 89.9029 31.272 89.3269C31.048 89.0549 30.84 88.9269 30.648 88.9269C30.264 88.9269 29.624 89.6629 28.744 91.1349L27.88 90.3509C28.728 89.0069 29.48 88.1909 30.136 87.9029V83.0389H27.864V81.9829H31.208V87.9669C31.336 88.0629 31.464 88.1749 31.608 88.3349C31.992 88.7989 32.408 89.1349 32.856 89.3429C33.368 89.5669 34.088 89.6949 35.048 89.7269C35.896 89.7429 36.952 89.7589 38.216 89.7589C38.952 89.7589 39.72 89.7429 40.504 89.7269C41.272 89.7109 41.864 89.6949 42.28 89.6629L42.008 90.8149H38.376ZM35.512 78.2229C36.184 78.6229 36.808 79.0229 37.352 79.4229C38.184 78.9909 38.952 78.5109 39.656 77.9669H32.552V76.9909H41.208V77.8229C40.248 78.6549 39.208 79.3749 38.088 79.9829L38.344 80.1909H41.512V87.3429C41.512 88.1589 41.064 88.5749 40.168 88.5749H38.84L38.584 87.5989L39.848 87.6469C40.232 87.6469 40.424 87.4549 40.424 87.1029V85.9029H37.736V88.6549H36.664V85.9029H33.992V88.7029H32.904V80.1909H36.904C36.296 79.7589 35.592 79.3269 34.808 78.9109L35.512 78.2229ZM33.992 83.5509V84.9589H36.664V83.5509H33.992ZM37.736 83.5509V84.9589H40.424V83.5509H37.736ZM40.424 82.5909V81.1509H37.736V82.5909H40.424ZM36.664 82.5909V81.1509H33.992V82.5909H36.664ZM44.968 76.6549C46.056 77.5029 46.968 78.3509 47.704 79.1829L46.872 80.0309C46.216 79.2149 45.32 78.3349 44.168 77.4069L44.968 76.6549ZM54.696 90.8149C53.784 90.8149 52.792 90.7989 51.72 90.7829C50.632 90.7669 49.752 90.6709 49.096 90.4949C48.424 90.3029 47.832 89.9029 47.32 89.3269C47.096 89.0549 46.872 88.9269 46.664 88.9269C46.28 88.9269 45.624 89.6629 44.728 91.1669L43.864 90.3989C44.728 89.0229 45.48 88.1909 46.152 87.9029V83.0549H43.848V81.9669H47.256V87.9669C47.384 88.0629 47.528 88.1749 47.672 88.3349C48.088 88.7829 48.52 89.1189 48.984 89.3429C49.496 89.5509 50.264 89.6629 51.256 89.6949C52.136 89.7109 53.24 89.7269 54.552 89.7269C55.256 89.7269 55.96 89.7109 56.696 89.7109C57.416 89.6949 57.976 89.6789 58.36 89.6469L58.072 90.8149H54.696ZM54.216 88.6709H51.944L51.688 87.5669C52.424 87.6149 53.144 87.6469 53.816 87.6469C54.264 87.6469 54.504 87.4229 54.504 86.9909V80.1909H48.456V79.0549H54.504V76.4629H55.672V79.0549H58.04V80.1909H55.672V87.2629C55.672 88.1909 55.176 88.6709 54.216 88.6709ZM50.2 81.6149C51.224 82.7989 52.008 83.8389 52.552 84.7349L51.624 85.3749C51.048 84.4149 50.28 83.3589 49.304 82.1909L50.2 81.6149ZM64.776 76.7669L65.784 77.3749C65.032 78.7029 64.28 79.7909 63.528 80.6389C62.728 81.5669 61.656 82.4789 60.328 83.3749L59.704 82.3669C60.792 81.7429 61.784 80.9269 62.664 79.9189C63.432 79.0229 64.136 77.9829 64.776 76.7669ZM65.304 83.9029H62.072V82.7989H71.624C71.576 84.7989 71.48 86.4149 71.32 87.6469C71.16 88.8629 70.904 89.7269 70.536 90.2069C70.184 90.6709 69.608 90.9269 68.808 90.9749H65.896L65.576 89.8389C66.504 89.8709 67.384 89.8869 68.216 89.8869C69.08 89.8869 69.64 89.5189 69.912 88.7829C70.2 88.0149 70.376 86.3989 70.456 83.9029H66.472C66.088 85.6469 65.56 87.0389 64.872 88.0629C64.056 89.2149 62.824 90.2389 61.192 91.1509L60.456 90.1909C61.928 89.3909 63.048 88.5109 63.8 87.5509C64.472 86.6229 64.968 85.4069 65.304 83.9029ZM69.288 76.5589C70.216 79.0229 71.864 80.9749 74.248 82.3989L73.48 83.3109C71 81.7109 69.272 79.6469 68.296 77.1189L69.288 76.5589ZM78.216 79.8229H87.8V83.0549H78.216V79.8229ZM86.696 82.0629V80.8149H79.32V82.0629H86.696ZM82.824 76.3989C83.08 76.8149 83.32 77.2629 83.544 77.7749H89.944V78.8629H76.056V77.7749H82.28C82.04 77.3589 81.784 76.9589 81.512 76.6069L82.824 76.3989ZM75.704 87.1029H82.712V86.4789C83.704 86.0949 84.872 85.6309 86.216 85.0709H77.256V84.0309H88.488V84.8629C87.144 85.4869 85.592 86.1269 83.848 86.7989V87.1029H90.296V88.1589H83.848V89.6469C83.848 90.6069 83.368 91.1029 82.424 91.1029H80.168L79.864 90.0469C80.76 90.0949 81.464 90.1269 81.976 90.1269C82.456 90.1269 82.712 89.8549 82.712 89.3109V88.1589H75.704V87.1029ZM93.656 82.2229C93.112 82.9589 92.536 83.6469 91.912 84.3029L91.544 83.0869C93.272 81.1349 94.536 78.8789 95.32 76.3509L96.392 76.8629C95.976 78.1269 95.448 79.3269 94.808 80.4469V91.1029H93.656V82.2229ZM103.96 82.7989C104.776 84.6869 105.48 86.7189 106.088 88.8949L105.08 89.3429C104.44 87.0069 103.72 84.9269 102.936 83.1349L103.96 82.7989ZM98.456 79.5029C97.944 80.7509 97.352 81.8709 96.68 82.8949L95.688 82.2869C96.904 80.5109 97.784 78.5429 98.328 76.3829L99.416 76.6069C99.256 77.2309 99.064 77.8229 98.872 78.3829H105.688V79.1349C105.432 80.1269 105.112 81.1029 104.712 82.0629L103.608 81.7429C103.976 81.0709 104.28 80.3349 104.52 79.5029H98.456ZM100.456 90.9909H98.36L98.12 89.9029C98.792 89.9509 99.448 89.9829 100.056 89.9829C100.456 89.9829 100.664 89.7749 100.664 89.3589V80.8469H101.784V89.6469C101.784 90.5429 101.336 90.9909 100.456 90.9909ZM98.056 82.9269L99.096 83.2149C98.52 85.4389 97.768 87.3909 96.84 89.0709L95.768 88.6869C96.632 87.1829 97.4 85.2629 98.056 82.9269ZM113.464 79.1989V90.1109H112.344V89.1989H109.432V90.5749H108.312V79.1989H109.8C110.12 78.3029 110.344 77.3749 110.488 76.4149L111.64 76.5749C111.448 77.5189 111.208 78.3989 110.888 79.1989H113.464ZM109.432 88.1269H112.344V84.6229H109.432V88.1269ZM109.432 83.5829H112.344V80.2869H109.432V83.5829ZM116.248 82.9109C117.4 84.2389 118.264 85.4069 118.872 86.3989L117.96 87.0389C117.304 85.9829 116.424 84.7989 115.32 83.4869L116.248 82.9109ZM121.736 79.2149C121.736 84.5269 121.656 87.8229 121.496 89.0709C121.336 90.2869 120.6 90.9109 119.256 90.9109C118.936 90.9109 118.392 90.8789 117.624 90.8469L117.352 89.7909C118.024 89.8229 118.6 89.8389 119.096 89.8389C119.848 89.8389 120.28 89.4229 120.408 88.6069C120.504 87.7109 120.568 84.9429 120.6 80.3349H116.2C115.752 81.3429 115.224 82.2549 114.6 83.0709L113.912 82.1589C115.032 80.5909 115.784 78.6709 116.2 76.3989L117.336 76.5429C117.144 77.4869 116.92 78.3829 116.632 79.2149H121.736ZM133.64 82.3629V84.3629H136.56V82.3629H133.64ZM133.64 86.3029V88.5829H136.56V86.3029H133.64ZM133.64 90.5829V91.4829H131.58V80.6229C131.18 81.1429 130.78 81.6629 130.38 82.1629L130.06 81.1629V83.2429C129.52 83.4829 128.98 83.7229 128.44 83.9429V89.2429C128.44 90.6029 127.72 91.3029 126.32 91.3029H124.52L124.06 89.2829C124.6 89.3629 125.12 89.4229 125.6 89.4229C126.08 89.4229 126.34 89.1829 126.34 88.7029V84.7229C125.62 84.9629 124.88 85.2029 124.14 85.4029L123.62 83.2829C124.54 83.1029 125.44 82.8829 126.34 82.6029V78.5629H124V76.5429H126.34V73.0829H128.44V76.5429H130.22V78.5629H128.44V81.8429C129 81.6029 129.52 81.3629 130.04 81.1029L129.68 79.9829C131.24 77.9029 132.32 75.6029 132.96 73.1029L135 73.5029C134.72 74.4629 134.4 75.3829 134.02 76.2829H136.82C136.52 75.3629 136.18 74.4429 135.78 73.5629L137.8 73.0229C138.22 74.2029 138.56 75.2829 138.8 76.2829H141.78V78.2829H138.62V80.4029H141.38V82.3629H138.62V84.3629H141.38V86.3029H138.62V88.5829H142V90.5829H133.64ZM136.56 78.2829H133.64V80.4029H136.56V78.2829ZM153.94 72.8429C154.26 73.4829 154.56 74.2029 154.84 75.0029H161.98V77.0229H147.4V81.1429C147.34 85.5429 146.7 89.0829 145.5 91.7429L143.72 90.1629C144.72 88.0029 145.24 84.9829 145.28 81.1429V75.0029H152.52C152.24 74.3629 151.94 73.7829 151.6 73.2429L153.94 72.8429ZM174.18 84.0829H177.66V82.2429H174.6L174.2 80.5229C174.76 79.5829 175.3 78.4029 175.78 76.9629H174.06V75.1429H176.34C176.52 74.4829 176.7 73.8029 176.86 73.1029L178.7 73.5429C178.56 74.1029 178.42 74.6229 178.28 75.1429H181.78V76.9629H177.72C177.28 78.2629 176.82 79.4229 176.32 80.4229H177.66V77.9429H179.58V80.4229H181.58V82.2429H179.58V84.0829H182.16V85.9229H179.58V88.8029H177.66V85.9229H174.18V84.0829ZM171.6 73.3829C172.44 74.6229 173.1 75.6829 173.58 76.6029L172.02 77.6829C171.54 76.6829 170.88 75.5629 170.08 74.3429L171.6 73.3829ZM179.16 89.3829C180.28 89.3829 181.36 89.3629 182.36 89.3229L181.82 91.2829H179C178.4 91.2829 177.8 91.2629 177.2 91.2429C176.32 91.2229 175.5 91.1029 174.78 90.8829C174.1 90.6429 173.52 90.2629 173.06 89.7429C172.8 89.4629 172.58 89.3429 172.4 89.3429C172.14 89.3429 171.62 90.0829 170.82 91.6029L169.62 90.0229C170.36 88.8629 171 88.0629 171.54 87.6629V81.4429H170.22V79.6029H173.44V87.8429C173.8 88.3029 174.28 88.6629 174.84 88.9429C175.44 89.1429 176.12 89.2829 176.88 89.3429C177.64 89.3629 178.4 89.3829 179.16 89.3829ZM165.64 73.1429L167.62 73.5629C167.5 74.1229 167.38 74.6429 167.26 75.1429H169.88V77.1229H166.7C166.46 77.8629 166.2 78.5629 165.92 79.2029H169.62V81.0629H168.22V82.9429H170.18V84.8629H168.22V88.6029C168.66 88.3229 169.12 88.0029 169.56 87.6229L169.92 89.4229C168.92 90.1229 167.76 90.7029 166.44 91.1629L165.66 89.4429C166.02 89.2829 166.22 89.0229 166.22 88.6629V84.8629H164.22V82.9429H166.22V81.0629H165.5V80.1229L165.22 80.6829L163.58 79.6429C164.56 77.6029 165.24 75.4429 165.64 73.1429ZM193.64 76.5429H190.94V74.6629H195C194.8 74.1629 194.6 73.7029 194.36 73.2629L196.52 72.9029C196.72 73.4229 196.9 74.0229 197.1 74.6629H201.44V76.5429H199.06L200.06 76.9029C199.74 77.7429 199.38 78.5029 198.98 79.2029H201.8V81.1829H190.46V79.2029H193.2C192.88 78.4829 192.52 77.8429 192.16 77.2629L193.64 76.5429ZM195.18 79.2029H196.78C197.24 78.3629 197.64 77.4629 197.98 76.5429H193.9C194.36 77.3629 194.78 78.2429 195.18 79.2029ZM186.28 91.4029H184.52L184.06 89.3829C184.58 89.4629 185.08 89.5029 185.56 89.5029C186 89.5029 186.22 89.2629 186.22 88.8229V84.7629C185.52 85.0229 184.82 85.2629 184.12 85.5029L183.58 83.4029C184.48 83.2029 185.36 82.9629 186.22 82.6429V78.7029H184V76.6829H186.22V73.1429H188.34V76.6829H189.78V78.7029H188.34V81.7629C188.82 81.5229 189.28 81.2829 189.74 81.0429V83.1629C189.26 83.4029 188.8 83.6229 188.34 83.8429V89.3629C188.34 90.7229 187.64 91.4029 186.28 91.4029ZM194.08 81.4029L196.1 81.6429C195.94 82.0629 195.76 82.4629 195.6 82.8629H202.14V84.8629H200.1C199.8 86.1429 199.26 87.2229 198.5 88.1429C199.72 88.6829 200.9 89.2629 202.04 89.9029L200.9 91.5629C199.86 90.9229 198.58 90.2229 197.02 89.5029C195.68 90.4229 193.62 91.1429 190.84 91.7029L190.04 89.8229C192 89.4629 193.58 89.0229 194.76 88.4829C193.64 88.0029 192.46 87.5029 191.18 87.0029C191.66 86.2629 192.08 85.5429 192.48 84.8629H190.2V82.8629H193.48C193.72 82.3429 193.92 81.8629 194.08 81.4029ZM198.14 84.8629H194.58C194.3 85.3229 194.02 85.7629 193.74 86.1829C194.7 86.5229 195.66 86.9029 196.6 87.3029C197.3 86.6229 197.82 85.8229 198.14 84.8629ZM29.944 102.831C30.872 103.791 31.592 104.639 32.104 105.375L31.208 105.999C30.648 105.199 29.928 104.351 29.064 103.455L29.944 102.831ZM35.576 109.583C36.728 110.847 37.608 111.951 38.232 112.879L37.224 113.583C36.584 112.559 35.736 111.407 34.648 110.159L35.576 109.583ZM33.576 102.431H34.712V104.335C34.696 105.039 34.664 105.727 34.616 106.383H41.208C41.208 110.959 41 113.871 40.6 115.119C40.184 116.367 39.432 116.991 38.36 116.991C37.576 116.991 36.92 116.959 36.376 116.927L36.072 115.807C36.888 115.871 37.624 115.903 38.296 115.903C39.192 115.839 39.72 114.927 39.848 113.199C39.976 111.455 40.04 109.551 40.04 107.503H34.504C34.248 109.519 33.8 111.199 33.144 112.575C32.2 114.479 30.648 115.967 28.472 117.039L27.816 116.015C29.96 114.927 31.464 113.487 32.296 111.679C32.792 110.495 33.144 109.103 33.352 107.503H28.376V106.383H33.48C33.528 105.711 33.56 105.039 33.576 104.335V102.431ZM45.656 108.223C45.112 108.959 44.536 109.647 43.912 110.303L43.544 109.087C45.272 107.135 46.536 104.879 47.32 102.351L48.392 102.863C47.976 104.127 47.448 105.327 46.808 106.447V117.103H45.656V108.223ZM55.96 108.799C56.776 110.687 57.48 112.719 58.088 114.895L57.08 115.343C56.44 113.007 55.72 110.927 54.936 109.135L55.96 108.799ZM50.456 105.503C49.944 106.751 49.352 107.871 48.68 108.895L47.688 108.287C48.904 106.511 49.784 104.543 50.328 102.383L51.416 102.607C51.256 103.231 51.064 103.823 50.872 104.383H57.688V105.135C57.432 106.127 57.112 107.103 56.712 108.063L55.608 107.743C55.976 107.071 56.28 106.335 56.52 105.503H50.456ZM52.456 116.991H50.36L50.12 115.903C50.792 115.951 51.448 115.983 52.056 115.983C52.456 115.983 52.664 115.775 52.664 115.359V106.847H53.784V115.647C53.784 116.543 53.336 116.991 52.456 116.991ZM50.056 108.927L51.096 109.215C50.52 111.439 49.768 113.391 48.84 115.071L47.768 114.687C48.632 113.183 49.4 111.263 50.056 108.927ZM65.464 105.199V116.111H64.344V115.199H61.432V116.575H60.312V105.199H61.8C62.12 104.303 62.344 103.375 62.488 102.415L63.64 102.575C63.448 103.519 63.208 104.399 62.888 105.199H65.464ZM61.432 114.127H64.344V110.623H61.432V114.127ZM61.432 109.583H64.344V106.287H61.432V109.583ZM68.248 108.911C69.4 110.239 70.264 111.407 70.872 112.399L69.96 113.039C69.304 111.983 68.424 110.799 67.32 109.487L68.248 108.911ZM73.736 105.215C73.736 110.527 73.656 113.823 73.496 115.071C73.336 116.287 72.6 116.911 71.256 116.911C70.936 116.911 70.392 116.879 69.624 116.847L69.352 115.791C70.024 115.823 70.6 115.839 71.096 115.839C71.848 115.839 72.28 115.423 72.408 114.607C72.504 113.711 72.568 110.943 72.6 106.335H68.2C67.752 107.343 67.224 108.255 66.6 109.071L65.912 108.159C67.032 106.591 67.784 104.671 68.2 102.399L69.336 102.543C69.144 103.487 68.92 104.383 68.632 105.215H73.736ZM78.376 108.015V110.815H81.368V108.015H78.376ZM81.368 106.943V104.175H78.376V106.943H81.368ZM78.312 111.887C78.152 113.999 77.608 115.743 76.68 117.135L75.8 116.335C76.728 114.831 77.208 112.911 77.24 110.591V103.071H82.504V115.583C82.504 116.479 82.024 116.927 81.064 116.927H79.448L79.144 115.823C79.704 115.839 80.232 115.855 80.712 115.855C81.144 115.855 81.368 115.615 81.368 115.167V111.887H78.312ZM85.224 108.015V110.815H88.376V108.015H85.224ZM88.376 106.943V104.175H85.224V106.943H88.376ZM85.176 111.887C85.032 113.999 84.568 115.759 83.768 117.135L82.872 116.335C83.656 114.879 84.056 113.023 84.088 110.767V103.071H89.528V115.567C89.528 116.463 89.032 116.927 88.04 116.927H86.328L86.024 115.823C86.632 115.839 87.176 115.855 87.672 115.855C88.136 115.855 88.376 115.615 88.376 115.151V111.887H85.176ZM92.184 104.639H96.584C96.68 103.935 96.76 103.199 96.84 102.447H97.992C97.912 103.215 97.832 103.951 97.736 104.639H106.04V105.759H97.576C97.432 106.623 97.288 107.423 97.128 108.159H104.456V109.167C103.816 110.927 102.792 112.447 101.4 113.727C102.728 114.735 104.36 115.487 106.28 115.999L105.704 117.055C103.608 116.447 101.88 115.583 100.52 114.479C99.112 115.535 97.4 116.415 95.416 117.103L94.808 116.015C96.744 115.423 98.36 114.655 99.672 113.727C98.408 112.479 97.512 110.975 96.984 109.231H96.872C96.68 109.999 96.456 110.687 96.232 111.295C95.4 113.407 94.152 115.279 92.488 116.943L91.768 116.015C93.272 114.463 94.408 112.735 95.176 110.847C95.688 109.471 96.104 107.775 96.424 105.759H92.184V104.639ZM98.056 109.231C98.6 110.719 99.432 111.983 100.552 113.023C101.784 111.935 102.68 110.671 103.24 109.231H98.056ZM120.072 116.975H118.552L118.264 115.903L119.832 115.935C120.312 115.935 120.552 115.631 120.552 115.039V104.575H116.664V103.471H121.688V115.359C121.688 116.431 121.144 116.975 120.072 116.975ZM114.392 102.431C115.144 103.375 115.72 104.207 116.136 104.927L115.224 105.567C114.808 104.783 114.232 103.919 113.512 102.991L114.392 102.431ZM111.368 102.335L112.408 102.815C111.992 104.079 111.448 105.279 110.792 106.415V117.135H109.64V108.159C109.112 108.863 108.536 109.551 107.912 110.191L107.544 109.023C109.304 107.071 110.568 104.847 111.368 102.335ZM112.76 105.151H113.88V117.087H112.76V105.151ZM123.88 104.191H126.264V102.559H127.336V104.191H130.376V102.495H131.496V104.191H134.584V102.559H135.672V104.191H138.12V105.295H135.672V106.991H134.584V105.295H131.496V107.055H130.376V105.295H127.336V106.991H126.264V105.295H123.88V104.191ZM137.576 107.983V111.071H136.456V109.071H131.544V110.815H135.688V114.591C135.688 115.535 135.256 116.015 134.392 116.015H132.936L132.648 114.895L134.024 114.959C134.376 114.959 134.568 114.751 134.568 114.351V111.887H131.544V117.119H130.392V111.887H127.496V116.031H126.376V110.815H130.392V109.071H125.528V111.119H124.408V107.983H137.576ZM143.048 106.063C143.576 106.879 144.072 107.775 144.552 108.767L143.56 109.263C143.096 108.239 142.584 107.343 142.04 106.543L143.048 106.063ZM145.368 110.559H140.024V109.455H146.408V105.439H140.648V104.335H146.408V102.495H147.592V104.335H153.48V105.439H147.592V109.455H149.192C149.816 108.367 150.344 107.183 150.792 105.919L151.912 106.319C151.448 107.487 150.92 108.527 150.328 109.455H153.944V110.559H148.6C149.736 112.383 151.672 113.999 154.392 115.423L153.608 116.415C150.776 114.671 148.792 112.719 147.656 110.559H147.592V117.071H146.408V110.559H146.312C145.288 112.831 143.256 114.783 140.216 116.431L139.576 115.407C142.456 113.983 144.392 112.367 145.368 110.559ZM157.768 108.015C157.208 108.783 156.584 109.519 155.912 110.207L155.576 109.055C157.304 107.135 158.552 104.943 159.336 102.479L160.376 102.959C159.992 104.111 159.496 105.215 158.92 106.255V117.103H157.768V108.015ZM160.072 106.335H163.368C163.384 106.015 163.4 105.695 163.4 105.375V102.479H164.504V105.375C164.504 105.695 164.488 106.015 164.472 106.335H169.848V107.455H166.52V115.311C166.52 115.631 166.664 115.791 166.984 115.791H168.376C168.552 115.791 168.696 115.695 168.824 115.519C168.968 115.279 169.064 114.431 169.112 112.959L170.152 113.295C170.04 114.991 169.864 116.031 169.64 116.383C169.416 116.671 169.08 116.831 168.664 116.847H166.68C165.832 116.847 165.416 116.399 165.416 115.519V107.455H164.408C164.056 111.727 162.712 114.927 160.408 117.055L159.56 116.319C161.704 114.367 162.952 111.423 163.304 107.455H160.072V106.335ZM166.6 102.767C167.592 103.455 168.44 104.159 169.112 104.863L168.328 105.647C167.72 104.959 166.904 104.239 165.848 103.487L166.6 102.767ZM174.472 107.103V108.511C174.392 112.031 173.704 114.847 172.392 116.959L171.592 116.111C172.68 114.287 173.272 111.743 173.368 108.511V103.503C177.592 103.471 181.4 103.135 184.776 102.527L185.352 103.567C182.12 104.111 178.488 104.415 174.472 104.479V106.047H179.816C179.896 105.567 179.96 105.071 180.008 104.591L181.16 104.735C181.112 105.183 181.048 105.631 180.984 106.047H186.056V107.103H180.808C180.712 107.647 180.6 108.143 180.472 108.623H184.584V114.063H183.48V109.679H177.16V114.127H176.056V108.623H179.304C179.432 108.111 179.544 107.615 179.64 107.103H174.472ZM181.24 113.695C183.016 114.367 184.632 115.167 186.088 116.111L185.448 117.087C183.896 116.031 182.296 115.183 180.664 114.559L181.24 113.695ZM180.056 110.319L181.176 110.399C180.984 112.287 180.408 113.743 179.448 114.735C178.456 115.727 176.936 116.527 174.904 117.103L174.28 116.047C176.168 115.567 177.56 114.911 178.456 114.047C179.352 113.183 179.88 111.935 180.056 110.319ZM193.464 105.199V116.111H192.344V115.199H189.432V116.575H188.312V105.199H189.8C190.12 104.303 190.344 103.375 190.488 102.415L191.64 102.575C191.448 103.519 191.208 104.399 190.888 105.199H193.464ZM189.432 114.127H192.344V110.623H189.432V114.127ZM189.432 109.583H192.344V106.287H189.432V109.583ZM196.248 108.911C197.4 110.239 198.264 111.407 198.872 112.399L197.96 113.039C197.304 111.983 196.424 110.799 195.32 109.487L196.248 108.911ZM201.736 105.215C201.736 110.527 201.656 113.823 201.496 115.071C201.336 116.287 200.6 116.911 199.256 116.911C198.936 116.911 198.392 116.879 197.624 116.847L197.352 115.791C198.024 115.823 198.6 115.839 199.096 115.839C199.848 115.839 200.28 115.423 200.408 114.607C200.504 113.711 200.568 110.943 200.6 106.335H196.2C195.752 107.343 195.224 108.255 194.6 109.071L193.912 108.159C195.032 106.591 195.784 104.671 196.2 102.399L197.336 102.543C197.144 103.487 196.92 104.383 196.632 105.215H201.736ZM211.032 102.223C211.288 102.767 211.544 103.391 211.784 104.079H217.4V105.183H214.616C214.424 106.031 214.168 106.847 213.832 107.615H217.736V108.719H206.248V111.087C206.184 113.583 205.608 115.583 204.504 117.087L203.624 116.303C204.552 115.055 205.048 113.311 205.08 111.087V107.615H208.36L207.688 105.183H204.76V104.079H210.616C210.392 103.471 210.12 102.927 209.832 102.431L211.032 102.223ZM209.496 107.615H212.728C213.08 106.847 213.352 106.031 213.512 105.183H208.824L209.496 107.615ZM222.584 103.103H231.4V108.335H222.584V103.103ZM230.248 107.247V104.191H223.736V107.247H230.248ZM226.088 109.919V116.863H224.968V116.047H221.592V116.863H220.456V109.919H226.088ZM221.592 114.959H224.968V111.023H221.592V114.959ZM233.528 109.919V116.863H232.376V116.047H228.872V116.863H227.736V109.919H233.528ZM228.872 114.959H232.376V111.023H228.872V114.959ZM249.56 103.519V116.463H248.44V115.199H244.552V116.623H243.448V103.519H249.56ZM244.552 114.111H248.44V104.591H244.552V114.111ZM236.136 106.831H238.936V104.527C238.136 104.655 237.32 104.751 236.488 104.815L236.12 103.791C238.504 103.599 240.488 103.199 242.088 102.591L242.632 103.551C241.8 103.855 240.952 104.111 240.056 104.303V106.831H242.792V107.903H240.056V108.703C240.984 109.519 241.912 110.447 242.856 111.503L242.184 112.495C241.352 111.359 240.648 110.447 240.056 109.775V116.991H238.936V109.887C238.248 111.407 237.336 112.783 236.2 114.015L235.72 112.767C237.208 111.359 238.28 109.775 238.936 108.015V107.903H236.136V106.831ZM253.912 107.903V110.575H256.488V107.903H253.912ZM256.488 106.863V104.159H253.912V106.863H256.488ZM253.896 111.615C253.8 113.855 253.416 115.695 252.76 117.135L251.896 116.335C252.536 114.895 252.856 113.039 252.872 110.799V103.119H257.544V115.599C257.544 116.559 257.096 117.055 256.2 117.055H254.92L254.648 116.031C255.096 116.063 255.496 116.095 255.88 116.095C256.28 116.095 256.488 115.807 256.488 115.231V111.615H253.896ZM259.976 110.031V117.119H258.888V103.103H265.368C265.368 105.087 265.272 106.399 265.08 107.039C264.888 107.695 264.296 108.031 263.288 108.031H261.992L261.688 107.039C261.96 107.039 262.312 107.055 262.76 107.055C263.144 107.055 263.416 107.023 263.608 106.975C263.8 106.911 263.944 106.751 264.04 106.511C264.152 106.159 264.216 105.375 264.248 104.159H259.976V109.007H265.416V109.983C265.112 111.631 264.584 113.039 263.848 114.191C264.568 114.895 265.416 115.519 266.392 116.079L265.816 117.055C264.792 116.463 263.928 115.807 263.192 115.087C262.488 115.903 261.672 116.559 260.712 117.071L260.104 116.143C261.016 115.647 261.784 115.023 262.424 114.255C261.4 113.007 260.712 111.599 260.36 110.031H259.976ZM261.352 110.031C261.688 111.263 262.264 112.367 263.08 113.359C263.672 112.399 264.104 111.295 264.392 110.031H261.352ZM32.504 128.383L33.672 128.543C33.496 128.975 33.288 129.375 33.064 129.759H40.04V130.687C39.016 131.871 37.768 132.879 36.296 133.711C38.104 134.479 40.12 134.975 42.344 135.199L41.816 136.271C39.288 135.983 37.032 135.343 35.048 134.351C33.096 135.247 30.808 135.903 28.216 136.303L27.688 135.215C30.008 134.895 32.04 134.383 33.8 133.679C32.904 133.151 32.072 132.543 31.304 131.871C30.696 132.415 30.04 132.911 29.304 133.359L28.6 132.431C30.52 131.327 31.832 129.983 32.504 128.383ZM35.032 133.119C36.328 132.479 37.448 131.711 38.392 130.847H32.28L32.072 131.103C32.968 131.887 33.96 132.559 35.032 133.119ZM34.056 135.503H35.192C35.192 136.143 35.128 136.751 35.032 137.327H40.664C40.632 140.031 40.392 141.647 39.928 142.175C39.464 142.703 38.664 142.975 37.528 142.975C37.016 142.975 36.392 142.943 35.656 142.911L35.368 141.871L37.256 141.951C38.216 141.935 38.808 141.727 39.064 141.343C39.304 140.959 39.448 139.967 39.496 138.367H34.76C34.632 138.783 34.456 139.183 34.248 139.567C33.432 141.007 31.56 142.207 28.616 143.135L27.848 142.191C30.472 141.423 32.216 140.447 33.048 139.279C33.24 138.991 33.416 138.687 33.544 138.367H28.776V137.327H33.864C33.992 136.751 34.056 136.143 34.056 135.503ZM47.848 128.255C48.376 129.055 48.888 129.935 49.368 130.895L48.328 131.407C47.848 130.415 47.336 129.535 46.792 128.767L47.848 128.255ZM53.192 132.559H49.08V134.111C49.064 134.911 49.016 135.647 48.936 136.319H53.192V132.559ZM53.192 137.423H48.776C48.584 138.415 48.312 139.263 47.976 139.983C47.304 141.343 46.216 142.399 44.696 143.151L44.024 142.095C45.464 141.359 46.488 140.367 47.064 139.119C47.272 138.607 47.448 138.047 47.576 137.423H43.88V136.319H47.752C47.848 135.631 47.896 134.895 47.912 134.111V132.559H44.536V131.455H52.616C53.224 130.463 53.736 129.391 54.184 128.255L55.416 128.703C54.968 129.727 54.472 130.655 53.928 131.455H57.512V132.559H54.376V136.319H58.136V137.423H54.376V143.023H53.192V137.423ZM59.96 129.663H63.704V128.351H64.888V129.663H69.112V128.351H70.296V129.663H74.04V130.703H70.296V131.871H69.112V130.703H64.888V131.871H63.704V130.703H59.96V129.663ZM64.456 132.255L65.416 132.847C64.84 133.583 64.28 134.207 63.704 134.719C64.488 136.047 64.888 137.679 64.888 139.615C64.888 141.023 64.68 141.999 64.264 142.543C63.96 142.863 63.512 143.023 62.92 143.023C62.28 143.023 61.784 143.007 61.4 142.991L61.08 141.935C61.576 141.983 62.104 142.015 62.648 142.015C63.048 142.015 63.336 141.871 63.496 141.615C63.688 141.279 63.784 140.591 63.8 139.535C63.8 139.023 63.768 138.543 63.704 138.095C62.84 138.975 61.8 139.711 60.616 140.319L59.992 139.375C61.464 138.703 62.632 137.871 63.48 136.911C63.32 136.351 63.128 135.855 62.872 135.407C62.184 135.903 61.352 136.399 60.376 136.879L59.768 135.919C60.696 135.535 61.528 135.071 62.264 134.495C61.784 133.919 61.192 133.423 60.52 133.039L61.368 132.319C62.04 132.735 62.616 133.231 63.08 133.807C63.56 133.343 64.024 132.831 64.456 132.255ZM65.672 135.055H68.968C69 133.903 69.016 133.007 69.016 132.383H70.168C70.168 133.135 70.152 134.031 70.136 135.055H73.816V136.143H70.232C70.872 138.735 72.184 140.751 74.2 142.159L73.432 143.023C71.592 141.631 70.36 139.855 69.752 137.679C69.112 139.839 67.896 141.647 66.12 143.087L65.352 142.255C67.432 140.511 68.616 138.479 68.904 136.143H65.672V135.055ZM71.768 132.047C72.568 132.815 73.176 133.487 73.608 134.063L72.744 134.671C72.296 134.031 71.688 133.327 70.904 132.575L71.768 132.047ZM77.848 136.383C77.288 136.911 76.68 137.423 76.008 137.903L75.672 136.799C77.368 135.535 78.616 134.095 79.384 132.495L80.376 132.943C79.992 133.727 79.528 134.463 78.968 135.167V143.103H77.848V136.383ZM79.32 128.415L80.28 128.863C79.4 130.591 77.96 132.127 75.96 133.471L75.624 132.351C77.32 131.199 78.552 129.887 79.32 128.415ZM81.416 128.991H88.984V134.095H81.416V128.991ZM87.88 133.167V131.983H82.52V133.167H87.88ZM82.52 131.103H87.88V129.919H82.52V131.103ZM80.712 135.231H89.944V136.239H88.008V137.599H90.312V138.607H88.008V141.679C88.008 142.559 87.544 143.007 86.616 143.007H84.84L84.6 141.919C85.176 141.967 85.704 141.999 86.216 141.999C86.648 141.999 86.872 141.791 86.872 141.407V138.607H80.136V137.599H86.872V136.239H80.712V135.231ZM82.392 139.087C83.304 139.967 84.008 140.751 84.488 141.439L83.608 142.047C83.08 141.311 82.392 140.511 81.56 139.679L82.392 139.087ZM93.84 132.263H99.94V129.683H92.92V127.643H99.94V125.103H102.06V127.643H109.26V129.683H102.06V132.263H108.34V134.343H102.06V136.883H109.74V138.943H102.06V143.583H99.94V138.943H92.32V136.883H99.94V134.343H93.84V132.263ZM116.78 128.423H128.16V134.523H116.78V128.423ZM126.26 133.003V132.203H118.7V133.003H126.26ZM118.7 130.743H126.26V129.983H118.7V130.743ZM122.3 137.723L124.5 136.783H116.42V135.183H128.26V136.463C127.14 137.063 125.82 137.723 124.3 138.483H130.04V140.283H124.3V141.663C124.3 142.863 123.64 143.463 122.34 143.463H119.44L118.92 141.723C120.02 141.803 120.9 141.843 121.56 141.843C122.04 141.843 122.3 141.583 122.3 141.103V140.283H115.52V138.483H122.3V137.723ZM129.56 125.683V127.563H115.06V133.443C115 137.723 114.38 141.163 113.18 143.763L111.6 142.343C112.52 140.223 113 137.243 113.04 133.443V125.683H129.56ZM139.34 128.323V142.343H137.34V141.343H134.38V142.923H132.38V128.323H134.3C134.66 127.263 134.92 126.163 135.08 125.023L137.18 125.303C136.96 126.383 136.66 127.403 136.3 128.323H139.34ZM134.38 139.423H137.34V135.643H134.38V139.423ZM134.38 133.783H137.34V130.283H134.38V133.783ZM142.98 133.183C144.26 134.803 145.24 136.223 145.94 137.463L144.26 138.623C143.52 137.303 142.52 135.843 141.28 134.243L142.98 133.183ZM149.64 128.323C149.64 135.323 149.54 139.643 149.34 141.283C149.14 142.683 148.18 143.383 146.46 143.383C146.06 143.383 145.34 143.343 144.3 143.263L143.8 141.363C144.68 141.423 145.46 141.463 146.12 141.463C146.84 141.463 147.26 141.063 147.38 140.283C147.5 139.323 147.56 136.023 147.6 130.363H142.76C142.22 131.563 141.58 132.643 140.84 133.603L139.58 131.943C140.9 130.063 141.78 127.743 142.26 125.003L144.32 125.263C144.12 126.343 143.86 127.363 143.56 128.323H149.64ZM153.8 125.243C155.12 126.283 156.24 127.323 157.16 128.363L155.66 129.843C154.9 128.843 153.8 127.763 152.36 126.603L153.8 125.243ZM165.18 143.243C164.1 143.243 162.92 143.223 161.66 143.203C160.38 143.183 159.34 143.063 158.5 142.863C157.7 142.623 157.02 142.163 156.44 141.503C156.18 141.163 155.94 141.003 155.7 141.003C155.32 141.003 154.64 141.883 153.64 143.683L152.1 142.263C153.1 140.663 153.98 139.643 154.78 139.203V133.723H152.14V131.803H156.72V139.423L156.92 139.623C157.38 140.183 157.84 140.583 158.28 140.843C158.86 141.143 159.74 141.323 160.9 141.363C162.04 141.383 163.38 141.403 164.9 141.403C165.9 141.403 166.9 141.383 167.92 141.383C168.92 141.343 169.7 141.303 170.26 141.263L169.78 143.243H165.18ZM168.34 125.163L169.36 126.943C166.84 127.563 164 127.923 160.86 128.023L160.88 129.703H169.14V131.163C168.64 132.923 167.92 134.503 166.96 135.903C168.04 136.863 169.04 137.883 169.96 138.923L168.56 140.583C167.7 139.503 166.74 138.483 165.7 137.503C164.5 138.823 163.08 139.943 161.4 140.883L160.12 139.203C161.74 138.323 163.1 137.303 164.2 136.143C163.22 135.303 162.18 134.523 161.1 133.763L162.32 132.283C163.42 133.023 164.46 133.803 165.44 134.603C166.12 133.623 166.66 132.583 167.08 131.463H160.86C160.76 135.283 160.14 138.183 159 140.143L157.1 139.203C158.26 137.243 158.88 134.463 158.94 130.903V126.203C162.64 126.123 165.78 125.763 168.34 125.163ZM172.08 130.243H175.74V128.243C174.78 128.403 173.8 128.503 172.84 128.583L172.2 126.663C175.54 126.383 178.2 125.843 180.18 125.063L181.2 126.783C180.12 127.183 179 127.543 177.86 127.823V130.243H181.4V132.263H177.86V132.763C179.08 133.763 180.32 134.863 181.58 136.103L180.36 137.983C179.38 136.723 178.54 135.723 177.86 134.963V143.583H175.74V135.743C174.86 137.343 173.8 138.803 172.52 140.163L171.56 137.703C173.44 136.103 174.84 134.303 175.74 132.303V132.263H172.08V130.243ZM182.64 126.943H184.72V139.163H182.64V126.943ZM187.28 143.403H184.3L183.86 141.383C184.8 141.463 185.7 141.503 186.56 141.503C187.02 141.503 187.26 141.223 187.26 140.663V125.143H189.38V141.203C189.38 142.663 188.68 143.403 187.28 143.403ZM198.744 131.823C198.008 133.375 197.16 134.719 196.2 135.871L195.384 134.895C196.792 133.231 197.96 131.039 198.856 128.335L200.008 128.591C199.752 129.327 199.496 130.031 199.24 130.687H206.152V131.823H200.776V134.463H205.448V135.583H200.776V138.287H205.544V139.391H200.776V143.119H199.608V131.823H198.744ZM193.624 134.127C193.112 134.799 192.552 135.439 191.944 136.047L191.56 134.831C193.288 132.959 194.552 130.815 195.336 128.383L196.424 128.895C195.992 130.143 195.448 131.311 194.808 132.399V143.119H193.624V134.127ZM209.944 128.831C210.872 129.791 211.592 130.639 212.104 131.375L211.208 131.999C210.648 131.199 209.928 130.351 209.064 129.455L209.944 128.831ZM215.576 135.583C216.728 136.847 217.608 137.951 218.232 138.879L217.224 139.583C216.584 138.559 215.736 137.407 214.648 136.159L215.576 135.583ZM213.576 128.431H214.712V130.335C214.696 131.039 214.664 131.727 214.616 132.383H221.208C221.208 136.959 221 139.871 220.6 141.119C220.184 142.367 219.432 142.991 218.36 142.991C217.576 142.991 216.92 142.959 216.376 142.927L216.072 141.807C216.888 141.871 217.624 141.903 218.296 141.903C219.192 141.839 219.72 140.927 219.848 139.199C219.976 137.455 220.04 135.551 220.04 133.503H214.504C214.248 135.519 213.8 137.199 213.144 138.575C212.2 140.479 210.648 141.967 208.472 143.039L207.816 142.015C209.96 140.927 211.464 139.487 212.296 137.679C212.792 136.495 213.144 135.103 213.352 133.503H208.376V132.383H213.48C213.528 131.711 213.56 131.039 213.576 130.335V128.431ZM227.928 132.895H234.104V138.591H227.928V132.895ZM233.016 137.615V133.887H229V137.615H233.016ZM237.416 129.391V142.847H236.296V142.159H225.704V142.847H224.584V129.391H237.416ZM225.704 141.135H236.296V130.415H225.704V141.135ZM245.192 134.863V135.999C244.584 136.303 243.976 136.591 243.352 136.847V141.615C243.352 142.575 242.888 143.055 241.96 143.055H240.472L240.216 141.951C240.68 141.999 241.128 142.031 241.56 142.031C241.992 142.031 242.216 141.791 242.216 141.343V137.311C241.48 137.583 240.712 137.839 239.944 138.079L239.656 136.943C240.536 136.735 241.384 136.479 242.216 136.191V132.479H239.896V131.375H242.216V128.479H243.352V131.375H245.144V132.479H243.352V135.743C243.976 135.471 244.584 135.183 245.192 134.863ZM247.16 135.871V143.103H246.072V129.087H253.096C253.096 130.863 253 132.047 252.824 132.639C252.632 133.215 252.024 133.519 251 133.519H249.848L249.528 132.511C249.784 132.511 250.088 132.527 250.472 132.527C250.856 132.527 251.16 132.495 251.352 132.463C251.528 132.399 251.672 132.287 251.784 132.095C251.896 131.791 251.96 131.135 251.992 130.143H247.16V134.815H253.24V135.807C252.92 137.503 252.36 138.959 251.528 140.159C252.296 140.895 253.24 141.567 254.36 142.191L253.592 143.071C252.536 142.399 251.624 141.711 250.888 140.975C250.12 141.855 249.176 142.575 248.088 143.119L247.528 142.111C248.552 141.599 249.416 140.943 250.12 140.143C249.016 138.831 248.344 137.407 248.088 135.871H247.16ZM249.128 135.871C249.352 137.119 249.88 138.271 250.744 139.311C251.384 138.335 251.848 137.183 252.136 135.871H249.128ZM258.264 130.079H259.752L259.496 138.431H258.504L258.264 130.079ZM259 139.599C259.272 139.599 259.512 139.679 259.704 139.871C259.88 140.047 259.976 140.271 259.976 140.543C259.976 140.831 259.88 141.055 259.704 141.231C259.512 141.407 259.272 141.503 259 141.503C258.728 141.503 258.504 141.407 258.312 141.231C258.12 141.039 258.04 140.815 258.04 140.543C258.04 140.271 258.12 140.047 258.312 139.871C258.504 139.679 258.728 139.599 259 139.599Z" fill="white"/>
<defs>
<filter id="filter0_d_5132_108380" x="180.454" y="12.8103" width="194.351" height="190.15" filterUnits="userSpaceOnUse" color-interpolation-filters="sRGB">
<feFlood flood-opacity="0" result="BackgroundImageFix"/>
<feColorMatrix in="SourceAlpha" type="matrix" values="0 0 0 0 0 0 0 0 0 0 0 0 0 0 0 0 0 0 127 0" result="hardAlpha"/>
<feOffset dy="4"/>
<feGaussianBlur stdDeviation="10"/>
<feColorMatrix type="matrix" values="0 0 0 0 0 0 0 0 0 0 0 0 0 0 0 0 0 0 0.1 0"/>
<feBlend mode="normal" in2="BackgroundImageFix" result="effect1_dropShadow_5132_108380"/>
<feBlend mode="normal" in="SourceGraphic" in2="effect1_dropShadow_5132_108380" result="shape"/>
</filter>
<linearGradient id="paint0_linear_5132_108380" x1="75.1272" y1="157.392" x2="341.668" y2="157.392" gradientUnits="userSpaceOnUse">
<stop stop-color="#3FD3ED"/>
<stop offset="1" stop-color="#6E40DE"/>
</linearGradient>
<linearGradient id="paint1_linear_5132_108380" x1="87.6502" y1="2.51314" x2="197.101" y2="127.6" gradientUnits="userSpaceOnUse">
<stop stop-color="#9C09ED"/>
<stop offset="0.09" stop-color="#8F15E7"/>
<stop offset="0.51" stop-color="#564BCE"/>
<stop offset="0.83" stop-color="#326CBF"/>
<stop offset="1" stop-color="#2479B9"/>
</linearGradient>
<linearGradient id="paint2_linear_5132_108380" x1="88.5521" y1="0.412711" x2="196.112" y2="123.332" gradientUnits="userSpaceOnUse">
<stop stop-color="#9C09ED"/>
<stop offset="0.09" stop-color="#8F15E7"/>
<stop offset="0.51" stop-color="#564BCE"/>
<stop offset="0.83" stop-color="#326CBF"/>
<stop offset="1" stop-color="#2479B9"/>
</linearGradient>
<linearGradient id="paint3_linear_5132_108380" x1="9.31061" y1="11.6576" x2="22.2504" y2="31.6232" gradientUnits="userSpaceOnUse">
<stop stop-color="#3FD3ED"/>
<stop offset="0.1" stop-color="#41CCEC"/>
<stop offset="0.24" stop-color="#47B9EA"/>
<stop offset="0.41" stop-color="#519BE7"/>
<stop offset="0.46" stop-color="#5490E6"/>
<stop offset="1" stop-color="#6E40DE"/>
</linearGradient>
<linearGradient id="paint4_linear_5132_108380" x1="-0.595711" y1="32.4155" x2="23.9881" y2="35.9284" gradientUnits="userSpaceOnUse">
<stop stop-color="#3FD3ED"/>
<stop offset="0.13" stop-color="#40D0ED"/>
<stop offset="0.24" stop-color="#43C6EC"/>
<stop offset="0.33" stop-color="#48B6EA"/>
<stop offset="0.41" stop-color="#4F9FE8"/>
<stop offset="0.46" stop-color="#5490E6"/>
<stop offset="1" stop-color="#6E40DE"/>
</linearGradient>
</defs>
</svg>
