<svg width="320" height="23" fill="none" xmlns="http://www.w3.org/2000/svg"><path d="m80.887 4.937.431-2.995-.763-.889h6l-.546 3.884h1.01l-.366 2.727h-1.042l-.458 3.273.796-.245-.458 3.18-.763.24-.928 6.83a2.34 2.34 0 0 1-.823 1.45c-.427.36-.97.555-1.528.546h-4.74l2.045-2.728.611-4.402-1.74.546.459-3.208 1.712-.545.699-4.98h-1.637l.366-2.728zM93.62 3.53h2.656l.126-.764-1.162-1.162h6.18l-.278 1.926h3.731l-.398 2.902h-3.726l-.371 2.443h3.028l-.399 2.902h-3.022l-.338 2.444h3.022l-.425 2.902h-3.022l-.338 2.444h3.758l-.398 2.874H90.941l-.06.486h-4.768l2.351-16.8-.976.305.49-3.48 6-1.959zM91.36 19.567h2.683l.338-2.444h-2.689zm.763-5.346h2.657l.332-2.444h-2.656zm.731-5.346h2.69l.337-2.443h-2.661z" fill="url(#prefix__a)"/><path d="m109.054 4.293-.949-1.091h10.757l.153-1.09-.982-1.163h7.516l-.332 2.231h7.484l-.399 2.902h-18.393l-3.633 16.834h-5.204z" fill="url(#prefix__b)"/><path d="m133.092 21.89 1.98-10.751h2.842l-2.013 10.751zM146.08 4.386l-2.902.245-.339 2.531h3.273l-.431 3.12h-3.327l-1.773 12.71h-4.184l1.773-12.71h-3.425l.425-3.12h3.486l.305-2.182-3.273.273.431-3.114 10.364-.884zm-4.582 17.504 1.036-10.751h2.842l-1.091 10.751zm7.849 1.01h-4.555l2.908-8.025h4.282zm9.819-9.105H146.32l1.56-11.03-.731-1.221h13.746zm-3.819-2.934.884-6.382h-4.397l-.889 6.382zm2.989 12.098h-4.276l-.578-8.034h4.276z" fill="url(#prefix__c)"/><path d="m161.965 22.992 5.378-9.503h-2.874l.431-2.934h20.902l-1.467 10.418a2.23 2.23 0 0 1-.807 1.435c-.435.38-.994.587-1.571.584h-6.061l2.728-2.842.916-6.66h-6.393l-5.378 9.502zm6.546-13.294h-5.815l6.447-8.002-.578-.703h6.966zM183.664.971l4.582 8.727h-5.815L177.849.971z" fill="url(#prefix__d)"/><path d="m199.843 10.86.159-1.162h-8.101l.306-2.318h8.127l.093-.584h5.804l-.093.584h8.128l-.306 2.318h-8.182l-.152 1.162h9.867l-.305 2.324h-4.064l-.186 1.162h3.486l-.371 2.596h-3.48l-.546 4.031a2.4 2.4 0 0 1-2.383 2.019h-6.022l2.727-2.842.431-3.208h-15.077l.366-2.596h15.093l.185-1.162h-15.671l.305-2.324zm-1.587-8.727h5.717l-.306 2.323h-2.383l.976 1.74h-4.642l-.856-1.527-.89 1.527h-5.22l2.564-4.429-.671-.796h6.388zM200.7 21.29h-6.382l-2.417-3.486h6.388zm9.748-19.157h6.294l-.305 2.323h-2.968l.982 1.74h-4.647l-.857-1.527-.883 1.527h-5.226l2.569-4.429-.671-.796h6.382z" fill="url(#prefix__e)"/><path d="m226.485 21.966-8.766.578.398-2.902 8.798-.578zM219.732 8.05l3.976-6.268-.644-.763h6.377l-4.489 7.025h3.485l-4.451 6.972h3.48l-.392 2.901h-8.728l.398-2.901 2.597-4.064h-2.013zm18.055 14.94-.764-1.314-.884 1.314h-4.947l3.387-5.53-1.401-2.444-2.182 7.974h-4.282l5.105-18.513h-1.773l.399-2.902h14.433l-.398 2.902-1.893 3.447h1.986l-.431 2.908-4.277 6.475 3.213 5.683zm-1.708-18.513-1.925 6.966h2.444l.791 1.461 1.287-2.072h-2.477l2.782-6.355z" fill="url(#prefix__f)"/><path d="m252.139 10.157 6.322 6.322h24.295l3.224-3.223h11.09l2.771 2.77h19.795" stroke="url(#prefix__g)" stroke-miterlimit="10"/><path d="M257.413 9.17h-2.067l5.313 5.416h2.062z" fill="url(#prefix__h)"/><path d="M260.681 9.17h-2.068l5.313 5.416h2.062z" fill="url(#prefix__i)"/><path d="M263.948 9.17h-2.067l5.313 5.416h2.062z" fill="url(#prefix__j)"/><path d="M267.21 9.17h-2.062l5.313 5.416h2.062z" fill="url(#prefix__k)"/><path d="M270.476 9.17h-2.062l5.313 5.416h2.062z" fill="url(#prefix__l)"/><path d="m284.746 16.839 2.133-2.084h9.502l2.318 2.045z" fill="url(#prefix__m)"/><path d="M68.318 10.158 62 16.48H37.706l-3.224-3.224h-11.09l-2.77 2.77H.826" stroke="url(#prefix__n)" stroke-miterlimit="10"/><path d="M63.048 9.17h2.067l-5.313 5.416H57.74z" fill="url(#prefix__o)"/><path d="M59.78 9.17h2.067l-5.312 5.416h-2.062z" fill="url(#prefix__p)"/><path d="M56.515 9.17h2.067l-5.313 5.416h-2.062z" fill="url(#prefix__q)"/><path d="M53.252 9.17h2.062l-5.313 5.416H47.94z" fill="url(#prefix__r)"/><path d="M49.983 9.17h2.062l-5.313 5.416H44.67z" fill="url(#prefix__s)"/><path d="m35.713 16.839-2.138-2.084h-9.497L21.76 16.8z" fill="url(#prefix__t)"/><defs><linearGradient id="prefix__a" x1="63.656" y1="8.21" x2="242.097" y2="36.815" gradientUnits="userSpaceOnUse"><stop offset=".03" stop-color="#fff"/><stop offset=".05" stop-color="#F2FCFE"/><stop offset=".11" stop-color="#C3F1F9"/><stop offset=".17" stop-color="#9AE8F6"/><stop offset=".24" stop-color="#79E0F2"/><stop offset=".31" stop-color="#60DAF0"/><stop offset=".38" stop-color="#4DD6EE"/><stop offset=".45" stop-color="#43D4ED"/><stop offset=".53" stop-color="#3FD3ED"/><stop offset="1" stop-color="#6E40DE"/></linearGradient><linearGradient id="prefix__b" x1="64.358" y1="3.813" x2="242.8" y2="32.412" gradientUnits="userSpaceOnUse"><stop offset=".03" stop-color="#3FD3ED"/><stop offset=".53" stop-color="#3FD3ED"/><stop offset="1" stop-color="#6E40DE"/></linearGradient><linearGradient id="prefix__c" x1="65.147" y1="-1.118" x2="243.589" y2="27.481" gradientUnits="userSpaceOnUse"><stop offset=".03" stop-color="#3FD3ED"/><stop offset=".53" stop-color="#3FD3ED"/><stop offset="1" stop-color="#6E40DE"/></linearGradient><linearGradient id="prefix__d" x1="65.797" y1="-5.16" x2="244.239" y2="23.439" gradientUnits="userSpaceOnUse"><stop offset=".03" stop-color="#3FD3ED"/><stop offset=".53" stop-color="#3FD3ED"/><stop offset="1" stop-color="#6E40DE"/></linearGradient><linearGradient id="prefix__e" x1="66.638" y1="-10.408" x2="245.08" y2="18.197" gradientUnits="userSpaceOnUse"><stop offset=".03" stop-color="#3FD3ED"/><stop offset=".53" stop-color="#3FD3ED"/><stop offset="1" stop-color="#6E40DE"/></linearGradient><linearGradient id="prefix__f" x1="67.249" y1="-14.226" x2="245.691" y2="14.373" gradientUnits="userSpaceOnUse"><stop offset=".03" stop-color="#3FD3ED"/><stop offset=".53" stop-color="#3FD3ED"/><stop offset="1" stop-color="#6E40DE"/></linearGradient><linearGradient id="prefix__g" x1="251.948" y1="13.359" x2="319.636" y2="13.359" gradientUnits="userSpaceOnUse"><stop stop-color="#3FD3ED"/><stop offset="1" stop-color="#6E40DE"/></linearGradient><linearGradient id="prefix__h" x1="254.413" y1="10.714" x2="275.845" y2="16.108" gradientUnits="userSpaceOnUse"><stop stop-color="#3FD3ED"/><stop offset="1" stop-color="#6E40DE"/></linearGradient><linearGradient id="prefix__i" x1="254.609" y1="9.939" x2="276.036" y2="15.334" gradientUnits="userSpaceOnUse"><stop stop-color="#3FD3ED"/><stop offset="1" stop-color="#6E40DE"/></linearGradient><linearGradient id="prefix__j" x1="254.806" y1="9.164" x2="276.232" y2="14.565" gradientUnits="userSpaceOnUse"><stop stop-color="#3FD3ED"/><stop offset="1" stop-color="#6E40DE"/></linearGradient><linearGradient id="prefix__k" x1="254.997" y1="8.39" x2="276.429" y2="13.79" gradientUnits="userSpaceOnUse"><stop stop-color="#3FD3ED"/><stop offset="1" stop-color="#6E40DE"/></linearGradient><linearGradient id="prefix__l" x1="255.192" y1="7.615" x2="276.623" y2="13.015" gradientUnits="userSpaceOnUse"><stop stop-color="#3FD3ED"/><stop offset="1" stop-color="#6E40DE"/></linearGradient><linearGradient id="prefix__m" x1="284.746" y1="15.797" x2="298.699" y2="15.797" gradientUnits="userSpaceOnUse"><stop stop-color="#3FD3ED"/><stop offset="1" stop-color="#6E40DE"/></linearGradient><linearGradient id="prefix__n" x1="68.514" y1="13.359" x2=".826" y2="13.359" gradientUnits="userSpaceOnUse"><stop stop-color="#3FD3ED"/><stop offset="1" stop-color="#6E40DE"/></linearGradient><linearGradient id="prefix__o" x1="66.048" y1="10.714" x2="44.616" y2="16.108" gradientUnits="userSpaceOnUse"><stop stop-color="#3FD3ED"/><stop offset="1" stop-color="#6E40DE"/></linearGradient><linearGradient id="prefix__p" x1="65.851" y1="9.939" x2="44.42" y2="15.334" gradientUnits="userSpaceOnUse"><stop stop-color="#3FD3ED"/><stop offset="1" stop-color="#6E40DE"/></linearGradient><linearGradient id="prefix__q" x1="65.657" y1="9.164" x2="44.23" y2="14.565" gradientUnits="userSpaceOnUse"><stop stop-color="#3FD3ED"/><stop offset="1" stop-color="#6E40DE"/></linearGradient><linearGradient id="prefix__r" x1="65.46" y1="8.39" x2="44.034" y2="13.79" gradientUnits="userSpaceOnUse"><stop stop-color="#3FD3ED"/><stop offset="1" stop-color="#6E40DE"/></linearGradient><linearGradient id="prefix__s" x1="65.267" y1="7.615" x2="43.835" y2="13.015" gradientUnits="userSpaceOnUse"><stop stop-color="#3FD3ED"/><stop offset="1" stop-color="#6E40DE"/></linearGradient><linearGradient id="prefix__t" x1="35.713" y1="15.797" x2="21.76" y2="15.797" gradientUnits="userSpaceOnUse"><stop stop-color="#3FD3ED"/><stop offset="1" stop-color="#6E40DE"/></linearGradient></defs></svg>