<svg width="343" height="315" fill="none" xmlns="http://www.w3.org/2000/svg"><g filter="url(#prefix__a)"><path d="M0 16C0 7.163 7.163 0 16 0h123.731a4 4 0 0 1 2.678 1.03l35.645 32.138a4 4 0 0 0 2.679 1.03H327c8.837 0 16 7.163 16 16v225.201c0 8.837-7.163 16-16 16H163.134a4 4 0 0 0-2.667 1.019l-24.107 21.563a4 4 0 0 1-2.667 1.019h-94.26a4 4 0 0 1-2.637-.992L1.364 282.961A4 4 0 0 1 0 279.953z" fill="#000" fill-opacity=".3"/><path d="M.5 16C.5 7.44 7.44.5 16 .5h123.731c.865 0 1.7.32 2.343.9l35.645 32.14a4.5 4.5 0 0 0 3.014 1.157H327c8.56 0 15.5 6.94 15.5 15.5V275.4c0 8.56-6.94 15.5-15.5 15.5H163.134a4.5 4.5 0 0 0-3 1.146l-24.107 21.564a3.5 3.5 0 0 1-2.334.891h-94.26a3.5 3.5 0 0 1-2.307-.868L1.693 282.585A3.5 3.5 0 0 1 .5 279.953z" stroke="url(#prefix__b)" stroke-opacity=".8"/></g><circle cx="23" cy="23" r="9" fill="#000" fill-opacity=".5" stroke="url(#prefix__c)"/><path opacity=".6" d="M56 12h78.82a3 3 0 0 1 2.044.803L157.5 32" stroke="url(#prefix__d)" stroke-width="2" stroke-linecap="round"/><defs><linearGradient id="prefix__b" x1="-32.418" y1="0" x2="364.505" y2="191.003" gradientUnits="userSpaceOnUse"><stop stop-color="#fff"/><stop offset=".536" stop-color="#fff" stop-opacity=".1"/><stop offset="1" stop-color="#fff"/></linearGradient><linearGradient id="prefix__c" x1="26" y1="25.5" x2="14" y2="15.5" gradientUnits="userSpaceOnUse"><stop stop-color="#fff" stop-opacity=".1"/><stop offset="1" stop-color="#fff"/></linearGradient><linearGradient id="prefix__d" x1="56" y1="13.092" x2="115.726" y2="66.764" gradientUnits="userSpaceOnUse"><stop stop-color="#fff"/><stop offset=".536" stop-color="#fff" stop-opacity=".1"/><stop offset="1" stop-color="#fff"/></linearGradient><filter id="prefix__a" x="-48" y="-48" width="439" height="411" filterUnits="userSpaceOnUse" color-interpolation-filters="sRGB"><feFlood flood-opacity="0" result="BackgroundImageFix"/><feGaussianBlur in="BackgroundImageFix" stdDeviation="24"/><feComposite in2="SourceAlpha" operator="in" result="effect1_backgroundBlur_2519_84013"/><feBlend in="SourceGraphic" in2="effect1_backgroundBlur_2519_84013" result="shape"/></filter></defs></svg>