<svg width="343" height="480" fill="none" xmlns="http://www.w3.org/2000/svg"><path d="M0 16C0 7.163 7.163 0 16 0h127.246c4.897 0 9.524 2.242 12.558 6.086l20.392 25.828A16 16 0 0 0 188.754 38H327c8.837 0 16 7.163 16 16v394.175a4 4 0 0 1-1.492 3.116l-7.91 6.368a4 4 0 0 1-2.508.884h-9.435c-1.06 0-2.076.42-2.826 1.169l-15.645 15.613A16 16 0 0 1 291.882 480H37.396a16 16 0 0 1-13.166-6.909L2.834 442.104A16 16 0 0 1 0 433.013z" fill="#000" fill-opacity=".6"/><path d="M.5 16C.5 7.44 7.44.5 16 .5h127.246a15.5 15.5 0 0 1 12.166 5.896l20.391 25.828a16.5 16.5 0 0 0 12.951 6.276H327c8.56 0 15.5 6.94 15.5 15.5v394.175c0 1.06-.48 2.062-1.305 2.727l-7.91 6.367a3.5 3.5 0 0 1-2.195.774h-9.435a4.5 4.5 0 0 0-3.179 1.315l-15.645 15.613a15.5 15.5 0 0 1-10.949 4.529H37.396a15.5 15.5 0 0 1-12.755-6.693L3.245 441.82A15.5 15.5 0 0 1 .5 433.013z" stroke="url(#prefix__a)" stroke-opacity=".8"/><path fill-rule="evenodd" clip-rule="evenodd" d="M203 26.112h5.455v5.636h-7.273L187.848 14.84H183V8.5h6.667zm21.345 0h-5.454L205.557 8.5h-6.666v6.34h4.848l13.333 16.908h7.273zm10.436 0h5.455v5.636h-7.273L219.63 14.84h-4.849V8.5h6.667zm21.342 0h-5.455L237.335 8.5h-6.667v6.34h4.848l13.334 16.908h7.273zm10.436 0h5.454v5.636h-7.273L251.407 14.84h-4.848V8.5h6.666zm21.345 0h-5.455L269.116 8.5h-6.667v6.34h4.849l13.333 16.908h7.273zm10.432 0h5.454v5.636h-7.272L283.184 14.84h-4.848V8.5h6.667zm15.891 0h5.454v5.636h-7.273L299.075 14.84h-4.848V8.5h6.666z" fill="#fff" fill-opacity=".9"/><defs><linearGradient id="prefix__a" x1="-32.418" y1="0" x2="412.089" y2="140.372" gradientUnits="userSpaceOnUse"><stop stop-color="#fff"/><stop offset=".536" stop-color="#fff" stop-opacity=".1"/><stop offset="1" stop-color="#fff"/></linearGradient></defs></svg>