<svg xmlns="http://www.w3.org/2000/svg" viewBox="0 0 612.89 348.85"><defs><style>.prefix__cls-1,.prefix__cls-4{fill:none}.prefix__cls-1{stroke:#a7f522;stroke-width:.5px}.prefix__cls-1,.prefix__cls-4{stroke-miterlimit:10}.prefix__cls-3{fill:#fff}.prefix__cls-4{stroke:#fff}</style></defs><g id="prefix__图层_2" data-name="图层 2"><g id="prefix__图层_1-2" data-name="图层 1"><ellipse class="prefix__cls-1" cx="281.01" cy="118.84" rx="230.32" ry="44.05" transform="rotate(-15.31 281.061 118.862)"/><ellipse class="prefix__cls-1" cx="281.01" cy="196.63" rx="230.32" ry="44.05" transform="rotate(-15.31 281.058 196.652)"/><path d="M111.29 286a16.51 16.51 0 0 0-16.46-16.46 16.51 16.51 0 0 0 16.46-16.47 16.52 16.52 0 0 0 16.47 16.47A16.51 16.51 0 0 0 111.29 286M487.21 75.13a23 23 0 0 0-23-22.95 23 23 0 0 0 23-23 23 23 0 0 0 23 23 23 23 0 0 0-23 22.95" fill="#a7f522"/><path class="prefix__cls-3" d="M194 108.7c1.16 1.67 4.19 2.83 6.05 3.74-2.67 8.77-4.89 10.79-10.84 10.79h-6.46c-7.06 0-8.48-2.72-6.76-9.68l2.12-8.08c-4.64 7.87-11.45 14.53-23.36 18.77a18.2 18.2 0 0 0-3.88-6.41c11.3-3.78 17.81-10.19 21.69-17.25l-16.5.41 1.82-7.22 17.91-.4c.86-2.27 1.56-4.64 2.22-7l-15.44.4 1.82-7.16h40.91l-1.82 7.16-18.06.4c-.7 2.32-1.41 4.64-2.22 7l21.24-.4-1.8 7.23h-15.79l-3.28 13.26c-.51 2-.51 1.82 1.41 1.82h4.69c1.82-.01 2.83-1.37 4.33-7.38m61-19.92c-5.85 21.74-8 29.81-10.44 32.79a11.06 11.06 0 0 1-5.2 2.72 23.3 23.3 0 0 1-7.36-.4c0-2 .1-5.1-1.06-7.22a20.4 20.4 0 0 0 5.24.51 3.06 3.06 0 0 0 2.68-1.62c1.51-1.06 3.88-8.07 8.37-24.82l-14.38.76q-1.5 1.965-3 3.78l12.61-.35-4.46 17.76h-9.79l-.8 3.13H221L225.64 98a41.4 41.4 0 0 0-4.19-4.19l2.07-2-3.48.36-1.66 6.55 4.43-1-.3 6.65c-1.86.51-3.68 1-5.5 1.42l-3.07 10.89c-.81 3.28-1.52 5.1-3.33 6.46-2.22.91-4.54.91-7.72.5-.1-1.86 0-4.94-.76-7a12 12 0 0 0 3.28.41 1.91 1.91 0 0 0 1.82-1.26l2.07-8.23-4.3.99-.2-7.11c1.71-.3 3.73-.76 5.9-1.21l2.37-8.12h-4.74L210 85.4h4.74l2.26-8.73h7l-2.3 8.73h4.49l-1.46 5a66.6 66.6 0 0 0 9.49-14.17l6.65 2.42a87 87 0 0 1-3.58 6.25l14-.4h5.09s-1.03 2.91-1.38 4.28m-25.22 17.8H233l1.37-5.54h-3.28Zm52.06 8.13c-2.22 7.11-4.24 8.93-9.84 8.93h-7.36c-6.56 0-8.33-2.28-6.66-9l4.08-16.3-.65.2a21.4 21.4 0 0 0-4-5.6c6.61-3.63 13.77-10.54 18-16.95l6.26 2.93a20.4 20.4 0 0 1-1.77 2.37c2.47 3.53 5.75 8.32 7.11 11.7l2.88-10.69h7l-7.26 29.06h-7l4.64-18.06-4 3.07-.5 1.27c-2.37 8.22-3.64 12-5.1 13.82l-.81.45a18.5 18.5 0 0 0 4.98 2.8m-5.6-2.48c-.81.31-1.56.51-2.27.71a25 25 0 0 1-5.85-.5c0-1.77.1-4.24-.81-5.86a7.5 7.5 0 0 0 3 .46 2.38 2.38 0 0 0 2.17-1.26c.5-.1 1.36-1.72 2.42-5l-6.46.41-3.58 14.27c-.56 2.22-.51 2.07 1.66 2.07h5.75c1.8-.05 2.81-1.26 3.97-5.3m-9.23-17 12.86-.65a70 70 0 0 0-4.24-7.67 66 66 0 0 1-8.63 8.27Zm40.91-17.5-9.74 39c-1 3.94-1.86 5.55-4.23 6.86-2.88.91-6.41.86-11.05.46-.15-2-.36-5.05-1.21-6.91a47 47 0 0 0 6.91.45 2.5 2.5 0 0 0 2.52-1.71l9.53-38.19Zm2.47 33.04 5.6 3.43c-2.47 3.33-5.35 7-8.57 9.44l-5.6-4.14a37.2 37.2 0 0 0 8.57-8.73m.2-18 1.42-5.6 10.19-.4-.15-1.87 4-.35h-10.87l1.37-5.6 15.84-.4a10 10 0 0 0-.1-1.77l7.11-.45a18.5 18.5 0 0 1 .35 3l15.64-.4-1.39 5.61h-10.36l4.38.76-1.61 1.86h9.69l-1.42 5.6Zm23 21.59c1.06 1.42 3.68 2.27 5.39 3-1.81 5.55-3.63 6.61-8.72 6.61h-7.46c-7.11 0-8.62-2.17-7.21-7.67l1.06-4.24h5.55l2.57-2h-12.91l4-15.84h33.24l-4 15.84-14.53.2a21.5 21.5 0 0 1 3.58 2.42l-5 4a22.8 22.8 0 0 0-5.3-3.78l-1.35 4.1c-.35 1.41-.25 1.16 1.92 1.16h5.8c1.71.03 2.62-.88 3.33-3.81Zm5.39-8.72.36-1.42h-19.11l-.35 1.42Zm1.42-5.55.35-1.42h-19.11l-.35 1.42Zm-11.3-12.51 9.68-.81c.56-.86 1.16-1.82 1.57-2.62l-11.56.8a14 14 0 0 1 .27 2.62Zm19.52 32.74-6.66 2a25.2 25.2 0 0 0-3.08-9.33l6-1.92c1.63 2.73 3.35 6.56 3.7 9.24Zm24.93-4.55c-1.31 5.39-6.05 10-13.21 11.9l-1.37-5c3.89-1 6.91-3.13 8.07-5.2-2.72-.1-5-2.32-4.13-5.9a5.92 5.92 0 0 1 5.95-4.19c4.34-.04 5.95 3.29 4.69 8.39"/><path class="prefix__cls-4" d="M183.11 177.06c3.53 0 11.76 0 15.79.2a59 59 0 0 0-4.24 7.52l-12.76-.41c-8.88 0-15.13-1.76-18-8a33.2 33.2 0 0 1-8.37 8.73 29.5 29.5 0 0 0-5.05-5.35c6-3.63 10.4-10.69 13.22-19.12l7.16 1.52a61 61 0 0 1-2.62 6.3 8.83 8.83 0 0 0 3.53 6.36l4.09-15.18h-9.79l1.72-7h27l-1.72 7h-9.58l-1.21 4.79h13.21l-1.71 6.86h-13.19l-1.71 5.65a41 41 0 0 0 4.23.13Zm-24.51-21.14 3.4-13.62 18.56-.4a22.4 22.4 0 0 0-.5-3.73l7.41-1.32a28.2 28.2 0 0 1 1.11 5.86l17.42-.41-3.37 13.62h-7.57l1.66-6.71h-29.25l-1.66 6.71Zm77.94-2.82-1.67 6.61h-10.39l-.66 2.77h9.54l-3.23 12.81c-.66 2.68-1.16 4.29-2.77 5.55a10.84 10.84 0 0 1-6.11 0 48 48 0 0 0-.4-5.95L218.17 185h-7l4-16h-2.78l-3 12.1h-6.51l4.64-18.61h9.28l.66-2.77h-10.99l1.67-6.61 4.33-.2c-1.41-.76-3.38-1.62-4.69-2.43a58 58 0 0 0 7.42-12.91l6.35 2.17c-.65 1.41-1.31 2.82-2.06 4.24l2.06-.41 1.52-6h7l-1.51 6h8.42l-1.66 6.61h-8.43l-.71 2.93Zm-16.6-2.93-4.24.4c-.65 1.06-1.36 2-2 2.88l5.45-.35Zm.35 25.07h2.07a1.54 1.54 0 0 0 1.46-.95l1.32-5.35h-2.93Zm13.52-5.24 7.19-28.91h6.81L240.62 170Zm14.33 7.31c-1 3.68-1.77 5.45-3.84 6.86-2.57.91-5.54.91-9.38.51-.1-2-.2-5.15-1-7.22a27.5 27.5 0 0 0 5.2.46 2.11 2.11 0 0 0 2.17-1.47l9.53-38.18h7Zm59.68-30.37c-1.62 4.34-3.74 9.23-5.2 12.41l-5.9-1.91c.55-1.42 1.26-3.28 2-5.25l-5.3.4-6.25 24.92c-.81 3.33-1.52 5.2-3.64 6.61a17 17 0 0 1-8.22.56c-.15-2.07-.3-5.3-1.21-7.22a22 22 0 0 0 4.14.36 1.86 1.86 0 0 0 1.91-1.21l6-24-4.8.36a71 71 0 0 1-6.1 6.91 35.3 35.3 0 0 0-4.94-5.4L262.52 185h-7l6.25-24.21a22.5 22.5 0 0 1-2.87 2.42 59 59 0 0 0-2.22-8.23c5.14-4 11.2-11.09 15.33-18.06l6.46 3c-2.12 3.33-4.49 6.76-7.11 10.09l-1.11 4.34c4.59-3.83 9.58-10.75 13-17.45l6.81 2.47c-1.26 2.32-2.52 4.64-4 6.86l15.68-.41 1.11-.2Zm-25.28 15.24c-3 6.3-7 12.71-10.34 16.49a34.8 34.8 0 0 0-5.44-4.59c3.17-3.12 6.75-8.83 9.08-14.17Zm16.15-2.12a57.1 57.1 0 0 1 1.11 16.29l-7.37 1.65a53.7 53.7 0 0 0-.45-16.5Zm57.81-11.15c-6.1 22-8.48 30.12-11.15 33.24a11.4 11.4 0 0 1-5.7 2.68 30.4 30.4 0 0 1-8.42-.46c0-1.86 0-4.89-1.16-6.91a31.2 31.2 0 0 0 6.91.61 3.26 3.26 0 0 0 2.92-1.62c1.92-1.16 4.59-8.67 9.18-25.32l-9.63.76a77 77 0 0 1-5.8 7.21 20.2 20.2 0 0 0-3.43-3.43l-6.36 24.26h-13.22l-.85 3.59h-6.61l9.48-38.14 5.8-.4a75 75 0 0 0 3.18-8.23l7.72 1.92c-1.51 2.47-3 5-4.29 7.11l7.42-.4-1.77 6.36a73.6 73.6 0 0 0 9.79-14.83l6.66 2.47c-1.06 2-2.17 3.93-3.38 5.9l14.07-.41s-1.01 2.73-1.36 4.04ZM321 164.85h-6.61l-2.17 8.68h6.61Zm-3.33-13.11-1.67 6.81h6.61l1.72-6.81Zm14.73 8.17 6.05-2.52c1.41 3.43 3.53 8.22 4.39 11.19l-6.76 3a81 81 0 0 0-3.64-11.67Zm44.13 2.09h18.61l1.21-.36 5.1 3.53c-4.24 3.59-9.23 7.67-14.53 11.76a33 33 0 0 1 5.65 2.37l-5.25 6.05c-4.69-3-15.08-7-23-9L369 171c3.13.7 6.91 1.71 10.44 2.62 2.53-1.77 4.75-3.48 6.76-5.15l-21.64-.1c1.77-3 3.79-6.45 5.75-10.24l-11.5.41 1.77-7 13.42-.4 1.66-3.33-10 .4 1.77-7 11.55-.4c.66-1.41 1.31-2.77 1.87-4.09l7.82.81c-.61 1.31-1.27 2.72-1.92 4.09l18.41-.41-1.76 7h-19.91l-1.67 3.33h24.42l-1.77 7h-26.18Zm69.11 22.68a14.15 14.15 0 0 1-6.3-.1 13.2 13.2 0 0 1-.51-2.93l-2.52.61c.1-.46-.05-1 .4-1.47-5 .71-10.09 1-14.07 1.16l.05-4.94 5.7-.15.91-2.32h-6.21l-2.62 10.54h-6.61l3.78-15.18h12.82l.3-1.32h-10.85l2.37-9.48h10.8l.71-1.21a60 60 0 0 1-10-.2c-.2-1.16-.15-3.08-.76-4.24a129 129 0 0 0 24.57-1.61l-25.63.1-.65 2.57c-2.22 8.93-6.21 22.4-13.07 30.47a22.6 22.6 0 0 0-5.7-4.29c6.36-7.46 9.74-19 11.75-27l3.64-14.58h39.85l-3.18 12.82h-5.4l3.23 3.83a92 92 0 0 1-11.9 1.72l-.76 1.61h11.35l-2.37 9.48h-11.39l-.3 1.32h13.72l-2.58 10.24c-.6 2.58-1.01 3.64-2.57 4.55Zm-21.89-40.06-.46 1.82h25.28l.45-1.82Zm8.42 18.38h-4.39l-.4 1.71h4.39Zm8.38 17.7a3.5 3.5 0 0 0 1.16-1.36l1.21-4.79h-7l-.55 2.07 1.51-.46c0-.35-.05-.7-.05-1.06l3.94-.1a13.7 13.7 0 0 1-.22 5.69Zm-2.17-16h4.49l.4-1.71h-4.49Zm58.77 1.92c1.41 1.81 4.29 3.28 6.2 4.18-2.92 9.89-5.34 13.42-11.85 13.42h-6.56c-6.86 0-8.37-3-6.36-11.3l1-2.57a26 26 0 0 1-5.4 2.17c-.75-1.21-1.81-2.72-2.87-4.09L466.93 185h-7.77l6.46-24.87a19 19 0 0 1-3.08 2.37 54 54 0 0 0-3.13-8c5.7-3.94 12.41-11 16.85-18.06l7 3.23a118 118 0 0 1-7.16 9.58l-4.74 16.85a78.5 78.5 0 0 0 10-5.29l6.05-23h8l-4.41 16.3a87 87 0 0 0 12-11.2l6.1 5.6A119 119 0 0 1 488.87 165l-2.52 8.83c-.75 3.08-.91 3.08.91 3.08h4.54c1.97 0 3.28-2.37 5.35-10.29ZM189.87 237a42.3 42.3 0 0 0 9 2.78 30.6 30.6 0 0 0-5 5.85c-7.11-1.87-11.65-4.9-14.28-8.93a15.4 15.4 0 0 0-2 5.7c-14.68 2.42-17.1 3-18.51 3.33-.15-1.67-.35-4.29-1.11-5.6a6.54 6.54 0 0 0 4.24-3 18 18 0 0 1-7.11 1.77 24 24 0 0 0-3.18-5.15 52.6 52.6 0 0 0 15.38-4.23l-13.26.2 1.46-5.7 19.27-.41a16 16 0 0 0-.25-1.61l7.21-1.26a22 22 0 0 1 .81 3.68l19.32-.4-1.46 5.7h-5.35l3.28 3a78 78 0 0 1-8.46 4.28Zm-21.59-26.43 1.77-5.15-4.54 3.58a24.2 24.2 0 0 0-4.95-5.44l4.59-3.69a37 37 0 0 1 4.8 4.49l1.91-6.71h6.76l-6.2 24.77h-6.76l1.61-5.14c-3.13 1.21-6.35 2.42-9 3.43l-1.51-6.16c3-.92 7.24-2.38 11.52-3.94Zm9.08 19.22a34 34 0 0 1-7.21 4.64l-1.21 3.57 10.39-2.17a17.8 17.8 0 0 1-1.97-6Zm-.05-20.63 1.57-6.26H189l1.32-5.25h7.36l-1.31 5.25h10.44l-1.56 6.26h-10.43l-1.21 4.84H203l-1.57 6.25h-25.68l1.56-6.25h8.93l1.21-4.79Zm8 24.21c2.47-1.36 4.84-2.72 6.81-3.94l-8.52.61a15.8 15.8 0 0 0 1.68 3.37Zm65.69.04a39 39 0 0 1-2.22 7.92 15.2 15.2 0 0 1-2.16 3.13 10.9 10.9 0 0 1-3.59.4h-2.92a3.54 3.54 0 0 1-3.33-2.27c-1-.76-1.26-2.22-.15-6.61l7.06-28.45h-4.94l-2.48 9.94c-2.17 8.68-6.3 21.34-15.28 28.2a19.8 19.8 0 0 0-4.64-4.95l-1.52 4.95h-7.31l4.14-16.14a44.5 44.5 0 0 1-6.11 7.61 34.6 34.6 0 0 0-2.07-7.41 74 74 0 0 0 11.35-16.2l-6.3.41 1.71-7h6.91l2.33-9.24h7.31l-2.31 9.3h5.09l-1.71 7h-5.05l-.65 1.26c1.26 1.71 4.14 6.2 5 7.11a30.5 30.5 0 0 0 1.87-5.7l4-16h19.73l-8.88 35.72c-.2.85-.3 1.36-.45 1.81h.45a1.51 1.51 0 0 0 .91-1c.05.15.35-.35.76-1.86a33.4 33.4 0 0 0 1.31-5.5c.88 1.45 2.64 2.56 4.14 3.57Zm-23.45-11-5.3 7c-.4-1.61-1.06-3.63-1.77-5.6l-4.59 16.55c6.11-4.93 9.5-11.74 11.67-17.95Zm74.82 10.85a32.5 32.5 0 0 0-6.36 5.19 34 34 0 0 1-2.37-5.39l-1.31 4.54h-6l-1.92 7.61h-7.16l1.91-7.61h-5.75l1.27-4.24a41.4 41.4 0 0 1-5.15 5.14 22.3 22.3 0 0 0-3.68-5.39l-3.38 12.46h-7l6.25-24.27a18.6 18.6 0 0 1-2.82 2.47 55 55 0 0 0-2.27-8.22 70.2 70.2 0 0 0 14.52-18.06l6.46 2.93c-1.81 3-3.83 6.05-6 9.13l-6.06 22.75c5.91-4.64 12.11-12.21 16.6-19.73l-8.88.41 1.77-7h12l2-8h7.16l-2 8h13.32l-1.77 7-10.19.4c.81 7.42 3.13 14.93 6.81 19.88Zm-19.12-11.71a97 97 0 0 1-7 9.89l4.49-.35Zm7.57-1.51-2.88 11.05 4.95-.35a60.6 60.6 0 0 1-2.07-10.74Zm12.91 17.46-.5-5.76c3.48-.5 8.47-1.46 13.42-2.37l-.1 5.5c-4.44.91-9.03 1.87-12.82 2.63Zm25-19.58a24.7 24.7 0 0 0-2.42-4.79c-1.26 3.18-2.12 6-2.92 8.27l4.23-.4a32 32 0 0 0-1.21 3.33c-3.53 12.06-5.19 17-7.06 19.17a10.16 10.16 0 0 1-4.24 1.66 26.8 26.8 0 0 1-6.4-.5c-.05-1.67.05-4-.91-5.55a16.8 16.8 0 0 0 4.34.5 2.68 2.68 0 0 0 2.47-1.36c1-.5 2.62-4 4.94-12h-12.84c1.77-4.7 4.14-12.26 5.75-18.11l6 1.11c-1.16 3.83-2.57 8.32-3.83 12.2l2.87-.8c1.57-4.34 3.44-10.14 5.05-15.64l-11.25.4 1.51-6.1 17.36.4c-1.11 3.89-2.42 8.22-3.94 12.16 6.46-3.84 13.32-9.38 17.76-15.24l6 2.93a26 26 0 0 1-2.27 2.67 41.9 41.9 0 0 0 10.14 8.93 48 48 0 0 0-4.44 7.07c-1.11-1.27-2.32-2.32-3.43-3.44l-1.36 4.34h-15.99l1.36-4.39a29 29 0 0 1-5.3 3.18ZM345 237.8l5.09-.41-1.56 6.16h-26.59l1.57-6.16 15.43-.4c.86-1.26 1.82-2.72 2.68-4.24l-5.6.86a96 96 0 0 0 1.16-11.9h5.4a86 86 0 0 1-.66 10.74c2.32-4.08 4.49-8.17 6-11.55l6.21 2.17c-2.88 5.04-6.26 10.54-9.13 14.73Zm-16.85-14.63 5.55-.66a101 101 0 0 1-.1 11.71l-6.06.85a81 81 0 0 0 .61-11.9Zm15.08-16.09c-2.57 2.37-4.89 4.44-7.26 6.25l12-.55a71 71 0 0 1-4.74-5.7Z"/><path class="prefix__cls-3" d="M0 14.09h14.09v14.09H0zM14.09 0h14.09v14.09H14.09zM0 42.26h14.09v14.09H0zm14.09-14.09h14.09v14.09H14.09zM0 70.43h14.09v14.09H0zm14.09-14.08h14.09v14.09H14.09zM0 98.61h14.09v14.09H0zm14.09-14.09h14.09v14.09H14.09zm555.85 165.72h14.09v14.09h-14.09zm14.09-14.09h14.09v14.09h-14.09zm-14.09 42.26h14.09v14.09h-14.09z"/><path class="prefix__cls-3" d="M584.03 264.33h14.09v14.09h-14.09zm-14.09 42.26h14.09v14.09h-14.09zm14.09-14.09h14.09v14.09h-14.09zm-14.09 42.26h14.09v14.09h-14.09zM584.03 320.67h14.09v14.09h-14.09zm-254.69-44.53v-4.08h10.37l6.69 6.69v4.44l3.83 3.82v4.95h2.82v12.37h-9.8v-13.65zm23.59 7.21 3.28 3.58h6.1v-6.7l4.26-4.26v-3.99h-9.74v1.61l-3.9 3.76zm18.83-11.2h25.16l5.5 5.5v26.23h-26.78l-4.06-4.05v-11.09h5.32l3.2 3.2v5.72h14.31v-15.41l-3.97-3.97h-12.89zm76.8 0h25.16l5.5 5.5v26.23h-26.78l-4.06-4.05v-11.09h5.32l3.2 3.2v5.72h14.31v-15.41l-3.97-3.97h-12.89zm-40.9-.14h34.21v5.41l-20.89 20.9h17.07l3.69 2.94v2.67h-33.95v-8.12l5.41-5.41h5.68l12.32-11.63h-19.08l-4.47-4.47z"/><path class="prefix__cls-4" d="m73.3 327.72-21.26-21.26 6.13-6.13 20.35 20.34v-22.69h9.78v39.52H50.09v-9.78zm45.53 0-21.27-21.26 6.14-6.13 20.34 20.34v-22.69h9.79v39.52H95.61v-9.78z"/><path d="M26.87 327.72 5.61 306.46l6.13-6.13 20.35 20.34v-22.69h9.78v39.52H3.65v-9.78z" stroke-miterlimit="10" fill="#fff" stroke="#fff"/><path class="prefix__cls-4" d="M427.88 14.39V9.35h12.77l8.24 8.24v5.47l4.7 4.71v6.09h3.48v15.23H445V32.27zm29.04 8.87 4.04 4.41h7.5v-8.26l5.25-5.24V9.26h-11.99v1.98l-4.8 4.64zm23.18-13.8h30.97l6.77 6.78v32.29h-32.96l-5-4.99V29.89h6.55l3.94 3.94v7.05h17.61V21.9l-4.88-4.89h-15.87zm94.55 0h30.97l6.77 6.78v32.29h-32.96l-5-4.99V29.89h6.55l3.94 3.94v7.05h17.61V21.9l-4.88-4.89h-15.88zm-50.36-.16h42.13v6.66l-25.73 25.72h21.01l4.55 3.62v3.29h-41.79V38.6l6.66-6.66h6.99l15.17-14.32h-23.49l-5.51-5.5z"/></g></g></svg>