<svg width="86" height="34" fill="none" xmlns="http://www.w3.org/2000/svg"><g clip-path="url(#prefix__a)" fill="#000"><path d="M22.46 26.106V8.35c1.174 0 2.294-.047 3.373 0 .382.094.72.315.958.627a484 484 0 0 1 5.128 5.93 60 60 0 0 0 1.788-2.023 91 91 0 0 0 3.285-3.792 1.83 1.83 0 0 1 1.7-.79c.925.055 1.85 0 2.834 0v17.805h-4.365V15.372l-.23-.114c-1.14 1.349-2.286 2.644-3.413 3.973-1.424 1.674-1.458 2.024-3.07 0-1.08-1.349-2.253-2.63-3.61-4.196v11.071zM55.62 8.646c-3.293-.506-6.747-.25-10.08-.324q-.375.018-.742.102V26.1c3.252 0 6.396.135 9.526-.04a8.97 8.97 0 0 0 6.558-2.996c4.405-5.141 1.505-13.365-5.262-14.418m2.577 8.9c-.162 2.88-1.761 4.877-4.392 5.208a36 36 0 0 1-4.453 0V11.465c1.688.028 3.372.172 5.04.432 2.563.56 3.96 2.807 3.805 5.647M65.72 19.252l5.74-5.741v7.954h7.948l-5.72 5.728h-7.969zM65.848 7l5.498 5.499h9.122v9.229L86 27.267V7zM15.632 26.256h4.608L12.468 8.215H7.273L0 26.255h4.723l1.349-3.575h8.096zm-8.36-6.875 2.551-6.902 2.915 6.902z"/></g><defs><clipPath id="prefix__a"><path fill="#fff" d="M0 0h86v34H0z"/></clipPath></defs></svg>