<svg width="88" height="88" fill="none" xmlns="http://www.w3.org/2000/svg"><g clip-path="url(#prefix__a)"><circle cx="44" cy="44" r="43" fill="#4F4F4F" stroke="url(#prefix__b)" stroke-width="2"/><path d="M44 44q-4.263 0-7.298-3.036t-3.035-7.298 3.035-7.298T44 23.333t7.298 3.035 3.035 7.298-3.035 7.298T44 44M23.334 64.666v-7.233q0-2.196 1.13-4.036a7.53 7.53 0 0 1 3.003-2.81q4.005-2.003 8.137-3.003A35.6 35.6 0 0 1 44 46.583q4.263 0 8.396 1.001t8.137 3.003a7.53 7.53 0 0 1 3.004 2.81 7.57 7.57 0 0 1 1.13 4.036v7.233zm5.166-2.665h31v-4.568q0-.71-.355-1.292a2.5 2.5 0 0 0-.937-.904q-3.487-1.743-7.04-2.616A30 30 0 0 0 44 51.75q-3.615 0-7.169.871-3.552.873-7.04 2.616-.58.323-.936.904a2.43 2.43 0 0 0-.355 1.292zM44 38.833q2.131 0 3.65-1.518 1.516-1.517 1.517-3.649 0-2.13-1.518-3.649Q46.131 28.5 44 28.5q-2.13 0-3.649 1.517-1.518 1.518-1.517 3.65 0 2.13 1.517 3.648t3.65 1.518" fill="#fff" fill-opacity=".9"/></g><defs><linearGradient id="prefix__b" x1="0" y1="4.807" x2="90.752" y2="20.876" gradientUnits="userSpaceOnUse"><stop stop-color="#fff"/><stop offset=".536" stop-color="#fff" stop-opacity=".1"/><stop offset="1" stop-color="#fff"/></linearGradient><clipPath id="prefix__a"><path fill="#fff" d="M0 0h88v88H0z"/></clipPath></defs></svg>