<svg width="16" height="16" fill="none" xmlns="http://www.w3.org/2000/svg"><path fill-rule="evenodd" clip-rule="evenodd" d="M7.53 4.775a2.657 2.657 0 0 0-3.753 0 2.643 2.643 0 0 0-.05 3.691l.053.055 4.104 4.097a.164.164 0 0 0 .232 0l4.105-4.097.053-.055a2.643 2.643 0 0 0-.05-3.69 2.657 2.657 0 0 0-3.753 0l-.47.47zM8 3.43a3.99 3.99 0 0 0-5.165.402 3.976 3.976 0 0 0-.07 5.558l.002.003.065.066 4.11 4.104a1.5 1.5 0 0 0 2.116 0l4.11-4.104.065-.066.003-.003a3.976 3.976 0 0 0-.07-5.558A3.99 3.99 0 0 0 8 3.43" fill="url(#prefix__a)"/><defs><linearGradient id="prefix__a" x1="8" y1="2.666" x2="8" y2="13.999" gradientUnits="userSpaceOnUse"><stop stop-color="#FA43DE"/><stop offset="1" stop-color="#F8504A"/></linearGradient></defs></svg>