<svg xmlns="http://www.w3.org/2000/svg" width="784" height="175" shape-rendering="geometricPrecision" text-rendering="geometricPrecision" image-rendering="optimizeQuality" fill-rule="evenodd" clip-rule="evenodd"><path fill="#616161" d="M-.5-.5h625q-.5 1.5-2 2H.5v173h-1z" opacity="1"/><path fill="#a7f523" d="M624.5-.5h84l-1 2-65 64q-42.757.497-85-1a2890 2890 0 0 0 65-63q1.5-.5 2-2M725.5-.5h58v24l-98 97q-42.757.497-85-1l123-118q1.5-.5 2-2" opacity="1"/><path fill="#7a7b78" d="M708.5-.5h17q-.5 1.5-2 2h-16z" opacity="1"/><path fill="#fefefe" d="M622.5 1.5a2890 2890 0 0 1-65 63q-1.184.424-2 1.5 43.755 1.246 87-.5l65-64h16l-123 118q-.814.09-1 1a927 927 0 0 0 86 0l98-97v151h-192a1206 1206 0 0 1 29-29.5 1560 1560 0 0 0-79 0 418 418 0 0 0-30 29.5h-18a9791 9791 0 0 1 83-83.5 1560 1560 0 0 0-79 0 10368 10368 0 0 0-87 83.5H.5V1.5z" opacity="1"/><path fill="#bdf759" d="M557.5 64.5q42.243 1.497 85 1-43.245 1.746-87 .5.816-1.076 2-1.5" opacity="1"/><path fill="#a7f523" d="M493.5 174.5h-83q43.202-41.95 87-83.5 39.5-1 79 0a9791 9791 0 0 0-83 83.5" opacity="1"/><path fill="#d2f98f" d="M600.5 119.5q42.243 1.497 85 1a927 927 0 0 1-86 0q.186-.91 1-1" opacity="1"/><path fill="#a9f529" d="M591.5 174.5h-80a418 418 0 0 1 30-29.5 1560 1560 0 0 1 79 0 1206 1206 0 0 0-29 29.5" opacity="1"/></svg>