<svg width="16" height="16" fill="none" xmlns="http://www.w3.org/2000/svg"><path fill-rule="evenodd" clip-rule="evenodd" d="M5.5 2.463a.5.5 0 0 0 0 1h5.546a.5.5 0 1 0 0-1zM3.2 4.6a.5.5 0 0 1 .5-.5h8.818a.5.5 0 0 1 0 1H3.7a.5.5 0 0 1-.5-.5M4 6.735h8a1 1 0 0 1 1 1v3.8a1 1 0 0 1-1 1H4a1 1 0 0 1-1-1v-3.8a1 1 0 0 1 1-1m-2 1a2 2 0 0 1 2-2h8a2 2 0 0 1 2 2v3.8a2 2 0 0 1-2 2H4a2 2 0 0 1-2-2zm5.073-.173H6.2L7.38 9.61H6.6v.389h1.007l.006.006v.488H6.6v.388h1.013v.882h.774v-.882h1.02v-.388h-1.02v-.489l.006-.005h1.014v-.389h-.786L9.8 7.562h-.873L8 9.332z" fill="url(#prefix__a)"/><defs><linearGradient id="prefix__a" x1="8.857" y1="7.999" x2="7.143" y2="2.428" gradientUnits="userSpaceOnUse"><stop stop-color="#E7DA69"/><stop offset="1" stop-color="#F90"/></linearGradient></defs></svg>