<svg width="117" height="32" fill="none" xmlns="http://www.w3.org/2000/svg"><g filter="url(#prefix__a)"><path d="m41.48 10.976-1.633 11.976q0 .696-.576 1.152a1.9 1.9 0 0 1-1.248.456H25.111l1.608-12.672-.696-.912zM31.326 13.28l-1.368 8.976h5.52l1.392-8.976zm18.9-2.304L48.137 24.56H43.77l1.608-12.672-.696-.912zm12.747.456-.456-.456h5.52l-6.672 8.064-.696 5.52h-4.608l.696-5.52-3.912-7.392-.696-.672h4.848l2.52 5.064zm15.832-1.128.072-.504-.792-.864h5.472l-.192 1.368h6.84l-.336 2.52h-6.864l-.552 3.864h6.408l-.36 2.52h-6.384l-.576 4.08h7.296l-.336 2.52H69.35l.336-2.52h7.296l.576-4.08h-6.384l.36-2.52h6.36l.552-3.864H71.63l.336-2.52zM111.3 26.168h-5.064l.216-1.584 1.776-12.6h-2.016l-2.64 14.184h-3.816l2.976-16.488h9.48l-1.92 13.776h.696l.816-.912zm-15.624-12h-2.64l.312-2.28h2.64l.336-2.256-.6-.696h4.392l-.432 2.952h2.208l-.312 2.28h-2.208l-1.704 12.048h-3.696zM91.5 25.376l2.04-10.512h1.704l-2.04 10.512zm6.792-1.44 1.2-9.12h1.704l-1.2 9.12z" fill="#fff"/></g><path fill-rule="evenodd" clip-rule="evenodd" d="M32 16c0 8.837-7.163 16-16 16S0 24.837 0 16 7.163 0 16 0s16 16 16 16" fill="url(#prefix__b)"/><defs><linearGradient id="prefix__b" x1="-17.079" y1="28.54" x2="8" y2="44.539" gradientUnits="userSpaceOnUse"><stop stop-color="#A7F522"/><stop offset="1" stop-color="#DCF8A6" stop-opacity=".01"/></linearGradient><filter id="prefix__a" x="25.111" y="8.936" width="91.101" height="21.28" filterUnits="userSpaceOnUse" color-interpolation-filters="sRGB"><feFlood flood-opacity="0" result="BackgroundImageFix"/><feColorMatrix in="SourceAlpha" values="0 0 0 0 0 0 0 0 0 0 0 0 0 0 0 0 0 0 127 0" result="hardAlpha"/><feOffset dx="4" dy="4"/><feColorMatrix values="0 0 0 0 0.654902 0 0 0 0 0.960784 0 0 0 0 0.133333 0 0 0 0.2 0"/><feBlend in2="BackgroundImageFix" result="effect1_dropShadow_4449_1221"/><feBlend in="SourceGraphic" in2="effect1_dropShadow_4449_1221" result="shape"/></filter></defs></svg>