<svg width="14" height="13" fill="none" xmlns="http://www.w3.org/2000/svg"><path fill-rule="evenodd" clip-rule="evenodd" d="M7 .313c.364 0 .659.294.659.658v7.93a.659.659 0 01-1.317 0V.97c0-.364.294-.658.658-.658z" fill="#A7F522"/><path fill-rule="evenodd" clip-rule="evenodd" d="M9.385 6.505a.659.659 0 01.002.932l-1.92 1.928a.659.659 0 01-.933 0l-1.92-1.928a.659.659 0 11.932-.93L7 7.967l1.454-1.46a.659.659 0 01.931-.002z" fill="#A7F522"/><path fill-rule="evenodd" clip-rule="evenodd" d="M12.433 6.515c0-.977-.791-1.768-1.768-1.768h-.614a.659.659 0 010-1.317h.614a3.084 3.084 0 013.085 3.085V9.73c0 1.7-1.378 3.079-3.079 3.079H3.335A3.085 3.085 0 01.25 9.725V6.508c0-1.7 1.379-3.078 3.079-3.078h.62a.659.659 0 110 1.317h-.62c-.973 0-1.762.788-1.762 1.76v3.218c0 .976.792 1.768 1.768 1.768h7.336c.974 0 1.762-.789 1.762-1.762V6.515z" fill="#A7F522"/></svg>
