<svg xmlns="http://www.w3.org/2000/svg" width="71" height="18" fill="none"><g filter="url(#a)"><path fill="#fff" d="m13.23 6.718-1.62-1.26-2.25 1.26H7.272l.198-1.44h.918l1.8-.936-.468-.378H7.542L9.09.67 8.532.22h3.636l-.378.774h4.14l-.306 2.214-2.106 1.188 1.26.882h1.188l-.198 1.44H13.23ZM4.698 2.29 3.186 13.108H.594L1.998 2.974l-.684.18.306-2.07L4.986.22l-.288 2.07Zm2.7-.144-1.296 9.288H3.906l1.296-9.288h2.196Zm7.758 6.372-7.884.63.198-1.494 7.884-.63-.198 1.494Zm-.288 1.944-7.884.63.216-1.494 7.884-.63-.216 1.494Zm-.27 1.926L6.732 13l.198-1.476 7.884-.63-.216 1.494Zm-3.546-9.864-.036.108 1.044.738 1.584-.846h-2.592ZM29.195.202 28.6 1.57h4.32l-.234 1.71h-.504l-.486 3.42-2.214 2.52 2.322 3.942h-3.24l-1.008-1.764-1.566 1.764h-3.42l3.636-4.14-1.89-3.348h3.078l.702 1.206.99-1.116.36-2.484h-1.584l-.72 1.71h-2.736l1.89-4.392-.342-.396h3.24ZM21.31 5.17l.414-2.916h-3.762l.234-1.71h6.498l-.882 6.318h-3.42l-.576 4.05 3.87-.792-.234 1.71-6.696 1.332L17.89 5.17h3.42Zm22.408-.162-.612.162-.792 5.634h5.634l.684-.684-.378 2.736h-8.91l.99-7.02-.756.18.234-1.71.756-.18.288-2.034-.378-.522h3.132l-.27 1.872.612-.144.342-2.412-.504-.684h3.114l-.342 2.448 3.006-.738-.828 5.958a1.6 1.6 0 0 1-.45.882c-.24.228-.51.342-.81.342h-1.728l.558-.792.576-4.068-.558.144-.756 5.4h-2.52l.666-4.77Zm-5.256 6.822-5.256 1.026.27-1.998 1.314-.252.63-4.518h-1.278l.252-1.782h1.278l.432-3.078-.522-.684h3.33l-.54 3.762h1.134l-.252 1.782h-1.134l-.558 3.978 1.17-.234-.27 1.998Zm26.405 1.026h-9.63l.234-1.71h.774l1.134-8.1h2.844l-1.134 8.1h.72L61.25.868 60.8.202h3.672l-.576 4.104h2.16l-.234 1.71h-2.16l-.72 5.13h2.16l-.234 1.71Zm-9.792-1.026-5.238 1.026.27-1.998 1.314-.252.63-4.518h-1.278l.252-1.782h1.278l.432-3.078-.522-.684h3.33l-.54 3.762h1.134l-.252 1.782h-1.134l-.558 3.978 1.152-.234-.27 1.998Z"/></g><defs><filter id="a" width="69.461" height="16.96" x=".594" y=".202" color-interpolation-filters="sRGB" filterUnits="userSpaceOnUse"><feFlood flood-opacity="0" result="BackgroundImageFix"/><feColorMatrix in="SourceAlpha" result="hardAlpha" values="0 0 0 0 0 0 0 0 0 0 0 0 0 0 0 0 0 0 127 0"/><feOffset dx="4" dy="4"/><feColorMatrix values="0 0 0 0 0.654902 0 0 0 0 0.960784 0 0 0 0 0.133333 0 0 0 0.2 0"/><feBlend in2="BackgroundImageFix" result="effect1_dropShadow_5795_80319"/><feBlend in="SourceGraphic" in2="effect1_dropShadow_5795_80319" result="shape"/></filter></defs></svg>