<svg width="12" height="13" viewBox="0 0 12 13" fill="none" xmlns="http://www.w3.org/2000/svg">
<path fill-rule="evenodd" clip-rule="evenodd" d="M6.44841 11.5648C6.44841 11.2335 6.71704 10.9648 7.04841 10.9648H11.4C11.7314 10.9648 12 11.2335 12 11.5648C12 11.8962 11.7314 12.1649 11.4 12.1649H7.04841C6.71704 12.1649 6.44841 11.8962 6.44841 11.5648Z" fill="#A7F522"/>
<path fill-rule="evenodd" clip-rule="evenodd" d="M6.9318 1.95756L1.28389 9.02174C1.20969 9.11431 1.18347 9.23261 1.21002 9.34574C1.21 9.34566 1.21004 9.34582 1.21002 9.34574L1.59138 10.9599L3.29415 10.9385L3.29516 10.9385C3.42502 10.9371 3.54269 10.8784 3.6187 10.7838C3.61862 10.7839 3.61879 10.7837 3.6187 10.7838L4.50969 9.66918C5.04457 9.00001 5.75794 8.10746 6.47195 7.2139C7.18597 6.32031 7.90057 5.42578 8.43792 4.75263C8.70661 4.41602 8.93088 4.13491 9.08857 3.93698C9.16745 3.83797 9.22947 3.76003 9.272 3.70644L9.31521 3.65187C9.5013 3.33143 9.40051 2.9182 9.06726 2.71675C9.04728 2.70466 9.02802 2.69143 9.00958 2.6771L8.50132 2.28222C8.24715 2.08473 7.98418 1.88036 7.96635 1.86631L7.962 1.86288C7.64896 1.6115 7.18711 1.65725 6.9318 1.95756ZM9.7206 1.7099C10.6015 2.26615 10.8777 3.42422 10.3172 4.3135C10.3113 4.32272 10.3029 4.33516 10.2998 4.33964L10.2926 4.34962L10.2858 4.3587L10.2782 4.3685L10.2627 4.38832L10.212 4.45243C10.1687 4.50692 10.1061 4.58557 10.0271 4.68472C9.86907 4.88312 9.64451 5.1646 9.37576 5.50127C8.83822 6.17466 8.12348 7.06938 7.40943 7.96299C6.69537 8.85663 5.98195 9.74923 5.44705 10.4184L4.55602 11.5331C4.55597 11.5331 4.55576 11.5334 4.08711 11.1588L4.55602 11.5331L4.55527 11.534C4.25207 11.9123 3.79435 12.1329 3.30921 12.1384C3.30917 12.1384 3.30924 12.1384 3.30921 12.1384C3.3089 12.1384 3.3085 12.1384 3.30819 12.1384L1.12556 12.1658C0.844542 12.1694 0.598727 11.9774 0.534105 11.7038L0.0421031 9.62141C-0.0690619 9.14912 0.0423577 8.65215 0.347305 8.27152C0.347214 8.27163 0.347396 8.27141 0.347305 8.27152L5.99933 1.20219L6.00779 1.19184C6.68321 0.384621 7.88947 0.268225 8.71037 0.924779C8.71092 0.925209 8.71166 0.925786 8.71261 0.926533L9.7206 1.7099ZM9.33084 3.63199C9.3377 3.62279 9.3397 3.6206 9.33084 3.63199V3.63199Z" fill="#A7F522"/>
<path fill-rule="evenodd" clip-rule="evenodd" d="M4.93657 2.53537C5.13841 2.27255 5.51508 2.22311 5.77789 2.42495L9.04927 4.93724C9.31208 5.13907 9.36152 5.51575 9.15969 5.77856C8.95785 6.04138 8.58118 6.09081 8.31837 5.88898L5.04699 3.37669C4.78418 3.17485 4.73474 2.79818 4.93657 2.53537Z" fill="#A7F522"/>
</svg>
