<svg width="12" height="13" fill="none" xmlns="http://www.w3.org/2000/svg"><path fill-rule="evenodd" clip-rule="evenodd" d="M6.448 11.565a.6.6 0 0 1 .6-.6H11.4a.6.6 0 0 1 0 1.2H7.048a.6.6 0 0 1-.6-.6m.484-9.607L1.284 9.022a.38.38 0 0 0-.074.324l.381 1.614 1.703-.022h.001a.42.42 0 0 0 .324-.154l.89-1.115 4.763-5.963.043-.054a.686.686 0 0 0-.248-.935l-.057-.04-.51-.395-.535-.416-.004-.003a.747.747 0 0 0-1.03.095M9.72 1.71a1.885 1.885 0 0 1 .579 2.63l-.007.01-.007.009-.008.01-.015.02-.051.063-.836 1.05-3.929 4.916-.891 1.115-.469-.374.469.374v.001a1.62 1.62 0 0 1-1.247.604l-2.183.028a.6.6 0 0 1-.592-.462L.042 9.62a1.58 1.58 0 0 1 .305-1.35L6 1.203l.009-.01A1.947 1.947 0 0 1 8.71.925l.003.002zm-.39 1.922q.012-.016 0 0" fill="#A7F522"/><path fill-rule="evenodd" clip-rule="evenodd" d="M4.937 2.535a.6.6 0 0 1 .84-.11L9.05 4.937a.6.6 0 0 1-.73.952L5.046 3.377a.6.6 0 0 1-.11-.842" fill="#A7F522"/></svg>