<svg width="120" height="101" fill="none" xmlns="http://www.w3.org/2000/svg"><path fill-rule="evenodd" clip-rule="evenodd" d="M97.557 3.582a3.638 3.638 0 0 1 7.274.111l-.114 7.483a3.638 3.638 0 0 1-7.275-.111zm3.65-.82a.876.876 0 0 0-.889.862l-.114 7.483a.875.875 0 1 0 1.752.027l.114-7.483a.877.877 0 0 0-.863-.89m4.036 15.934a3.637 3.637 0 0 1 3.692-3.582l7.483.115a3.638 3.638 0 0 1-.111 7.275l-7.483-.115a3.637 3.637 0 0 1-3.581-3.693m3.65-.82a.875.875 0 1 0-.027 1.752l7.483.114a.875.875 0 1 0 .027-1.752zm-87.911 6.65a9.665 9.665 0 0 1 9.362-7.264h62.2a9.665 9.665 0 0 1 9.361 7.265l6.71 26.168a9.7 9.7 0 0 1 .191 3.87l-3.898 25.337a9.666 9.666 0 0 1-9.553 8.195H37.227c-2.886 7.047-9.811 12.01-17.897 12.01C8.655 100.107 0 91.453 0 80.777c0-9.237 6.479-16.96 15.14-18.875l-1.077-7.378a9.7 9.7 0 0 1 .201-3.797zM17.872 61.5q.722-.055 1.458-.055c10.676 0 19.33 8.655 19.33 19.33 0 1.571-.186 3.098-.54 4.56h57.235a6.9 6.9 0 0 0 6.823-5.854l3.898-25.337.008-.053.005-.032h-20.59l-5.836 8.17a9.66 9.66 0 0 1-7.865 4.048H51.96a9.66 9.66 0 0 1-7.865-4.047l-5.837-8.171H16.786l.01.065zm81.359-36.288 6.688 26.085H96.86V32.893a6.904 6.904 0 0 0-6.904-6.904H32.93a6.904 6.904 0 0 0-6.904 6.904v18.405h-9.057l6.689-26.085a6.904 6.904 0 0 1 6.687-5.19h62.2a6.904 6.904 0 0 1 6.687 5.19M94.1 36.097a6.87 6.87 0 0 0-4.143-1.38H32.93a6.87 6.87 0 0 0-4.142 1.38v-3.204a4.14 4.14 0 0 1 4.142-4.143h57.027a4.14 4.14 0 0 1 4.143 4.143zM28.787 51.298H38.97c.446 0 .864.216 1.124.578l6.249 8.75a6.9 6.9 0 0 0 5.618 2.89h19.837a6.9 6.9 0 0 0 5.618-2.89l6.249-8.75a1.38 1.38 0 0 1 1.124-.578h9.31v-.74l-.278-1.454a7 7 0 0 0-.127-.544 4.14 4.14 0 0 0-3.738-2.355H32.93a4.144 4.144 0 0 0-3.994 3.04 7 7 0 0 0-.057.413l-.091.843zM2.76 80.777c0-9.151 7.419-16.57 16.57-16.57s16.568 7.419 16.568 16.57-7.418 16.569-16.569 16.569S2.76 89.928 2.76 80.776m13.118-8.975a3.452 3.452 0 1 1 6.903 0v8.284a3.452 3.452 0 1 1-6.903 0zm3.451-.69a.69.69 0 0 0-.69.69v8.284a.69.69 0 1 0 1.38 0v-8.284a.69.69 0 0 0-.69-.69m0 22.092a3.452 3.452 0 1 1 0-6.904 3.452 3.452 0 0 1 0 6.904m-.69-3.452a.69.69 0 1 0 1.38 0 .69.69 0 0 0-1.38 0" fill="url(#prefix__a)" fill-opacity=".5"/><defs><linearGradient id="prefix__a" x1="0" y1="41.711" x2="115.823" y2="63.192" gradientUnits="userSpaceOnUse"><stop stop-color="#BEBEBE" stop-opacity=".2"/><stop offset=".344" stop-color="#BEBEBE" stop-opacity=".8"/><stop offset=".698" stop-color="#BEBEBE" stop-opacity=".8"/><stop offset="1" stop-color="#BEBEBE" stop-opacity=".2"/></linearGradient></defs></svg>