<svg xmlns="http://www.w3.org/2000/svg" width="44" height="23" fill="none" data-c="1"><path fill="#fff" d="M13.792.08h2.016q0 1.968 1.08 2.856 1.104.864 3.312.864v5.04q-.816 0-1.488-.072v4.536q-.048 1.728-.792 2.472-.72.744-2.616.768h-1.368v-3.312h1.08q.12-.024.192-.384.096-.384.096-.744H12.04v2.592q.024 1.368.288 1.896.288.504.96.528h6.6v5.832h-6.72q-2.088 0-3.072-.672-.984-.648-1.368-2.376t-.36-5.232v-3.168h.024V8.888q-.288.024-.912.024v-5.04q2.16 0 3.192-.888 1.032-.912 1.032-2.904zv.576zm-6.6 9.408v3.792l-1.464.36v1.8q.048 2.76-.264 4.32-.312 1.536-1.344 2.352-1.032.84-3.192.84H.352v-5.88H1q.48.048.696-.504.24-.576.312-2.016l-1.92.456v-3.816l1.944-.456V7.448H.064V3.704h1.968V.08h3.696v3.624h1.32v3.744h-1.32V9.8zm2.136-.72h9.384q-1.512-.192-2.496-.936-1.416-1.008-1.92-2.856-.456-1.728-.504-4.32-.024 2.376-.336 3.888-.264 1.704-1.224 2.808T9.328 8.768m34.68 8.544q0 2.208-.264 3.36t-1.2 1.704q-.912.576-2.88.576h-3v-5.856h3.216a.87.87 0 0 0 .816-.48q.264-.48.312-1.416.072-.96.072-3.024v-6.12h-4.2q-1.08 1.968-3.84 2.088V4.16q.888-.144 1.296-.696.432-.576.552-1.344.12-.792.12-2.04h2.784v1.56h6.216zm-20.184-2.28V1.52h8.64v13.512h-2.472V5.096h-3.624v9.936zm8.952 2.04v5.88q-1.776 0-2.88-.72-1.104-.696-1.752-2.208-.672 1.512-1.776 2.208-1.104.72-2.808.72v-5.88q1.368 0 2.064-.528.72-.552 1.032-1.896.312-1.368.312-3.96V6.224h2.376v4.464q0 2.592.288 3.96.312 1.344 1.032 1.896.72.528 2.112.528m3.36-1.128a2.9 2.9 0 0 1-.96.168q-.84 0-1.416-.576-.576-.6-.576-1.752 0-.168.048-.624a9.4 9.4 0 0 1 .696-2.448q.552-1.224 1.152-2.184t.6-.912h2.16l-.576 1.344a17 17 0 0 0-.6 1.512q-.216.48-.216.768 0 .312.24.312.264 0 .696-.36.552-.48.72-.984h2.568v5.88h-2.568v-3.12q-.144.744-.624 1.704t-1.344 1.272"/></svg>