<svg width="116" height="32" fill="none" xmlns="http://www.w3.org/2000/svg"><g filter="url(#prefix__a)"><path d="m34.783 13.952.984.408.648-1.776h-1.44l.336-2.28h1.944l.24-.624-.624-.744h4.56l-.504 1.368h4.416l-1.104 7.752h.456l1.056-.912-.528 3.648h-5.016l1.152-8.208h-1.296l-1.128 3.048 1.464.6-.384 2.736L38 18.152l-.984 2.64h-3.648l1.464-3.936-.432-.168zm-8.712 6.84 2.136-2.256.144-1.08-2.304.384.336-2.52 2.328-.408.312-2.112h-2.28l.312-2.28h2.28l.24-1.584h3.648l-.216 1.584h1.8l-.312 2.28h-1.824l-.192 1.464 1.848-.312-.336 2.52-1.872.336-.336 2.352q-.12.696-.672 1.176a1.8 1.8 0 0 1-1.2.456zm4.704 5.424-.24-4.512h4.104l.24 4.512zm4.992 0-.24-4.512h4.104l.24 4.512zm-11.376 0 1.56-4.512h4.104l-1.56 4.512zm16.392 0-.24-4.512h4.104l.24 4.512zM67.421 9.848l-2.088 14.784a1.8 1.8 0 0 1-.624 1.152q-.528.432-1.224.432H59.19l2.136-2.232 1.656-11.856h-9.336l.336-2.28zM52.83 13.04l-1.848 13.176h-4.104l1.848-13.176zm.288-3.648v3.192h-4.08l-.024-3.192zm33.91 3.192-1.055 1.584h2.663L87.22 24.176a1.9 1.9 0 0 1-.623 1.176q-.529.456-1.225.456h-3.6l2.112-2.136.697-4.944h-3.888l-1.08-2.04h4.104l.912 1.728.311-2.184H73.517l-.312 2.16 1.392-1.704H78.7l-1.656 2.04h-3.888l-.984 7.08h-3.408l1.632-11.64h2.713l-.672-1.584h4.56l.672 1.584h3.743l1.056-1.584zm-13.704 11.4.673-4.8h9.576l-.672 4.8zm4.465-13.896.072-.432-.817-.72h5.472l-.168 1.152h7.32l-.288 2.04H70.229l.288-2.04zm2.424 12.072.167-1.152h-3.648l-.167 1.152zm15.406-11.856-.792-.912h15.504l-1.032 7.296H94.706zm9.456 4.104.384-2.736h-5.472l-.384 2.736zm6.384 3.192-1.152 8.208h-9.12l1.152-8.208zm-5.784 2.28-.528 3.648h1.824l.528-3.648zm-4.248-2.28-1.152 8.208h-9.12l1.152-8.208zm-5.784 2.28-.528 3.648h1.824l.528-3.648z" fill="#fff"/></g><path fill-rule="evenodd" clip-rule="evenodd" d="M32 16c0 8.837-7.163 16-16 16S0 24.837 0 16 7.163 0 16 0s16 16 16 16" fill="url(#prefix__b)"/><defs><linearGradient id="prefix__b" x1="-17.079" y1="28.54" x2="8" y2="44.539" gradientUnits="userSpaceOnUse"><stop stop-color="#A7F522"/><stop offset="1" stop-color="#DCF8A6" stop-opacity=".01"/></linearGradient><filter id="prefix__a" x="24.391" y="8.936" width="91.066" height="21.28" filterUnits="userSpaceOnUse" color-interpolation-filters="sRGB"><feFlood flood-opacity="0" result="BackgroundImageFix"/><feColorMatrix in="SourceAlpha" values="0 0 0 0 0 0 0 0 0 0 0 0 0 0 0 0 0 0 127 0" result="hardAlpha"/><feOffset dx="4" dy="4"/><feColorMatrix values="0 0 0 0 0.654902 0 0 0 0 0.960784 0 0 0 0 0.133333 0 0 0 0.2 0"/><feBlend in2="BackgroundImageFix" result="effect1_dropShadow_4449_12144"/><feBlend in="SourceGraphic" in2="effect1_dropShadow_4449_12144" result="shape"/></filter></defs></svg>