<svg width="299" height="464" fill="none" xmlns="http://www.w3.org/2000/svg"><path d="m176.516 13.364.15.196h96.175l16.123 20.415v407.666l-7.259 21.859H134.949l-8.316-16.624-.139-.277H27.631l-16.667-23.474V29.28L21.383.5h145.244z" fill="#000" fill-opacity=".3" stroke="url(#prefix__a)"/><path fill-rule="evenodd" clip-rule="evenodd" d="M40.964 452.154h-4.5l4.5 10h4.5zm9 0h-4.5l4.5 10h4.5zm4.5 0h4.5l4.5 10h-4.5zm13.5 0h-4.5l4.5 10h4.5zm4.5 0h4.5l4.5 10h-4.5zm13.5 0h-4.5l4.5 10h4.5zm4.5 0h4.5l4.5 10h-4.5zm13.5 0h-4.5l4.5 10h4.5zm4.5 0h4.5l4.5 10h-4.5zm13.5 0h-4.5l4.5 10h4.5z" fill="url(#prefix__b)" fill-opacity=".2"/><path fill-rule="evenodd" clip-rule="evenodd" d="m6.168 389.402-2.584-1.455L1 389.402v2.865l2.584 1.455 2.584-1.455zM3.584 386.8 0 388.817v4.035l3.084 1.736v29.889l.086.127 15.001 22.192.829-.56-14.916-22.065v-29.583l3.084-1.736v-4.035z" fill="url(#prefix__c)" fill-opacity=".2"/><path fill-rule="evenodd" clip-rule="evenodd" d="M181.464 5.255h96.385l13.773 16.888-.87 3.904 2.865 3.202 3.856-1.238.991-4.442-2.865-3.202-3.277 1.052-13.848-16.98-.15-.184h-96.86zm115.922 18.564-2.047-2.288-2.755.885-.754 3.381 2.047 2.288 2.754-.885z" fill="url(#prefix__d)" fill-opacity=".8"/><defs><linearGradient id="prefix__a" x1="267.464" y1="-7.5" x2="85.464" y2="202" gradientUnits="userSpaceOnUse"><stop stop-color="#A7F522"/><stop offset="1" stop-color="#A7F522" stop-opacity="0"/></linearGradient><linearGradient id="prefix__b" x1="121.964" y1="452.154" x2="121.964" y2="462.154" gradientUnits="userSpaceOnUse"><stop stop-color="#A7F522"/><stop offset="1" stop-color="#A7F522" stop-opacity="0"/></linearGradient><linearGradient id="prefix__c" x1="-6.036" y1="387" x2="26.464" y2="482.5" gradientUnits="userSpaceOnUse"><stop stop-color="#A7F522"/><stop offset="1" stop-color="#A7F522" stop-opacity="0"/></linearGradient><linearGradient id="prefix__d" x1="293.964" y1="4" x2="197.964" y2="35" gradientUnits="userSpaceOnUse"><stop stop-color="#A7F522"/><stop offset="1" stop-color="#A7F522" stop-opacity="0"/></linearGradient></defs></svg>