<svg width="347" height="524" fill="none" xmlns="http://www.w3.org/2000/svg"><g filter="url(#prefix__a)"><path d="M14 2h314l17 16.613V54.61l-12 11.63v75.867l9.5 6.092v99.681l-9.5 8.306v214.313l10.5 5.538v34.888L333 522H22L4.5 505.387v-32.12l9.5-11.075v-79.745l-12-7.753v-96.357l12-10.522V54.055L2 47.41V14.183z" fill="url(#prefix__b)" fill-opacity=".7"/><path d="M14 1h-.419l-.293.298-12 12.183-.288.292V48l.516.285L13 54.645v212.717L1.34 277.585l-.34.298v97.356l.457.295L13 382.992v78.83l-9.259 10.794-.241.281v32.919l.312.296 17.5 16.613.289.275H333.43l.296-.312 10.5-11.076.274-.289v-35.89l-.534-.281-9.966-5.257V256.639l9.158-8.008.342-.298V147.651l-.46-.295-9.04-5.796V66.662l11.696-11.335.304-.294v-36.84l-.301-.295-17-16.613-.291-.285z" stroke="url(#prefix__c)" stroke-width="2"/></g><defs><linearGradient id="prefix__b" x1="345" y1="213.5" x2="2" y2="215.5" gradientUnits="userSpaceOnUse"><stop/><stop offset=".244" stop-color="#111"/><stop offset=".501"/><stop offset=".706" stop-color="#161616"/><stop offset="1"/></linearGradient><linearGradient id="prefix__c" x1="247" y1="73.5" x2="24" y2="497.5" gradientUnits="userSpaceOnUse"><stop stop-opacity=".6"/><stop offset=".27" stop-color="#828282" stop-opacity=".399"/><stop offset=".49" stop-color="#131313" stop-opacity=".237"/><stop offset=".75" stop-color="#8D8D8D" stop-opacity=".1"/><stop offset="1" stop-color="#fff" stop-opacity=".2"/></linearGradient><filter id="prefix__a" x="-48" y="-48" width="443" height="620" filterUnits="userSpaceOnUse" color-interpolation-filters="sRGB"><feFlood flood-opacity="0" result="BackgroundImageFix"/><feGaussianBlur in="BackgroundImageFix" stdDeviation="24"/><feComposite in2="SourceAlpha" operator="in" result="effect1_backgroundBlur_5209_109320"/><feBlend in="SourceGraphic" in2="effect1_backgroundBlur_5209_109320" result="shape"/></filter></defs></svg>