<svg width="70" height="27" fill="none" xmlns="http://www.w3.org/2000/svg"><path d="M5.2 8.264H0v18.185h5.2z" fill="#0068B4"/><path d="M5.2.274H0v5.09h5.2z" fill="#01C6FC"/><path d="M12.776 11.108c1.76-1.968 3.728-2.87 6.172-2.79 3.728.123 6.403 2.287 6.936 5.892.57 3.87.125 7.775.25 11.65 0 .422-.125.674-.626.613a2 2 0 0 0-.27 0c-3.934.233-3.934.233-3.934-3.624v-6.04c-.05-2.801-1.485-4.389-4.004-4.475-2.319-.073-4.11 1.551-4.355 4.096-.288 2.961-.1 5.94-.094 8.915 0 .92-.263 1.256-1.203 1.152-1.14-.122-2.67.485-3.333-.257-.564-.613-.2-2.079-.2-3.158V9.692c0-.87.256-1.184 1.133-1.08q.671.042 1.341 0c2.105.007 2.105.007 2.187 2.496M28.728 1.697h4.843v6.69h3.346l.05 4.291h-3.515s0 5.003.057 7.057c.075 1.938.539 2.379 2.506 2.49.764.042 1.009.294.946 1.01q-.108 1.049 0 2.098c.138 1.073-.213 1.539-1.366 1.349-.84-.141-1.704-.135-2.506-.313-2.6-.558-4.079-2.28-4.198-5.212-.15-3.084-.163-19.46-.163-19.46M48.37 8.306c-5.638-.22-10.056 3.832-10.093 9.197 0 3.587 1.78 6.744 4.937 8.283a10.48 10.48 0 0 0 10.727-.662c2.318-1.465 2.28-1.526.138-3.12a2 2 0 0 1-.207-.166c-.814-.828-1.466-.908-2.556-.123-2.657 1.907-6.398 1.3-7.864-1.06-.231-.362-.626-.791-.438-1.184s.808-.19 1.253-.196h11.717c.551 0 1.109.16 1.178-.779.363-5.426-3.54-9.987-8.791-10.19m3.347 7.61c-1.341-.032-2.682 0-4.017 0h-4.022c-.627 0-.909-.093-.664-.804.538-1.594 2.424-2.79 4.574-2.826s4.16 1.158 4.736 2.79c.226.65.107.864-.607.84M64.323.072h-4.687v26.573h4.687zM68.258 26.804a1.78 1.78 0 0 1-.973-.286 1.7 1.7 0 0 1-.647-.767 1.68 1.68 0 0 1-.1-.99 1.7 1.7 0 0 1 .478-.877 1.76 1.76 0 0 1 .896-.469c.34-.065.692-.031 1.012.1.32.13.592.35.784.632a1.684 1.684 0 0 1-.22 2.156c-.326.32-.768.5-1.23.501m0-3.213c-.305 0-.603.089-.856.254a1.5 1.5 0 0 0-.568.677 1.48 1.48 0 0 0 .334 1.644 1.573 1.573 0 0 0 1.68.327c.282-.114.523-.308.692-.556a1.486 1.486 0 0 0-.192-1.904 1.56 1.56 0 0 0-1.09-.442" fill="#0068B4"/><path d="M68.885 26.038h-.27l-.4-.828h-.295v.816h-.251v-1.877h.564a.7.7 0 0 1 .438.13.49.49 0 0 1 .17.41.5.5 0 0 1-.107.343.5.5 0 0 1-.263.154zm-.314-1.35a.3.3 0 0 0-.094-.238.45.45 0 0 0-.313-.092h-.244v.65h.313a.4.4 0 0 0 .238-.068.3.3 0 0 0 .1-.251" fill="#0068B4"/></svg>