<svg width="101" height="32" fill="none" xmlns="http://www.w3.org/2000/svg"><path fill-rule="evenodd" clip-rule="evenodd" d="m88.529.563 10.413 6.003c1.24.718 1.958 1.958 1.958 3.426v12.04c0 1.436-.718 2.708-1.958 3.426l-10.413 6.004c-1.24.717-2.677.717-3.95 0l-10.413-6.004c-1.24-.718-1.959-1.958-1.959-3.426V9.992c0-1.435.719-2.708 1.96-3.426L84.578.563c1.273-.75 2.71-.75 3.95 0m-6.79 11.387h1.86v13.019l2.971 3.197 2.97-3.197V11.95H91.4a1.1 1.1 0 0 0 1.11-1.11 1.1 1.1 0 0 0-1.11-1.109h-3.754v-2.74c.425-.327.686-.849.686-1.403a1.81 1.81 0 0 0-1.795-1.795 1.81 1.81 0 0 0-1.796 1.795c0 .554.261 1.076.686 1.403v2.74h-3.754a1.1 1.1 0 0 0-1.11 1.11 1.18 1.18 0 0 0 1.175 1.109" fill="#E70017"/><path fill-rule="evenodd" clip-rule="evenodd" d="M34.636 9.34q.342 0 .588-.098a1.4 1.4 0 0 0 .457-.294c.13-.13.26-.294.359-.457.098-.196.196-.391.294-.652l1.436-4.177h-1.012l-.555 1.893c-.033.195-.098.391-.13.587-.033.196-.099.392-.131.587h-.033c-.065-.195-.098-.391-.163-.587s-.098-.392-.163-.555l-.653-1.892h-1.077l1.566 3.98-.065.229a2 2 0 0 1-.261.457c-.13.13-.294.163-.49.163-.032 0-.098 0-.163-.033-.065 0-.098-.032-.13-.032l-.196.815c.098.033.163.033.26.066zm3.787.032c-.164 0-.294 0-.392-.032-.098-.033-.196-.033-.294-.066l.196-.783c.13.033.228.066.326.066.164 0 .294-.066.36-.164.065-.098.097-.293.097-.522V3.63h1.078v4.176c0 .228-.033.424-.066.62a1.1 1.1 0 0 1-.228.49.9.9 0 0 1-.425.326c-.195.098-.391.13-.652.13m.816-6.395a.7.7 0 0 0 .457-.163.53.53 0 0 0 .196-.424.53.53 0 0 0-.196-.424.7.7 0 0 0-.457-.163.7.7 0 0 0-.457.163.53.53 0 0 0-.196.424c0 .163.065.293.196.424.13.13.26.163.457.163m1.73 4.177v.587h3.199V6.86h-1.894l1.828-2.643V3.63h-2.937v.848h1.599zm4.015 2.218c.26 0 .49-.032.653-.13a1.14 1.14 0 0 0 .653-.816c.032-.196.065-.392.065-.62V3.63h-1.077v4.209c0 .228-.033.391-.098.522-.066.098-.196.163-.36.163a1.2 1.2 0 0 1-.326-.065l-.196.783c.098.032.163.065.294.065.13.065.261.065.392.065m.848-6.395a.7.7 0 0 0 .457-.163.53.53 0 0 0 .196-.424.53.53 0 0 0-.196-.424.7.7 0 0 0-.457-.163.7.7 0 0 0-.457.163.53.53 0 0 0-.195.424c0 .163.065.293.195.424.131.13.262.163.457.163m2.612 4.83q.294 0 .49-.197a.66.66 0 0 0 .195-.49.66.66 0 0 0-.195-.489.67.67 0 0 0-.49-.195c-.196 0-.36.065-.457.195a.66.66 0 0 0-.196.49q0 .294.196.49c.098.13.261.195.457.195m3.721 0c.229 0 .457-.034.686-.131a1.8 1.8 0 0 0 .652-.36L53.08 6.6a1.4 1.4 0 0 1-.359.228.9.9 0 0 1-.424.098.88.88 0 0 1-.718-.326c-.196-.229-.294-.522-.294-.914 0-.391.098-.685.294-.913a.98.98 0 0 1 .75-.36c.13 0 .229.033.327.066a.8.8 0 0 1 .294.196l.522-.685a2.8 2.8 0 0 0-.522-.327 1.5 1.5 0 0 0-.653-.13c-.261 0-.555.032-.784.13a1.74 1.74 0 0 0-.653.424 2.1 2.1 0 0 0-.457.686 2.54 2.54 0 0 0 0 1.794c.098.261.229.49.425.653.163.196.391.326.62.424.163.13.424.163.718.163m3.917 0c.261 0 .49-.034.718-.131.229-.098.457-.229.62-.425.164-.195.327-.391.425-.652a2.5 2.5 0 0 0 .163-.881 2.7 2.7 0 0 0-.163-.914 2.4 2.4 0 0 0-.425-.685c-.163-.196-.391-.326-.62-.424a1.9 1.9 0 0 0-.718-.13c-.261 0-.49.032-.75.13-.23.098-.458.228-.62.424-.164.196-.327.392-.425.685a2.54 2.54 0 0 0 0 1.795c.098.26.261.49.424.652.163.196.392.327.62.425.229.097.49.13.751.13m0-.882a.76.76 0 0 1-.653-.326c-.163-.229-.228-.522-.228-.914 0-.391.065-.685.228-.913.163-.229.36-.36.653-.36.261 0 .49.131.653.36s.229.522.229.913c0 .392-.066.685-.229.914a.76.76 0 0 1-.653.326m3.166-3.295v4.078h1.045V4.902c.294-.293.555-.457.784-.457.195 0 .326.066.424.196s.13.359.13.653v2.414h1.078V4.902c.293-.293.554-.457.783-.457.196 0 .326.066.424.196s.13.359.13.653v2.414h1.078V5.163c0-.522-.098-.913-.294-1.207s-.522-.424-.946-.424c-.261 0-.49.065-.718.196q-.294.195-.588.489a1.1 1.1 0 0 0-.424-.522c-.164-.13-.425-.196-.719-.196q-.391 0-.685.196c-.196.13-.392.294-.555.457h-.032l-.066-.555h-.849zM34.735 1.346H64.21a3.273 3.273 0 0 1 3.264 3.263v1.957A3.273 3.273 0 0 1 64.21 9.83H34.734a3.273 3.273 0 0 1-3.264-3.263V4.61a3.273 3.273 0 0 1 3.264-3.263m5.843 23.719c.098.066.13.13.228.294.229.392 1.077 1.436 1.371 1.631.098.066.065 0 .163.098.066.066.098.066.098.163a4 4 0 0 1-.424.36c-.294.26-1.11.913-1.436 1.01 0-.26.032-.162-.098-.26l.098-.033v-.228c0-.098.032-.033-.066-.163.196-.098.033.032.098-.196.066-.196-.032-.326 0-.685 0-.555.066-.881.033-1.469v-.391c-.065 0-.065-.13-.065-.13m3.558-.946c.032 0 .032-.033.13-.033.098.164.163 0-.032.555-.033.13-.196.457-.261.522-.229-.098-.49-.294-.686-.391l-.522-.294c-.098-.065-.098-.033-.164-.13.229 0 .196-.098.457-.098.131 0 .262-.066.392-.164l.098.098c.13-.098-.032-.13.229-.065.032-.163-.033-.098.326-.196.033.066 0 .033.098.066zm-2.71-.294c.033-.097.033-.097.196-.163.13-.065.098-.163.229-.065-.098.098-.066.033-.163.163-.098.098-.164.13-.262.065m8.292 4.34-.098-.098a.7.7 0 0 0-.164-.098c-.587-.391-1.044-.457-1.762-.848-.751-.359-1.339-.587-2.09-1.044a3 3 0 0 0-.326-.196l-.359-.196c-.228-.13-.457-.26-.653-.391v-.033l.066-.13c.032-.13-.098.032.065-.523.032-.13.065-.228.13-.358.033-.066.033-.066.066-.164.163-.456.26-.358.587-.587l.457-.26c.261-.034.13.064.555-.262.261-.196.457-.228.522-.75a1.4 1.4 0 0 0-.065-.392l-.196-.293c-.13-.164-.457-.196-.75-.196l-.098-.098c-.098.13 0 .098-.033.163-.065.13 0-.033-.13.033l-.197.032c-.13 0-.065 0-.163.066-.294-.196-.13-.033-.424-.164-.033.033-.065.066-.098.066-.163.13-.261.293-.522.456l-.229.163c0-.163.098-.424-.032-.587l-.033-.032c.196-.294.033-.196-.065-.457-.033-.098-.033-.033-.033-.13v-.099c-.033-.065-.033.033-.033-.13l.131-.065.13-.066c.033-.032.099-.032.131-.065l.065-.065c.066-.033.261-.033.392-.163.098-.065.261-.098.392-.13.13-.033.196-.066.294-.099l.424-.13c.098-.033.065 0 .098-.065l.033-.033c.065.098.13.033.195 0 .098-.033.261-.098.36-.065.195.032.097-.13.26 0 .164.13-.13-.033.066.032.065-.032.065-.065.13-.065h.131c.196-.033-.065 0 .065-.033h.327c-.098-.163-.098.066-.098-.13.196.098.294.065.326.033h.098c.065 0 0 0 .065-.033.131-.033.131 0 .262-.065.163-.098.163-.229.228-.392.033-.098.033-.033.065-.13.033-.066.066-.196.098-.261.033-.196-.098-.294-.098-.49l.066-.13c-.164-.033-.196-.066-.164-.196-.163 0-.26-.13-.685-.229-.098-.032-.196-.032-.294-.032-.261-.033-.13-.163-.457-.13-.294.032-.294.032-.587 0 .032-.066.032-.164.065-.262.032-.13.065-.065.098-.228.032-.098 0-.13.065-.229l.098-.13c.196.033.098 0 .261 0 .065 0 .033.033.098 0 .098-.033-.033-.065.163-.033.294.033.49.098.686 0 .228-.098.522.196.816-.098.065-.065 0-.032.065-.065l.098-.065c.163-.098.163-.196.196-.359.033-.13.032-.098.098-.196.098-.163 0-.26.163-.391-.098-.066-.163-.196-.196-.326-.065-.196-.065-.229-.065-.425-.261-.163-.065-.098-.196-.26-.163-.197-.49-.131-.685-.197-.131-.032-.229-.065-.36-.065-.26-.065-.424-.195-.685-.195-.196 0-.163.065-.36-.033-.39-.229-.064-.359-.26-.816-.066-.13-.033-.032-.066-.196-.032-.195-.13-.26-.26-.391-.033-.065-.033-.098-.099-.13-.097-.066-.522-.229-.685-.196-.163.032-.033.032-.163.032-.098.033-.098 0-.163 0-.262.033-.098.098-.327.163-.032-.098-.032-.26-.196-.13-.098.098-.098.163-.098.293.098.033.066 0 .13.033-.097.196-.064.065-.162.196-.033.032-.033.032-.033.065v.065l-.065.13c-.033.099-.033.23-.033.327.033.196.033.13.098.066v.587a.35.35 0 0 1-.098.228 8 8 0 0 0-.718.196c-.457.098-.98.26-1.404.457l-.685.26c.065.066.065.066.065.131-.13.066-.196.033-.359.13.033.164.033.033.098.131.065.163-.098 0 .065.13.327.294.294.425.784.784l.914.685c.065.033.098.065.163.098s.098.098.13.13c.098.066.229.131.327.229s.13.26.032.359c-.032.032-.587.26-.75.326-.392.163-.686.359-1.012.555-.098.065-.229.13-.392.065-.098.098-.032.098-.13.13l-.066-.163c-.098.033 0-.032-.032.033l-.033.065c-.065 0-.13-.065-.196-.065-.228 0 0 .033-.196.065-.065.033-.163 0-.228-.032-.229-.066-.098-.196-.457-.033l-.066.033c0 .228.164.26.196.456.066.196.13.261.261.392.229.228.066.816.196 1.142-.032.032-.653.196-.718.196 0-.196.066-.261.098-.457l-.065-.033c.032-.098.098-.195.032-.326-.032-.065-.032.065-.065-.13-.032-.098 0-.36.033-.457-.065-.098-.098-.392 0-.457l-.065-.065c-.066-.066 0-.261.032-.36 0-.097 0-.032.033-.097.065-.163.032-.065 0-.163v-.163l.098-.881c-.033-.13-.033-.13 0-.294 0-.163-.066-.098-.033-.261.033-.196.098.032.098-.261 0-.163-.033-.196-.033-.326s.066-.392.066-.555a1.8 1.8 0 0 0 0-.587c-.033-.098.032-.098.032-.229.033-.391-.13-.195-.032-.49v-.032c.065-.196 0-.163.098-.26-.066-.164-.066.064-.098-.164.032-.163.065-.098.032-.326 0-.098-.032-.261-.032-.392-.066-.032-.13.066-.066-.293.066-.294.131-.49-.13-.75-.196-.23-.229-.36-.555-.458l-.392-.13c-.293-.098-.326 0-.555-.033-.098 0-.13-.033-.228-.033-.065.131-.033.164-.196.164.033.13.098.032.033.26-.033.131-.033.131.032.294.13.392.229.033.098.653-.098.522-.196.979-.196 1.533-.098-.032-.13-.097-.228-.163-.098-.065-.163-.098-.261-.163a.25.25 0 0 0-.13-.065c-.164-.065-.393-.065-.556-.13-.849-.262-1.208-.131-1.534-.262-.065.098-.098.066-.13.196-.033.196.032.098-.066.294-.098.163-.065.326-.065.555.13.032.13.032.163.13.033.13.13.13.196.261a.9.9 0 0 0 .261.228l.947.914c.163.163.848.75 1.044.848h.033c-.13.229-.783.588-1.012.783-.36.261-.75.457-1.077.718l-1.077.718c-.196.13-.49.392-.719.359l-.62-.033-.032.066c-.327.424.065.359.098.652.032.196-.033.229.195.326.294.13.262.098.457.294l.555.457c.13.098.163.163.425.163.163 0 .391 0 .555-.065.391-.196.457-.196.62-.555.065-.13.163-.228.26-.326l.393-.62c.032-.065-.033 0 .032-.065.163-.196.294-.261.392-.49l.098-.196c.098-.13.163-.26.228-.391l-.13-.065c.065-.066.13-.098.163-.196s.065-.13.196-.196l.033 1.403c0 .522.065.946.065 1.403l.032.522c.066.424.131.359-.195.685-.196.163-.392.294-.555.49-.098.098-.163.195-.261.26l.098.033c.065.033.032 0 .13.033 0 .098-.033.13-.098.196.229.196.784.326.914.457-.065.098-.163.163-.228.26l-.229.262c-.032.065-.032.065-.098.13l-1.142 1.599c-.066.098-.098.228-.196.294l-.62.88c-.033.033-.033.098-.066.164l-.13.26c-.098.099-.13.066-.163.197-.033.097-.033.097-.066.163-.032.065-.065.098-.065.195-.033.098 0 .13-.065.196-.033.065-.066.098-.033.163.13-.098-.033 0 .033-.098.065-.098.032 0 .13-.065 0 0 .033-.065.066-.098.13-.163.13-.032.163-.032l-.163.293.097.163.098-.098s.033-.032.066-.032c.065-.033.065-.033.098-.098v-.13l.13.032c-.032.13-.098.13 0 .229l.098-.131v-.033c.033-.065 0-.065.065-.098l.033.131c.033.065.033-.033 0 .065l-.033.098c-.065.229 0 .033 0 .098s-.032.065-.032.196c.098-.065.163-.163.228-.229l.392.13c.098-.162.196-.26.228-.423-.097-.066-.065.032-.097-.098.228 0 .195.033.326.033-.163-.131.065-.261.163-.425l.033-.098v-.065c-.033-.098-.033.066-.033-.098.066 0 .033 0 .066.033.163.098.097.065.13-.033.033-.032 0 0 .033-.065 0-.033.032-.033.032-.065 0-.033-.032-.033-.065-.065.392-.164.098-.164.261-.294.066-.065.098-.033.13-.033l.033-.359c.131 0 .098-.032.196-.13.13-.13-.098.065.033-.033l.294-.326c.032-.065.032-.065.098-.098.163-.065.065-.13.228-.294.098-.065.033-.163.163-.26l.163-.164c.066.098-.032.392-.097.522-.066.098.032.066-.131.163.065.098.098.033.098.13-.033.197-.033.653-.033.882l.033 1.37c-.033.229-.13.49-.033.718.033.13.033.163.033.229.065.13.065.097 0 .26l.261.36c.098.163.098.065.163.228l.163.294a.6.6 0 0 1 .131.163c.098.195.033.26.326.293l.033-.163c.261 0 .098 0 .229.13.26 0 .26-.032.26-.26.131-.066.066 0 .164-.13l.098-.066h.065c.066-.196 0-.13.163-.229l.392-.293c.294-.294.229-.326.327-.424l.293-.327c.098-.13.13-.13.196-.195.066-.066.033-.066.066-.13.032-.066.065-.034.097-.099l-.163-.032c.066-.066.13-.098.196-.164l.327-.391c.097-.13.065-.13.13-.261.033-.065.229-.392.294-.424a.5.5 0 0 0 .13-.229c.033-.065.066-.195.164-.228l1.011.718c.784.49.751.522 1.796.979.13.065.49.065.62.032.098 0 .065-.032.196-.032h.033l.326-.033c.457 0 1.208-.229 1.469-.261.098 0 .098.032.196 0 .098-.065.032-.098.163-.163l.163-.066h.065c.098-.032.098-.032.229 0l.065-.065c.066-.032 0-.032.098-.065a.26.26 0 0 1-.13-.13c.098-.066.098-.033.196.032.065.065.065 0 .13.065v-.032l.098-.13c.13.097 0 .065.196.065-.065-.164 0-.229-.098-.36.033.262.065.327.033.229m-31.011-2.415c.033-.13.066-.066.098-.196l.098.065v.033l.163-.066c-.065.131-.228.229-.359.164m1.273-5.417c.327-.065.196 0 .49 0 .196.033.098-.032.229-.065.097-.032.163-.032.26-.065 0 .457-.032.424-.097.783-.033.163-.033.098-.066.228l-.26 1.436-.033.914c-.066.13-.131.26-.261.326l-.033-.685c0-.261.065-.49.098-.75.032-.49.065-1.078.032-1.567 0-.13-.163-.359-.26-.457l-.066-.065c-.065-.033 0 .033-.033-.033m2.285.914c-.065-.033-.065-.098-.228-.326-.163-.261-.523-.424-.751-.62l-.065-.066c-.066-.032-.033 0-.066-.065a.8.8 0 0 1 .229-.065l.783-.228c.36-.098.85-.164 1.078-.261.032.097.032.13-.033.326-.033.13-.588.848-.686.913l-.032.033-.033.033zm-3.068-8.288c.065.066.065 0 .098.13-.098.197-.196.295-.261.49l-.816 1.11c-.196.26-.392.49-.555.75l-.653 1.012v.032c-.163.294-.392.75-.555 1.044-.033.066-.033.033-.065.098-.164.294-.261.588-.392.881-.065.163-.065.066-.13.261 0 .033-.294.718-.392 1.077a2 2 0 0 0 0 .62c.032.359.032.26.196.457l.032.065c.065-.065.033-.098.13-.098l.131.098c.033 0 .066 0 .164.033 0-.033.065-.164.065-.164.032-.065.228-.195.294-.163.098.033.032.066.163.098.032-.065.065-.065.098-.13 0 0 .032-.066.032-.098.033-.066-.032-.033.066-.066.098.033.13.098.065.229-.033.065-.065.065-.065.098v.13c.195-.065.13-.228.293-.326.098.033.098.098.164.163.065-.033.098-.033.163-.033.032.066 0 .066.032.131.164 0 .066 0 .164-.065l.13-.098c.033-.065.066-.098.098-.13.033-.033.13-.066.196-.131l.033-.065c.098-.13.196-.261.26-.424.131 0 .164 0 .23.097 0 .229-.164.62-.23.849-.195.75-.326.75-.456 1.696-.13 1.077 0 1.208-.033 1.664 0 .13.033.294.066.424.097.229.097.523.293.653.13.065.098 0 .196.163s.098.098.196.196c-.098.13 0-.033-.065.065-.13.163.032.261-.392.36-.163.032-.13.097-.261.162l-.62.36c-.196.097-.327.195-.49.293l-.457.326c-.163.13-.261.229-.424.36-.164.162-.425.39-.523.619a1.2 1.2 0 0 0-.13.294c.033.098.098.098.13.195.033.098 0 .164-.032.294-.033.261.13.326.228.424.196.229.066.163.425.261.163.033.228.066.326.163l.065.066v.032c.066.098.425.066.523.033.195-.065.457-.229.587-.424.163-.196 0-.229.294-.424.098-.13.065-.13.228-.13l-.032-.099c.13-.065.163-.032.26-.098.49-.26.523-.032.882-.359.098-.098.098-.065.229-.13.196-.098.685-.424.816-.555.163-.163.163-.163.392-.293.13-.066.293-.196.424-.229.424-.163.163-.065.424-.294.066-.065.36-.163.457-.228l.196-.098c.098-.032.163-.065.261-.098l1.567-.815c.065-.033.033-.033.098-.033.13-.033.294-.196.392-.294l.032-.032.13-.13c.066-.066 0 0 .034-.033l.13-.13c.065-.066.033 0 .098-.066l-.163-.065c.032-.164 0-.066 0-.196-.62 0-.881-.163-1.828-.163-.033 0-.163.032-.261.032.032-.098 0-.032.032-.13.098-.261.066-.066.229-.261l.098-.098c.098-.065.032.033.065-.098-.033 0-.098.033-.13 0 .097-.098.065-.13.163-.163.032 0 0 .032.032-.033l.457-.652c.066-.066.066-.13.13-.196.164-.163.262-.392.393-.555l.26-.391c.033-.066.066-.13.099-.229.032-.098.065-.098.098-.195.26-.653 0-.392.228-.751-.098-.261-.359-.587-.62-.718-.196-.13-.229-.293-.555-.424-.065-.033-.163-.065-.229-.13.098-.098.294-.164.392-.261.196-.164.196-.131.457-.196-.098-.066-.163-.066-.228-.196l-.033-.13c0-.098.163-.327.196-.392-.196-.065-.261-.13-.326-.294-.066-.13-.098-.065-.131-.196v-.032a.25.25 0 0 0-.13-.065c-.262-.098-.131.065-.262-.13-.065-.099-.163-.131-.26-.164-.197-.033-.458-.196-.654-.163-.065 0-.065.032-.163.032-.065 0-.196.033-.229.033-.456.033-.163 0-.718.098-.522.098-1.011.163-1.501.424-.066.033-.033.033-.13.065-.066.033-.099 0-.164.033s-.033.033-.13.098c.032-.196 1.142-1.827 1.338-1.892.49.032.947.195 1.306.358.783.327 1.534.718 2.317 1.044.261.098.327.164.653.164.588 0 .294-.196.718-.098.065-.196.033-.229.261-.163-.032-.098-.098-.163-.065-.261.065-.13.065-.066.163-.13l.196-.23-.326-.489c-.229-.391-.327-.391-.62-.62-.099-.065-.099-.13-.23-.195l-.521-.327c-.098-.065-.196-.065-.294-.13s-.196-.065-.294-.13a3.4 3.4 0 0 0-1.273-.392c-.294-.033-.522 0-.718-.13.033-.197.13-.23.13-.556 0-.26.033-.326-.13-.554-.196-.326-.522-.522-.849-.62a5 5 0 0 0-.587-.13c-.36-.066-.751-.555-.98-.229a2 2 0 0 0-.13.228l-.13.164c-.033.065-.034.065-.066.097m33.1 8.223c.065.032.098.065.196.065.097 0 .13 0 .228.032l.849.098c.13 0 .293-.065.424-.065 0 .13-.326.555-.424.718-.033.065-.033.13-.066.228-.065.163-.195.229-.326.457-.36.587-.392.522-.62.816-.066.065-.066.098-.13.13l-.099.13c-.032.066.066 0-.065.066h-.065c-.033-.13.163-.196 0-.163-.13.032-.033 0-.066.065l-.457.75c-.163.229-.13.392-.424.62-.163.131-.065.229-.294.425-.163.163-.032.065-.13.195l-.163.164c-.098.13-.033.032-.098.228-.066.163-.131.294-.098.49.032.163 0 .13.098.228.032-.066.032-.098.065-.13l.13-.131a.5.5 0 0 1 .131.098v.032c0 .163.065.066.033.229 0 .065-.033.065-.033.13.033-.032.065-.065.13-.098.164-.098 0-.032.099 0 0 0 0 .13.032 0 .033-.098-.098-.065-.13-.195.13-.066 0-.033.13-.066.392-.065.13-.065.36-.13.065.228.032.163-.033.26h.163c0-.13 0-.064-.066-.162.327 0 .033.032.294-.098.163-.098.163 0 .327-.13l.13-.099c.327-.293.13-.228.261-.359.131-.163.033-.065.066-.163l.098-.13c.065-.098.326-.294.391-.424.13-.196-.065-.033.196-.196-.032-.098 0 .032-.032-.098.13 0 .065 0 .13-.065l.098-.098.294-.261c.065-.065.294-.196.392-.196.065.685.032.457 0 .522 0 .033-.033 0-.033.065l.065 1.208v.195c0 .098.033.294.033.425 0 .163-.033.293-.033.424v.88c.033.294-.032.164-.032.392l.065-.13c0 .163-.033.163-.033.326v.359c0 .293-.065 1.11.033 1.37.065.13.032.261.196.326.032-.065 0-.097.065-.163.065.033.326.36.555.49l.228.13c.066-.098.033-.065.033-.098l.065.033c.392.13.392-.033.457-.13.066-.131.066-.033.098-.164.033-.098 0-.13.066-.228.13-.261.065-.294.293-.522-.163-.065.13.098-.065-.033-.065-.032.033 0-.033-.032-.097-.033.033.032-.032 0v-.163c-.066-.327 0-.425 0-.653v-.261c.032-.261-.033-.49-.033-.685 0-.163.033-.033.065-.196v-.228c.066.032.066.098.098.065h.033v-.228c0-.066.065-.098.065-.164a.1.1 0 0 0-.13 0c-.066.066.032.196 0 .294v-.033l-.098-.49c0-.13.032-.097.098-.097l-.066-.196v-.065c0-.098-.097-.163-.097-.228.065-.196.065.032.065-.196 0-.163.032-.065.032-.229.098-.032.066.033.131-.032 0-.163-.033-.326.163-.36v-.293c-.065.098-.032.163-.13.163-.033-.065 0-.098.065-.163-.098-.032-.065.033-.13.033a.5.5 0 0 1-.197-.065c.066-.327.066-.294.262-.327.13-.032.098.066.13-.098-.032-.032 0 0-.065 0l-.098-.032-.065-.033c-.066-.032 0 0-.066-.065l.066-.065h.065v-.229c-.098.098-.033.033-.098.163-.065-.097-.033-.195-.033-.326.327 0 .914.033 1.175-.13l.327-.196c.065-.033.065-.065.163-.098 0-.294.098-.228.13-.424-.032-.098-.032-.098-.032-.163-.033-.229.098-.163-.13-.425-.327-.358-.784-.554-1.273-.717-.327-.13-.098-.229-.098-.457v-.294c0-.032.032-.26.032-.293-.032-.13-.098-.033-.13-.229 0-.13.032-.065.065-.098.065-.098.098-.326.13-.49v-.032c.033-.065.131-.098.196-.13.066-.033.13-.033.196-.066l.424-.13c.262-.065.555-.098.784-.228s.653-.13.783-.229c.196-.163.098-.195.196-.293s.261-.098.36-.13c-.099-.132-.131-.066-.294-.132-.196-.065-.033-.097-.229-.228.098-.065.163-.098.228-.163.098-.065.131-.065.262-.098l-.229-.032c-.032-.066.033-.033.065-.131-.228 0-.195-.033-.326-.228l.098-.033c-.13-.065-.163.033-.196-.163a.74.74 0 0 1-.359-.098l-.098-.13c-.163-.164-.13-.131-.294-.131h-.163c-.098 0-.163.065-.326 0-.098-.033-.196-.098-.327-.065-.326.065-.065.195-.62-.098-.098-.066-.196-.066-.294-.13.066-.294.033-.882.033-1.306h-.163l.13-.391h-.032l-.131-.066c.033-.065.065-.065.098-.163-.065-.032-.033.033-.13 0 0-.196.032-.163.097-.326-.098-.065-.098-.065-.098-.196-.032-.13 0-.065-.13-.163.13-.065.098-.033.228-.13-.098-.033-.098-.033-.13-.098l-.163-.425v-.032l-.131-.13c-.065-.033-.163-.066-.196-.099-.032-.032.033-.032-.098-.065-.065-.033-.065 0-.13-.033-.131-.032-.066-.065-.196-.13-.13-.033-.098-.033-.229-.065-.13.098-.032.098-.26.098-.132 0-.23 0-.327.032-.098.261.065.229.13.36-.065.064-.032.032-.13.097-.098.098-.066.033-.098.163l-.13.326c-.034.131 0 .098.032.196.065.196 0 .424 0 .62 0 .163-.033.326-.033.457 0 .228.13.196.13.294 0 .163 0 .424-.13.587-.032.065 0 .033-.065.033 0 0-.033.032-.033 0l-.032 1.729c-.294.098-.98.424-1.24.587-.164.098-.784.49-.882.62s-.196.196-.294.294c-.326.424-.13.26-.196.424l-.065.065c.294.098.261.13.359.229l.196.195c.065.163.196.066.294.163m-23.927-7.634c.032.098.032.065.098.163.065.163.163.163.228.326v.033c.065.13.13.196.163.326.196.653.196 1.501.163 2.251 0 .13-.032.13-.032.294 0 .098 0 .163-.033.294-.098.717.098 4.307.098 5.612v1.338c0 .228-.032.424-.032.587 0 .13.032.163 0 .26-.098.98-.229 2.252-.588 3.1l-.065.262c-.033.065-.033.065-.033.13-.098.196-.261.163-.49.196l-1.893.032c-.49 0-.587-.065-.98-.195h-.13c.163.195.457.228.653.424.098.098.065.098.229.13.195.066.457.164.652.294.131.065.066.065.131.13.098.098 0-.032.326.164.131.098.262.098.294.293v.033c.033.163.163-.098.294.13.065.164.065.131.261.229.13.065.229.098.327.163.065.033.065.033.163.098s.065.032.13.13c.098 0 .098 0 .164-.032l.065.098c.065.032.065.032.163.032l.033.163c.065 0 .065-.032.13 0l.066.033c.032 0 .13-.065.228-.065.261-.098.196-.196.392-.229.032.066-.033.033.065.066.065 0 .065-.033.196 0 .163.032.294-.163.261-.229-.13-.195.033.13-.033-.065.229-.033.36-.163.49-.326.13-.13.261-.327.294-.49s.163-.359.228-.554l.196-.62c.033-.13.098-.327.13-.424.131-.49-.228-.229-.097-.49l.065-.065c.098-.065.13-.065.196-.163h-.196c.033-.098.065-.098.13-.196.066-.098.066-.294.066-.424l.065-.36v-.325c.033-.164.098-.36.098-.588v-.195c0-.294.033-.588.033-.849v-2.251c.032-.196.032-.588-.066-.75h.099c0-.229-.033-.425-.033-.653 0-.163-.033-.49-.033-.685l-.032-.686c-.033-.26-.033-.456-.033-.75 0-.424-.033-1.599-.098-2.088l-.098-.685c-.033-.196-.065-.457-.13-.62l-.066-.13-.163-.425c-.196-.392-.718-1.044-1.045-1.24-.032-.033-.065-.033-.13-.065l-.13-.065c-.327-.163-.915-.294-1.241-.098-.098.098-.098.163-.163.26m35.874 15.499c-.066-.065-.098-.065-.098-.196.098 0 .163.033.13.13 0 .131.033 0-.032.066m4.243-3.067c-.065-.196-.065-.163-.098-.359 0-.13-.032-.359-.065-.424h.098c-.229-.49-.065-.653-.196-.979-.13-.326-.13-.587-.228-.652-.098-.033-.098.032-.033-.098-.065-.033-.098-.033-.163-.066l.065-.13a.4.4 0 0 1-.13-.098v-.033c.032 0 .032 0 .065-.032l.032-.033c-.065-.032-.065 0-.098-.065-.032-.065.033 0-.032-.098l-.098-1.077c0-.13-.033-.195-.033-.293v-.13c-.065-.197-.032-.295-.065-.36l-.033-.033c-.032-.097 0 .033 0-.032.066-.261-.065-.163-.065-.326-.033-.196 0-.62.065-.783l-.13.032c.032.065.032.065.032.163-.032.033 0 0-.032 0h-.066c.033.13 0 .066.098.098 0 .098 0 .196-.065.294-.033-.098 0-.065 0-.13l-.098.456c.196.065 0-.098.163.065 0 .066 0 .066-.032.066l-.033.098c-.033.065 0 .032-.033.065l-.032.032h-.066c0 .49-.065.294-.098.49.066.032.033.032.131 0-.033.098 0 .032-.098.13.13.098.033.163.033.294-.033.261.13.065.032.294-.032.13-.032.13-.032.293v.327c-.033.228-.098 0-.13.228-.033.196-.033.49 0 .653.032.228.064.065.195.228l-.098.033c-.065.032-.065 0-.098.032v.066c0 .097-.032.195-.032.326 0 .456-.033.946-.131 1.403-.098.554-.783.783-1.306.816-.163 0-.359 0-.522-.033l-.457-.098c-.294-.065-.49-.196-.686-.359-.163-.13-.358-.424-.391-.652 0-.098-.033-.033-.033-.164-.033-.13-.033-.098-.033-.195-.032-.229 0-.294-.228-.229-.13-.163-.163-.359.033-.49-.066-.162.065.131-.033-.064 0-.033 0 0-.033-.066l.098-.032c-.098-.066-.13 0-.13-.13 0-.131.032-.066.032-.164v-.065c-.097-.261 0-.163 0-.294 0-.065-.032.065-.032-.098 0-.196.163-.196.032-.391l-.032-.033c-.033-.065-.066-.13-.033-.196v-.065c.033-.098.033-.033 0-.13.065-.066.098-.033.13-.098 0-.033.033-.164.033-.196v-.229c0-.065 0-.032.033-.065.033-.032.033 0 .033-.065h-.164c0-.13.033-.098.066-.163-.033-.098-.033 0-.098-.13.13-.099.098-.23.098-.36l.098-.587c.032-.163.196-.457.032-.62.13-.065.098.033.098-.098 0-.065.033-.065-.033-.163.099-.065.066 0 .099-.098.032-.098-.033-.065.065-.163-.033-.098-.033 0-.098-.13.13-.131.13 0 .163-.164-.196-.098.163.033-.033 0-.065 0 0 0-.065-.032 0-.163.033-.163.13-.163 0-.261.066-.098.197-.327.032-.098.065-.293.097-.391-.065-.033-.098-.033-.13-.066.098-.358.065-.424.261-.783.065-.097.098-.293.065-.456-.032-.098-.13-.261-.13-.392.359-.294-.229-.816-.522-.88-.229-.066-.099 0-.262-.131-.098-.066-.195-.066-.294-.13l-.554-.294c-.327.032-.294-.098-.85.032-.815.196-1.174.75-1.5.946l-.164.163c-.033.033-.065.033-.098.098.033 0 0 0 .098.033.13.033.196-.065.36-.033.13 0 .326.098.456.13l.49.066c.196 0 .261 0 .49.065.065.36-.131 1.208-.131 1.762h-.098c-.098 0 0-.032-.065 0l.065.066c.065.065.033.032.033.098l-.033.195c-.098.163-.13.163-.13.392-.033.163-.033.098-.066.228-.032.098 0 .163-.032.261-.033.196-.033.098-.033.36 0 .13-.065.26-.065.423-.066.294 0 .653-.066.881-.065.326.066-.13.13.13v.099c-.064.228-.195-.098-.162.783 0 .424 0 .554.098.979l.195 1.533c.033.13.033.033.131.13l-.098.229c.196.13.098.13.163.392.033.097.033.13.066.228.032.098.032.098.098.196.097.13.065.26.163.391.065.098.065.066.13.196.066.13.033.065.13.163.131.13 0 .033.066.163.033.066.098.13.163.229l.098.098c.066.097.196.228.229.326.163.424.359.032.522.26-.065.066-.13.066-.229.066 0 .098.033.098.033.163 0 .033-.065 0 .098.098.13.098.261.065.392.163.163.13-.163.066.13.13l.294.066c.13.163.033.065.261.13a1 1 0 0 0 .327.066v-.033c.032-.033 0-.033.032-.033l.131.066c.033-.066-.065 0 .033-.066.163.098-.033.066.13.164.13-.066 0 0 .066-.163.13 0 .097.032.228.032l-.163.098c.098 0 .163.033.228 0l.033-.033c.065-.065 0 0 .032-.065l.033-.098c.098 0 .13.033.163.066-.032.032-.13.13-.032.13.13 0-.033-.065.196-.098v.131c.652 0 .848-.327 1.24-.327.098-.13-.033 0 .033-.098.032-.032.065 0 .13-.097l.066-.196c.163.065-.131-.065.065.033.065.032.032.065.163-.098.065-.098.13-.163.261-.163 0 .13-.032.065-.065.163.13.032.163.032.261-.066.13-.098.065-.065.065-.293.13 0 .098-.033.163.065.033-.13.033-.098.033-.196 0-.13 0-.163.065-.196.066.033.066.066.131.164.033-.033 0 0 .033-.066l.032-.195c.066-.229-.098-.066.033-.261l.163.195c0-.26-.065-.032 0-.424v-.196c-.032-.13-.065-.065-.065-.195.163 0 .065 0 .13.065.131.098-.097.065.033.032.065-.13 0-.358-.033-.456-.065-.13-.195-.261-.065-.294M8.783 19.552l-.294.033h-.751c-.49 0-1.077.098-1.501.195-.196.066-.816.131-1.143.196l-1.73.327c-.359 0-.065 0-.293.065-.066.033-.131.033-.196.033-.196 0-.196 0-.294.097-.163.098-.13.033-.36.033 0-.228-.097-.13-.13-.326-.032.032-.032.032-.13.032.065.098.065.033.032.164-.032.097-.032.13-.032.228-.425.032-.163.065-.49.065-.033.098 0 .065-.033.163-.13-.032-.032-.032-.097-.032h-.033c-.13-.033-.098.032-.13 0l-.197.163c0 .032-.032.065-.032.065-.065-.065 0-.065-.13-.098l-.066.13c-.196-.163-.163-.032-.261.098-.065.098-.065 0-.098.098-.065.13-.033.13-.163.261.098.392-.13.229-.13.653.13.065.228.033.358.13l.718.555c.13.13.066.033.229.163a.5.5 0 0 0 .13.098l.294.163c.13.098.033 0 .163.033l.457.261c.066-.098.098-.065.261-.065.262.032.327.098.49.032h.033c.065-.032.13-.032.196-.032.359-.13.098-.033.326-.066.098-.195 0-.065.294-.326.359-.326.163-.13.392-.228.097-.033 0 0 .13-.065.13-.066.457-.131.588-.164a29 29 0 0 1 1.795-.358c.229-.033.424-.098.62-.131.13 0 .196 0 .327-.033.326-.065.163-.065.49-.065.228 0 .13-.065.75-.065h.686c.457 0 1.077.032 1.501 0 .425-.065 1.567.065 2.024.26l.294.099c.13.032.196.065.293.098.523.163.196.032.784-.261.13-.066.13-.066.163-.229.098-.26.163-.359.098-.62-.065-.359-.098-.587-.392-.815l-.652-.588c-.294-.293.032-.065-.425-.359-.13-.065-.13-.098-.228-.195-.13-.098-.13 0-.327 0-.293 0-.13-.163-.424-.033-.327.13-.13-.065-.457.098-.196.098-.849.033-1.077.033-.686-.066-1.535.032-2.22.032" fill="#fff"/><path fill-rule="evenodd" clip-rule="evenodd" d="M26.149 18.606c0 .195-.033.326-.066.49a11 11 0 0 1-.097.456c-.066.228-.229.75-.229.913 0 .262-.065.457-.098.686v1.468c0 .065 0 .065.033.13.032.262.065.229.065.49 0 .098.098.293.13.391.164.294.164.196.294.229.098.032 0 .032.164.032l.065-.097c.13-.164.163 0 .294-.229l.065-.098c0-.032.033-.032.033-.032a.4.4 0 0 1 .293-.196c.098.065.033.065.131.098 0-.033.033-.066.033-.098.13-.196.26-.098.293-.13.033-.066.033-.131.066-.196.13-.327.098-.098.098-.327 0-.065.032-.163.032-.228.13-.392.066-1.24.098-1.501.033-.13.066-.294.098-.457.065-.293.033-.75.098-1.044v-.033c.033-.065.098-.13-.033-.326-.13-.195-.098-.13-.26-.26-.131-.099-.131-.197-.23-.294-.064-.066-.097-.033-.162-.098l-.425-.294c-.293-.163-.032-.098-.228-.13-.098-.033-.13.032-.196.065-.294.163-.098.032-.261.26-.163.164-.098.066-.098.36m33.067 1.305c.032.065.065.033.098.098h-.066c-.13.065-.065.098-.065.13l-.065.555c-.066.261-.033.13-.163.13 0 .098 0 .098.032.131-.032.098 0 .065-.065.163-.098.13-.13.13-.163.294l-.098.424c-.033.065-.033.033-.033.065-.13.261-.261.783-.294 1.044l-.098.392-.098.522a2.2 2.2 0 0 0 0 .653c0 .195-.163.522-.13.783.032.228-.065.587-.098.815-.033.196.098.588.163.783l.163-.13c.164-.065.033-.13.229-.294l.098-.098c.032.066.032.13.065.196l.033.033c.065-.066.065-.066.098-.13l.065.097c.13-.13.196-.065.359-.13.098-.066.228-.164.196-.261.065 0 .065.13.163-.229l-.098-.032c.033-.098 0-.066.033-.13.065-.36.098-.131 0-.327l.098-.033.065-.424c.033-.13-.033-.13.065-.294 0 0 0-.032-.032 0l-.098-.098c0-.065.032-.097.032-.13.033-.098.098-.13.13-.228v-.033c.066-.163.034-.392.197-.522-.098-.033-.066 0-.13-.065.064-.098.032-.13.097-.229-.098-.065-.163.163-.065-.26.098.064.032.097.13.064.066-.032.033-.065.033-.163h-.033l-.098-.065.131-.033a.26.26 0 0 0-.13-.13c-.033-.033.032.098-.066-.033.066-.098.098-.065.196-.13.13-.098.033-.13.033-.163 0 0-.066 0 0-.098.065-.163.196-.033.032-.294.033-.065.066-.065.098-.163-.032-.033-.065-.033-.13-.098.326-.457.098-.424.163-.522.098-.163.098.065.13-.13-.032-.098 0-.033-.13-.033 0-.163.098-.13.033-.229h.163c0-.13-.033-.097-.066-.13l-.032-.033c.163-.032.13-.163.13-.26 0-.066 0 .032.033-.098-.13-.033-.098-.033-.163-.098.065-.13 0 0 .098-.098-.098-.033-.392-.392-.588-.49h-.032l-.262-.098c-.098-.032-.195.163-.293.294m-40.509 5.84c.13.066.293-.032.359-.163l-.164.066v-.033l-.098-.065c-.032.13-.065.098-.098.195m32.806 1.273c-.033-.065 0-.065-.098-.098-.033 0-.163 0-.229-.032.098.163.229.228.327.13m12.731 2.023c.033-.065 0 .065.033-.065.032-.098-.033-.13-.132-.13.033.13.033.13.099.195" fill="#fff"/></svg>