<svg width="102" height="92" fill="none" xmlns="http://www.w3.org/2000/svg"><path fill-rule="evenodd" clip-rule="evenodd" d="M51.86 11.291a2.2 2.2 0 0 0-1.1.29l-31.33 18.08a2.3 2.3 0 0 0-.81.81 2.2 2.2 0 0 0-.29 1.1v36.18c0 .384.103.76.3 1.09.19.337.466.617.8.81l31.33 18.08a2.17 2.17 0 0 0 2.2 0l31.33-18.08a2.15 2.15 0 0 0 .8-.81 2.2 2.2 0 0 0 .3-1.09v-36.18a2.2 2.2 0 0 0-.3-1.09 2.15 2.15 0 0 0-.8-.81l-31.32-18.09a2.26 2.26 0 0 0-1.11-.29" fill="#411600"/><path fill-rule="evenodd" clip-rule="evenodd" d="m59.341 71.17-.37 20.8h.4a14.8 14.8 0 0 0 14.07-13.63l7.72-3.86a17.47 17.47 0 0 0 7.86-23.25l-15.24 9.53.07-3.51h-2.33l16.38-7.92a24.63 24.63 0 0 0 11.15-32.94l-48 23.21-48-23.21-.21.43a24.62 24.62 0 0 0 11.35 32.52l16.38 7.91h-2.32l.06 3.51-15.23-9.52-.19.4a17.46 17.46 0 0 0 8 22.84l7.72 3.86a14.76 14.76 0 0 0 4.6 9.62c2.67 2.52 7.52 3.94 11.19 4V71.17l6.65-4zm-11.37-58.75-5.71-7.18-.12.6q-1.47 7.67.75 11.89l-17.43-8.74-.18.38a15.35 15.35 0 0 0 7.15 19.93l16.92 8.48.62 1.3 1-.5 1 .5.61-1.3 16.93-8.48a15.36 15.36 0 0 0 7-20.31l-17.44 8.74q2.29-4.38.62-12.49l-5.7 7.18-3-5.44z" fill="url(#prefix__a)"/><path fill-rule="evenodd" clip-rule="evenodd" d="M28.161 55.87v3.5l-15.24-9.52-.18.39a17.47 17.47 0 0 0 8 22.85l7.73 3.87a14.8 14.8 0 0 0 4.6 9.61c2.67 2.52 7.52 4 11.2 4V69.33l6.64-3.53 8.36 4-.38 20.76h.4a14.78 14.78 0 0 0 14.07-13.62l7.72-3.86a17.47 17.47 0 0 0 7.86-23.25l-15.24 9.53.06-3.51h-2.33l16.39-7.92a24.62 24.62 0 0 0 11.16-32.94l-48.07 23.2-47.94-23.15-.2.43A24.62 24.62 0 0 0 14.131 48l16.38 7.91zm14-51.35q-1.49 7.66.74 11.88l-17.43-8.73-.18.38a15.36 15.36 0 0 0 7.15 19.93l16.92 8.48.62 1.3 1-.5 1 .5.62-1.3 16.92-8.48a15.33 15.33 0 0 0 7-20.31l-17.45 8.73q2.31-4.38.63-12.48l-5.7 7.18-3-5.45-3 5.45-5.7-7.18z" fill="url(#prefix__b)"/><path fill-rule="evenodd" clip-rule="evenodd" d="m60.222 57.04 26.51-12.87a18.15 18.15 0 0 0 9.32-22l-42.45 21.34z" fill="url(#prefix__c)"/><path fill-rule="evenodd" clip-rule="evenodd" d="M6.54 22.19a18.34 18.34 0 0 0 9.53 21.93l26.58 12.89 6.62-13.49z" fill="url(#prefix__d)"/><path fill-rule="evenodd" clip-rule="evenodd" d="M18.33 30.26v36.19c0 .388.104.767.3 1.1.192.333.468.609.8.8l31.33 18.09a2.169 2.169 0 0 0 2.2 0l31.33-18.09a2.2 2.2 0 0 0 .8-.8 2.3 2.3 0 0 0 .3-1.1V30.26a2.25 2.25 0 0 0-1.1-1.91L52.97 10.26a2.26 2.26 0 0 0-1.1-.29 2.2 2.2 0 0 0-1.1.29l-31.33 18.1a2.2 2.2 0 0 0-.8.8 2.17 2.17 0 0 0-.31 1.1" fill="url(#prefix__e)"/><path fill-rule="evenodd" clip-rule="evenodd" d="M22.76 32.24a2.2 2.2 0 0 0-.29 1.1v30.89a2.16 2.16 0 0 0 1.1 1.9l26.76 15.45a2.26 2.26 0 0 0 1.1.29 2.2 2.2 0 0 0 1.1-.29L79.3 66.14a2.17 2.17 0 0 0 .81-.81 2.1 2.1 0 0 0 .29-1.1V33.34a2.2 2.2 0 0 0-.29-1.1 2.1 2.1 0 0 0-.81-.81L52.53 15.97a2.2 2.2 0 0 0-1.1-.29 2.26 2.26 0 0 0-1.1.29L23.57 31.42a2.25 2.25 0 0 0-.81.82" fill="url(#prefix__f)"/><path fill-rule="evenodd" clip-rule="evenodd" d="M80.4 64.23V33.34a2.2 2.2 0 0 0-.29-1.1 2.1 2.1 0 0 0-.81-.81L52.53 15.97a2.2 2.2 0 0 0-1.1-.29 2.26 2.26 0 0 0-1.1.29L23.57 31.42a2.25 2.25 0 0 0-.81.81 2.2 2.2 0 0 0-.29 1.1v30.89a2.16 2.16 0 0 0 1.1 1.9l26.76 15.45a2.26 2.26 0 0 0 1.1.29 2.2 2.2 0 0 0 1.1-.29L79.3 66.13a2.17 2.17 0 0 0 .81-.81c.195-.33.295-.706.29-1.09m-57.38.94a2 2 0 0 0 .7.7l26.76 15.45a2 2 0 0 0 1 .24 1.85 1.85 0 0 0 1-.25l26.77-15.43a2 2 0 0 0 .7-.7 1.83 1.83 0 0 0 .25-1V33.29a1.9 1.9 0 0 0-.25-.95 1.8 1.8 0 0 0-.7-.7L52.48 16.19a1.85 1.85 0 0 0-1-.25 1.94 1.94 0 0 0-1 .25L23.73 31.64a1.9 1.9 0 0 0-.7.7 1.8 1.8 0 0 0-.25.95v30.89c-.014.347.07.69.24.99" fill="url(#prefix__g)"/><path fill-rule="evenodd" clip-rule="evenodd" d="M50.78 77.33c.269.152.572.231.88.23.308 0 .611-.08.88-.23l23.57-13.61a1.84 1.84 0 0 0 .65-.65c.15-.268.23-.571.23-.88V34.97c0-.307-.08-.61-.23-.88a1.74 1.74 0 0 0-.65-.64L52.54 19.84a1.74 1.74 0 0 0-1.76 0L27.2 33.45c-.269.15-.49.371-.64.64a1.7 1.7 0 0 0-.24.88v27.22c0 .31.082.614.24.88.152.27.373.495.64.65z" fill="url(#prefix__h)"/><path fill-rule="evenodd" clip-rule="evenodd" d="m55.141 20.58 18.4 10.62.39.24c.13.08.25.17.37.26l.36.29.33.31.31.33c.1.12.2.23.29.35l.27.38.24.38.21.41c.07.13.13.27.19.41s.11.29.15.43.09.29.13.44.07.29.1.44 0 .3.07.45 0 .31 0 .46v22.61c0 .15 0 .3-.07.45s-.06.3-.1.44-.08.3-.13.44-.1.29-.15.43-.12.28-.19.41l-.21.41-.24.39-.27.37c-.09.12-.19.23-.29.35l-.31.33-.33.31-.36.29c-.12.09-.24.18-.37.26l-.39.24-18.4 10.62-.4.22-.41.2-.43.16-.43.14-.45.1-.45.08h-1.82l-.45-.08-.45-.1-.43-.14-.43-.16-.41-.2-.4-.22-18.4-10.62-.39-.24-.37-.26-.35-.29-.34-.31-.31-.33c-.1-.12-.2-.23-.29-.35l-.27-.37c-.08-.13-.16-.26-.23-.39s-.15-.27-.22-.41-.13-.27-.18-.41-.11-.29-.16-.43-.09-.29-.13-.44-.07-.29-.1-.44 0-.3-.07-.45 0-.31 0-.46V36.32c0-.16 0-.3.07-.45s.06-.29.1-.44.08-.29.13-.44.1-.29.16-.43.12-.28.18-.41l.22-.41c.07-.13.15-.26.23-.38l.27-.37.29-.36.31-.33.34-.31.35-.29.37-.26.39-.24 18.4-10.62.4-.22.41-.19.43-.16.43-.14.45-.11.45-.07.45-.05h.92l.45.05.45.07.45.11.43.14.43.16.41.19zm-12 20.17h3.3v23l5.26 5.64 5.26-5.64v-23h3.49q.095.015.19 0h.19l.18-.07.17-.08.17-.1.15-.11.14-.13.13-.15.12-.15.09-.16.09-.18.06-.18q.032-.087.05-.18v-.77a1 1 0 0 0-.05-.18l-.06-.19-.09-.17-.09-.16-.12-.16-.13-.14a1 1 0 0 0-.14-.13l-.15-.11-.17-.1-.17-.09-.18-.06h-7.17v-5.03l.13-.1.12-.11.11-.12.11-.12.1-.13.09-.13.09-.14.08-.14.14-.3.1-.3v-.32a1 1 0 0 0 0-.16 1 1 0 0 0 0-.16v-.33a1 1 0 0 0 0-.16 1 1 0 0 0 0-.16 1 1 0 0 0 0-.16v-.47l-.06-.16-.07-.14a1 1 0 0 0-.07-.15l-.08-.14-.09-.14-.09-.13-.1-.13-.11-.12-.11-.12-.12-.11-.13-.1-.13-.1-.13-.09-.14-.08-.15-.08-.14-.07-.15-.06h-2.23l-.15.06-.15.07-.14.08-.14.08-.14.09-.13.1-.12.1-.12.11-.11.12-.11.12q-.054.063-.1.13l-.1.13-.16.28-.08.15-.06.14-.06.16v.79a1 1 0 0 0 0 .16v.17a1 1 0 0 0 0 .16v.79l.06.15.06.15.08.15.16.28.1.13q.046.07.1.13l.11.12.11.12.12.11.12.1v4.82h-7.17l-.18.07-.17.08-.17.1-.15.11-.14.13-.13.14a1 1 0 0 0-.11.16 1.4 1.4 0 0 0-.1.16l-.09.18-.06.18q-.008.09 0 .18v.95q.028.093.07.18a1 1 0 0 0 .08.17l.1.17.11.15.13.14.14.13.16.11.16.1.18.08.18.07h.18a.6.6 0 0 0 .19 0z" fill="url(#prefix__i)"/><path fill-rule="evenodd" clip-rule="evenodd" d="M48.25 24.97c-.31-.47-2.89.69-5.76 2.61s-4.91 3.86-4.6 4.33 2.9-.69 5.76-2.6 4.93-3.88 4.6-4.34" fill="#fff" opacity=".6"/><path fill-rule="evenodd" clip-rule="evenodd" d="M74.25 36.05a1.64 1.64 0 0 0-.57-.57l-21-12a1.54 1.54 0 0 0-1.52 0l-21 12a1.56 1.56 0 0 0-.78 1.35v24.06c0 .275.073.544.21.78.135.24.332.437.57.57l21 12c.237.13.501.2.77.2.267.001.529-.068.76-.2l21-12a1.56 1.56 0 0 0 .78-1.35V36.83a1.55 1.55 0 0 0-.22-.78" fill="url(#prefix__j)"/><path fill-rule="evenodd" clip-rule="evenodd" d="M46.642 26.03c-.32-.47-2.17.21-4.14 1.53s-3.31 2.78-3 3.25 2.19-.21 4.15-1.53 3.32-2.77 2.99-3.25" fill="#fff" opacity=".6"/><path fill-rule="evenodd" clip-rule="evenodd" d="M45.151 27.03c-.26-.38-1.39-.07-2.53.69s-1.84 1.68-1.59 2.06 1.38.08 2.52-.68 1.85-1.69 1.6-2.07" fill="#fff" opacity=".6"/><path fill-rule="evenodd" clip-rule="evenodd" d="M44.63 27.37c-.25-.38-1.15-.22-2 .35s-1.33 1.34-1.08 1.72 1.16.23 2-.34 1.34-1.34 1.08-1.73" fill="#fff" opacity=".6"/><path fill-rule="evenodd" clip-rule="evenodd" d="M70.97 70.13c-.27-.5-2.94.43-6 2.08s-5.23 3.41-5 3.91 3-.43 6-2.08 5.31-3.4 5-3.91" fill="#fff"/><path fill-rule="evenodd" clip-rule="evenodd" d="M69.3 71.06c-.27-.5-2.18 0-4.26 1.15s-3.55 2.48-3.27 3 2.19 0 4.27-1.16 3.54-2.48 3.26-2.99" fill="#fff"/><path fill-rule="evenodd" clip-rule="evenodd" d="M67.7 71.97c-.22-.4-1.38-.19-2.58.46s-2 1.51-1.76 1.92 1.36.2 2.56-.46 2.05-1.57 1.78-1.92" fill="#fff"/><path fill-rule="evenodd" clip-rule="evenodd" d="M67.15 72.22c-.22-.41-1.12-.33-2 .16S63.7 73.6 63.92 74s1.14.33 2-.16 1.46-1.22 1.23-1.62" fill="#fff"/><path d="M66.971 57.97h-12.28l-1.19-1.36-.24 1.78-.29 2.17-.11.83h18a2.68 2.68 0 0 0 1.84-.7 2.93 2.93 0 0 0 1-1.74l.14-1 .92-6.57.42-3h-13.68l.44-3 .17-1.11h13.64v-.31l.42-3h-21.85l.51.53.68.7-.26 1.77-.68 4.84-.43 3h13.68l-.44 3zm-2.57-3.15h-8.43l.13.15h8.32zm-12.74-6.49-7.61 16.06h-7.25l-.07.15v-.15h-6.76l-4.18-21.19-3.52-5.18h15.41l1.5 7.77 3.8-7.77h36.66l-1.28 9.06-1.57 11.35-.16 1a6 6 0 0 1-1.94 3.52 5.6 5.6 0 0 1-3.83 1.45h-21.47l2-14.76zm-3.18-7.31h-3.6l-4.72 9.66-2.19 4.49-.94-4.9-1.79-9.25h-7.27l.69 1 .39 2 3.42 17.37h9.69l8.23-17.37.9-1.91.52-1.09z" fill="#680A0A"/><path fill-rule="evenodd" clip-rule="evenodd" d="M51.04.08s-6.16 6.32-8.32 11.61c2.3 5.23 8.66 11.24 8.66 11.24s6.18-6.18 8.35-11.48C57.39 6.23 51.04.08 51.04.08" fill="url(#prefix__k)"/><path fill-rule="evenodd" clip-rule="evenodd" d="m51.38 22.97.34-2.89a36 36 0 0 1-6.87-8.25 8 8 0 0 0-2.13-.1c2.34 5.24 8.66 11.24 8.66 11.24" fill="url(#prefix__l)" opacity=".5"/><path fill-rule="evenodd" clip-rule="evenodd" d="M58.46 11.52A23.8 23.8 0 0 0 51.32 3a25.2 25.2 0 0 0-6.43 8.83c1.79 3.78 6.87 8.25 6.87 8.25a39.6 39.6 0 0 0 6.7-8.56" fill="url(#prefix__m)"/><path fill-rule="evenodd" clip-rule="evenodd" d="M51.82 17.91a20.9 20.9 0 0 0 4.71-6.18 37.8 37.8 0 0 0-5-6.22c-2.3 2.65-4.81 6.36-4.81 6.36a16.6 16.6 0 0 0 5.1 6.04" fill="url(#prefix__n)"/><path fill-rule="evenodd" clip-rule="evenodd" d="M56.57 11.73a44 44 0 0 0-5.06-6.22 76 76 0 0 0-4.84 6.36z" fill="url(#prefix__o)"/><path fill-rule="evenodd" clip-rule="evenodd" d="m51.691 9.36-2 2.44 2 2.3 1.89-2.37z" fill="url(#prefix__p)"/><path fill-rule="evenodd" clip-rule="evenodd" d="m53.54 11.73-1.89 2.38v2.71l4.16-5.12z" fill="url(#prefix__q)"/><path fill-rule="evenodd" clip-rule="evenodd" d="m51.691 9.36 1.85 2.38h2.31l-4.23-5.05z" fill="url(#prefix__r)"/><path fill-rule="evenodd" clip-rule="evenodd" d="m47.39 11.83 4.3 5v-2.72l-2-2.3z" fill="url(#prefix__s)"/><path fill-rule="evenodd" clip-rule="evenodd" d="M47.39 11.84h2.27l2-2.44-.07-2.71z" fill="url(#prefix__t)"/><path fill-rule="evenodd" clip-rule="evenodd" d="M51.441 11.56c.24.58 1.93.75 1.41-.69l-.24-.31c-.93-.59-1.44.41-1.17 1" fill="url(#prefix__u)"/><defs><linearGradient id="prefix__a" x1=".401" y1="48.58" x2="101.571" y2="48.58" gradientUnits="userSpaceOnUse"><stop stop-color="#B4D6FF"/><stop offset="1" stop-color="#792F08"/></linearGradient><linearGradient id="prefix__b" x1="50.281" y1="80.05" x2="51.291" y2="3.91" gradientUnits="userSpaceOnUse"><stop stop-color="#B85033"/><stop offset=".14" stop-color="#B05F48"/><stop offset=".3" stop-color="#D96545"/><stop offset=".48" stop-color="#F77E5B"/><stop offset=".49" stop-color="#F27B57"/><stop offset="1" stop-color="#AB5315"/></linearGradient><linearGradient id="prefix__c" x1="75.281" y1="22.84" x2="75.281" y2="57.04" gradientUnits="userSpaceOnUse"><stop offset=".08" stop-color="#C91023"/><stop offset=".43" stop-color="#F7A66C"/><stop offset=".96" stop-color="#FEF1D4"/></linearGradient><linearGradient id="prefix__d" x1="27.491" y1="22.84" x2="27.491" y2="57.011" gradientUnits="userSpaceOnUse"><stop offset=".08" stop-color="#C91023"/><stop offset=".43" stop-color="#F7A66C"/><stop offset=".96" stop-color="#FEF1D4"/></linearGradient><linearGradient id="prefix__e" x1="51.57" y1="77.411" x2="52.24" y2="9.971" gradientUnits="userSpaceOnUse"><stop stop-color="#E5552F"/><stop offset=".14" stop-color="#E75A34"/><stop offset=".3" stop-color="#ED6843"/><stop offset=".48" stop-color="#F77E5B"/><stop offset=".49" stop-color="#F77F5C"/><stop offset="1" stop-color="#F7A66C"/></linearGradient><linearGradient id="prefix__f" x1="51.141" y1="81.871" x2="51.721" y2="16.411" gradientUnits="userSpaceOnUse"><stop stop-color="#F36134"/><stop offset="1" stop-color="#C40721"/></linearGradient><linearGradient id="prefix__g" x1="51.141" y1="15.691" x2="51.721" y2="81.871" gradientUnits="userSpaceOnUse"><stop stop-color="#B90A21"/><stop offset=".39" stop-color="#FF5733"/><stop offset="1" stop-color="#fff" stop-opacity="0"/></linearGradient><linearGradient id="prefix__h" x1="51.4" y1="77.561" x2="51.91" y2="20.241" gradientUnits="userSpaceOnUse"><stop stop-color="#F36134"/><stop offset="1" stop-color="#C40721"/></linearGradient><linearGradient id="prefix__i" x1="51.411" y1="19.631" x2="51.921" y2="76.091" gradientUnits="userSpaceOnUse"><stop stop-color="#FFE39B"/><stop offset=".05" stop-color="#E55C5D"/><stop offset="1" stop-color="#FFE39B" stop-opacity="0"/></linearGradient><linearGradient id="prefix__j" x1="51.681" y1="23.231" x2="52.141" y2="74.491" gradientUnits="userSpaceOnUse"><stop stop-color="#fff" stop-opacity=".4"/><stop offset=".16" stop-color="#fff" stop-opacity=".06"/><stop offset=".33" stop-color="#fff" stop-opacity="0"/></linearGradient><linearGradient id="prefix__k" x1="51.141" y1="22.93" x2="51.311" y2=".92" gradientUnits="userSpaceOnUse"><stop stop-color="#CA6B34"/><stop offset=".54" stop-color="#FFA933"/><stop offset=".75" stop-color="#FFAD31"/><stop offset=".94" stop-color="#FFB82D"/><stop offset="1" stop-color="#FFBD2B"/></linearGradient><linearGradient id="prefix__l" x1="42.671" y1="11.75" x2="50.201" y2="19.6" gradientUnits="userSpaceOnUse"><stop stop-color="#fff"/><stop offset=".44" stop-color="#ED8A1D"/><stop offset="1" stop-color="#B41E2D"/></linearGradient><linearGradient id="prefix__m" x1="51.601" y1="5.92" x2="51.731" y2="16.27" gradientUnits="userSpaceOnUse"><stop stop-color="#CA6B34"/><stop offset=".67" stop-color="#FFA933"/><stop offset="1" stop-color="#FFBD2B"/></linearGradient><linearGradient id="prefix__n" x1="51.541" y1="17.911" x2="51.641" y2="8.031" gradientUnits="userSpaceOnUse"><stop stop-color="#FFA933"/><stop offset=".33" stop-color="#FFC35A"/><stop offset=".78" stop-color="#FFE389"/><stop offset="1" stop-color="#FFEF9B"/></linearGradient><linearGradient id="prefix__o" x1="51.62" y1="11.731" x2="51.69" y2="7.311" gradientUnits="userSpaceOnUse"><stop stop-color="#D16509"/><stop offset="1" stop-color="#8D2C1B"/></linearGradient><linearGradient id="prefix__p" x1="52.571" y1="13.31" x2="51.061" y2="10.91" gradientUnits="userSpaceOnUse"><stop stop-color="#DE3C14"/><stop offset="1" stop-color="#DB0F0F"/></linearGradient><linearGradient id="prefix__q" x1="51.98" y1="12.19" x2="53.99" y2="14.53" gradientUnits="userSpaceOnUse"><stop stop-color="#B51818"/><stop offset=".23" stop-color="#BB1A19"/><stop offset=".55" stop-color="#CD211C"/><stop offset=".92" stop-color="#EB2C21"/><stop offset="1" stop-color="#F22F22"/></linearGradient><linearGradient id="prefix__r" x1="51.601" y1="11.181" x2="54.231" y2="8.71" gradientUnits="userSpaceOnUse"><stop stop-color="#B51818"/><stop offset=".23" stop-color="#BB1A19"/><stop offset=".55" stop-color="#CD211C"/><stop offset=".92" stop-color="#EB2C21"/><stop offset="1" stop-color="#F22F22"/></linearGradient><linearGradient id="prefix__s" x1="50.241" y1="13.421" x2="49.461" y2="14.431" gradientUnits="userSpaceOnUse"><stop stop-color="#B51818"/><stop offset=".23" stop-color="#BB1A19"/><stop offset=".55" stop-color="#CD211C"/><stop offset=".92" stop-color="#EB2C21"/><stop offset="1" stop-color="#F22F22"/></linearGradient><linearGradient id="prefix__t" x1="49.261" y1="9.02" x2="51.201" y2="10.82" gradientUnits="userSpaceOnUse"><stop stop-color="#B51818"/><stop offset=".23" stop-color="#BB1A19"/><stop offset=".55" stop-color="#CD211C"/><stop offset=".92" stop-color="#EB2C21"/><stop offset="1" stop-color="#F22F22"/></linearGradient><linearGradient id="prefix__u" x1="52.161" y1="10.381" x2="52.161" y2="11.991" gradientUnits="userSpaceOnUse"><stop stop-color="#fff"/><stop offset="1" stop-color="#FFF7C4"/></linearGradient></defs></svg>