<svg width="104" height="88" viewBox="0 0 104 88" fill="none" xmlns="http://www.w3.org/2000/svg">
<path fill-rule="evenodd" clip-rule="evenodd" d="M17.27 68.0503L51.56 87.6904C51.9219 87.8936 52.3299 88.0004 52.745 88.0004C53.16 88.0004 53.5681 87.8936 53.93 87.6904L88.22 68.0503C88.5848 67.8444 88.8883 67.5451 89.0992 67.183C89.3101 66.821 89.4208 66.4094 89.42 65.9904V60.9904L92.35 59.5503C94.1922 58.6585 95.8405 57.4124 97.201 55.8832C98.5614 54.3541 99.6072 52.5718 100.279 50.6384C100.95 48.7049 101.234 46.6581 101.114 44.6149C100.994 42.5717 100.473 40.5721 99.5799 38.7304L89.42 43.7304V41.2604L94.31 38.8904C96.1482 38.0069 97.7935 36.7686 99.1514 35.2468C100.509 33.7249 101.553 31.9496 102.222 30.023C102.891 28.0964 103.173 26.0564 103.05 24.0206C102.928 21.9847 102.405 19.9931 101.51 18.1603L88.16 24.6304L74.02 16.5403C75.354 14.406 76.1244 11.9681 76.2591 9.45476C76.3938 6.94144 75.8883 4.43499 74.79 2.17034L62.87 8.00042L65.12 5.30034C65.4084 4.94808 65.592 4.52191 65.65 4.07036C65.7007 3.62272 65.6281 3.16977 65.4399 2.76043C65.246 2.3543 64.9413 2.01116 64.561 1.77056C64.1806 1.52996 63.74 1.4017 63.29 1.40044H42.53C42.0674 1.39745 41.6142 1.53043 41.2266 1.78289C40.839 2.03535 40.5342 2.39608 40.35 2.82036C40.1648 3.24197 40.106 3.70826 40.1805 4.16265C40.2551 4.61704 40.4598 5.04007 40.77 5.38042L43.8799 8.78045L30.23 2.09038L30.05 2.4804C29.0231 4.7542 28.5864 7.25033 28.7804 9.73772C28.9744 12.2251 29.7929 14.6233 31.16 16.7104L16.65 25.0104L2.49999 18.1504L2.30999 18.5403C0.640573 22.2241 0.479128 26.415 1.86022 30.2162C3.24132 34.0175 6.05521 37.1274 9.69994 38.8804L16.0699 41.9804V44.4604L4.41998 38.7604L4.23998 39.1504C2.57322 42.8504 2.41485 47.0544 3.79852 50.8693C5.18218 54.6842 7.9988 57.8092 11.65 59.5804L16.0699 61.7504V65.9704C16.0691 66.3894 16.1798 66.801 16.3907 67.163C16.6016 67.525 16.9051 67.8245 17.27 68.0304V68.0503Z" fill="url(#paint0_linear_1234_39450)"/>
<path fill-rule="evenodd" clip-rule="evenodd" d="M94.31 37.49C96.1486 36.6055 97.7941 35.3663 99.152 33.8436C100.51 32.3208 101.554 30.5447 102.223 28.6172C102.892 26.6898 103.173 24.6491 103.051 22.6125C102.929 20.5759 102.405 18.5835 101.51 16.75L88.16 23.23L74.02 15.1301C75.3549 12.9979 76.1259 10.5614 76.2606 8.04949C76.3952 5.53756 75.8892 3.03271 74.79 0.770069L62.87 6.60003L65.12 3.90007C65.4023 3.54796 65.5853 3.12664 65.65 2.67998C65.7016 2.22907 65.6289 1.77267 65.4399 1.36003C65.246 0.953907 64.9413 0.610765 64.561 0.370167C64.1806 0.129568 63.74 0.00130514 63.29 4.93751e-05H42.53C42.0674 -0.00294183 41.6142 0.130035 41.2266 0.382496C40.839 0.634956 40.5342 0.99569 40.35 1.41997C40.1689 1.84188 40.11 2.30629 40.18 2.76006C40.2583 3.21108 40.4628 3.63061 40.77 3.97002L43.8799 7.38005L30.23 0.689991L30.05 1.08001C29.0231 3.35555 28.5865 5.85325 28.7805 8.34221C28.9745 10.8312 29.7929 13.2311 31.16 15.32L16.65 23.62L2.49999 16.75L2.30999 17.1501C0.640573 20.8338 0.479128 25.0246 1.86022 28.8259C3.24132 32.6271 6.05521 35.737 9.69994 37.49L16.0699 40.58V43.05L4.41998 37.35L4.23998 37.74C2.56752 41.4408 2.40611 45.6483 3.79021 49.4662C5.17432 53.2842 7.9945 56.4107 11.65 58.18L16.0699 60.34V64.57C16.0691 64.989 16.1798 65.4007 16.3907 65.7627C16.6016 66.1248 16.9051 66.4241 17.27 66.6301L51.56 86.2701C51.9219 86.4733 52.3299 86.58 52.745 86.58C53.16 86.58 53.5681 86.4733 53.93 86.2701L88.22 66.6301C88.5848 66.4241 88.8883 66.1248 89.0992 65.7627C89.3101 65.4007 89.4208 64.989 89.42 64.57V59.62L92.35 58.18C94.1925 57.2871 95.8411 56.04 97.2017 54.5099C98.5622 52.9799 99.608 51.1968 100.279 49.2625C100.951 47.3282 101.235 45.2807 101.115 43.2367C100.995 41.1928 100.473 39.1924 99.5799 37.35L89.42 42.35V39.8801L94.31 37.49Z" fill="url(#paint1_linear_1234_39450)"/>
<path fill-rule="evenodd" clip-rule="evenodd" d="M83.1807 62.5408C83.3909 62.1794 83.5013 61.7688 83.5007 61.3508V27.9708C83.499 27.5531 83.3887 27.1431 83.1807 26.7809C82.9729 26.4215 82.6725 26.1244 82.3107 25.9208L53.4107 9.23083C53.0511 9.02085 52.6421 8.91016 52.2257 8.91016C51.8093 8.91016 51.4003 9.02085 51.0407 9.23083L22.1407 25.9708C21.779 26.1745 21.4785 26.4715 21.2707 26.8308C21.0779 27.1801 20.9748 27.5718 20.9707 27.9708V61.3408C20.9701 61.7588 21.0805 62.1696 21.2907 62.5309C21.5009 62.891 21.8006 63.1907 22.1607 63.4009L51.0607 80.0908C51.4203 80.3008 51.8293 80.4115 52.2457 80.4115C52.6622 80.4115 53.0711 80.3008 53.4307 80.0908L82.3307 63.4009C82.6822 63.1908 82.9747 62.8947 83.1807 62.5408Z" fill="url(#paint2_linear_1234_39450)"/>
<path fill-rule="evenodd" clip-rule="evenodd" d="M83.5012 61.3508C83.5018 61.7688 83.3914 62.1794 83.1812 62.5408C82.971 62.9009 82.6713 63.2006 82.3112 63.4108L53.4112 80.1008C53.0516 80.3108 52.6426 80.4215 52.2262 80.4215C51.8098 80.4215 51.4008 80.3108 51.0412 80.1008L22.1412 63.4108C21.7811 63.2006 21.4814 62.9009 21.2712 62.5408C21.061 62.1794 20.9506 61.7688 20.9512 61.3508V27.9708C20.9529 27.5531 21.0632 27.1431 21.2712 26.7809C21.479 26.4215 21.7795 26.1244 22.1412 25.9208L51.0412 9.23083C51.4008 9.02085 51.8098 8.91016 52.2262 8.91016C52.6426 8.91016 53.0516 9.02085 53.4112 9.23083L82.3112 25.9208C82.6729 26.1244 82.9734 26.4215 83.1812 26.7809C83.3892 27.1431 83.4995 27.5531 83.5012 27.9708V61.3508ZM83.2012 61.3508C83.1975 61.703 83.101 62.048 82.9212 62.3508C82.742 62.6688 82.4791 62.9316 82.1612 63.1108L53.2612 79.8008C52.9583 79.9805 52.6133 80.0772 52.2612 80.0808C51.9095 80.074 51.5653 79.9776 51.2612 79.8008L22.3612 63.1108C22.0448 62.9296 21.7824 62.6672 21.6012 62.3508C21.4256 62.0462 21.3293 61.7023 21.3212 61.3508V27.9708C21.3276 27.6191 21.424 27.2748 21.6012 26.9708C21.7819 26.6566 22.0446 26.3973 22.3612 26.2208L51.2612 9.53088C51.5752 9.34722 51.9324 9.25037 52.2962 9.25037C52.66 9.25037 53.0172 9.34722 53.3312 9.53088L82.2412 26.2208C82.549 26.4067 82.8031 26.6694 82.9784 26.9833C83.1537 27.2971 83.2443 27.6514 83.2412 28.0109L83.2012 61.3508Z" fill="url(#paint3_linear_1234_39450)"/>
<path fill-rule="evenodd" clip-rule="evenodd" d="M25.1803 60.7602L51.0503 75.4802C51.3368 75.6433 51.6606 75.7294 51.9903 75.7302C52.3198 75.7281 52.6433 75.642 52.9303 75.4802L78.7903 60.7602C79.0841 60.5965 79.3265 60.354 79.4903 60.0602C79.6594 59.7721 79.7491 59.4443 79.7503 59.1102V29.7302C79.7493 29.3903 79.6557 29.057 79.4795 28.7662C79.3033 28.4755 79.0512 28.2383 78.7503 28.0802L52.9703 13.3702C52.685 13.2041 52.3603 13.1177 52.0303 13.1202C51.7032 13.1165 51.3814 13.203 51.1003 13.3702L25.2203 28.0702C24.932 28.2412 24.6912 28.4819 24.5203 28.7703C24.3424 29.073 24.2523 29.4192 24.2602 29.7703V59.1503C24.2675 59.4888 24.3638 59.8195 24.5393 60.1091C24.7148 60.3987 24.9634 60.6371 25.2602 60.8002L25.1803 60.7602Z" fill="url(#paint4_linear_1234_39450)"/>
<g opacity="0.6">
<path fill-rule="evenodd" clip-rule="evenodd" d="M47.8713 18.8209C47.5213 18.3109 44.7513 19.561 41.6813 21.621C38.6113 23.681 36.3813 25.7709 36.6813 26.2909C36.9813 26.8109 39.8013 25.551 42.8813 23.481C45.9613 21.411 48.2113 19.3409 47.8713 18.8209Z" fill="white"/>
</g>
<path fill-rule="evenodd" clip-rule="evenodd" d="M50.9705 71.8503C51.2198 71.9942 51.5026 72.07 51.7905 72.07C52.0784 72.07 52.3612 71.9942 52.6105 71.8503L75.1805 58.9102C75.4379 58.7647 75.6492 58.5499 75.7905 58.2902C75.942 58.0363 76.0214 57.7459 76.0205 57.4503V31.6103C76.0189 31.3131 75.9433 31.021 75.8005 30.7603C75.6492 30.5075 75.4358 30.2976 75.1805 30.1503L52.6105 17.2103C52.3624 17.0635 52.0788 16.9875 51.7905 16.9903C51.5024 16.9885 51.2191 17.0644 50.9705 17.2103L28.4005 30.1503C28.1453 30.2976 27.9319 30.5075 27.7805 30.7603C27.6378 31.021 27.5622 31.3131 27.5605 31.6103V57.4503C27.5608 57.7445 27.6365 58.0337 27.7805 58.2902C27.9287 58.5481 28.1426 58.7621 28.4005 58.9102L50.9705 71.8503Z" fill="url(#paint5_linear_1234_39450)"/>
<g opacity="0.6">
<path fill-rule="evenodd" clip-rule="evenodd" d="M46.1207 19.9702C45.7707 19.4602 43.7907 20.1902 41.6707 21.6002C39.5507 23.0102 38.1307 24.6002 38.4807 25.0902C38.8307 25.5802 40.8107 24.8802 42.9207 23.4602C45.0307 22.0402 46.4607 20.5102 46.1207 19.9702Z" fill="white"/>
</g>
<g opacity="0.6">
<path fill-rule="evenodd" clip-rule="evenodd" d="M44.5104 21.0706C44.2404 20.6606 43.0205 20.9906 41.8005 21.8106C40.5805 22.6306 39.8004 23.6306 40.0804 24.0406C40.3604 24.4506 41.5805 24.1206 42.8005 23.3006C44.0205 22.4806 44.7904 21.4806 44.5104 21.0706Z" fill="white"/>
</g>
<g opacity="0.6">
<path fill-rule="evenodd" clip-rule="evenodd" d="M43.9712 21.4507C43.6912 21.0407 42.7312 21.2007 41.8212 21.8107C40.9112 22.4207 40.3912 23.2507 40.6612 23.6607C40.9312 24.0707 41.9012 23.9107 42.8112 23.3007C43.7212 22.6907 44.2312 21.8607 43.9712 21.4507Z" fill="white"/>
</g>
<path fill-rule="evenodd" clip-rule="evenodd" d="M73.0901 68.5302C72.7901 67.9902 69.9201 68.9902 66.6701 70.7702C63.4201 72.5502 61.0301 74.4301 61.3301 74.9801C61.6301 75.5301 64.5002 74.5201 67.7502 72.7301C71.0002 70.9401 73.3901 69.0802 73.0901 68.5302Z" fill="white"/>
<path fill-rule="evenodd" clip-rule="evenodd" d="M71.2415 69.5401C70.9515 69.0001 68.9015 69.5402 66.6715 70.7702C64.4415 72.0002 62.8815 73.4201 63.1815 73.9601C63.4815 74.5001 65.5215 73.9601 67.7515 72.7301C69.9815 71.5001 71.5415 70.0901 71.2415 69.5401Z" fill="white"/>
<path fill-rule="evenodd" clip-rule="evenodd" d="M69.5503 70.4705C69.3103 70.0405 68.0702 70.2605 66.7802 70.9705C65.4902 71.6805 64.6303 72.6006 64.8703 73.0306C65.1103 73.4606 66.3502 73.2504 67.6402 72.5404C68.9302 71.8304 69.7903 70.9105 69.5503 70.4705Z" fill="white"/>
<path fill-rule="evenodd" clip-rule="evenodd" d="M68.9706 70.8001C68.7406 70.3701 67.7607 70.4402 66.8007 70.9702C65.8407 71.5002 65.2407 72.2802 65.4807 72.7102C65.7207 73.1402 66.6906 73.0701 67.6606 72.5401C68.6306 72.0101 69.1906 71.2301 68.9706 70.8001Z" fill="white"/>
<path fill-rule="evenodd" clip-rule="evenodd" d="M55.2604 15.9706L73.8204 26.6805L74.2104 26.9205L74.5904 27.1805L74.9504 27.4706L75.2804 27.7905L75.6004 28.1206L75.8904 28.4806L76.1604 28.8506L76.4004 29.2406L76.6204 29.6506L76.8004 30.0706C76.8604 30.2106 76.9104 30.3606 76.9604 30.5006C77.0104 30.6406 77.0504 30.7906 77.0904 30.9406C77.1304 31.0906 77.1604 31.2406 77.1904 31.3906C77.2204 31.5406 77.1904 31.7006 77.2604 31.8506C77.3304 32.0006 77.2604 32.1505 77.2604 32.3105C77.2604 32.4705 77.2604 32.6106 77.2604 32.7706V54.2006C77.2604 54.3506 77.2604 54.5105 77.2604 54.6605C77.2604 54.8105 77.2604 54.9706 77.2604 55.1206C77.2604 55.2706 77.2604 55.4206 77.1904 55.5706C77.1204 55.7206 77.1304 55.8706 77.0904 56.0206C77.0504 56.1706 77.0104 56.3206 76.9604 56.4606C76.9104 56.6006 76.8604 56.7506 76.8004 56.9006L76.6204 57.3206C76.5504 57.4506 76.4804 57.5906 76.4004 57.7206C76.3204 57.8506 76.2404 57.9906 76.1604 58.1106L75.8904 58.4906C75.8004 58.6106 75.7004 58.7306 75.6004 58.8406C75.5004 58.9506 75.3904 59.0705 75.2804 59.1805L74.9504 59.4906L74.5904 59.7806L74.2104 60.0505L73.8204 60.2905L55.2604 71.0106L54.8504 71.2306L54.4404 71.4205L54.0104 71.5906L53.5704 71.7306L53.1204 71.8306C52.9689 71.8669 52.8153 71.8936 52.6604 71.9105H52.2004H51.2804H50.8204C50.6688 71.8936 50.5185 71.8669 50.3704 71.8306L49.9204 71.7306L49.4804 71.5906L49.0504 71.4205L48.6304 71.2306L48.2304 71.0106L29.6704 60.2905L29.2704 60.0505L28.9004 59.7806L28.5404 59.4906L28.2004 59.1805C28.1004 59.0705 27.9904 58.9606 27.8904 58.8406C27.7904 58.7206 27.6904 58.6106 27.6004 58.4906C27.5015 58.3705 27.4112 58.2435 27.3304 58.1106C27.2388 57.9881 27.1585 57.8575 27.0904 57.7206C27.0104 57.5906 26.9404 57.4506 26.8704 57.3206C26.8004 57.1906 26.7404 57.0406 26.6804 56.9006C26.6204 56.7606 26.5704 56.6106 26.5204 56.4606C26.4704 56.3106 26.4304 56.1706 26.3904 56.0206C26.3504 55.8706 26.3204 55.7206 26.3004 55.5706C26.2673 55.4222 26.2439 55.272 26.2304 55.1206C26.2205 54.9674 26.2205 54.8137 26.2304 54.6605C26.2304 54.5105 26.2304 54.3506 26.2304 54.2006V32.7706C26.2304 32.6106 26.2304 32.4605 26.2304 32.3105C26.2201 32.1574 26.2201 32.0037 26.2304 31.8506C26.2439 31.6959 26.2673 31.5423 26.3004 31.3906C26.3004 31.2406 26.3604 31.0906 26.3904 30.9406C26.4204 30.7906 26.4804 30.6506 26.5204 30.5006L26.6804 30.0706C26.7404 29.9306 26.8004 29.7906 26.8704 29.6506L27.0904 29.2406C27.1631 29.1062 27.2432 28.976 27.3304 28.8506C27.4114 28.7209 27.5016 28.5973 27.6004 28.4806L27.8904 28.1206L28.2004 27.7905L28.5404 27.4706L28.9004 27.1805L29.2704 26.9205L29.6704 26.6805L48.2304 15.9706L48.6304 15.7406L49.0504 15.5505L49.4804 15.3806L49.9204 15.2406L50.3704 15.1406L50.8204 15.0605H51.2804H52.2004H52.6604L53.1204 15.1406L53.5704 15.2406L54.0104 15.3806L54.4404 15.5505L54.8504 15.7406L55.2604 15.9706ZM43.1104 36.3105H46.4404V59.4706L51.7504 65.1605L57.0504 59.4706V36.2905H60.5704H60.7604H60.9504L61.1404 36.2206L61.3104 36.1406L61.4804 36.0405L61.6304 35.9205C61.7269 35.8373 61.8172 35.7472 61.9004 35.6506C61.9434 35.6031 61.9835 35.553 62.0204 35.5006L62.1204 35.3306C62.1512 35.2725 62.1779 35.2124 62.2004 35.1506C62.228 35.0924 62.2514 35.0322 62.2704 34.9706C62.2704 34.9106 62.2704 34.8506 62.3204 34.7806V34.5906V34.2006V34.0106C62.3204 33.9506 62.3204 33.8906 62.2704 33.8206C62.2514 33.759 62.228 33.6989 62.2004 33.6406C62.1798 33.5813 62.153 33.5243 62.1204 33.4706L62.0204 33.3005C61.9835 33.2481 61.9434 33.1982 61.9004 33.1506L61.7704 33.0006L61.6304 32.8706L61.4804 32.7606L61.3104 32.6605L61.1404 32.5706L60.9504 32.5106H60.7604H60.5704H53.7204V27.6605L53.8504 27.5605L53.9704 27.4506L54.0804 27.3306L54.1904 27.2106L54.2904 27.0806L54.3904 26.9406L54.4804 26.8105C54.5031 26.7585 54.5299 26.7084 54.5604 26.6605L54.6304 26.5206L54.7004 26.3706C54.7046 26.3174 54.7046 26.2638 54.7004 26.2106C54.7215 26.1622 54.7383 26.1119 54.7504 26.0605C54.7504 26.0005 54.7504 25.9506 54.7504 25.9006V25.7406C54.7552 25.684 54.7552 25.6271 54.7504 25.5706C54.7559 25.5174 54.7559 25.4637 54.7504 25.4105C54.7554 25.3573 54.7554 25.3038 54.7504 25.2506V24.9706C54.7554 24.9174 54.7554 24.8638 54.7504 24.8105C54.7504 24.8105 54.7504 24.7006 54.7504 24.6506V24.4806V24.3206C54.7504 24.3206 54.7504 24.2205 54.7504 24.1605C54.7004 24.0105 54.7004 24.0106 54.6504 23.8606C54.631 23.8088 54.6075 23.7587 54.5804 23.7106L54.5104 23.5605L54.4304 23.4205L54.3404 23.2806L54.2404 23.1406L54.1404 23.0106L54.0304 22.8906L53.9204 22.7706L53.8004 22.6605L53.6704 22.5605L53.5404 22.4606L53.4104 22.3706L53.2604 22.2806L53.1204 22.2106L52.9704 22.1406L52.8204 22.0706H52.6604H52.5104H52.3504H52.1904H52.0204H51.8604H51.5304H51.3704H51.2104H51.0404H50.8804H50.7304H50.5704L50.4204 22.1406L50.2704 22.2106L50.1304 22.2806L49.9904 22.3706L49.8504 22.4606L49.7204 22.5605L49.5904 22.6605L49.4704 22.7706L49.3604 22.8906L49.2504 23.0106L49.1504 23.1406L49.0504 23.2806C49.0179 23.3237 48.991 23.3707 48.9704 23.4205L48.8804 23.5605L48.8104 23.7106L48.7404 23.8606C48.6904 24.0106 48.6904 24.0106 48.6404 24.1606C48.6404 24.2206 48.6404 24.2706 48.5904 24.3206V24.4806C48.5856 24.5372 48.5856 24.5941 48.5904 24.6506C48.5855 24.7039 48.5855 24.7573 48.5904 24.8105C48.5904 24.8105 48.5904 24.9206 48.5904 24.9706V25.1406C48.5904 25.1406 48.5904 25.2505 48.5904 25.3005C48.5849 25.3537 48.5849 25.4074 48.5904 25.4606C48.5856 25.5171 48.5856 25.5741 48.5904 25.6306C48.6304 25.7907 48.6304 25.7907 48.6703 25.9507C48.6661 26.0005 48.6661 26.0507 48.6704 26.1006C48.6826 26.1552 48.6993 26.2088 48.7204 26.2606C48.7478 26.3086 48.7712 26.3587 48.7904 26.4105L48.8604 26.5505L48.9504 26.7006L49.0304 26.8306L49.1304 26.9706C49.1661 27.012 49.1995 27.0554 49.2304 27.1006L49.3404 27.2206L49.4504 27.3406L49.5704 27.4506L49.7004 27.5505V32.4105H42.8404H42.6504H42.4604L42.2804 32.4806L42.1104 32.5605C42.0506 32.5882 41.9936 32.6217 41.9404 32.6605L41.7804 32.7706L41.6404 32.9006L41.5104 33.0505L41.4004 33.2006L41.3004 33.3706L41.2104 33.5405L41.1504 33.7306C41.1459 33.7905 41.1459 33.8506 41.1504 33.9105V34.1106C41.1504 34.1706 41.1504 34.2405 41.1504 34.3005C41.1504 34.3605 41.1504 34.4306 41.1504 34.4906V34.6805C41.1446 34.7437 41.1446 34.8074 41.1504 34.8706C41.1694 34.9322 41.1928 34.9923 41.2204 35.0505C41.2429 35.1123 41.2696 35.1725 41.3004 35.2306C41.3301 35.2861 41.3635 35.3396 41.4004 35.3906C41.4372 35.4463 41.4772 35.4996 41.5204 35.5505L41.6504 35.6906L41.7904 35.8206L41.9404 35.9305L42.1104 36.0306L42.2804 36.1106L42.4704 36.1805H42.6504H42.8404C42.924 36.244 43.0146 36.2977 43.1104 36.3406V36.3105Z" fill="url(#paint6_linear_1234_39450)"/>
<path d="M67.5007 50.9708L67.1407 53.4408H53.4907L53.4307 53.8608L52.9907 56.8608H71.0607C71.7383 56.8485 72.3894 56.5951 72.897 56.1461C73.4047 55.6971 73.7357 55.0818 73.8307 54.4108L75.9707 39.4108L76.3907 36.4108H55.8707V36.7908L55.6407 38.4708L55.4507 39.7908H69.1307L68.7007 42.7908L68.4507 44.5808H56.0907L56.0307 45.0009L55.6207 48.0009H67.9707L67.5007 50.9708ZM53.2107 43.4608L45.4407 59.8608H38.2007L38.1207 60.0109V59.8608H31.4107L27.2407 38.6708L23.7207 33.4908H39.1307L40.6307 41.2609L44.4307 33.4908H53.2607V33.3809H79.8507L76.8507 54.8308C76.6518 56.2137 75.9629 57.4793 74.9094 58.397C73.8559 59.3147 72.5079 59.8235 71.1107 59.8308H49.5207L50.9007 50.4108H52.2507L53.2107 43.4608ZM49.8707 36.4608H46.2807L41.5607 46.1208L39.3707 50.6008L38.4207 45.7108L36.6307 36.4608H29.3607L30.0407 37.4608L30.4407 39.4608L33.8607 56.8308H43.5407L51.7707 39.4608L52.6807 37.5408L53.1907 36.4608H49.8707Z" fill="#344E66"/>
<defs>
<linearGradient id="paint0_linear_1234_39450" x1="51.72" y1="1.43044" x2="52.74" y2="87.3004" gradientUnits="userSpaceOnUse">
<stop stop-color="#577990"/>
<stop offset="1" stop-color="#132431"/>
</linearGradient>
<linearGradient id="paint1_linear_1234_39450" x1="51.72" y1="0.0100493" x2="52.74" y2="85.6" gradientUnits="userSpaceOnUse">
<stop stop-color="#9FC4D0"/>
<stop offset="0.44" stop-color="#DEF7FF"/>
<stop offset="0.74" stop-color="#65899C"/>
<stop offset="1" stop-color="#2B3846"/>
</linearGradient>
<linearGradient id="paint2_linear_1234_39450" x1="51.9207" y1="10.5308" x2="52.5407" y2="80.4409" gradientUnits="userSpaceOnUse">
<stop stop-color="#324D65"/>
<stop offset="0.43" stop-color="#709AB6"/>
<stop offset="1" stop-color="#D6F2FD"/>
</linearGradient>
<linearGradient id="paint3_linear_1234_39450" x1="51.9112" y1="8.9308" x2="52.5412" y2="80.4209" gradientUnits="userSpaceOnUse">
<stop stop-color="#374553"/>
<stop offset="0.51" stop-color="#C2E5EE"/>
<stop offset="1" stop-color="#F0FAFF"/>
</linearGradient>
<linearGradient id="paint4_linear_1234_39450" x1="51.6903" y1="13.1302" x2="52.2503" y2="73.9002" gradientUnits="userSpaceOnUse">
<stop stop-color="#D3F7FF"/>
<stop offset="1" stop-color="#325265"/>
</linearGradient>
<linearGradient id="paint5_linear_1234_39450" x1="51.5605" y1="16.9903" x2="52.0405" y2="72.0703" gradientUnits="userSpaceOnUse">
<stop stop-color="white" stop-opacity="0.4"/>
<stop offset="0.16" stop-color="white" stop-opacity="0.06"/>
<stop offset="0.33" stop-color="white" stop-opacity="0"/>
</linearGradient>
<linearGradient id="paint6_linear_1234_39450" x1="51.4904" y1="15.0305" x2="52.0004" y2="72.0005" gradientUnits="userSpaceOnUse">
<stop stop-color="white" stop-opacity="0.6"/>
<stop offset="0.11" stop-color="white" stop-opacity="0.6"/>
<stop offset="1" stop-color="white" stop-opacity="0"/>
</linearGradient>
</defs>
</svg>
