<svg width="102" height="92" viewBox="0 0 102 92" fill="none" xmlns="http://www.w3.org/2000/svg">
<path fill-rule="evenodd" clip-rule="evenodd" d="M51.8601 11.291C51.4744 11.2896 51.095 11.3896 50.7601 11.581L19.4301 29.661C19.0969 29.8594 18.8185 30.1378 18.6201 30.471C18.4287 30.8059 18.3287 31.1852 18.3301 31.571V67.7511C18.3291 68.1349 18.4329 68.5117 18.6301 68.841C18.8192 69.178 19.0955 69.4579 19.4301 69.6511L50.7601 87.731C51.0925 87.9296 51.4729 88.0334 51.8601 88.0311C52.247 88.0309 52.6267 87.9273 52.9601 87.731L84.2901 69.6511C84.6247 69.4579 84.9011 69.178 85.0901 68.841C85.2829 68.5098 85.3863 68.1343 85.3902 67.7511V31.571C85.3863 31.1878 85.2829 30.8122 85.0901 30.481C84.9011 30.1441 84.6247 29.8642 84.2901 29.671L52.9701 11.581C52.6312 11.3905 52.2489 11.2906 51.8601 11.291Z" fill="#411600"/>
<path fill-rule="evenodd" clip-rule="evenodd" d="M59.3414 71.1702L58.9714 91.9702H59.3714C62.9749 91.8033 66.3932 90.3261 68.9841 87.8162C71.575 85.3063 73.1601 81.9365 73.4414 78.3402L81.1614 74.4802C85.265 72.4164 88.3907 68.8193 89.8618 64.4679C91.3329 60.1165 91.031 55.3607 89.0215 51.2302L73.7815 60.7603L73.8514 57.2502H71.5215L87.9015 49.3302C93.7406 46.4327 98.1929 41.3386 100.283 35.1642C102.373 28.9898 101.93 22.2387 99.0514 16.3902L51.0514 39.6002L3.05137 16.3902L2.84141 16.8202C0.105358 22.6484 -0.238708 29.3165 1.88292 35.3954C4.00454 41.4743 8.423 46.4802 14.1914 49.3402L30.5714 57.2502H28.2514L28.3114 60.7603L13.0814 51.2402L12.8915 51.6403C11.0158 55.7434 10.8011 60.4132 12.2925 64.671C13.7838 68.9289 16.8655 72.4442 20.8915 74.4802L28.6114 78.3402C28.8924 82.0081 30.5329 85.4388 33.2114 87.9602C35.8814 90.4802 40.7315 91.9002 44.4015 91.9602V71.1702L51.0514 67.1702L59.3414 71.1702ZM47.9714 12.4202L42.2615 5.24023L42.1415 5.84021C41.1615 10.9535 41.4115 14.9169 42.8915 17.7302L25.4614 8.99023L25.2815 9.37024C23.6863 12.9749 23.539 17.055 24.8701 20.7653C26.2012 24.4756 28.9086 27.5316 32.4314 29.3002L49.3514 37.7803L49.9714 39.0802L50.9714 38.5802L51.9714 39.0802L52.5814 37.7803L69.5115 29.3002C73.1014 27.5015 75.8442 24.3687 77.1526 20.5725C78.4609 16.7764 78.2308 12.6188 76.5115 8.99023L59.0714 17.7302C60.5981 14.8102 60.8047 10.6469 59.6914 5.24023L53.9914 12.4202L50.9914 6.98022L47.9714 12.4202Z" fill="url(#paint0_linear_1234_39375)"/>
<path fill-rule="evenodd" clip-rule="evenodd" d="M28.161 55.8699V59.3699L12.921 49.8499L12.741 50.2399C10.8649 54.3445 10.6499 59.0158 12.1412 63.2753C13.6325 67.5348 16.7144 71.052 20.741 73.0899L28.471 76.9599C28.7573 80.6235 30.3971 84.0492 33.071 86.5699C35.741 89.0899 40.5911 90.5699 44.2711 90.5699V69.3299L50.911 65.7999L59.2711 69.7999L58.8911 90.5599H59.291C62.8942 90.3974 66.3137 88.923 68.9052 86.4144C71.4968 83.9057 73.0816 80.5359 73.361 76.9399L81.081 73.0799C85.1846 71.016 88.3103 67.419 89.7813 63.0676C91.2524 58.7161 90.9505 53.9604 88.941 49.8299L73.701 59.3599L73.7611 55.8499H71.431L87.821 47.9299C93.6638 45.0361 98.1202 39.943 100.212 33.7676C102.305 27.5923 101.862 20.8392 98.981 14.9899L50.911 38.1899L2.97103 15.0399L2.77108 15.4699C0.0326405 21.3004 -0.311633 27.972 1.81209 34.0534C3.93582 40.1348 8.35837 45.1417 14.1311 47.9999L30.5111 55.9099L28.161 55.8699ZM42.161 4.5199C41.1676 9.62656 41.4144 13.5866 42.9011 16.3999L25.471 7.66992L25.291 8.04993C23.6984 11.6549 23.5524 15.7341 24.8833 19.4437C26.2141 23.1533 28.9199 26.2095 32.441 27.9799L49.361 36.4599L49.981 37.7599L50.981 37.2599L51.981 37.7599L52.601 36.4599L69.5211 27.9799C73.1165 26.1871 75.8644 23.0545 77.1735 19.2561C78.4827 15.4577 78.2484 11.2973 76.5211 7.66992L59.071 16.3999C60.611 13.4799 60.821 9.31992 59.701 3.91992L54.0011 11.0999L51.0011 5.6499L48.0011 11.0999L42.301 3.91992L42.161 4.5199Z" fill="url(#paint1_linear_1234_39375)"/>
<path fill-rule="evenodd" clip-rule="evenodd" d="M60.2216 57.0399L86.7316 44.1699C90.6848 42.2522 93.8082 38.9655 95.5221 34.9197C97.236 30.874 97.4241 26.3439 96.0515 22.1699L53.6016 43.5099L60.2216 57.0399Z" fill="url(#paint2_linear_1234_39375)"/>
<path fill-rule="evenodd" clip-rule="evenodd" d="M6.5405 22.1904C5.24351 26.3814 5.49183 30.8985 7.24033 34.9221C8.98884 38.9457 12.1217 42.2092 16.0705 44.1205L42.6506 57.0105L49.2706 43.5205L6.5405 22.1904Z" fill="url(#paint3_linear_1234_39375)"/>
<path fill-rule="evenodd" clip-rule="evenodd" d="M18.3301 30.2608V66.4507C18.3302 66.8376 18.4339 67.2173 18.6301 67.5507C18.8221 67.8828 19.0979 68.1587 19.4301 68.3507L50.7601 86.4407C51.0925 86.6393 51.4729 86.7431 51.8601 86.7407C52.247 86.7406 52.6267 86.637 52.9601 86.4407L84.29 68.3507C84.6222 68.1587 84.8981 67.8828 85.0901 67.5507C85.282 67.2155 85.3854 66.8369 85.3901 66.4507V30.2608C85.386 29.8748 85.2826 29.4963 85.09 29.1618C84.8973 28.8273 84.6218 28.548 84.29 28.3507L52.9701 10.2607C52.6342 10.0718 52.2555 9.97201 51.8701 9.97072C51.4844 9.96928 51.105 10.0693 50.7701 10.2607L19.4401 28.3607C19.1079 28.5527 18.8321 28.8285 18.6401 29.1607C18.4404 29.493 18.3333 29.873 18.3301 30.2608Z" fill="url(#paint4_linear_1234_39375)"/>
<path fill-rule="evenodd" clip-rule="evenodd" d="M22.7608 32.2407C22.5694 32.5756 22.4693 32.9549 22.4708 33.3407V64.2307C22.4676 64.6168 22.568 64.9967 22.7614 65.3309C22.9549 65.665 23.2343 65.9412 23.5708 66.1307L50.3308 81.5806C50.6667 81.7695 51.0453 81.8694 51.4307 81.8707C51.8165 81.8721 52.1959 81.7721 52.5308 81.5806L79.3007 66.1407C79.6384 65.9481 79.9182 65.6683 80.1108 65.3306C80.3063 64.9974 80.4067 64.617 80.4008 64.2307V33.3407C80.4023 32.9549 80.3022 32.5756 80.1108 32.2407C79.9211 31.9008 79.6406 31.6203 79.3007 31.4306L52.5308 15.9707C52.1959 15.7792 51.8165 15.6792 51.4307 15.6807C51.0453 15.682 50.6667 15.7818 50.3308 15.9707L23.5708 31.4206C23.2341 31.619 22.955 31.9017 22.7608 32.2407Z" fill="url(#paint5_linear_1234_39375)"/>
<path fill-rule="evenodd" clip-rule="evenodd" d="M80.4008 64.2307V33.3407C80.4023 32.9549 80.3022 32.5756 80.1108 32.2407C79.9211 31.9008 79.6406 31.6203 79.3007 31.4306L52.5308 15.9707C52.1959 15.7792 51.8165 15.6792 51.4307 15.6807C51.0453 15.682 50.6667 15.7818 50.3308 15.9707L23.5708 31.4206C23.2354 31.6162 22.9564 31.8953 22.7608 32.2307C22.5694 32.5656 22.4693 32.9449 22.4708 33.3306V64.2207C22.4676 64.6068 22.568 64.9867 22.7614 65.3209C22.9549 65.655 23.2343 65.9312 23.5708 66.1207L50.3308 81.5706C50.6667 81.7595 51.0453 81.8594 51.4307 81.8607C51.8165 81.8621 52.1959 81.7621 52.5308 81.5706L79.3007 66.1307C79.6384 65.9381 79.9182 65.6583 80.1108 65.3206C80.3046 64.9903 80.4049 64.6136 80.4008 64.2307ZM23.0208 65.1706C23.1918 65.4589 23.4325 65.6997 23.7208 65.8707L50.4808 81.3206C50.7875 81.4864 51.1322 81.5692 51.4808 81.5606C51.8311 81.5737 52.1779 81.487 52.4808 81.3106L79.2508 65.8807C79.5391 65.7097 79.7798 65.4689 79.9508 65.1806C80.1282 64.8781 80.215 64.531 80.2008 64.1806V33.2906C80.2021 32.9575 80.1159 32.6299 79.9508 32.3407C79.787 32.0468 79.5447 31.8045 79.2508 31.6407L52.4808 16.1906C52.1779 16.0142 51.8311 15.9275 51.4808 15.9406C51.131 15.9323 50.7855 16.0186 50.4808 16.1906L23.7308 31.6407C23.4391 31.8073 23.1974 32.049 23.0308 32.3407C22.861 32.628 22.7745 32.9569 22.7808 33.2906V64.1806C22.7661 64.5266 22.8493 64.8698 23.0208 65.1706Z" fill="url(#paint6_linear_1234_39375)"/>
<path fill-rule="evenodd" clip-rule="evenodd" d="M50.7804 77.3306C51.0489 77.4822 51.352 77.5614 51.6603 77.5606C51.9683 77.5592 52.271 77.4801 52.5403 77.3306L76.1104 63.7206C76.3785 63.5624 76.6022 63.3388 76.7604 63.0706C76.9107 62.8016 76.9899 62.4987 76.9904 62.1906V34.9706C76.9899 34.6625 76.9107 34.3596 76.7604 34.0906C76.6045 33.8233 76.3801 33.6023 76.1104 33.4506L52.5403 19.8406C52.2735 19.6838 51.9697 19.601 51.6603 19.6006C51.3505 19.5985 51.0462 19.6815 50.7804 19.8406L27.2003 33.4506C26.9312 33.5997 26.7094 33.8215 26.5603 34.0906C26.4021 34.3568 26.3192 34.661 26.3203 34.9706V62.1906C26.3192 62.5002 26.4021 62.8044 26.5603 63.0706C26.712 63.3403 26.933 63.5647 27.2003 63.7206L50.7804 77.3306Z" fill="url(#paint7_linear_1234_39375)"/>
<path fill-rule="evenodd" clip-rule="evenodd" d="M55.141 20.5806L73.5409 31.2006L73.9309 31.4406C74.0609 31.5206 74.1809 31.6106 74.3009 31.7006L74.6609 31.9907L74.991 32.3006L75.3009 32.6307C75.4009 32.7507 75.5009 32.8607 75.5909 32.9807L75.8609 33.3607L76.1009 33.7407L76.3109 34.1507C76.3809 34.2807 76.441 34.4206 76.501 34.5606C76.561 34.7006 76.611 34.8507 76.651 34.9907C76.691 35.1307 76.741 35.2806 76.781 35.4306C76.821 35.5806 76.851 35.7207 76.881 35.8707C76.911 36.0207 76.8809 36.1706 76.9509 36.3206C77.0209 36.4706 76.9509 36.6307 76.9509 36.7807C76.9509 36.9307 76.9509 37.0807 76.9509 37.2407V58.4807C76.9509 58.6307 76.9509 58.7806 76.9509 58.9306C76.9509 59.0806 76.9509 59.2407 76.9509 59.3907C76.9509 59.5407 76.951 59.6906 76.881 59.8406C76.811 59.9906 76.821 60.1407 76.781 60.2807C76.741 60.4207 76.701 60.5806 76.651 60.7206C76.601 60.8606 76.551 61.0107 76.501 61.1507C76.451 61.2907 76.3809 61.4306 76.3109 61.5606L76.1009 61.9706L75.8609 62.3607L75.5909 62.7307C75.5009 62.8507 75.4009 62.9606 75.3009 63.0806L74.991 63.4106L74.6609 63.7206L74.3009 64.0107C74.1809 64.1007 74.0609 64.1907 73.9309 64.2707L73.5409 64.5107L55.141 75.1307L54.7409 75.3506L54.3309 75.5506L53.901 75.7106L53.4709 75.8506L53.021 75.9506L52.5709 76.0307H52.121H51.2009H50.751L50.3009 75.9506L49.8509 75.8506L49.4209 75.7106L48.9909 75.5506L48.5809 75.3506L48.1809 75.1307L29.781 64.5107L29.391 64.2707L29.021 64.0107L28.6709 63.7206L28.3309 63.4106L28.021 63.0806C27.921 62.9606 27.8209 62.8507 27.7309 62.7307L27.4609 62.3607C27.3809 62.2307 27.3009 62.1006 27.2309 61.9706C27.1609 61.8406 27.081 61.7006 27.011 61.5606C26.941 61.4206 26.8809 61.2907 26.8309 61.1507C26.7809 61.0107 26.7209 60.8606 26.6709 60.7206C26.6209 60.5806 26.5809 60.4307 26.5409 60.2807C26.5009 60.1307 26.4709 59.9906 26.4409 59.8406C26.4109 59.6906 26.441 59.5407 26.371 59.3907C26.301 59.2407 26.371 59.0806 26.371 58.9306C26.371 58.7806 26.371 58.6307 26.371 58.4807V37.2407C26.371 37.0807 26.371 36.9307 26.371 36.7807C26.371 36.6307 26.371 36.4806 26.371 36.3206C26.371 36.1606 26.3709 36.0207 26.4409 35.8707C26.5109 35.7207 26.5009 35.5806 26.5409 35.4306C26.5809 35.2806 26.6209 35.1407 26.6709 34.9907C26.7209 34.8407 26.7709 34.7006 26.8309 34.5606C26.8909 34.4206 26.951 34.2807 27.011 34.1507L27.2309 33.7407C27.3009 33.6107 27.3809 33.4807 27.4609 33.3607L27.7309 32.9907L28.021 32.6307L28.3309 32.3006L28.6709 31.9907L29.021 31.7006L29.391 31.4406L29.781 31.2006L48.1809 20.5806L48.5809 20.3607L48.9909 20.1707L49.4209 20.0106L49.8509 19.8707L50.3009 19.7606L50.751 19.6906L51.2009 19.6406H52.121L52.5709 19.6906L53.021 19.7606L53.4709 19.8707L53.901 20.0106L54.3309 20.1707L54.7409 20.3607L55.141 20.5806ZM43.141 40.7507H46.4409V63.7507L51.7009 69.3907L56.9609 63.7507V40.7507H60.4509C60.5139 40.7603 60.578 40.7603 60.641 40.7507H60.8309L61.011 40.6806L61.1809 40.6006L61.3509 40.5007L61.501 40.3907L61.641 40.2607L61.771 40.1107L61.891 39.9606L61.9809 39.8006L62.0709 39.6207L62.131 39.4406C62.1522 39.382 62.1689 39.3219 62.1809 39.2607V39.0706C62.1809 39.0006 62.1809 38.9407 62.1809 38.8707C62.1809 38.8007 62.1809 38.7506 62.1809 38.6806V38.4907C62.1689 38.4295 62.1522 38.3692 62.131 38.3106L62.0709 38.1207L61.9809 37.9506L61.891 37.7906L61.771 37.6307L61.641 37.4907C61.5993 37.4423 61.5523 37.3987 61.501 37.3607L61.3509 37.2507L61.1809 37.1507L61.011 37.0606L60.8309 37.0007H60.641H60.4509H53.6609V31.9706L53.7909 31.8707L53.9109 31.7607L54.021 31.6407L54.131 31.5207L54.2309 31.3907L54.3209 31.2607L54.4109 31.1207L54.4909 30.9807C54.561 30.8307 54.561 30.8306 54.631 30.6806C54.6809 30.5306 54.6809 30.5307 54.7309 30.3807C54.7309 30.3207 54.7309 30.2706 54.7309 30.2206V30.0606C54.7358 30.0074 54.7358 29.9539 54.7309 29.9007C54.7358 29.8475 54.7358 29.7939 54.7309 29.7407C54.7309 29.6807 54.7309 29.6306 54.7309 29.5806V29.4106C54.7359 29.3574 54.7359 29.3039 54.7309 29.2507C54.7358 29.1974 54.7358 29.1439 54.7309 29.0906C54.7364 29.0374 54.7364 28.9838 54.7309 28.9306V28.7707C54.7309 28.7707 54.7309 28.6607 54.7309 28.6107C54.7309 28.5607 54.7309 28.5106 54.7309 28.4606L54.6709 28.3006L54.6009 28.1606C54.5818 28.1087 54.5584 28.0587 54.531 28.0107L54.4509 27.8707L54.3609 27.7307L54.271 27.6006L54.1709 27.4706L54.0609 27.3506L53.9509 27.2307L53.8309 27.1207L53.7009 27.0207L53.5709 26.9206L53.4409 26.8306L53.3009 26.7507L53.151 26.6706L53.011 26.6006L52.8609 26.5406H52.7009H52.5509H52.391H52.2309H52.0709H51.4209H51.261H51.1009H50.9409H50.781H50.631L50.4809 26.6006L50.3309 26.6706L50.1909 26.7507L50.0509 26.8306L49.9109 26.9206L49.781 27.0207L49.6609 27.1207L49.5409 27.2307L49.4309 27.3506L49.3209 27.4706C49.2845 27.5115 49.2511 27.5549 49.2209 27.6006L49.121 27.7307C49.0409 27.8707 49.0409 27.8707 48.9609 28.0107L48.881 28.1606L48.8209 28.3006L48.761 28.4606V28.6107C48.761 28.6107 48.761 28.7207 48.761 28.7707V28.9306V29.0906C48.761 29.0906 48.761 29.2007 48.761 29.2507C48.756 29.3039 48.756 29.3574 48.761 29.4106V29.5806C48.7563 29.6339 48.7563 29.6874 48.761 29.7407C48.761 29.7407 48.761 29.8507 48.761 29.9007V30.0606V30.2206C48.761 30.2206 48.761 30.3207 48.761 30.3807V30.5307L48.8209 30.6806L48.881 30.8306L48.9609 30.9807C49.041 31.1207 49.0409 31.1207 49.121 31.2607L49.2209 31.3907C49.2511 31.4364 49.2845 31.4798 49.3209 31.5207L49.4309 31.6407L49.5409 31.7607L49.6609 31.8707L49.781 31.9706V36.7906H42.9909H42.8009H42.6109L42.4309 36.8607L42.261 36.9406L42.0909 37.0406L41.9409 37.1507L41.8009 37.2807L41.6709 37.4206C41.6286 37.4699 41.5918 37.5235 41.5609 37.5806C41.524 37.6317 41.4906 37.6851 41.4609 37.7407L41.371 37.9206L41.3109 38.1006C41.3064 38.1606 41.3064 38.2208 41.3109 38.2807V38.4706C41.3109 38.5406 41.3109 38.6006 41.3109 38.6706C41.3109 38.7406 41.3109 38.7907 41.3109 38.8607V39.0406C41.3109 39.1106 41.3109 39.1707 41.3109 39.2307C41.3299 39.2923 41.3533 39.3523 41.381 39.4106C41.4016 39.4699 41.4283 39.5269 41.4609 39.5806L41.5609 39.7507L41.6709 39.9007L41.8009 40.0406L41.9409 40.1706L42.1009 40.2807L42.261 40.3807L42.4409 40.4606L42.621 40.5307H42.8009C42.8639 40.5403 42.928 40.5403 42.9909 40.5307L43.141 40.7507Z" fill="url(#paint8_linear_1234_39375)"/>
<g opacity="0.6">
<path fill-rule="evenodd" clip-rule="evenodd" d="M48.2505 24.9706C47.9405 24.5006 45.3605 25.6606 42.4905 27.5806C39.6205 29.5006 37.5805 31.4406 37.8905 31.9106C38.2005 32.3806 40.7905 31.2206 43.6505 29.3106C46.5105 27.4006 48.5805 25.4306 48.2505 24.9706Z" fill="white"/>
</g>
<path fill-rule="evenodd" clip-rule="evenodd" d="M74.2509 36.0508C74.1112 35.8163 73.9152 35.6205 73.6808 35.4808L52.6808 23.4808C52.4491 23.3494 52.1872 23.2803 51.9208 23.2803C51.6544 23.2803 51.3925 23.3494 51.1608 23.4808L30.1608 35.4808C29.9238 35.6177 29.727 35.8144 29.5901 36.0514C29.4532 36.2884 29.381 36.5571 29.3809 36.8308V60.8909C29.3807 61.1649 29.4531 61.4339 29.5908 61.6708C29.7248 61.9095 29.922 62.1068 30.1608 62.2408L51.1608 74.2408C51.3967 74.3709 51.6614 74.4396 51.9308 74.4408C52.1972 74.441 52.459 74.3721 52.6908 74.2408L73.6908 62.2408C73.9278 62.104 74.1247 61.9072 74.2616 61.6703C74.3985 61.4333 74.4706 61.1645 74.4708 60.8909V36.8308C74.468 36.5559 74.3921 36.2867 74.2509 36.0508Z" fill="url(#paint9_linear_1234_39375)"/>
<g opacity="0.6">
<path fill-rule="evenodd" clip-rule="evenodd" d="M46.6416 26.0306C46.3216 25.5606 44.4716 26.2405 42.5016 27.5605C40.5316 28.8805 39.1916 30.3405 39.5016 30.8105C39.8116 31.2805 41.6916 30.6006 43.6516 29.2806C45.6116 27.9606 46.9716 26.5106 46.6416 26.0306Z" fill="white"/>
</g>
<g opacity="0.6">
<path fill-rule="evenodd" clip-rule="evenodd" d="M45.151 27.0305C44.891 26.6505 43.761 26.9605 42.621 27.7205C41.481 28.4805 40.781 29.4005 41.031 29.7805C41.281 30.1605 42.4109 29.8605 43.5509 29.1005C44.6909 28.3405 45.401 27.4105 45.151 27.0305Z" fill="white"/>
</g>
<g opacity="0.6">
<path fill-rule="evenodd" clip-rule="evenodd" d="M44.6306 27.3707C44.3806 26.9907 43.4806 27.1507 42.6306 27.7207C41.7806 28.2907 41.3005 29.0606 41.5505 29.4406C41.8005 29.8206 42.7105 29.6707 43.5505 29.1007C44.3905 28.5307 44.8906 27.7607 44.6306 27.3707Z" fill="white"/>
</g>
<path fill-rule="evenodd" clip-rule="evenodd" d="M70.9698 70.1303C70.6998 69.6303 68.0298 70.5603 64.9698 72.2103C61.9098 73.8603 59.7398 75.6203 59.9698 76.1203C60.1998 76.6203 62.9698 75.6902 65.9698 74.0402C68.9698 72.3902 71.2798 70.6403 70.9698 70.1303Z" fill="white"/>
<path fill-rule="evenodd" clip-rule="evenodd" d="M69.3004 71.0605C69.0304 70.5605 67.1204 71.0606 65.0404 72.2106C62.9604 73.3606 61.4905 74.6906 61.7705 75.2106C62.0505 75.7306 63.9604 75.2105 66.0404 74.0505C68.1204 72.8905 69.5804 71.5705 69.3004 71.0605Z" fill="white"/>
<path fill-rule="evenodd" clip-rule="evenodd" d="M67.7009 71.9708C67.4809 71.5708 66.3209 71.7807 65.1209 72.4307C63.9209 73.0807 63.1209 73.9408 63.3609 74.3508C63.6009 74.7608 64.7209 74.5508 65.9209 73.8908C67.1209 73.2308 67.9709 72.3208 67.7009 71.9708Z" fill="white"/>
<path fill-rule="evenodd" clip-rule="evenodd" d="M67.1505 72.2205C66.9305 71.8105 66.0305 71.8905 65.1505 72.3805C64.2705 72.8705 63.7004 73.6005 63.9204 74.0005C64.1404 74.4005 65.0604 74.3305 65.9204 73.8405C66.7804 73.3505 67.3805 72.6205 67.1505 72.2205Z" fill="white"/>
<path d="M66.9714 57.9705H54.6914L53.5015 56.6105L53.2615 58.3905L52.9714 60.5604L52.8615 61.3905H70.8615C71.5414 61.399 72.1991 61.1487 72.7014 60.6904C73.2292 60.2462 73.5833 59.6301 73.7014 58.9504L73.8414 57.9504L74.7615 51.3805L75.1814 48.3805H61.5015L61.9414 45.3805L62.1115 44.2705H75.7515V43.9604L76.1714 40.9604H54.3214L54.8314 41.4905L55.5115 42.1904L55.2515 43.9604L54.5714 48.8004L54.1415 51.8004H67.8214L67.3815 54.8004L66.9714 57.9705ZM64.4015 54.8204H55.9714L56.1014 54.9705H64.4214L64.4015 54.8204ZM51.6614 48.3304L44.0514 64.3905H36.8014L36.7314 64.5404V64.3905H29.9714L25.7914 43.2004L22.2715 38.0205H37.6814L39.1814 45.7904L42.9814 38.0205H47.2815H79.6415L78.3615 47.0804L76.7914 58.4304L76.6315 59.4304C76.4087 60.7919 75.7235 62.035 74.6914 62.9504C73.6436 63.9 72.2754 64.4181 70.8615 64.4005H49.3915L51.3915 49.6405L51.6614 48.3304ZM48.4814 41.0205H44.8815L40.1614 50.6804L37.9714 55.1704L37.0315 50.2705L35.2415 41.0205H27.9714L28.6614 42.0205L29.0514 44.0205L32.4714 61.3905H42.1614L50.3915 44.0205L51.2914 42.1105L51.8114 41.0205H48.4814Z" fill="#680A0A"/>
<path fill-rule="evenodd" clip-rule="evenodd" d="M51.0406 0.0800781C51.0406 0.0800781 44.8807 6.40006 42.7207 11.6901C45.0207 16.9201 51.3807 22.9301 51.3807 22.9301C51.3807 22.9301 57.5607 16.7501 59.7307 11.4501C57.3907 6.23007 51.0406 0.0800781 51.0406 0.0800781Z" fill="url(#paint10_linear_1234_39375)"/>
<g opacity="0.5">
<path fill-rule="evenodd" clip-rule="evenodd" d="M51.3807 22.9703L51.7207 20.0803C49.0303 17.6899 46.7145 14.9089 44.8507 11.8303C44.1484 11.702 43.432 11.6684 42.7207 11.7303C45.0607 16.9703 51.3807 22.9703 51.3807 22.9703Z" fill="url(#paint11_linear_1234_39375)"/>
</g>
<path fill-rule="evenodd" clip-rule="evenodd" d="M58.4606 11.52C56.7868 8.15596 54.34 5.2363 51.3206 3C48.5582 5.43849 46.3635 8.4524 44.8906 11.83C46.6806 15.61 51.7606 20.08 51.7606 20.08C54.3765 17.5479 56.631 14.6675 58.4606 11.52Z" fill="url(#paint12_linear_1234_39375)"/>
<path fill-rule="evenodd" clip-rule="evenodd" d="M51.8207 17.9108C53.7627 16.1628 55.3603 14.0667 56.5308 11.7308C55.0883 9.48678 53.4123 7.40179 51.5308 5.51074C49.2308 8.16074 46.7207 11.8708 46.7207 11.8708C47.9092 14.2657 49.6588 16.3378 51.8207 17.9108Z" fill="url(#paint13_linear_1234_39375)"/>
<path fill-rule="evenodd" clip-rule="evenodd" d="M56.5699 11.7308C55.0754 9.50829 53.3818 7.42634 51.51 5.51074C49.7864 7.54454 48.1708 9.66751 46.6699 11.8708L56.5699 11.7308Z" fill="url(#paint14_linear_1234_39375)"/>
<path fill-rule="evenodd" clip-rule="evenodd" d="M51.6914 9.36035L49.6914 11.8004L51.6914 14.1003L53.5814 11.7303L51.6914 9.36035Z" fill="url(#paint15_linear_1234_39375)"/>
<path fill-rule="evenodd" clip-rule="evenodd" d="M53.5403 11.7302L51.6504 14.1102V16.8202L55.8103 11.7002L53.5403 11.7302Z" fill="url(#paint16_linear_1234_39375)"/>
<path fill-rule="evenodd" clip-rule="evenodd" d="M51.691 9.36047L53.541 11.7405H55.8511L51.6211 6.69043L51.691 9.36047Z" fill="url(#paint17_linear_1234_39375)"/>
<path fill-rule="evenodd" clip-rule="evenodd" d="M47.3906 11.8305L51.6906 16.8305V14.1105L49.6906 11.8105L47.3906 11.8305Z" fill="url(#paint18_linear_1234_39375)"/>
<path fill-rule="evenodd" clip-rule="evenodd" d="M47.3906 11.8405H49.6605L51.6605 9.40045L51.5906 6.69043L47.3906 11.8405Z" fill="url(#paint19_linear_1234_39375)"/>
<path fill-rule="evenodd" clip-rule="evenodd" d="M51.4412 11.5608C51.6812 12.1408 53.3713 12.3108 52.8513 10.8708L52.6113 10.5608C51.6813 9.97079 51.1712 10.9708 51.4412 11.5608Z" fill="url(#paint20_linear_1234_39375)"/>
<defs>
<linearGradient id="paint0_linear_1234_39375" x1="0.401427" y1="48.5802" x2="101.571" y2="48.5802" gradientUnits="userSpaceOnUse">
<stop stop-color="#B4D6FF"/>
<stop offset="1" stop-color="#792F08"/>
</linearGradient>
<linearGradient id="paint1_linear_1234_39375" x1="50.2811" y1="80.0499" x2="51.2911" y2="3.90992" gradientUnits="userSpaceOnUse">
<stop stop-color="#B85033"/>
<stop offset="0.14" stop-color="#B05F48"/>
<stop offset="0.3" stop-color="#D96545"/>
<stop offset="0.48" stop-color="#F77E5B"/>
<stop offset="0.49" stop-color="#F27B57"/>
<stop offset="1" stop-color="#AB5315"/>
</linearGradient>
<linearGradient id="paint2_linear_1234_39375" x1="75.2815" y1="22.8399" x2="75.2815" y2="57.0399" gradientUnits="userSpaceOnUse">
<stop offset="0.08" stop-color="#C91023"/>
<stop offset="0.43" stop-color="#F7A66C"/>
<stop offset="0.96" stop-color="#FEF1D4"/>
</linearGradient>
<linearGradient id="paint3_linear_1234_39375" x1="27.4906" y1="22.8404" x2="27.4906" y2="57.0105" gradientUnits="userSpaceOnUse">
<stop offset="0.08" stop-color="#C91023"/>
<stop offset="0.43" stop-color="#F7A66C"/>
<stop offset="0.96" stop-color="#FEF1D4"/>
</linearGradient>
<linearGradient id="paint4_linear_1234_39375" x1="51.5701" y1="77.4107" x2="52.2401" y2="9.97072" gradientUnits="userSpaceOnUse">
<stop stop-color="#E5552F"/>
<stop offset="0.14" stop-color="#E75A34"/>
<stop offset="0.3" stop-color="#ED6843"/>
<stop offset="0.48" stop-color="#F77E5B"/>
<stop offset="0.49" stop-color="#F77F5C"/>
<stop offset="1" stop-color="#F7A66C"/>
</linearGradient>
<linearGradient id="paint5_linear_1234_39375" x1="51.1408" y1="81.8707" x2="51.7208" y2="16.4107" gradientUnits="userSpaceOnUse">
<stop stop-color="#F36134"/>
<stop offset="1" stop-color="#C40721"/>
</linearGradient>
<linearGradient id="paint6_linear_1234_39375" x1="51.1408" y1="15.6907" x2="51.7208" y2="81.8707" gradientUnits="userSpaceOnUse">
<stop stop-color="#B90A21"/>
<stop offset="0.39" stop-color="#FF5733"/>
<stop offset="1" stop-color="white" stop-opacity="0"/>
</linearGradient>
<linearGradient id="paint7_linear_1234_39375" x1="51.4003" y1="77.5606" x2="51.9103" y2="20.2406" gradientUnits="userSpaceOnUse">
<stop stop-color="#F36134"/>
<stop offset="1" stop-color="#C40721"/>
</linearGradient>
<linearGradient id="paint8_linear_1234_39375" x1="51.4109" y1="19.6306" x2="51.9209" y2="76.0907" gradientUnits="userSpaceOnUse">
<stop stop-color="#FFE39B"/>
<stop offset="0.05" stop-color="#E55C5D"/>
<stop offset="1" stop-color="#FFE39B" stop-opacity="0"/>
</linearGradient>
<linearGradient id="paint9_linear_1234_39375" x1="51.6808" y1="23.2309" x2="52.1408" y2="74.4908" gradientUnits="userSpaceOnUse">
<stop stop-color="white" stop-opacity="0.4"/>
<stop offset="0.16" stop-color="white" stop-opacity="0.06"/>
<stop offset="0.33" stop-color="white" stop-opacity="0"/>
</linearGradient>
<linearGradient id="paint10_linear_1234_39375" x1="51.1407" y1="22.9301" x2="51.3107" y2="0.920081" gradientUnits="userSpaceOnUse">
<stop stop-color="#CA6B34"/>
<stop offset="0.54" stop-color="#FFA933"/>
<stop offset="0.75" stop-color="#FFAD31"/>
<stop offset="0.94" stop-color="#FFB82D"/>
<stop offset="1" stop-color="#FFBD2B"/>
</linearGradient>
<linearGradient id="paint11_linear_1234_39375" x1="42.6707" y1="11.7503" x2="50.2007" y2="19.6003" gradientUnits="userSpaceOnUse">
<stop stop-color="white"/>
<stop offset="0.44" stop-color="#ED8A1D"/>
<stop offset="1" stop-color="#B41E2D"/>
</linearGradient>
<linearGradient id="paint12_linear_1234_39375" x1="51.6006" y1="5.91999" x2="51.7306" y2="16.27" gradientUnits="userSpaceOnUse">
<stop stop-color="#CA6B34"/>
<stop offset="0.67" stop-color="#FFA933"/>
<stop offset="1" stop-color="#FFBD2B"/>
</linearGradient>
<linearGradient id="paint13_linear_1234_39375" x1="51.5407" y1="17.9108" x2="51.6407" y2="8.03075" gradientUnits="userSpaceOnUse">
<stop stop-color="#FFA933"/>
<stop offset="0.33" stop-color="#FFC35A"/>
<stop offset="0.78" stop-color="#FFE389"/>
<stop offset="1" stop-color="#FFEF9B"/>
</linearGradient>
<linearGradient id="paint14_linear_1234_39375" x1="51.6199" y1="11.7308" x2="51.6899" y2="7.31076" gradientUnits="userSpaceOnUse">
<stop stop-color="#D16509"/>
<stop offset="1" stop-color="#8D2C1B"/>
</linearGradient>
<linearGradient id="paint15_linear_1234_39375" x1="52.5714" y1="13.3103" x2="51.0614" y2="10.9103" gradientUnits="userSpaceOnUse">
<stop stop-color="#DE3C14"/>
<stop offset="1" stop-color="#DB0F0F"/>
</linearGradient>
<linearGradient id="paint16_linear_1234_39375" x1="51.9804" y1="12.1902" x2="53.9904" y2="14.5302" gradientUnits="userSpaceOnUse">
<stop stop-color="#B51818"/>
<stop offset="0.23" stop-color="#BB1A19"/>
<stop offset="0.55" stop-color="#CD211C"/>
<stop offset="0.92" stop-color="#EB2C21"/>
<stop offset="1" stop-color="#F22F22"/>
</linearGradient>
<linearGradient id="paint17_linear_1234_39375" x1="51.6011" y1="11.1805" x2="54.2311" y2="8.71049" gradientUnits="userSpaceOnUse">
<stop stop-color="#B51818"/>
<stop offset="0.23" stop-color="#BB1A19"/>
<stop offset="0.55" stop-color="#CD211C"/>
<stop offset="0.92" stop-color="#EB2C21"/>
<stop offset="1" stop-color="#F22F22"/>
</linearGradient>
<linearGradient id="paint18_linear_1234_39375" x1="50.2406" y1="13.4205" x2="49.4606" y2="14.4305" gradientUnits="userSpaceOnUse">
<stop stop-color="#B51818"/>
<stop offset="0.23" stop-color="#BB1A19"/>
<stop offset="0.55" stop-color="#CD211C"/>
<stop offset="0.92" stop-color="#EB2C21"/>
<stop offset="1" stop-color="#F22F22"/>
</linearGradient>
<linearGradient id="paint19_linear_1234_39375" x1="49.2606" y1="9.02044" x2="51.2006" y2="10.8204" gradientUnits="userSpaceOnUse">
<stop stop-color="#B51818"/>
<stop offset="0.23" stop-color="#BB1A19"/>
<stop offset="0.55" stop-color="#CD211C"/>
<stop offset="0.92" stop-color="#EB2C21"/>
<stop offset="1" stop-color="#F22F22"/>
</linearGradient>
<linearGradient id="paint20_linear_1234_39375" x1="52.1612" y1="10.3808" x2="52.1612" y2="11.9908" gradientUnits="userSpaceOnUse">
<stop stop-color="white"/>
<stop offset="1" stop-color="#FFF7C4"/>
</linearGradient>
</defs>
</svg>
