<svg width="102" height="88" fill="none" xmlns="http://www.w3.org/2000/svg"><path fill-rule="evenodd" clip-rule="evenodd" d="M51.86 7.38a2.2 2.2 0 0 0-1.1.29L19.43 25.75a2.3 2.3 0 0 0-.81.81 2.2 2.2 0 0 0-.29 1.1v36.18c0 .385.103.761.3 1.09.19.338.466.618.8.81l31.33 18.08a2.17 2.17 0 0 0 2.2 0l31.33-18.08a2.15 2.15 0 0 0 .8-.81 2.2 2.2 0 0 0 .3-1.09V27.66a2.2 2.2 0 0 0-.3-1.09 2.15 2.15 0 0 0-.8-.81L52.97 7.67a2.26 2.26 0 0 0-1.11-.29" fill="#411600"/><path fill-rule="evenodd" clip-rule="evenodd" d="m59.341 67.25-.37 20.72h.4a14.8 14.8 0 0 0 14.07-13.63l7.72-3.86a17.47 17.47 0 0 0 7.86-23.25l-15.24 9.53.07-3.51h-2.33l16.38-7.92a24.63 24.63 0 0 0 11.15-32.94l-48.08 23.27-48-23.21-.21.43a24.62 24.62 0 0 0 11.35 32.52l16.38 7.91h-2.32l.06 3.51-15.26-9.56-.19.4a17.46 17.46 0 0 0 8.05 22.84l7.72 3.86a14.76 14.76 0 0 0 4.6 9.62c2.67 2.52 7.52 3.94 11.19 4V67.24l6.65-4zM47.971 8.5l-5.71-7.18-.12.6q-1.47 7.66.75 11.89l-17.43-8.74-.18.38a15.35 15.35 0 0 0 7.15 19.93l16.92 8.48.62 1.3 1-.5 1 .5.61-1.3 16.93-8.48a15.36 15.36 0 0 0 7-20.31l-17.44 8.74q2.29-4.38.62-12.49l-5.7 7.18-3-5.44z" fill="url(#prefix__a)"/><path fill-rule="evenodd" clip-rule="evenodd" d="M28.161 51.97v3.5l-15.19-9.5-.18.39a17.47 17.47 0 0 0 8 22.85l7.73 3.87a14.8 14.8 0 0 0 4.6 9.61c2.67 2.52 7.52 4 11.2 4V65.45l6.64-3.53 8.36 4-.38 20.76h.4a14.78 14.78 0 0 0 14.07-13.62l7.72-3.86a17.47 17.47 0 0 0 7.86-23.25l-15.24 9.53.06-3.51h-2.33l16.39-7.92a24.617 24.617 0 0 0 11.16-32.94l-48.06 23.22-48-23.21-.2.43a24.62 24.62 0 0 0 11.36 32.53l16.38 7.91zm14-51.35q-1.49 7.66.74 11.88l-17.43-8.73-.18.38a15.36 15.36 0 0 0 7.15 19.93l16.92 8.48.62 1.3 1-.5 1 .5.62-1.3 16.92-8.48a15.33 15.33 0 0 0 7-20.31l-17.45 8.73q2.31-4.38.63-12.48l-5.7 7.18-3-5.45-3 5.45-5.7-7.18z" fill="url(#prefix__b)"/><path fill-rule="evenodd" clip-rule="evenodd" d="M6.54 18.27a18.34 18.34 0 0 0 9.53 21.93l26.58 12.89 6.62-13.49z" fill="url(#prefix__c)"/><path fill-rule="evenodd" clip-rule="evenodd" d="m60.222 53.12 26.51-12.87a18.13 18.13 0 0 0 9.32-22l-42.45 21.34z" fill="url(#prefix__d)"/><path fill-rule="evenodd" clip-rule="evenodd" d="M17.471 25.91V62.1c0 .387.104.767.3 1.1.192.332.468.608.8.8l31.33 18.09a2.17 2.17 0 0 0 2.2 0L83.431 64a2.2 2.2 0 0 0 .8-.8 2.3 2.3 0 0 0 .3-1.1V25.91a2.25 2.25 0 0 0-1.1-1.91L52.101 5.91a2.26 2.26 0 0 0-1.1-.29 2.2 2.2 0 0 0-1.1.29l-31.33 18.06a2.2 2.2 0 0 0-.8.8 2.17 2.17 0 0 0-.3 1.14" fill="url(#prefix__e)"/><path fill-rule="evenodd" clip-rule="evenodd" d="M21.901 27.88a2.2 2.2 0 0 0-.29 1.1v30.89c.002.386.101.764.29 1.1a2.3 2.3 0 0 0 .81.8l26.76 15.45c.336.19.715.29 1.1.29a2.2 2.2 0 0 0 1.1-.29l26.77-15.44c.338-.192.618-.472.81-.81a2.1 2.1 0 0 0 .29-1.1v-30.9a2.2 2.2 0 0 0-.29-1.1 2.1 2.1 0 0 0-.81-.81l-26.77-15.45a2.2 2.2 0 0 0-1.1-.29 2.26 2.26 0 0 0-1.1.29l-26.76 15.45a2.25 2.25 0 0 0-.81.82" fill="url(#prefix__f)"/><path fill-rule="evenodd" clip-rule="evenodd" d="M79.541 59.87v-30.9a2.2 2.2 0 0 0-.29-1.1 2.1 2.1 0 0 0-.81-.81l-26.77-15.45a2.2 2.2 0 0 0-1.1-.29 2.26 2.26 0 0 0-1.1.29l-26.76 15.45a2.25 2.25 0 0 0-.81.81 2.2 2.2 0 0 0-.29 1.1v30.89c.002.386.101.764.29 1.1a2.3 2.3 0 0 0 .81.8l26.76 15.45a2.26 2.26 0 0 0 1.1.29 2.2 2.2 0 0 0 1.1-.29l26.77-15.44a2.17 2.17 0 0 0 .81-.81 2.1 2.1 0 0 0 .29-1.09m-57.38.95a2 2 0 0 0 .7.69l26.76 15.46a1.9 1.9 0 0 0 1 .25 1.8 1.8 0 0 0 .95-.25l26.77-15.44c.294-.163.537-.406.7-.7.173-.282.26-.609.25-.94V28.97a1.85 1.85 0 0 0-.25-1 1.8 1.8 0 0 0-.7-.7l-26.77-15.45a1.8 1.8 0 0 0-.95-.25 1.9 1.9 0 0 0-1 .25l-26.76 15.45a1.89 1.89 0 0 0-.95 1.65v30.89a1.9 1.9 0 0 0 .25 1.01" fill="url(#prefix__g)"/><path fill-rule="evenodd" clip-rule="evenodd" d="M49.97 72.97c.268.152.572.231.88.23s.61-.08.88-.23L75.3 59.36a1.84 1.84 0 0 0 .65-.65c.15-.269.23-.572.23-.88V30.61c0-.308-.08-.61-.23-.88a1.74 1.74 0 0 0-.65-.64L51.73 15.48a1.74 1.74 0 0 0-1.76 0L26.39 29.09c-.27.15-.491.371-.64.64a1.7 1.7 0 0 0-.24.88v27.22c-.001.31.082.614.24.88.152.27.372.494.64.65z" fill="url(#prefix__h)"/><path fill-rule="evenodd" clip-rule="evenodd" d="m55.14 16.67 18.4 10.62.39.23c.13.09.25.17.37.27l.36.28.33.31c.11.11.21.22.31.34s.2.23.29.35.18.24.27.37.16.25.24.39l.21.4a5.4 5.4 0 0 1 .34.84q.08.216.13.44c0 .15.07.3.1.45s.05.3.07.45 0 .3 0 .45v22.61c0 .15 0 .3-.07.45s-.06.3-.1.45q-.05.22-.13.43c0 .15-.1.29-.15.43s-.12.28-.19.42l-.21.4-.24.39c-.09.12-.17.25-.27.37s-.19.24-.29.35q-.143.177-.31.33l-.33.31-.36.29c-.12.09-.24.18-.37.26l-.39.24-18.4 10.62c-.13.08-.26.16-.4.23l-.41.19-.43.16-.43.14-.45.11-.45.07h-1.82l-.45-.07-.44-.11-.44-.14-.43-.16-.41-.19c-.14-.07-.27-.15-.4-.23l-18.4-10.62-.39-.24-.37-.26-.35-.29-.34-.31-.31-.33c-.1-.11-.19-.23-.29-.35l-.26-.37a4 4 0 0 1-.24-.39c-.08-.13-.15-.27-.22-.4l-.18-.42a6 6 0 0 1-.16-.43c-.05-.15-.09-.29-.13-.43s-.07-.3-.1-.45-.05-.3-.07-.45 0-.3 0-.46v-22.6c0-.15 0-.3.07-.45s.06-.3.1-.45.08-.29.13-.44.1-.28.16-.42l.18-.42c.06-.14.14-.27.22-.4q.103-.205.24-.39c.08-.13.17-.25.26-.37s.19-.24.29-.35l.31-.34.34-.31c.11-.1.23-.19.35-.28s.25-.18.37-.27l.39-.23 18.4-10.62.4-.22.41-.2.43-.16.44-.14.44-.1.45-.08h1.82l.45.08.45.1.43.14.43.16.41.2zm-12 20.16h3.3v23l5.26 5.64 5.26-5.64v-23h3.87l.18-.07.17-.08.17-.1.15-.11.14-.13.13-.14.12-.16.1-.16.08-.18q.037-.087.06-.18.008-.09 0-.18v-.19a1.3 1.3 0 0 0 0-.19 1.4 1.4 0 0 0 0-.2v-.19q.008-.09 0-.18a1.3 1.3 0 0 0-.06-.18l-.1-.24-.1-.16-.12-.16-.13-.14-.14-.13-.15-.11-.17-.1-.17-.08-.18-.07h-.19a.6.6 0 0 0-.19 0h-6.79v-4.81l.13-.1.12-.11.11-.12.11-.12.1-.13.09-.13.09-.14a2 2 0 0 0 .15-.29.6.6 0 0 0 .07-.14l.06-.16a1 1 0 0 1 .05-.15 1 1 0 0 1 0-.16v-.48a1 1 0 0 0 0-.16v-.17a1 1 0 0 0 0-.16v-.64a1 1 0 0 1-.05-.15l-.06-.15a1 1 0 0 0-.07-.15 2 2 0 0 0-.15-.29l-.09-.14-.09-.13a2 2 0 0 1-.1-.13l-.11-.12-.11-.11-.12-.12-.13-.1-.13-.1-.13-.09-.14-.08-.14-.08-.15-.07-.15-.06h-.15l-.16-.05h-.16a.5.5 0 0 0-.16 0h-.97a.5.5 0 0 0-.16 0h-.16l-.16.05h-.15l-.15.06-.15.07-.14.08-.14.08-.13.09-.13.1-.13.1-.12.12-.11.11-.11.12q-.046.069-.1.13-.045.07-.1.13a1 1 0 0 1-.08.14 1 1 0 0 0-.08.14l-.08.15-.06.15-.06.15a1 1 0 0 1-.05.15v.64a1 1 0 0 0 0 .16v.17a1 1 0 0 0 0 .16v.64a1 1 0 0 1 .05.15l.06.16q.025.075.07.14a2 2 0 0 0 .15.29l.09.14.09.13.1.13.11.12.11.12.12.11.13.1v4.82h-6.8a.6.6 0 0 0-.19 0h-.18l-.19.07-.17.08-.16.1-.16.11-.14.13-.13.15-.11.15a1.4 1.4 0 0 0-.18.34 1.3 1.3 0 0 0-.07.18v.38a1 1 0 0 1 0 .19v.19a.7.7 0 0 0 0 .19q-.006.09 0 .18.029.093.07.18a1 1 0 0 0 .08.17 1 1 0 0 0 .1.17q.056.08.12.15l.12.14.15.13.15.11.16.1.18.08.18.07h.37z" fill="url(#prefix__i)"/><path fill-rule="evenodd" clip-rule="evenodd" d="M48.25 20.03c-.31-.47-2.89.69-5.76 2.61s-4.91 3.86-4.6 4.33 2.9-.69 5.76-2.6 4.93-3.86 4.6-4.34" fill="#fff" opacity=".6"/><path fill-rule="evenodd" clip-rule="evenodd" d="M74.25 31.13a1.64 1.64 0 0 0-.57-.57l-21-12a1.54 1.54 0 0 0-1.52 0l-21 12a1.56 1.56 0 0 0-.78 1.35v24.06c0 .274.073.543.21.78.135.239.332.436.57.57l21 12.05c.237.13.502.199.77.2.267 0 .53-.069.76-.2l21-12.05a1.56 1.56 0 0 0 .78-1.35V31.91a1.55 1.55 0 0 0-.22-.78" fill="url(#prefix__j)"/><path fill-rule="evenodd" clip-rule="evenodd" d="M46.642 21.11c-.32-.47-2.18.21-4.14 1.53s-3.32 2.78-3 3.25 2.18-.21 4.15-1.53 3.32-2.77 2.99-3.25" fill="#fff" opacity=".6"/><path fill-rule="evenodd" clip-rule="evenodd" d="M45.151 22.11c-.26-.38-1.39-.07-2.53.69s-1.84 1.68-1.59 2.06 1.38.08 2.52-.68 1.85-1.69 1.6-2.07" fill="#fff" opacity=".6"/><path fill-rule="evenodd" clip-rule="evenodd" d="M44.63 22.45c-.26-.38-1.15-.22-2 .35s-1.34 1.34-1.08 1.72 1.16.23 2-.34 1.34-1.34 1.08-1.73" fill="#fff" opacity=".6"/><path fill-rule="evenodd" clip-rule="evenodd" d="M70.971 65.21c-.27-.5-2.94.43-6 2.08s-5.24 3.41-5 3.91 2.95-.43 6-2.08 5.31-3.4 5-3.91" fill="#fff"/><path fill-rule="evenodd" clip-rule="evenodd" d="M69.3 66.14c-.27-.5-2.18 0-4.26 1.15s-3.55 2.48-3.27 3 2.19 0 4.27-1.15 3.54-2.49 3.26-3" fill="#fff"/><path fill-rule="evenodd" clip-rule="evenodd" d="M67.7 66.97c-.22-.4-1.38-.19-2.58.46s-2 1.52-1.76 1.92 1.36.2 2.56-.46 2.05-1.49 1.78-1.92" fill="#fff"/><path fill-rule="evenodd" clip-rule="evenodd" d="M67.15 67.3c-.22-.41-1.12-.33-2 .16s-1.45 1.22-1.23 1.62 1.14.33 2-.16 1.45-1.22 1.23-1.62" fill="#fff"/><path d="m77.56 34.02-1.83 13h2.72l-1.29 9.42h-2.75l-.57 4.11H60.97l.57-4.11H49.25l1-7.06 1.2-4-7.18 15.16h-7.3l-.07.14v-.14h-6.7l-4.17-21.19-3.52-5.19h15.4l1.51 7.77 3.79-7.77h6.08l-.1-.11h28.38zm-16.83 3h-4.76l.79.87-.64 2.13-3 10-.06.42-.41 3h12.32l-.15 1.11-.27 1.89-.15 1.11h6.84l.57-4.11h2.74l.06-.42.36-2.62v-.38h-2.7l.06-.37.37-2.63 1-7 .43-3h-8.21l.81.91.38.42-.24 1.67-1.42 10h-5.33l.87-3 2-7 .39-1.33.48-1.67zM38.46 57.51h3.88l8.23-17.38 1.42-3h-6.91l-4.73 9.67-2.19 4.48-.94-4.9-1.79-9.25h-7.27l.68 1 .39 2 3.43 17.38z" fill="#8B3C0D"/><defs><linearGradient id="prefix__a" x1=".401" y1="44.67" x2="101.571" y2="44.67" gradientUnits="userSpaceOnUse"><stop stop-color="#B4D6FF"/><stop offset="1" stop-color="#792F08"/></linearGradient><linearGradient id="prefix__b" x1="50.741" y1=".211" x2="51.761" y2="86.58" gradientUnits="userSpaceOnUse"><stop stop-color="#EED181"/><stop offset="1" stop-color="#B87D2D"/></linearGradient><linearGradient id="prefix__c" x1="27.491" y1="18.921" x2="27.491" y2="53.09" gradientUnits="userSpaceOnUse"><stop offset=".12" stop-color="#8A3909"/><stop offset=".43" stop-color="#DFB03A"/><stop offset=".73" stop-color="#F0CF77"/><stop offset=".99" stop-color="#FFECB9"/></linearGradient><linearGradient id="prefix__d" x1="75.282" y1="18.92" x2="75.282" y2="53.12" gradientUnits="userSpaceOnUse"><stop offset=".12" stop-color="#8A3909"/><stop offset=".43" stop-color="#DFB03A"/><stop offset=".73" stop-color="#F0CF77"/><stop offset=".99" stop-color="#FFECB9"/></linearGradient><linearGradient id="prefix__e" x1="50.671" y1="6.81" x2="51.341" y2="82.39" gradientUnits="userSpaceOnUse"><stop stop-color="#F4E187"/><stop offset=".19" stop-color="#DFB03A"/><stop offset=".42" stop-color="#FFF3D9"/><stop offset=".63" stop-color="#DFB03A"/><stop offset=".81" stop-color="#8F3C0A"/><stop offset="1" stop-color="#5A1D06"/></linearGradient><linearGradient id="prefix__f" x1="50.571" y1="12.57" x2="50.571" y2="77.51" gradientUnits="userSpaceOnUse"><stop offset=".12" stop-color="#8A3909"/><stop offset=".43" stop-color="#DFB03A"/><stop offset=".73" stop-color="#F0CF77"/><stop offset=".99" stop-color="#FFECB9"/></linearGradient><linearGradient id="prefix__g" x1="50.281" y1="11.34" x2="50.861" y2="77.51" gradientUnits="userSpaceOnUse"><stop stop-color="#B90A21"/><stop offset=".39" stop-color="#FF5733"/><stop offset="1" stop-color="#fff" stop-opacity="0"/></linearGradient><linearGradient id="prefix__h" x1="50.8" y1="16.33" x2="50.8" y2="73.21" gradientUnits="userSpaceOnUse"><stop stop-color="#FFEFCC"/><stop offset=".35" stop-color="#E5C052"/><stop offset=".85" stop-color="#893C0E"/></linearGradient><linearGradient id="prefix__i" x1="51.41" y1="15.71" x2="51.91" y2="72.171" gradientUnits="userSpaceOnUse"><stop stop-color="#FAEAC3"/><stop offset=".1" stop-color="#F7EFA8"/><stop offset="1" stop-color="#FFE39B" stop-opacity="0"/></linearGradient><linearGradient id="prefix__j" x1="51.691" y1="18.31" x2="52.141" y2="69.57" gradientUnits="userSpaceOnUse"><stop stop-color="#fff" stop-opacity=".4"/><stop offset=".16" stop-color="#fff" stop-opacity=".06"/><stop offset=".33" stop-color="#fff" stop-opacity="0"/></linearGradient></defs></svg>