<svg width="20" height="17" fill="none" xmlns="http://www.w3.org/2000/svg"><path fill-rule="evenodd" clip-rule="evenodd" d="M16.957 12.569q.06-.107.06-.228v-.935l.556-.273a2.945 2.945 0 0 0 1.373-3.936l-1.93.942v-.467l.93-.45a2.91 2.91 0 0 0 1.364-3.917l-2.532 1.224L10.28.824a.44.44 0 0 0-.445 0l-6.51 3.71a.5.5 0 0 0-.1.077L.519 3.303l-.02.045a2.91 2.91 0 0 0 1.388 3.875l1.21.584v.47L.883 7.198l-.021.044a2.94 2.94 0 0 0 1.393 3.892l.84.41v.796a.44.44 0 0 0 .227.391l6.51 3.713a.44.44 0 0 0 .446 0l6.51-3.713a.45.45 0 0 0 .167-.162" fill="url(#prefix__a)"/><path fill-rule="evenodd" clip-rule="evenodd" d="M17.022 7.87v-.465l.93-.448a2.91 2.91 0 0 0 1.657-2.808 2.9 2.9 0 0 0-.291-1.11l-2.534 1.224-6.5-3.705A.46.46 0 0 0 9.84.56L3.33 4.27a.4.4 0 0 0-.1.077L.525 3.039l-.02.046a2.91 2.91 0 0 0 1.386 3.87l1.211.586v.47L.89 6.93l-.022.046a2.943 2.943 0 0 0 1.394 3.89l.84.41v.797a.44.44 0 0 0 .227.39l6.51 3.71a.45.45 0 0 0 .446 0l6.508-3.71a.43.43 0 0 0 .167-.165.44.44 0 0 0 .062-.227v-.935l.557-.27a2.937 2.937 0 0 0 1.373-3.935z" fill="url(#prefix__b)"/><path fill-rule="evenodd" clip-rule="evenodd" d="M4.253 4.901a.45.45 0 0 0-.225.392v6.331q0 .121.06.226a.45.45 0 0 0 .165.165l5.486 3.167a.45.45 0 0 0 .45 0l5.495-3.167a.45.45 0 0 0 .225-.39V5.292a.45.45 0 0 0-.226-.392l-5.485-3.166a.45.45 0 0 0-.45 0z" fill="url(#prefix__c)"/><path fill-rule="evenodd" clip-rule="evenodd" d="M4.088 5.067a.45.45 0 0 1 .165-.166L9.74 1.735a.45.45 0 0 1 .45 0L15.684 4.9a.45.45 0 0 1 .225.392v6.331q0 .121-.06.226a.45.45 0 0 1-.165.165l-5.486 3.167a.45.45 0 0 1-.45 0l-5.486-3.167a.45.45 0 0 1-.225-.39V5.292a.45.45 0 0 1 .05-.226m.193-.118L9.768 1.78a.4.4 0 0 1 .393 0l5.486 3.165a.4.4 0 0 1 .198.346v6.331a.36.36 0 0 1-.052.197.4.4 0 0 1-.146.147l-5.486 3.167a.4.4 0 0 1-.394 0L4.28 11.966a.4.4 0 0 1-.146-.147.4.4 0 0 1-.053-.197V5.291a.4.4 0 0 1 .199-.342" fill="url(#prefix__d)"/><path fill-rule="evenodd" clip-rule="evenodd" d="M4.646 11.195a.36.36 0 0 0 .182.315l4.911 2.792a.36.36 0 0 0 .182.047.4.4 0 0 0 .182-.047l4.911-2.792a.36.36 0 0 0 .182-.315V5.62a.36.36 0 0 0-.184-.315l-4.91-2.794a.38.38 0 0 0-.364 0L4.825 5.305a.35.35 0 0 0-.132.133.35.35 0 0 0-.05.182z" fill="url(#prefix__e)"/><path fill-rule="evenodd" clip-rule="evenodd" d="M9.248 3.374c-.064-.096-.586.138-1.162.526-.577.387-.992.777-.928.875s.586-.14 1.162-.524c.577-.384.997-.78.928-.877" fill="#fff" opacity=".6"/><path fill-rule="evenodd" clip-rule="evenodd" d="m10.143 13.329 4.238-2.43a.31.31 0 0 0 .158-.273V5.767a.31.31 0 0 0-.158-.273l-4.238-2.431a.32.32 0 0 0-.308 0L5.597 5.494a.31.31 0 0 0-.158.273v4.853a.32.32 0 0 0 .158.273l4.238 2.43q.072.04.153.04a.3.3 0 0 0 .155-.034" fill="url(#prefix__f)"/><path fill-rule="evenodd" clip-rule="evenodd" d="M8.923 3.584c-.066-.096-.44.042-.837.306s-.664.56-.6.657c.063.096.44-.04.834-.306.395-.265.666-.551.602-.657" fill="#fff" opacity=".6"/><path fill-rule="evenodd" clip-rule="evenodd" d="M8.62 3.797c-.052-.076-.28-.014-.509.14s-.374.34-.322.417c.053.076.277.013.508-.14s.373-.34.324-.417" fill="#fff" opacity=".6"/><path fill-rule="evenodd" clip-rule="evenodd" d="M8.515 3.868c-.051-.078-.233-.047-.404.07-.17.116-.27.27-.218.347s.23.044.404-.071c.172-.115.269-.266.218-.346" fill="#fff" opacity=".6"/><path fill-rule="evenodd" clip-rule="evenodd" d="M13.983 12.706c-.057-.104-.597.086-1.206.418-.61.333-1.057.688-1 .79s.594-.087 1.202-.42c.607-.333 1.067-.686 1.004-.788" fill="#fff"/><path fill-rule="evenodd" clip-rule="evenodd" d="M13.637 12.896c-.056-.104-.44 0-.858.229-.419.23-.713.498-.657.6s.44 0 .859-.23c.418-.232.713-.497.656-.6" fill="#fff"/><path fill-rule="evenodd" clip-rule="evenodd" d="M13.319 13.073c-.046-.082-.277-.039-.52.094-.244.133-.402.306-.364.386s.276.038.518-.095.41-.305.366-.385" fill="#fff"/><path fill-rule="evenodd" clip-rule="evenodd" d="M13.208 13.133c-.046-.08-.227-.066-.41.034-.181.1-.292.246-.247.326.046.08.226.065.408-.035s.293-.245.249-.325" fill="#fff"/><path fill-rule="evenodd" clip-rule="evenodd" d="m10.66 3.056 3.568 2.062q.039.022.075.046l.072.05a1 1 0 0 1 .133.117q.033.03.062.064.03.033.056.07l.052.07.047.076.042.079a1.6 1.6 0 0 1 .09.249q.011.042.019.085l.014.09c.004.03 0 .058 0 .087v4.392c0 .031-.009.059-.014.088a1 1 0 0 1-.075.254q-.016.042-.034.08l-.042.079-.047.076-.052.071-.056.07-.062.063a1 1 0 0 1-.133.117l-.072.05-.075.047-3.574 2.063q-.037.023-.078.044l-.08.036a1 1 0 0 1-.084.033l-.084.027-.087.02-.087.015H9.8l-.087-.015-.088-.02-.083-.027a1 1 0 0 1-.084-.033l-.08-.036q-.04-.021-.078-.044l-3.569-2.063-.075-.047-.072-.05q-.036-.028-.07-.057l-.063-.06q-.032-.03-.062-.064-.03-.033-.056-.069l-.051-.071a2 2 0 0 1-.088-.155 1.6 1.6 0 0 1-.093-.25 1.4 1.4 0 0 1-.032-.172c-.004-.029 0-.06 0-.089V6.113c0-.029.009-.06.014-.089q.008-.043.019-.085.011-.044.025-.086l.031-.083.036-.08a1 1 0 0 1 .088-.153q.024-.037.05-.073l.057-.07.062-.063a1 1 0 0 1 .133-.116l.072-.051q.037-.024.075-.046l3.574-2.062a1 1 0 0 1 .078-.044l.08-.038.084-.031q.04-.014.084-.027l.087-.02.087-.015.088-.009h.178l.087.01.088.014.087.02c.029 0 .056.016.084.027l.083.03.08.04a1 1 0 0 1 .079.043M8.32 6.972h.642v4.458l1.02 1.092 1.023-1.092V6.968h.751l.035-.012.034-.017.031-.018.031-.022.027-.025.026-.028.022-.03.018-.031.016-.035a.4.4 0 0 0 .022-.07v-.15a.4.4 0 0 0-.038-.104l-.018-.032-.022-.03-.025-.029-.028-.023-.03-.024-.032-.018-.034-.017-.035-.012h-1.393v-.933l.025-.02.024-.022.022-.024.02-.024.02-.023.018-.026.016-.027.017-.027.014-.03.013-.028.011-.03v-.029l.015-.061v-.095a.1.1 0 0 0 0-.03v-.096l-.015-.061v-.031l-.01-.03-.014-.028-.014-.028-.017-.027-.016-.027-.018-.026-.02-.025-.02-.024-.022-.022-.024-.022-.023-.02-.026-.02-.027-.016-.027-.016-.027-.015-.03-.014-.029-.011-.029-.011h-.373l-.03.01-.03.012-.027.014-.03.015-.026.016-.026.016-.025.02-.024.02-.024.022-.021.022-.022.024-.018.025a.1.1 0 0 0-.019.026l-.018.027-.029.055-.013.029-.01.029-.019.062v.281l.01.031.008.03.011.029.013.029.015.029.014.027.018.027.019.026.018.023.022.024.021.024.024.022.024.02v.935H8.209l-.034.012-.035.017-.03.02-.032.021-.027.026-.025.027-.022.03-.018.032a.3.3 0 0 0-.03.07v.219l.013.035.017.033.02.032.021.03.026.027.027.025.03.022.032.02.033.015.036.012h.073z" fill="url(#prefix__g)"/><path d="m12.64 8.272-.065.45h-2.481v.048l-.23 1.621a.375.375 0 0 0 .386.446h3.274l.011-.077.113-.795-.28.25h-2.365l.075-.546.044-.326h2.612l.029-.205.209-1.488.076-.546h-3.725l-.082.575-.053.364-.016.124v.049h1.244v-.05l.055-.449h1.25zm-2.979-.378.102-.217.258-.545h-1.25l-.858 1.757-.398.815-.173-.89-.326-1.682H5.68l.126.181.07.364.623 3.16H8.26zm-3.605 3.488-.759-3.854-.64-.942H7.46l.273 1.413.691-1.413h1.42v-.027h4.828l-.284 2.022-.394 2.801h-3.75a.918.918 0 0 1-.927-1.067l.084-.602-.79 1.668H7.296l-.013.027v-.027z" fill="#134B2E"/><defs><linearGradient id="prefix__a" x1="9.874" y1=".769" x2="10.066" y2="16.379" gradientUnits="userSpaceOnUse"><stop stop-color="#2A7746"/><stop offset="1" stop-color="#0E4528"/></linearGradient><linearGradient id="prefix__b" x1="9.874" y1=".502" x2="10.067" y2="16.09" gradientUnits="userSpaceOnUse"><stop stop-color="#C0E48A"/><stop offset="1" stop-color="#198034"/></linearGradient><linearGradient id="prefix__c" x1="9.907" y1="1.98" x2="10.025" y2="15.244" gradientUnits="userSpaceOnUse"><stop stop-color="#073D24"/><stop offset="1" stop-color="#77E189"/></linearGradient><linearGradient id="prefix__d" x1="9.905" y1="1.675" x2="10.023" y2="15.242" gradientUnits="userSpaceOnUse"><stop stop-color="#0F482B"/><stop offset=".51" stop-color="#78B864"/><stop offset="1" stop-color="#F0FFF7"/></linearGradient><linearGradient id="prefix__e" x1="9.865" y1="2.468" x2="9.968" y2="14.009" gradientUnits="userSpaceOnUse"><stop stop-color="#6ED481"/><stop offset="1" stop-color="#044424"/></linearGradient><linearGradient id="prefix__f" x1="9.943" y1="3.03" x2="10.034" y2="13.369" gradientUnits="userSpaceOnUse"><stop stop-color="#fff" stop-opacity=".4"/><stop offset=".16" stop-color="#fff" stop-opacity=".06"/><stop offset=".33" stop-color="#fff" stop-opacity="0"/></linearGradient><linearGradient id="prefix__g" x1="9.934" y1="2.87" x2="10.032" y2="13.838" gradientUnits="userSpaceOnUse"><stop stop-color="#fff" stop-opacity=".6"/><stop offset=".11" stop-color="#fff" stop-opacity=".6"/><stop offset="1" stop-color="#fff" stop-opacity="0"/></linearGradient></defs></svg>