<svg width="102" height="88" viewBox="0 0 102 88" fill="none" xmlns="http://www.w3.org/2000/svg">
<path fill-rule="evenodd" clip-rule="evenodd" d="M51.8601 7.38087C51.4744 7.37943 51.095 7.47936 50.7601 7.67079L19.4301 25.7509C19.0969 25.9493 18.8185 26.2276 18.6201 26.5608C18.4287 26.8957 18.3287 27.275 18.3301 27.6608V63.8408C18.3291 64.2247 18.4328 64.6015 18.6301 64.9308C18.8191 65.2678 19.0955 65.5476 19.4301 65.7409L50.7601 83.8208C51.0925 84.0194 51.4729 84.1232 51.8601 84.1209C52.247 84.1207 52.6267 84.0171 52.9601 83.8208L84.2901 65.7409C84.6247 65.5476 84.9011 65.2678 85.0901 64.9308C85.2829 64.5996 85.3863 64.224 85.3901 63.8408V27.6608C85.3863 27.2776 85.2829 26.902 85.0901 26.5708C84.9011 26.2338 84.6247 25.9541 84.2901 25.7609L52.9701 7.67079C52.6312 7.48026 52.2489 7.38046 51.8601 7.38087Z" fill="#411600"/>
<path fill-rule="evenodd" clip-rule="evenodd" d="M59.3414 67.2504L58.9714 87.9703H59.3714C62.9748 87.8034 66.3931 86.3262 68.9841 83.8163C71.575 81.3064 73.16 77.9366 73.4413 74.3403L81.1614 70.4803C85.265 68.4165 88.3906 64.8195 89.8617 60.468C91.3327 56.1166 91.0309 51.3608 89.0213 47.2303L73.7814 56.7604L73.8514 53.2504H71.5213L87.9014 45.3303C93.7405 42.4328 98.1929 37.3387 100.283 31.1643C102.373 24.9899 101.93 18.2388 99.0514 12.3904L50.9714 35.6603L2.97136 12.4503L2.76134 12.8804C0.0252798 18.7086 -0.318786 25.3767 1.80284 31.4556C3.92446 37.5344 8.34298 42.5404 14.1114 45.4004L30.4914 53.3103H28.1714L28.2314 56.8203L12.9714 47.2604L12.7814 47.6603C10.9093 51.7694 10.7021 56.4441 12.203 60.7028C13.704 64.9615 16.7965 68.4731 20.8313 70.5004L28.5514 74.3604C28.8323 78.0282 30.4728 81.4589 33.1513 83.9803C35.8214 86.5003 40.6713 87.9203 44.3414 87.9803V67.2404L50.9914 63.2404L59.3414 67.2504ZM47.9714 8.50037L42.2613 1.32031L42.1413 1.92029C41.1613 7.02695 41.4113 10.9903 42.8913 13.8103L25.4613 5.07031L25.2814 5.45032C23.6862 9.05498 23.5389 13.1352 24.87 16.8455C26.2011 20.5558 28.9086 23.6118 32.4314 25.3804L49.3514 33.8604L49.9714 35.1603L50.9714 34.6603L51.9714 35.1603L52.5813 33.8604L69.5113 25.3804C73.1012 23.5817 75.8441 20.4487 77.1525 16.6526C78.4609 12.8564 78.2307 8.69886 76.5113 5.07031L59.0713 13.8103C60.598 10.8903 60.8047 6.72698 59.6913 1.32031L53.9914 8.50037L50.9914 3.0603L47.9714 8.50037Z" fill="url(#paint0_linear_1234_39298)"/>
<path fill-rule="evenodd" clip-rule="evenodd" d="M28.1611 51.9705V55.4705L12.9711 45.9705L12.7911 46.3605C10.915 50.465 10.7 55.1364 12.1913 59.3959C13.6826 63.6554 16.7644 67.1725 20.7911 69.2104L28.5211 73.0804C28.8073 76.744 30.4472 80.1698 33.1211 82.6904C35.7911 85.2104 40.6411 86.6904 44.3211 86.6904V65.4504L50.9611 61.9204L59.3211 65.9204L58.9411 86.6804H59.3411C62.9443 86.518 66.3638 85.0436 68.9553 82.5349C71.5469 80.0262 73.1317 76.6565 73.4111 73.0604L81.1311 69.2004C85.2347 67.1366 88.3604 63.5396 89.8314 59.1881C91.3025 54.8367 91.0006 50.0809 88.9911 45.9504L73.7511 55.4805L73.8111 51.9705H71.4811L87.8711 44.0504C93.7139 41.1567 98.1703 36.0635 100.262 29.8882C102.355 23.7128 101.912 16.9597 99.0311 11.1105L50.9711 34.3304L2.97109 11.1205L2.77108 11.5504C0.0326405 17.3809 -0.311633 24.0525 1.81209 30.1339C3.93582 36.2153 8.35837 41.2222 14.1311 44.0804L30.5111 51.9905L28.1611 51.9705ZM42.1611 0.620483C41.1678 5.72715 41.4144 9.68715 42.9011 12.5005L25.4711 3.77051L25.2911 4.15051C23.6985 7.7555 23.5525 11.8347 24.8833 15.5443C26.2142 19.2539 28.92 22.31 32.4411 24.0804L49.3611 32.5604L49.9811 33.8605L50.9811 33.3605L51.9811 33.8605L52.6011 32.5604L69.5211 24.0804C73.1165 22.2876 75.8645 19.155 77.1736 15.3567C78.4827 11.5583 78.2484 7.39786 76.5211 3.77051L59.0711 12.5005C60.6111 9.58049 60.8211 5.42051 59.7011 0.0205078L54.0011 7.20044L51.0011 1.75049L48.0011 7.20044L42.3011 0.0205078L42.1611 0.620483Z" fill="url(#paint1_linear_1234_39298)"/>
<path fill-rule="evenodd" clip-rule="evenodd" d="M6.54053 18.2705C5.24353 22.4615 5.49179 26.9785 7.2403 31.0021C8.9888 35.0257 12.1217 38.2891 16.0705 40.2004L42.6505 53.0905L49.2705 39.6005L6.54053 18.2705Z" fill="url(#paint2_linear_1234_39298)"/>
<path fill-rule="evenodd" clip-rule="evenodd" d="M60.2216 53.12L86.7316 40.25C90.6877 38.3356 93.8138 35.0493 95.5282 31.0024C97.2426 26.9556 97.4286 22.4237 96.0516 18.25L53.6016 39.59L60.2216 53.12Z" fill="url(#paint3_linear_1234_39298)"/>
<path fill-rule="evenodd" clip-rule="evenodd" d="M17.471 25.91V62.1001C17.4712 62.487 17.5748 62.8667 17.771 63.2001C17.963 63.5322 18.2389 63.8081 18.571 64.0001L49.901 82.0901C50.2334 82.2887 50.6139 82.3925 51.0011 82.3902C51.3879 82.39 51.7677 82.2864 52.1011 82.0901L83.4311 64.0001C83.7632 63.8081 84.0391 63.5322 84.2311 63.2001C84.423 62.8649 84.5263 62.4863 84.531 62.1001V25.91C84.5269 25.5241 84.4236 25.1457 84.2309 24.8112C84.0383 24.4767 83.7629 24.1974 83.4311 24.0001L52.1011 5.91005C51.7651 5.72117 51.3865 5.62143 51.0011 5.62013C50.6153 5.61869 50.2359 5.71862 49.901 5.91005L18.571 23.9701C18.2389 24.1621 17.963 24.438 17.771 24.7702C17.5678 25.1152 17.4639 25.5096 17.471 25.91Z" fill="url(#paint4_linear_1234_39298)"/>
<path fill-rule="evenodd" clip-rule="evenodd" d="M21.9013 27.8804C21.7099 28.2153 21.6099 28.5946 21.6113 28.9804V59.8704C21.6126 60.2558 21.7124 60.6344 21.9013 60.9704C22.1 61.3007 22.3785 61.5758 22.7113 61.7704L49.4713 77.2204C49.8073 77.4092 50.1859 77.5091 50.5713 77.5104C50.9571 77.5118 51.3364 77.4118 51.6713 77.2204L78.4413 61.7804C78.779 61.5878 79.0588 61.308 79.2514 60.9704C79.4469 60.6371 79.5472 60.2567 79.5413 59.8704V28.9704C79.5428 28.5846 79.4428 28.2053 79.2514 27.8704C79.0616 27.5305 78.7811 27.25 78.4413 27.0603L51.6713 11.6104C51.3364 11.4189 50.9571 11.3189 50.5713 11.3203C50.1859 11.3216 49.8073 11.4215 49.4713 11.6104L22.7113 27.0603C22.3747 27.2587 22.0955 27.5414 21.9013 27.8804Z" fill="url(#paint5_linear_1234_39298)"/>
<path fill-rule="evenodd" clip-rule="evenodd" d="M79.5413 59.8704V28.9704C79.5428 28.5846 79.4428 28.2053 79.2514 27.8704C79.0616 27.5305 78.7811 27.25 78.4413 27.0603L51.6713 11.6104C51.3364 11.4189 50.9571 11.3189 50.5713 11.3203C50.1859 11.3216 49.8073 11.4215 49.4713 11.6104L22.7113 27.0603C22.376 27.2559 22.0969 27.535 21.9013 27.8704C21.7099 28.2053 21.6099 28.5846 21.6113 28.9704V59.8604C21.6126 60.2458 21.7124 60.6244 21.9013 60.9603C22.1 61.2907 22.3785 61.5658 22.7113 61.7604L49.4713 77.2103C49.8073 77.3992 50.1859 77.4991 50.5713 77.5004C50.9571 77.5018 51.3364 77.4018 51.6713 77.2103L78.4413 61.7704C78.779 61.5778 79.0588 61.298 79.2514 60.9603C79.4451 60.6301 79.5454 60.2533 79.5413 59.8704ZM22.1613 60.8203C22.3336 61.105 22.5742 61.3422 22.8613 61.5104L49.6214 76.9704C49.9253 77.1442 50.2714 77.2308 50.6214 77.2204C50.9549 77.2257 51.2835 77.1392 51.5713 76.9704L78.3413 61.5304C78.6352 61.3667 78.8776 61.1242 79.0413 60.8303C79.2139 60.5478 79.3008 60.2213 79.2913 59.8904V28.9704C79.3044 28.6201 79.2177 28.2733 79.0413 27.9704C78.8776 27.6765 78.6352 27.4342 78.3413 27.2704L51.5713 11.8203C51.2835 11.6515 50.9549 11.565 50.6214 11.5703C50.2714 11.5599 49.9253 11.6464 49.6214 11.8203L22.8613 27.2704C22.5711 27.4368 22.3303 27.6771 22.1634 27.9669C21.9965 28.2568 21.9095 28.5858 21.9113 28.9203V59.8103C21.8991 60.1637 21.9856 60.5135 22.1613 60.8203Z" fill="url(#paint6_linear_1234_39298)"/>
<path fill-rule="evenodd" clip-rule="evenodd" d="M49.9698 72.9703C50.2383 73.1218 50.5415 73.2011 50.8498 73.2002C51.1578 73.1989 51.4605 73.1198 51.7298 72.9703L75.2998 59.3603C75.568 59.2021 75.7916 58.9784 75.9498 58.7102C76.1001 58.4413 76.1793 58.1384 76.1798 57.8302V30.6103C76.1793 30.3021 76.1001 29.9992 75.9498 29.7303C75.7939 29.4629 75.5695 29.242 75.2998 29.0903L51.7298 15.4803C51.463 15.3234 51.1593 15.2406 50.8498 15.2403C50.54 15.2381 50.2356 15.3211 49.9698 15.4803L26.3898 29.0903C26.1206 29.2393 25.8989 29.4611 25.7498 29.7303C25.5916 29.9965 25.5086 30.3006 25.5098 30.6103V57.8302C25.5086 58.1399 25.5916 58.4441 25.7498 58.7102C25.9016 58.98 26.1224 59.2044 26.3898 59.3603L49.9698 72.9703Z" fill="url(#paint7_linear_1234_39298)"/>
<path fill-rule="evenodd" clip-rule="evenodd" d="M55.1402 16.6704L73.5402 27.2904L73.9302 27.5205C74.0602 27.6105 74.1802 27.6904 74.3002 27.7904L74.6602 28.0704L74.9902 28.3805C75.1002 28.4905 75.2002 28.6005 75.3002 28.7205C75.4002 28.8405 75.5002 28.9504 75.5902 29.0704C75.6802 29.1904 75.7702 29.3104 75.8602 29.4404C75.9502 29.5704 76.0202 29.6904 76.1002 29.8304L76.3102 30.2305C76.3802 30.3705 76.4402 30.5005 76.5002 30.6505C76.5602 30.8005 76.6102 30.9304 76.6502 31.0704C76.7027 31.2142 76.7461 31.3613 76.7802 31.5105C76.7802 31.6605 76.8502 31.8104 76.8802 31.9604C76.9102 32.1104 76.9302 32.2604 76.9502 32.4104C76.9702 32.5604 76.9502 32.7105 76.9502 32.8605C76.9502 33.0105 76.9502 33.1704 76.9502 33.3204V54.5604C76.9502 54.7104 76.9502 54.8605 76.9502 55.0105C76.9502 55.1605 76.9502 55.3205 76.9502 55.4705C76.9502 55.6205 76.9502 55.7704 76.8802 55.9204C76.8102 56.0704 76.8202 56.2205 76.7802 56.3705C76.7461 56.5164 76.7026 56.66 76.6502 56.8004C76.6502 56.9504 76.5502 57.0905 76.5002 57.2305C76.4502 57.3705 76.3802 57.5105 76.3102 57.6505L76.1002 58.0504L75.8602 58.4404C75.7702 58.5604 75.6902 58.6904 75.5902 58.8104C75.4902 58.9304 75.4002 59.0504 75.3002 59.1604C75.2046 59.2775 75.1011 59.3878 74.9902 59.4905L74.6602 59.8004L74.3002 60.0905C74.1802 60.1805 74.0602 60.2705 73.9302 60.3505L73.5402 60.5905L55.1402 71.2104C55.0102 71.2905 54.8802 71.3704 54.7402 71.4404L54.3302 71.6305L53.9002 71.7904L53.4702 71.9304L53.0202 72.0404L52.5702 72.1105H52.1202H51.2002H50.7502L50.3002 72.0404L49.8602 71.9304L49.4202 71.7904L48.9902 71.6305L48.5802 71.4404C48.4402 71.3704 48.3102 71.2905 48.1802 71.2104L29.7802 60.5905L29.3902 60.3505L29.0202 60.0905L28.6702 59.8004L28.3302 59.4905L28.0202 59.1604C27.9202 59.0504 27.8302 58.9304 27.7302 58.8104L27.4702 58.4404C27.383 58.315 27.3029 58.1848 27.2302 58.0504C27.1502 57.9204 27.0802 57.7805 27.0102 57.6505L26.8302 57.2305C26.7702 57.0905 26.7202 56.9504 26.6702 56.8004C26.6202 56.6504 26.5802 56.5105 26.5402 56.3705C26.5002 56.2305 26.4702 56.0704 26.4402 55.9204C26.4102 55.7704 26.3902 55.6205 26.3702 55.4705C26.3502 55.3205 26.3702 55.1705 26.3702 55.0105V32.8605C26.3702 32.7105 26.3702 32.5604 26.3702 32.4104C26.3702 32.2604 26.3702 32.1104 26.4402 31.9604C26.5102 31.8104 26.5002 31.6605 26.5402 31.5105C26.5802 31.3605 26.6202 31.2204 26.6702 31.0704C26.7202 30.9204 26.7702 30.7905 26.8302 30.6505C26.8902 30.5105 26.9502 30.3705 27.0102 30.2305C27.0702 30.0905 27.1502 29.9604 27.2302 29.8304C27.2983 29.6935 27.3787 29.563 27.4702 29.4404C27.5502 29.3104 27.6402 29.1904 27.7302 29.0704C27.8202 28.9504 27.9202 28.8305 28.0202 28.7205C28.1202 28.6105 28.2302 28.4905 28.3302 28.3805L28.6702 28.0704C28.7802 27.9704 28.9002 27.8804 29.0202 27.7904C29.1402 27.7004 29.2702 27.6105 29.3902 27.5205L29.7802 27.2904L48.1802 16.6704L48.5802 16.4504L48.9902 16.2505L49.4202 16.0905L49.8602 15.9504L50.3002 15.8505L50.7502 15.7705H51.2002H52.1202H52.5702L53.0202 15.8505L53.4702 15.9504L53.9002 16.0905L54.3302 16.2505L54.7402 16.4504L55.1402 16.6704ZM43.1402 36.8304H46.4402V59.8304L51.7002 65.4705L56.9602 59.8304V36.8304H60.4502H60.6402H60.8302L61.0102 36.7605L61.1802 36.6804L61.3502 36.5804L61.5002 36.4705L61.6402 36.3405L61.7702 36.2004L61.8902 36.0404L61.9902 35.8805L62.0702 35.7004C62.0946 35.642 62.1147 35.5819 62.1302 35.5205C62.1346 35.4606 62.1346 35.4004 62.1302 35.3405V35.1505C62.1349 35.0873 62.1349 35.0237 62.1302 34.9604C62.1351 34.8939 62.1351 34.8271 62.1302 34.7605V34.5704C62.1346 34.5105 62.1346 34.4504 62.1302 34.3905C62.1147 34.3291 62.0946 34.2689 62.0702 34.2104L61.9702 33.9705L61.8702 33.8104L61.7502 33.6505L61.6202 33.5105L61.4802 33.3805L61.3302 33.2705L61.1602 33.1704L60.9902 33.0905L60.8102 33.0205H60.6202C60.5573 33.0101 60.4931 33.0101 60.4302 33.0205H53.6402V28.2104L53.7702 28.1105L53.8902 28.0005L54.0002 27.8805L54.1102 27.7605L54.2102 27.6305L54.3002 27.5005L54.3902 27.3605C54.448 27.2681 54.4982 27.171 54.5402 27.0704C54.5694 27.027 54.593 26.9799 54.6102 26.9304L54.6702 26.7705C54.6823 26.7191 54.6991 26.6689 54.7202 26.6205C54.7156 26.5672 54.7156 26.5137 54.7202 26.4604V26.3004V26.1405C54.7202 26.1405 54.7202 26.0305 54.7202 25.9805C54.7252 25.9273 54.7252 25.8737 54.7202 25.8204V25.6505C54.7248 25.5973 54.7248 25.5437 54.7202 25.4905C54.7202 25.4405 54.7202 25.3804 54.7202 25.3304V25.1704V25.0105C54.7202 24.9605 54.7202 24.9105 54.7202 24.8505C54.6991 24.8021 54.6823 24.7518 54.6702 24.7004L54.6102 24.5504C54.5911 24.4986 54.5676 24.4485 54.5402 24.4005C54.4982 24.2999 54.448 24.2029 54.3902 24.1105L54.3002 23.9705L54.2102 23.8405C54.1745 23.799 54.1411 23.7556 54.1102 23.7104L54.0002 23.5905L53.8902 23.4805L53.7702 23.3605L53.6402 23.2605L53.5102 23.1604L53.3802 23.0704L53.2402 22.9905L53.1002 22.9104L52.9502 22.8405L52.8002 22.7805H52.6502L52.4902 22.7305H52.3302C52.2773 22.7209 52.2231 22.7209 52.1702 22.7305H52.0102H51.8502H51.5202H51.3602H51.2002C51.1473 22.7209 51.0931 22.7209 51.0402 22.7305H50.8802L50.7202 22.7805H50.5702L50.4202 22.8405L50.2702 22.9104L50.1302 22.9905L49.9902 23.0704L49.8602 23.1604L49.7302 23.2605L49.6002 23.3605L49.4802 23.4805L49.3702 23.5905L49.2602 23.7104C49.2293 23.7556 49.1959 23.799 49.1602 23.8405C49.1301 23.8862 49.0967 23.9296 49.0602 23.9705C49.0374 24.0192 49.0106 24.066 48.9802 24.1105C48.9498 24.1549 48.923 24.2017 48.9002 24.2505L48.8202 24.4005L48.7602 24.5504L48.7002 24.7004C48.688 24.7518 48.6713 24.8021 48.6502 24.8505C48.6502 24.9105 48.6502 24.9605 48.6502 25.0105V25.1704V25.3304C48.6502 25.3304 48.6502 25.4405 48.6502 25.4905C48.6455 25.5437 48.6455 25.5973 48.6502 25.6505V25.8204C48.6452 25.8737 48.6452 25.9273 48.6502 25.9805C48.6502 25.9805 48.6502 26.0905 48.6502 26.1405V26.3004V26.4604C48.6502 26.5104 48.6502 26.5705 48.6502 26.6205C48.6713 26.6689 48.688 26.7191 48.7002 26.7705L48.7602 26.9304C48.7774 26.9799 48.8009 27.027 48.8302 27.0704C48.8722 27.171 48.9224 27.2681 48.9802 27.3605L49.0702 27.5005L49.1602 27.6305L49.2602 27.7605L49.3702 27.8805L49.4802 28.0005L49.6002 28.1105L49.7302 28.2104V33.0305H42.9302C42.8672 33.0209 42.8032 33.0209 42.7402 33.0305H42.5602L42.3702 33.1005L42.2002 33.1804L42.0402 33.2805L41.8802 33.3905L41.7402 33.5205L41.6102 33.6704L41.5002 33.8204C41.4633 33.8715 41.4299 33.9249 41.4002 33.9805C41.3694 34.0385 41.3426 34.0986 41.3202 34.1604C41.2925 34.2186 41.2692 34.2788 41.2502 34.3405C41.2502 34.4005 41.2502 34.4605 41.2502 34.5205V34.7205C41.2549 34.7837 41.2549 34.8472 41.2502 34.9104C41.2502 34.9704 41.2502 35.0305 41.2502 35.1005C41.2413 35.1635 41.2413 35.2274 41.2502 35.2904C41.2456 35.3503 41.2456 35.4105 41.2502 35.4705C41.2692 35.5321 41.2925 35.5923 41.3202 35.6505C41.3408 35.7098 41.3676 35.7667 41.4002 35.8204C41.4278 35.8803 41.4614 35.9372 41.5002 35.9905C41.5371 36.0429 41.5772 36.093 41.6202 36.1405L41.7402 36.2805L41.8902 36.4104L42.0402 36.5205L42.2002 36.6205L42.3802 36.7004L42.5602 36.7705H42.7402H42.9302L43.1402 36.8304Z" fill="url(#paint8_linear_1234_39298)"/>
<g opacity="0.6">
<path fill-rule="evenodd" clip-rule="evenodd" d="M48.2505 20.0302C47.9405 19.5602 45.3605 20.7202 42.4905 22.6402C39.6205 24.5602 37.5805 26.5001 37.8905 26.9701C38.2005 27.4401 40.7905 26.2802 43.6505 24.3702C46.5105 22.4602 48.5805 20.5102 48.2505 20.0302Z" fill="white"/>
</g>
<path fill-rule="evenodd" clip-rule="evenodd" d="M74.2509 31.13C74.1113 30.8955 73.9154 30.6996 73.6809 30.5599L52.6809 18.5599C52.4492 18.4285 52.1873 18.3594 51.9209 18.3594C51.6545 18.3594 51.3926 18.4285 51.1609 18.5599L30.1609 30.5599C29.9239 30.6968 29.7271 30.8935 29.5901 31.1305C29.4532 31.3675 29.381 31.6362 29.3809 31.9099V55.97C29.3807 56.244 29.4532 56.5131 29.5909 56.75C29.7249 56.9888 29.9221 57.1859 30.1609 57.3199L51.1609 69.37C51.3968 69.5 51.6616 69.5687 51.9309 69.5699C52.1973 69.5701 52.4591 69.5013 52.6909 69.37L73.6909 57.3199C73.9279 57.1831 74.1247 56.9863 74.2617 56.7494C74.3986 56.5124 74.4707 56.2436 74.4709 55.97V31.9099C74.468 31.635 74.3921 31.3659 74.2509 31.13Z" fill="url(#paint9_linear_1234_39298)"/>
<g opacity="0.6">
<path fill-rule="evenodd" clip-rule="evenodd" d="M46.6417 21.1107C46.3217 20.6407 44.4618 21.3207 42.5018 22.6407C40.5418 23.9607 39.1818 25.4207 39.5018 25.8907C39.8218 26.3607 41.6817 25.6807 43.6517 24.3607C45.6217 23.0407 46.9717 21.5907 46.6417 21.1107Z" fill="white"/>
</g>
<g opacity="0.6">
<path fill-rule="evenodd" clip-rule="evenodd" d="M45.151 22.1106C44.891 21.7306 43.7611 22.0406 42.6211 22.8006C41.4811 23.5606 40.781 24.4806 41.031 24.8606C41.281 25.2406 42.4111 24.9406 43.5511 24.1806C44.6911 23.4206 45.401 22.4906 45.151 22.1106Z" fill="white"/>
</g>
<g opacity="0.6">
<path fill-rule="evenodd" clip-rule="evenodd" d="M44.6302 22.4508C44.3702 22.0708 43.4802 22.2307 42.6302 22.8007C41.7802 23.3707 41.2903 24.1408 41.5503 24.5208C41.8103 24.9008 42.7103 24.7507 43.5503 24.1807C44.3903 23.6107 44.8902 22.8408 44.6302 22.4508Z" fill="white"/>
</g>
<path fill-rule="evenodd" clip-rule="evenodd" d="M70.9712 65.2104C70.7012 64.7104 68.0312 65.6403 64.9712 67.2903C61.9112 68.9403 59.7312 70.7004 59.9712 71.2004C60.2112 71.7004 62.9212 70.7704 65.9712 69.1204C69.0212 67.4704 71.2812 65.7204 70.9712 65.2104Z" fill="white"/>
<path fill-rule="evenodd" clip-rule="evenodd" d="M69.3006 66.1406C69.0306 65.6406 67.1206 66.1405 65.0406 67.2905C62.9606 68.4405 61.4905 69.7705 61.7705 70.2905C62.0505 70.8105 63.9606 70.2906 66.0406 69.1406C68.1206 67.9906 69.5806 66.6506 69.3006 66.1406Z" fill="white"/>
<path fill-rule="evenodd" clip-rule="evenodd" d="M67.7009 66.9708C67.4809 66.5708 66.3209 66.7807 65.1209 67.4307C63.9209 68.0807 63.1209 68.9508 63.3609 69.3508C63.6009 69.7508 64.7209 69.5508 65.9209 68.8908C67.1209 68.2308 67.9709 67.4008 67.7009 66.9708Z" fill="white"/>
<path fill-rule="evenodd" clip-rule="evenodd" d="M67.1504 67.3006C66.9304 66.8906 66.0304 66.9706 65.1504 67.4606C64.2704 67.9506 63.7004 68.6806 63.9204 69.0806C64.1404 69.4806 65.0604 69.4106 65.9204 68.9206C66.7804 68.4306 67.3704 67.7006 67.1504 67.3006Z" fill="white"/>
<path d="M77.5598 34.0205L75.7298 47.0205H78.4498L77.1598 56.4404H74.4098L73.8398 60.5504H60.9698L61.5398 56.4404H49.2498L50.2498 49.3805L51.4498 45.3805L44.2698 60.5404H36.9698L36.8998 60.6804V60.5404H30.1998L26.0298 39.3505L22.5098 34.1604H37.9098L39.4198 41.9304L43.2098 34.1604H49.2898L49.1898 34.0504H77.5698L77.5598 34.0205ZM60.7298 37.0205H55.9698L56.7598 37.8905L56.1198 40.0205L53.1198 50.0205L53.0598 50.4404L52.6498 53.4404H64.9698L64.8198 54.5504L64.5498 56.4404L64.3998 57.5504H71.2398L71.8098 53.4404H74.5498L74.6098 53.0205L74.9698 50.4005V50.0205H72.2698L72.3298 49.6505L72.6998 47.0205L73.6998 40.0205L74.1298 37.0205H65.9198L66.7298 37.9304L67.1098 38.3505L66.8698 40.0205L65.4498 50.0205H60.1198L60.9898 47.0205L62.9898 40.0205L63.3798 38.6904L63.8598 37.0205H60.7298ZM38.4598 57.5105H42.3398L50.5698 40.1305L51.9898 37.1305H45.0798L40.3498 46.8004L38.1598 51.2805L37.2198 46.3805L35.4298 37.1305H28.1598L28.8398 38.1305L29.2298 40.1305L32.6598 57.5105H38.4598Z" fill="#8B3C0D"/>
<defs>
<linearGradient id="paint0_linear_1234_39298" x1="0.401349" y1="44.6703" x2="101.571" y2="44.6703" gradientUnits="userSpaceOnUse">
<stop stop-color="#B4D6FF"/>
<stop offset="1" stop-color="#792F08"/>
</linearGradient>
<linearGradient id="paint1_linear_1234_39298" x1="50.7411" y1="0.210508" x2="51.7611" y2="86.5804" gradientUnits="userSpaceOnUse">
<stop stop-color="#EED181"/>
<stop offset="1" stop-color="#B87D2D"/>
</linearGradient>
<linearGradient id="paint2_linear_1234_39298" x1="27.4905" y1="18.9205" x2="27.4905" y2="53.0905" gradientUnits="userSpaceOnUse">
<stop offset="0.12" stop-color="#8A3909"/>
<stop offset="0.43" stop-color="#DFB03A"/>
<stop offset="0.73" stop-color="#F0CF77"/>
<stop offset="0.99" stop-color="#FFECB9"/>
</linearGradient>
<linearGradient id="paint3_linear_1234_39298" x1="75.2816" y1="18.92" x2="75.2816" y2="53.12" gradientUnits="userSpaceOnUse">
<stop offset="0.12" stop-color="#8A3909"/>
<stop offset="0.43" stop-color="#DFB03A"/>
<stop offset="0.73" stop-color="#F0CF77"/>
<stop offset="0.99" stop-color="#FFECB9"/>
</linearGradient>
<linearGradient id="paint4_linear_1234_39298" x1="50.671" y1="6.81013" x2="51.341" y2="82.3902" gradientUnits="userSpaceOnUse">
<stop stop-color="#F4E187"/>
<stop offset="0.19" stop-color="#DFB03A"/>
<stop offset="0.42" stop-color="#FFF3D9"/>
<stop offset="0.63" stop-color="#DFB03A"/>
<stop offset="0.81" stop-color="#8F3C0A"/>
<stop offset="1" stop-color="#5A1D06"/>
</linearGradient>
<linearGradient id="paint5_linear_1234_39298" x1="50.5713" y1="12.5703" x2="50.5713" y2="77.5104" gradientUnits="userSpaceOnUse">
<stop offset="0.12" stop-color="#8A3909"/>
<stop offset="0.43" stop-color="#DFB03A"/>
<stop offset="0.73" stop-color="#F0CF77"/>
<stop offset="0.99" stop-color="#FFECB9"/>
</linearGradient>
<linearGradient id="paint6_linear_1234_39298" x1="50.2813" y1="11.3403" x2="50.8613" y2="77.5104" gradientUnits="userSpaceOnUse">
<stop stop-color="#B90A21"/>
<stop offset="0.39" stop-color="#FF5733"/>
<stop offset="1" stop-color="white" stop-opacity="0"/>
</linearGradient>
<linearGradient id="paint7_linear_1234_39298" x1="50.7998" y1="16.3303" x2="50.7998" y2="73.2102" gradientUnits="userSpaceOnUse">
<stop stop-color="#FFEFCC"/>
<stop offset="0.35" stop-color="#E5C052"/>
<stop offset="0.85" stop-color="#893C0E"/>
</linearGradient>
<linearGradient id="paint8_linear_1234_39298" x1="51.4102" y1="15.7105" x2="51.9102" y2="72.1705" gradientUnits="userSpaceOnUse">
<stop stop-color="#FAEAC3"/>
<stop offset="0.1" stop-color="#F7EFA8"/>
<stop offset="1" stop-color="#FFE39B" stop-opacity="0"/>
</linearGradient>
<linearGradient id="paint9_linear_1234_39298" x1="51.6909" y1="18.31" x2="52.1409" y2="69.5699" gradientUnits="userSpaceOnUse">
<stop stop-color="white" stop-opacity="0.4"/>
<stop offset="0.16" stop-color="white" stop-opacity="0.06"/>
<stop offset="0.33" stop-color="white" stop-opacity="0"/>
</linearGradient>
</defs>
</svg>
