<svg width="77" height="88" fill="none" xmlns="http://www.w3.org/2000/svg"><path fill-rule="evenodd" clip-rule="evenodd" d="M.33 23.13A2.6 2.6 0 0 0 0 24.38v40.74c.002.44.119.87.34 1.25.215.38.53.695.91.91l35.72 20.39c.37.218.791.332 1.22.33a2.4 2.4 0 0 0 1.23-.33l35.74-20.39a2.51 2.51 0 0 0 1.25-2.16V24.38a2.51 2.51 0 0 0-1.25-2.16L39.42 1.83a2.4 2.4 0 0 0-1.23-.33 2.4 2.4 0 0 0-1.22.33L1.23 22.22a2.5 2.5 0 0 0-.9.91" fill="url(#prefix__a)"/><path fill-rule="evenodd" clip-rule="evenodd" d="M38.21 86.5a2.4 2.4 0 0 0 1.23-.33l35.74-20.4a2.4 2.4 0 0 0 .91-.9 2.5 2.5 0 0 0 .34-1.25V22.88a2.51 2.51 0 0 0-1.25-2.16L39.44.33A2.4 2.4 0 0 0 38.21 0a2.4 2.4 0 0 0-1.22.33L1.25 20.72a2.4 2.4 0 0 0-.91.91A2.5 2.5 0 0 0 0 22.88v40.75c.003.438.116.868.33 1.25.222.379.54.692.92.91l35.72 20.38a2.4 2.4 0 0 0 1.24.33" fill="url(#prefix__b)"/><path fill-rule="evenodd" clip-rule="evenodd" d="M39.46 6.77a2.45 2.45 0 0 0-1.24-.33 2.5 2.5 0 0 0-1.24.33L6.83 24.18a2.56 2.56 0 0 0-.91.91 2.45 2.45 0 0 0-.33 1.24v34.82c0 .436.113.863.33 1.24.22.376.534.69.91.91l30.14 17.41a2.6 2.6 0 0 0 1.24.33 2.55 2.55 0 0 0 1.24-.33L69.61 63.3a2.53 2.53 0 0 0 .9-.91 2.5 2.5 0 0 0 .33-1.24V26.33a2.45 2.45 0 0 0-.33-1.24 2.53 2.53 0 0 0-.9-.91z" fill="url(#prefix__c)"/><path fill-rule="evenodd" clip-rule="evenodd" d="M38.22 6.44a2.45 2.45 0 0 1 1.24.33l30.16 17.41c.373.222.683.535.9.91.218.377.332.805.33 1.24v34.82c0 .436-.113.863-.33 1.24a2.53 2.53 0 0 1-.9.91L39.46 80.71a2.55 2.55 0 0 1-1.24.33 2.6 2.6 0 0 1-1.24-.33L6.83 63.3a2.56 2.56 0 0 1-.91-.91 2.5 2.5 0 0 1-.33-1.24V26.33a2.45 2.45 0 0 1 .33-1.24c.22-.375.534-.689.91-.91L36.97 6.77a2.5 2.5 0 0 1 1.25-.33m0 .3a2.17 2.17 0 0 1 1.09.29l30.16 17.41c.33.193.602.469.79.8a2.1 2.1 0 0 1 .29 1.09v34.82a2 2 0 0 1-.29 1.09 2.17 2.17 0 0 1-.79.8L39.32 80.45a2.23 2.23 0 0 1-1.1.29 2.2 2.2 0 0 1-1.09-.29L6.97 63.04a2.2 2.2 0 0 1-.81-.8 2.13 2.13 0 0 1-.28-1.09V26.33a2.2 2.2 0 0 1 .28-1.09 2.2 2.2 0 0 1 .81-.8L37.11 7.03a2.2 2.2 0 0 1 1.11-.29" fill="url(#prefix__d)"/><path fill-rule="evenodd" clip-rule="evenodd" d="M9.74 27.18a2 2 0 0 0-.27 1v30.66a2 2 0 0 0 .27 1c.18.3.431.55.73.73l27 15.35c.302.18.65.27 1 .26a1.9 1.9 0 0 0 1-.26l27-15.35a2 2 0 0 0 1-1.73V28.18a2.1 2.1 0 0 0-.27-1 2 2 0 0 0-.74-.72l-27-15.36a2 2 0 0 0-2 0l-27 15.36c-.3.172-.548.42-.72.72" fill="url(#prefix__e)"/><path fill-rule="evenodd" clip-rule="evenodd" d="M34.531 15.89c-.35-.53-3.22.76-6.39 2.89s-5.46 4.27-5.1 4.81 3.22-.77 6.39-2.88 5.46-4.29 5.1-4.82" fill="#fff" opacity=".6"/><path fill-rule="evenodd" clip-rule="evenodd" d="m39.45 70.62 23.3-13.36a1.732 1.732 0 0 0 .87-1.5V29.08a1.7 1.7 0 0 0-.87-1.5l-23.3-13.37a1.73 1.73 0 0 0-1.69 0l-23.3 13.37a1.7 1.7 0 0 0-.64.63 1.74 1.74 0 0 0-.23.87v26.68a1.73 1.73 0 0 0 .87 1.5l23.3 13.36c.257.143.546.219.84.22a1.8 1.8 0 0 0 .85-.22" fill="url(#prefix__f)"/><path fill-rule="evenodd" clip-rule="evenodd" d="M32.731 17.09c-.35-.53-2.41.23-4.59 1.68s-3.66 3.08-3.3 3.61 2.42-.22 4.59-1.68 3.66-3.07 3.3-3.61" fill="#fff" opacity=".6"/><path fill-rule="evenodd" clip-rule="evenodd" d="M31.071 18.22c-.28-.42-1.53-.08-2.79.77s-2.06 1.87-1.78 2.29 1.53.08 2.79-.77 2.06-1.87 1.78-2.29" fill="#fff" opacity=".6"/><path fill-rule="evenodd" clip-rule="evenodd" d="M30.5 18.61c-.29-.43-1.28-.25-2.23.38s-1.48 1.49-1.2 1.91 1.28.24 2.22-.39 1.49-1.49 1.21-1.9" fill="#fff" opacity=".6"/><path fill-rule="evenodd" clip-rule="evenodd" d="M60.56 67.2c-.31-.57-3.28.47-6.63 2.3s-5.81 3.78-5.5 4.34 3.27-.48 6.61-2.31 5.82-3.77 5.52-4.33" fill="#fff"/><path fill-rule="evenodd" clip-rule="evenodd" d="M58.66 68.24c-.31-.57-2.43 0-4.72 1.26s-3.92 2.74-3.61 3.3 2.42 0 4.72-1.27 3.92-2.73 3.61-3.29" fill="#fff"/><path fill-rule="evenodd" clip-rule="evenodd" d="M56.9 69.21c-.24-.45-1.52-.21-2.85.52s-2.21 1.68-2 2.12 1.52.21 2.85-.52 2.24-1.68 2-2.12" fill="#fff"/><path fill-rule="evenodd" clip-rule="evenodd" d="M56.301 69.54c-.25-.44-1.25-.359-2.25.191s-1.61 1.35-1.37 1.79 1.25.36 2.25-.19 1.61-1.36 1.37-1.79" fill="#fff"/><path fill-rule="evenodd" clip-rule="evenodd" d="m42.291 14.14 19.68 11.34.42.25.4.28.38.31q.186.153.35.33c.12.11.23.23.34.35l.31.38.28.39c.09.14.17.28.25.42q.13.207.23.43c.07.15.14.29.2.44s.12.31.17.46.1.31.14.47.07.31.1.47.06.32.08.48 0 .33 0 .49v24.15c0 .17-.05.32-.08.48s-.06.32-.1.47-.09.32-.14.47-.11.31-.17.46-.13.29-.2.44a4 4 0 0 1-.23.43c-.08.14-.16.28-.25.42l-.28.39-.31.38c-.11.12-.22.24-.34.35q-.164.177-.35.33l-.38.31-.4.28-.42.26-19.64 11.34-.43.24-.44.2q-.223.105-.46.18l-.46.14-.48.12-.48.08h-1.95l-.48-.08a4 4 0 0 1-.47-.12l-.47-.14a4 4 0 0 1-.45-.18l-.44-.2-.43-.24-19.65-11.34-.41-.26-.4-.28c-.13-.1-.26-.2-.38-.31l-.36-.33-.33-.35c-.11-.12-.21-.25-.31-.38l-.28-.39c-.09-.14-.18-.28-.26-.42s-.16-.28-.23-.43l-.2-.44c-.06-.15-.11-.31-.16-.46s-.1-.31-.14-.47-.08-.31-.11-.47 0-.32-.07-.48 0-.33 0-.49v-24.1c0-.17 0-.32.07-.48s.07-.31.11-.47.09-.31.14-.47.1-.31.16-.46l.2-.44c.07-.15.15-.29.23-.43s.17-.28.26-.42l.28-.39c.1-.13.2-.26.31-.38l.33-.35.36-.33c.12-.11.25-.21.38-.31l.4-.28c.13-.09.27-.17.41-.25l19.65-11.34q.208-.135.43-.24l.44-.21.45-.17.47-.15.47-.11.48-.08q.246-.015.49 0h.98q.24-.015.48 0l.48.08.48.11c.15 0 .31.09.46.15l.46.17.44.21q.2.085.39.19m-12.86 21.53h3.54v24.51l5.62 6 5.62-6V35.65h3.93l.19-.05.2-.07.18-.09.18-.1.16-.12a1 1 0 0 0 .15-.14l.14-.15.13-.17c0-.06.07-.11.1-.18l.09-.18q.042-.093.07-.19v-.4q.008-.105 0-.21a1.3 1.3 0 0 0 0-.2v-.41a2 2 0 0 0-.07-.19l-.09-.19-.1-.17-.13-.17-.14-.15a1 1 0 0 0-.15-.14l-.16-.12-.18-.1-.18-.09-.2-.07h-7.65v-5.13l.14-.11.12-.12a.7.7 0 0 0 .12-.13l.12-.13.11-.13.1-.15.09-.14.09-.15.07-.16a.8.8 0 0 0 .07-.16.4.4 0 0 0 .06-.16l.06-.16v-.17a1 1 0 0 0 0-.17 1 1 0 0 0 0-.17q.008-.09 0-.18a1 1 0 0 0 0-.17v-.17q.008-.09 0-.18a1 1 0 0 0 0-.17 1 1 0 0 0 0-.17 1 1 0 0 0 0-.17v-.17a1 1 0 0 1-.05-.17l-.07-.16-.07-.16-.07-.15-.09-.15-.09-.15-.1-.14-.11-.14-.11-.13-.13-.12-.12-.12-.14-.11-.14-.11-.14-.09-.15-.09-.15-.08-.16-.08-.16-.06-.16-.06h-2.06l-.16.06-.16.06-.16.08-.15.08-.15.09-.14.09-.14.11-.14.11-.12.12-.12.12-.12.13-.11.14-.1.14-.09.15-.09.15-.07.15-.07.16a.6.6 0 0 0-.06.16l-.06.17v.34a1 1 0 0 0 0 .17 1 1 0 0 0 0 .17q-.008.09 0 .18v.17a1 1 0 0 0 0 .17q-.008.09 0 .18a1 1 0 0 0 0 .17v.34l.06.16q.022.084.06.16.027.084.07.16l.07.16.09.15.09.14.1.15.11.13.12.13.12.13.12.12.14.11v5.14h-7.66l-.19.07-.19.09-.17.1q-.09.057-.17.13l-.15.14a1 1 0 0 0-.14.15l-.12.16-.11.18q-.045.087-.08.18a2 2 0 0 0-.07.2.761.761 0 0 0-.05.4 1.3 1.3 0 0 0 0 .2q-.007.105 0 .21a.8.8 0 0 0 0 .2q.04.202.12.39l.09.18.1.18q.06.084.13.16l.13.15q.074.078.16.14l.16.12.18.11.18.08.19.07.2.05h.2z" fill="url(#prefix__g)"/><path d="m44.791 44.24-2.82.4.11-.76-7.56 16h-7.24l-.08.15v-.15h-6.73l-4.17-21.19-3.52-5.18h15.41l1.5 7.77 3.8-7.77h13.48l-.37.78 12.69-1.78-3.83 27.37h-12.9zm.72-3.13 2.81-.4-.11.79-.33 2.3-1.83 13h6.84l2.48-17.75.44-3.09-3.09.43-6.67.94-.09.65-.34 2.31zm-16.77 15.73h3.88l8.23-17.37 1.42-3h-6.91l-4.72 9.66-2.19 4.48-.95-4.89-1.79-9.25h-7.27l.68 1 .4 2 3.42 17.37z" fill="#3D2D55"/><defs><linearGradient id="prefix__a" x1="37.82" y1="1.51" x2="38.58" y2="85.43" gradientUnits="userSpaceOnUse"><stop stop-color="#D1D0FB"/><stop offset="1" stop-color="#0C0A16"/></linearGradient><linearGradient id="prefix__b" x1="37.82" y1=".01" x2="38.58" y2="83.84" gradientUnits="userSpaceOnUse"><stop stop-color="#C8C8EC"/><stop offset=".44" stop-color="#847AB7"/><stop offset="1" stop-color="#3D2E53"/></linearGradient><linearGradient id="prefix__c" x1="37.9" y1="8.14" x2="38.56" y2="81.07" gradientUnits="userSpaceOnUse"><stop stop-color="#392952"/><stop offset="1" stop-color="#BEBCE4"/></linearGradient><linearGradient id="prefix__d" x1="37.9" y1="6.45" x2="38.55" y2="81.04" gradientUnits="userSpaceOnUse"><stop stop-color="#43335A"/><stop offset=".53" stop-color="#C7C2F0"/><stop offset="1" stop-color="#fff"/></linearGradient><linearGradient id="prefix__e" x1="38.161" y1="10.84" x2="38.741" y2="74.31" gradientUnits="userSpaceOnUse"><stop stop-color="#D7D3FD"/><stop offset=".48" stop-color="#847AB7"/><stop offset="1" stop-color="#46385D"/></linearGradient><linearGradient id="prefix__f" x1="38.35" y1="14.001" x2="38.85" y2="70.841" gradientUnits="userSpaceOnUse"><stop stop-color="#fff" stop-opacity=".4"/><stop offset=".16" stop-color="#fff" stop-opacity=".06"/><stop offset=".33" stop-color="#fff" stop-opacity="0"/></linearGradient><linearGradient id="prefix__g" x1="38.301" y1="13.12" x2="38.841" y2="73.42" gradientUnits="userSpaceOnUse"><stop stop-color="#fff" stop-opacity=".6"/><stop offset=".11" stop-color="#fff" stop-opacity=".6"/><stop offset="1" stop-color="#fff" stop-opacity="0"/></linearGradient></defs></svg>