<svg width="20" height="17" viewBox="0 0 20 17" fill="none" xmlns="http://www.w3.org/2000/svg">
<path fill-rule="evenodd" clip-rule="evenodd" d="M16.9565 12.5685C16.9962 12.4993 17.0169 12.4209 17.0166 12.3411V11.4062L17.5732 11.1333C18.099 10.8806 18.5379 10.4774 18.8343 9.97476C19.1306 9.47216 19.2709 8.89285 19.2375 8.31037C19.2139 7.92388 19.1151 7.54573 18.9464 7.19718L17.0166 8.1394V7.67192L17.946 7.22265C18.295 7.05738 18.6076 6.82433 18.8656 6.53706C19.1236 6.2498 19.3218 5.91407 19.4488 5.54942C19.5758 5.18477 19.6289 4.79851 19.6051 4.41312C19.5813 4.02774 19.4811 3.65093 19.3102 3.30467L16.7783 4.5288L10.2792 0.823644C10.2116 0.784352 10.1347 0.763672 10.0564 0.763672C9.97816 0.763672 9.90129 0.784352 9.8336 0.823644L3.32365 4.53427C3.28694 4.55499 3.25327 4.58071 3.22361 4.61067L0.518866 3.30285L0.498855 3.34832C0.1692 4.04614 0.13022 4.84633 0.390484 5.57289C0.650748 6.29945 1.18894 6.89287 1.8867 7.22265L3.09629 7.80652V8.27764L0.884472 7.19718L0.862641 7.24083C0.536056 7.94247 0.499173 8.74455 0.759987 9.4732C1.0208 10.2018 1.55829 10.7983 2.25594 11.1333L3.09629 11.5426V12.3393C3.09593 12.4191 3.11664 12.4975 3.15631 12.5667C3.19622 12.6354 3.25406 12.692 3.32365 12.7304L9.8336 16.4428C9.90129 16.4821 9.97816 16.5028 10.0564 16.5028C10.1347 16.5028 10.2116 16.4821 10.2792 16.4428L16.7892 12.7304C16.8582 12.692 16.9159 12.6362 16.9565 12.5685Z" fill="url(#paint0_linear_5802_19350)"/>
<path fill-rule="evenodd" clip-rule="evenodd" d="M17.0222 7.87031V7.40466L17.9517 6.95721C18.4767 6.70805 18.9152 6.30739 19.2105 5.80685C19.5058 5.30632 19.6445 4.72883 19.6087 4.14877C19.5855 3.76341 19.4866 3.3864 19.3177 3.03922L16.7839 4.26336L10.2849 0.558201C10.2166 0.519926 10.1395 0.499892 10.0612 0.500005C9.98315 0.499648 9.90648 0.52038 9.83927 0.560021L3.32932 4.27064C3.2922 4.29075 3.25845 4.31651 3.22928 4.34702L0.524532 3.03922L0.504521 3.0847C0.175889 3.7819 0.13726 4.58101 0.397104 5.30667C0.656949 6.03232 1.19405 6.62526 1.89055 6.95539L3.10195 7.54108V8.01035L0.890138 6.93174L0.868307 6.97721C0.542777 7.67872 0.506452 8.48016 0.767185 9.20824C1.02792 9.93632 1.56476 10.5325 2.26161 10.8679L3.10195 11.2772V12.0739C3.10111 12.1535 3.1218 12.2318 3.16182 12.3007C3.20184 12.3695 3.25971 12.4262 3.32932 12.4649L9.83927 16.1737C9.90682 16.2125 9.98327 16.2332 10.0612 16.2337C10.1397 16.2332 10.2167 16.2125 10.2849 16.1737L16.793 12.4649C16.8631 12.4263 16.921 12.369 16.9604 12.2994C17.0014 12.2307 17.0228 12.1521 17.0222 12.072V11.1371L17.5788 10.8661C17.9281 10.6989 18.2409 10.4642 18.4992 10.1756C18.7575 9.88703 18.9562 9.55023 19.0839 9.18457C19.2115 8.81892 19.2656 8.43162 19.2429 8.04499C19.2203 7.65836 19.1215 7.28003 18.9521 6.93174L17.0222 7.87031Z" fill="url(#paint1_linear_5802_19350)"/>
<path fill-rule="evenodd" clip-rule="evenodd" d="M4.25332 4.90147C4.18454 4.94112 4.12744 4.99822 4.08779 5.067C4.0481 5.13552 4.02739 5.21337 4.02777 5.29255V11.6242C4.02712 11.7034 4.04785 11.7814 4.08779 11.8498C4.12744 11.9186 4.18454 11.9757 4.25332 12.0153L9.73921 15.1821C9.80757 15.2213 9.88502 15.242 9.96384 15.242C10.0427 15.242 10.1201 15.2213 10.1885 15.1821L15.6835 12.0153C15.7522 11.9757 15.8093 11.9186 15.849 11.8498C15.8889 11.7814 15.9097 11.7034 15.909 11.6242V5.29255C15.9094 5.21337 15.8887 5.13552 15.849 5.067C15.8093 4.99822 15.7522 4.94112 15.6835 4.90147L10.1976 1.73471C10.1292 1.69546 10.0518 1.6748 9.97294 1.6748C9.89411 1.6748 9.81666 1.69546 9.7483 1.73471L4.25332 4.90147Z" fill="url(#paint2_linear_5802_19350)"/>
<path fill-rule="evenodd" clip-rule="evenodd" d="M4.08786 5.067C4.12751 4.99822 4.18461 4.94112 4.25338 4.90147L9.73928 1.73471C9.80764 1.69546 9.88508 1.6748 9.96391 1.6748C10.0427 1.6748 10.1202 1.69546 10.1886 1.73471L15.6835 4.90147C15.7523 4.94112 15.8094 4.99822 15.8491 5.067C15.8888 5.13552 15.9095 5.21337 15.9091 5.29255V11.6242C15.9097 11.7034 15.889 11.7814 15.8491 11.8498C15.8094 11.9186 15.7523 11.9757 15.6835 12.0153L10.1976 15.1821C10.1293 15.2213 10.0518 15.242 9.97301 15.242C9.89418 15.242 9.81673 15.2213 9.74837 15.1821L4.26248 12.0153C4.1937 11.9757 4.1366 11.9186 4.09695 11.8498C4.05701 11.7814 4.03628 11.7034 4.03693 11.6242V5.29255C4.03377 5.21419 4.05133 5.13639 4.08786 5.067ZM4.28067 4.94877L9.76838 1.78018C9.82828 1.74623 9.89596 1.72838 9.96482 1.72838C10.0337 1.72838 10.1014 1.74623 10.1613 1.78018L15.6472 4.94513C15.7081 4.9802 15.7584 5.03112 15.7927 5.09247C15.8274 5.15275 15.8456 5.22115 15.8454 5.29073V11.6224C15.8469 11.6916 15.8286 11.7597 15.7927 11.8189C15.7584 11.8802 15.7081 11.9311 15.6472 11.9662L10.1613 15.133C10.1013 15.1676 10.0332 15.1858 9.96391 15.1858C9.89463 15.1858 9.82656 15.1676 9.76656 15.133L4.28067 11.9662C4.22058 11.9301 4.17055 11.8794 4.13515 11.8189C4.09997 11.7594 4.08172 11.6915 4.0824 11.6224V5.29073C4.0822 5.22115 4.1004 5.15275 4.13515 5.09247C4.16984 5.03235 4.22011 4.9827 4.28067 4.94877Z" fill="url(#paint3_linear_5802_19350)"/>
<path fill-rule="evenodd" clip-rule="evenodd" d="M4.64626 11.1949C4.64637 11.2588 4.66331 11.3215 4.69537 11.3768C4.72807 11.4313 4.77367 11.4769 4.82815 11.5096L9.73926 14.3017C9.79471 14.3331 9.85743 14.3494 9.92116 14.349C9.98488 14.3494 10.0476 14.3331 10.1031 14.3017L15.0142 11.5096C15.0694 11.4777 15.1153 11.4318 15.1472 11.3766C15.1791 11.3214 15.196 11.2587 15.1961 11.1949V5.61988C15.1959 5.55599 15.179 5.49326 15.1469 5.43799C15.1151 5.3822 15.0686 5.33625 15.0123 5.30521L10.1012 2.51134C10.0456 2.48055 9.9829 2.46487 9.91934 2.46586C9.85587 2.46568 9.79336 2.4813 9.73744 2.51134L4.82633 5.30521C4.77067 5.33637 4.72471 5.38232 4.69355 5.43799C4.66082 5.49298 4.64384 5.5559 4.64444 5.61988L4.64626 11.1949Z" fill="url(#paint4_linear_5802_19350)"/>
<g opacity="0.6">
<path fill-rule="evenodd" clip-rule="evenodd" d="M9.2479 3.37418C9.18424 3.27778 8.66221 3.51242 8.08561 3.89985C7.50901 4.28728 7.09429 4.67655 7.15796 4.77477C7.22162 4.87299 7.74365 4.63471 8.32025 4.25092C8.89685 3.86712 9.31702 3.47058 9.2479 3.37418Z" fill="white"/>
</g>
<path fill-rule="evenodd" clip-rule="evenodd" d="M10.1429 13.3286L14.381 10.8985C14.4292 10.8704 14.4693 10.8303 14.4974 10.7821C14.5247 10.7345 14.5392 10.6806 14.5392 10.6257V5.76731C14.5397 5.71182 14.5253 5.6572 14.4975 5.6092C14.4696 5.56119 14.4294 5.52156 14.381 5.49447L10.1429 3.06256C10.0959 3.03627 10.043 3.02246 9.98916 3.02246C9.93534 3.02246 9.88242 3.03627 9.83546 3.06256L5.59735 5.49447C5.54887 5.5214 5.50863 5.56101 5.48094 5.60906C5.45336 5.65723 5.43893 5.7118 5.4391 5.76731V10.6202C5.43916 10.6751 5.45359 10.729 5.48094 10.7766C5.50858 10.8252 5.54879 10.8654 5.59735 10.8931L9.83546 13.3232C9.88222 13.3491 9.93477 13.3629 9.98825 13.3632C10.0418 13.3645 10.095 13.3527 10.1429 13.3286Z" fill="url(#paint5_linear_5802_19350)"/>
<g opacity="0.6">
<path fill-rule="evenodd" clip-rule="evenodd" d="M8.9225 3.58444C8.85702 3.48803 8.48233 3.62628 8.0858 3.89003C7.68927 4.15377 7.42189 4.45025 7.48555 4.54666C7.54921 4.64306 7.92573 4.50663 8.32044 4.24107C8.71515 3.9755 8.98617 3.68993 8.9225 3.58444Z" fill="white"/>
</g>
<g opacity="0.6">
<path fill-rule="evenodd" clip-rule="evenodd" d="M8.62064 3.79735C8.5679 3.72095 8.34053 3.78278 8.11134 3.93739C7.88216 4.092 7.73664 4.27753 7.78939 4.35393C7.84214 4.43032 8.06587 4.36666 8.29688 4.21387C8.52788 4.06108 8.66976 3.87374 8.62064 3.79735Z" fill="white"/>
</g>
<g opacity="0.6">
<path fill-rule="evenodd" clip-rule="evenodd" d="M8.51491 3.8684C8.46398 3.79018 8.28209 3.82109 8.11111 3.9375C7.94013 4.05391 7.84009 4.20852 7.89284 4.28492C7.94559 4.36131 8.12385 4.32857 8.29665 4.21398C8.46944 4.09939 8.56584 3.94843 8.51491 3.8684Z" fill="white"/>
</g>
<path fill-rule="evenodd" clip-rule="evenodd" d="M13.9827 12.7062C13.9263 12.6025 13.3861 12.7916 12.7768 13.1245C12.1674 13.4574 11.72 13.8121 11.7764 13.9139C11.8327 14.0158 12.3712 13.8266 12.9787 13.4937C13.5862 13.1609 14.0464 12.808 13.9827 12.7062Z" fill="white"/>
<path fill-rule="evenodd" clip-rule="evenodd" d="M13.6373 12.8957C13.5809 12.7921 13.1971 12.8957 12.7788 13.1249C12.3604 13.3541 12.0658 13.6233 12.1221 13.7252C12.1785 13.827 12.5623 13.7252 12.9807 13.4942C13.399 13.2632 13.6937 12.9976 13.6373 12.8957Z" fill="white"/>
<path fill-rule="evenodd" clip-rule="evenodd" d="M13.3189 13.0726C13.2735 12.9908 13.0425 13.0345 12.7987 13.1672C12.555 13.3 12.3967 13.4728 12.4349 13.5528C12.4731 13.6329 12.7114 13.591 12.9533 13.4583C13.1952 13.3255 13.3626 13.1527 13.3189 13.0726Z" fill="white"/>
<path fill-rule="evenodd" clip-rule="evenodd" d="M13.208 13.1326C13.1625 13.0525 12.9806 13.0671 12.7987 13.1671C12.6168 13.2672 12.5059 13.4127 12.5513 13.4927C12.5968 13.5727 12.7769 13.5582 12.9588 13.4581C13.1407 13.3581 13.2516 13.2126 13.208 13.1326Z" fill="white"/>
<path fill-rule="evenodd" clip-rule="evenodd" d="M10.6595 3.05578L14.2282 5.11847C14.2537 5.13302 14.2791 5.14757 14.3028 5.16394L14.3755 5.21485C14.3992 5.23304 14.4228 5.25124 14.4446 5.27125C14.4672 5.28982 14.4885 5.30987 14.5083 5.33127C14.5301 5.35128 14.5501 5.3731 14.5702 5.39493C14.5902 5.41675 14.6084 5.4404 14.6265 5.46405L14.6775 5.53499C14.6938 5.56045 14.7102 5.58593 14.7248 5.61139L14.7666 5.68959C14.7793 5.71688 14.7902 5.74235 14.8012 5.76964C14.8121 5.79692 14.823 5.82602 14.8321 5.8533C14.8412 5.88058 14.8503 5.90968 14.8575 5.93878C14.8648 5.96789 14.8703 5.99519 14.8757 6.02429C14.8812 6.05339 14.8867 6.08249 14.8903 6.11342C14.8939 6.14434 14.8903 6.17162 14.8903 6.20072C14.8903 6.22982 14.8903 6.26074 14.8903 6.28985V10.4152C14.8903 10.4461 14.8903 10.4752 14.8903 10.5043C14.8903 10.5334 14.8903 10.5625 14.8903 10.5934C14.8903 10.6244 14.8812 10.6516 14.8757 10.6807C14.8703 10.7099 14.8648 10.7389 14.8575 10.7662C14.8503 10.7935 14.8412 10.8244 14.8321 10.8517C14.823 10.879 14.8121 10.9081 14.8012 10.9354C14.7902 10.9627 14.7793 10.99 14.7666 11.0154L14.7248 11.0936C14.7102 11.1191 14.6938 11.1446 14.6775 11.17L14.6265 11.241C14.6084 11.2646 14.5902 11.2883 14.5702 11.3101C14.5501 11.3319 14.5301 11.3537 14.5083 11.3737C14.4885 11.3952 14.4672 11.4152 14.4446 11.4338C14.4228 11.4538 14.3992 11.472 14.3755 11.4902L14.3028 11.5411L14.2282 11.5884L10.654 13.6511C10.6285 13.6674 10.6031 13.6802 10.5758 13.6947L10.4958 13.7311C10.4686 13.7439 10.4407 13.7548 10.4121 13.7638L10.3284 13.7911L10.2411 13.8111L10.1538 13.8257H10.0665H9.97736H9.88823H9.80092L9.71361 13.8111L9.62631 13.7911L9.54263 13.7638C9.51404 13.7548 9.48608 13.7439 9.45896 13.7311L9.37893 13.6947C9.35165 13.6802 9.32618 13.6674 9.30072 13.6511L5.73198 11.5884L5.6574 11.5411L5.58464 11.4902C5.561 11.472 5.53735 11.4538 5.51552 11.4338C5.49299 11.4152 5.47172 11.3952 5.45186 11.3737C5.43003 11.3537 5.41003 11.3319 5.39002 11.3101C5.37001 11.2883 5.35182 11.2646 5.33363 11.241L5.2827 11.17C5.26633 11.1446 5.24996 11.1191 5.23541 11.0936C5.22086 11.0682 5.20812 11.0427 5.19539 11.0154C5.18143 10.9896 5.16928 10.9629 5.15902 10.9354C5.1481 10.9081 5.13719 10.879 5.12809 10.8517C5.119 10.8244 5.1099 10.7953 5.10262 10.7662C5.09535 10.7371 5.0899 10.7099 5.08444 10.6807C5.07898 10.6516 5.07352 10.6225 5.06988 10.5934C5.06625 10.5643 5.06988 10.5334 5.06988 10.5043C5.06988 10.4752 5.06988 10.4461 5.06988 10.4152V6.28985C5.06988 6.26074 5.06988 6.22982 5.06988 6.20072C5.06988 6.17162 5.06988 6.14252 5.06988 6.11342C5.06988 6.08431 5.07898 6.05339 5.08444 6.02429C5.0899 5.99519 5.09535 5.96789 5.10262 5.93878C5.1099 5.90968 5.119 5.8824 5.12809 5.8533C5.13719 5.8242 5.1481 5.79874 5.15902 5.76964C5.16963 5.74229 5.18177 5.71556 5.19539 5.68959C5.20812 5.66231 5.22086 5.63686 5.23541 5.61139C5.24996 5.58593 5.26633 5.56045 5.2827 5.53681C5.29907 5.51316 5.31544 5.48769 5.33363 5.46405C5.35182 5.4404 5.37001 5.41675 5.39002 5.39493C5.41003 5.3731 5.43003 5.35128 5.45186 5.33127C5.47172 5.30987 5.49299 5.28982 5.51552 5.27125C5.53735 5.25124 5.561 5.23304 5.58464 5.21485L5.6574 5.16394C5.68105 5.14757 5.70651 5.13302 5.73198 5.11847L9.30617 3.05578C9.33122 3.03947 9.35735 3.02489 9.38439 3.01213L9.46442 2.97394L9.54809 2.94301C9.57537 2.9321 9.60266 2.92482 9.63176 2.91572L9.71907 2.89572L9.80638 2.88117L9.89369 2.87207H9.98282H10.0719L10.1593 2.88117L10.2466 2.89572L10.3339 2.91572C10.363 2.91572 10.3903 2.9321 10.4175 2.94301L10.5012 2.97394L10.5812 3.01213C10.6083 3.02489 10.6344 3.03947 10.6595 3.05578ZM8.32031 6.97195H8.96239V11.4301L9.98282 12.5215L11.0051 11.4301V6.96831H11.6817H11.7199H11.7563L11.7908 6.95558L11.8254 6.9392L11.8563 6.92101L11.8872 6.89918L11.9145 6.87372L11.94 6.84645L11.9618 6.81552L11.98 6.78459C11.9862 6.77344 11.9917 6.7619 11.9964 6.75004C12.0062 6.72725 12.0135 6.70347 12.0182 6.6791V6.64273C12.0191 6.63002 12.0191 6.61724 12.0182 6.60452C12.0192 6.59241 12.0192 6.58026 12.0182 6.56815V6.52994C12.0158 6.51766 12.0128 6.50552 12.0091 6.49357C12.0057 6.48177 12.0014 6.47023 11.9964 6.45902C11.9916 6.44775 11.9862 6.4368 11.98 6.42627C11.9746 6.41498 11.9686 6.40403 11.9618 6.39352L11.94 6.36443L11.9145 6.33532L11.8872 6.31167L11.8563 6.28803L11.8254 6.26984L11.7908 6.25348L11.7563 6.24073H11.7199H11.6817H10.363V5.30762L10.3884 5.28762L10.4121 5.26579L10.4339 5.24214L10.4539 5.21849L10.4739 5.19485L10.4921 5.16938L10.5085 5.14211L10.5249 5.11483C10.5249 5.11483 10.534 5.09481 10.5394 5.08572L10.5521 5.05661L10.5631 5.02752C10.5631 5.02752 10.5631 5.00751 10.5631 4.99841C10.5703 4.96749 10.5703 4.96747 10.5776 4.93655L10.5776 4.90564C10.5776 4.89473 10.5776 4.88381 10.5776 4.87289C10.5786 4.86261 10.5786 4.85227 10.5776 4.84199C10.5794 4.83176 10.5794 4.82128 10.5776 4.81106C10.5785 4.80016 10.5785 4.78922 10.5776 4.77833C10.5776 4.76741 10.5776 4.75831 10.5776 4.7474V4.71647C10.5703 4.68555 10.5703 4.68555 10.563 4.65463L10.5631 4.6237L10.5521 4.59461C10.5468 4.58543 10.5425 4.57566 10.5394 4.56551L10.5249 4.53822L10.5085 4.51093L10.4921 4.48364L10.4739 4.45819C10.4678 4.44927 10.4611 4.44076 10.4539 4.43273L10.4339 4.40908L10.4121 4.38725L10.3884 4.36543L10.3648 4.34542L10.3393 4.32539L10.312 4.30903L10.2848 4.29267L10.2575 4.27812L10.2284 4.26356L10.1993 4.25265L10.1702 4.24173H10.1392H10.1083H10.0774H10.0465H9.92097H9.88823H9.85731H9.82638H9.79729L9.76636 4.25265L9.73726 4.26356L9.70998 4.27812L9.68087 4.29267L9.65359 4.30903L9.62812 4.32539L9.60266 4.34542C9.59398 4.35109 9.58604 4.35781 9.57901 4.36543L9.55537 4.38725L9.53354 4.40908L9.51171 4.43273L9.49352 4.45819C9.48645 4.46591 9.48034 4.47445 9.47533 4.48364L9.45714 4.51093C9.4426 4.53821 9.4426 4.53822 9.42805 4.56551L9.41531 4.59461L9.4044 4.6237C9.39531 4.65463 9.39531 4.65464 9.38622 4.68556L9.38621 4.71647V4.7474C9.38621 4.75831 9.38621 4.76741 9.38621 4.77833C9.38621 4.78924 9.38621 4.80014 9.38621 4.81106V4.84199C9.38621 4.8529 9.38621 4.8638 9.38621 4.87289C9.38621 4.88199 9.38621 4.89473 9.38621 4.90564V4.93657V4.96748C9.38864 4.97795 9.39168 4.98829 9.3953 4.99841C9.39751 5.00835 9.40056 5.01809 9.4044 5.02752L9.41531 5.05661C9.41844 5.06676 9.4227 5.07653 9.42804 5.08572L9.44259 5.11483C9.44673 5.12429 9.45159 5.13341 9.45714 5.14211L9.47533 5.16938L9.49352 5.19485L9.51171 5.21849L9.53354 5.24214L9.55537 5.26579L9.57901 5.28762L9.60266 5.30762V6.24255H8.28212H8.24573H8.20936L8.1748 6.2553L8.14024 6.27166L8.10931 6.29167C8.09818 6.2977 8.0878 6.30502 8.0784 6.31349L8.05111 6.33896C8.04171 6.34716 8.03318 6.35631 8.02565 6.36625L8.00382 6.39534C7.99707 6.40585 7.99099 6.4168 7.98563 6.42809C7.97945 6.43863 7.97398 6.44957 7.96926 6.46084C7.96421 6.47267 7.95996 6.48481 7.95653 6.49721C7.9557 6.50871 7.9557 6.52025 7.95653 6.53176V6.56997C7.95562 6.58208 7.95562 6.59423 7.95653 6.60634C7.95562 6.61906 7.95562 6.63181 7.95653 6.64453V6.68092C7.95569 6.69303 7.95569 6.70518 7.95653 6.71729L7.96926 6.75186L7.98563 6.78459C7.99163 6.7959 7.99831 6.80684 8.00564 6.81734L8.02747 6.84645L8.05293 6.87372L8.08022 6.89918L8.10931 6.92101L8.14206 6.94102L8.1748 6.95558L8.21118 6.96831H8.24573H8.28394C8.29594 6.97053 8.3081 6.97175 8.32031 6.97195Z" fill="url(#paint6_linear_5802_19350)"/>
<path d="M12.6404 8.27203L12.575 8.7213H10.0939V8.77042L9.86476 10.3911C9.85395 10.4468 9.85594 10.5043 9.87057 10.5591C9.88521 10.6139 9.91211 10.6647 9.94925 10.7076C9.98638 10.7505 10.0328 10.7845 10.0849 10.8068C10.1371 10.8292 10.1937 10.8394 10.2504 10.8367H13.5244L13.5354 10.7603L13.6481 9.96545L13.368 10.2146H11.0034L11.078 9.66896L11.1216 9.34339H13.7336L13.7627 9.13785L13.9719 7.64995L14.0483 7.10427H10.3231L10.2413 7.67906L10.1885 8.04285L10.1722 8.16652V8.21564H11.4163V8.16652L11.4709 7.71725H12.7205L12.6404 8.27203ZM9.66104 7.89368L9.7629 7.67724L10.0212 7.13156H8.77158L7.91304 8.88865L7.5147 9.70353L7.3419 8.81407L7.01631 7.13156H5.6794L5.8049 7.31345L5.87584 7.67724L6.49791 10.8367H8.26046L9.66104 7.89368ZM6.05592 11.3824L5.29742 7.5281L4.65716 6.58588H7.46013L7.73297 7.99919L8.42416 6.58588H9.84474V6.55859H14.6722L14.3884 8.58124L13.9937 11.3824H10.2431C10.1082 11.3853 9.97436 11.3584 9.85104 11.3037C9.72773 11.249 9.61798 11.1677 9.5296 11.0658C9.44122 10.9639 9.37638 10.8438 9.33968 10.7139C9.30298 10.5841 9.29532 10.4478 9.31726 10.3147L9.40092 9.71261L8.61151 11.3806H7.29461L7.28187 11.4079V11.3806L6.05592 11.3824Z" fill="#134B2E"/>
<defs>
<linearGradient id="paint0_linear_5802_19350" x1="9.87362" y1="0.769091" x2="10.0664" y2="16.3791" gradientUnits="userSpaceOnUse">
<stop stop-color="#2A7746"/>
<stop offset="1" stop-color="#0E4528"/>
</linearGradient>
<linearGradient id="paint1_linear_5802_19350" x1="9.87383" y1="0.501823" x2="10.0666" y2="16.0901" gradientUnits="userSpaceOnUse">
<stop stop-color="#C0E48A"/>
<stop offset="1" stop-color="#198034"/>
</linearGradient>
<linearGradient id="paint2_linear_5802_19350" x1="9.90655" y1="1.98027" x2="10.0248" y2="15.2439" gradientUnits="userSpaceOnUse">
<stop stop-color="#073D24"/>
<stop offset="1" stop-color="#77E189"/>
</linearGradient>
<linearGradient id="paint3_linear_5802_19350" x1="9.9048" y1="1.67469" x2="10.023" y2="15.2421" gradientUnits="userSpaceOnUse">
<stop stop-color="#0F482B"/>
<stop offset="0.51" stop-color="#78B864"/>
<stop offset="1" stop-color="#F0FFF7"/>
</linearGradient>
<linearGradient id="paint4_linear_5802_19350" x1="9.86477" y1="2.46768" x2="9.96845" y2="14.0088" gradientUnits="userSpaceOnUse">
<stop stop-color="#6ED481"/>
<stop offset="1" stop-color="#044424"/>
</linearGradient>
<linearGradient id="paint5_linear_5802_19350" x1="9.94277" y1="3.02981" x2="10.0337" y2="13.3686" gradientUnits="userSpaceOnUse">
<stop stop-color="white" stop-opacity="0.4"/>
<stop offset="0.16" stop-color="white" stop-opacity="0.06"/>
<stop offset="0.33" stop-color="white" stop-opacity="0"/>
</linearGradient>
<linearGradient id="paint6_linear_5802_19350" x1="9.9337" y1="2.87025" x2="10.0319" y2="13.8384" gradientUnits="userSpaceOnUse">
<stop stop-color="white" stop-opacity="0.6"/>
<stop offset="0.11" stop-color="white" stop-opacity="0.6"/>
<stop offset="1" stop-color="white" stop-opacity="0"/>
</linearGradient>
</defs>
</svg>
