<svg width="108" height="88" fill="none" xmlns="http://www.w3.org/2000/svg"><path fill-rule="evenodd" clip-rule="evenodd" d="M92.97 66.36a2.5 2.5 0 0 0 .33-1.25v-5.14l3.06-1.5a16.19 16.19 0 0 0 9.15-15.52 16.3 16.3 0 0 0-1.6-6.12L93.3 42.01v-2.57l5.11-2.47a16 16 0 0 0 9.121-15.445 16 16 0 0 0-1.621-6.094l-13.92 6.73L56.26 1.79a2.44 2.44 0 0 0-2.45 0l-35.79 20.4a2.5 2.5 0 0 0-.55.42L2.6 15.42l-.11.25a16 16 0 0 0 7.63 21.3l6.65 3.21v2.59L4.61 36.83l-.12.24a16.17 16.17 0 0 0 7.66 21.4l4.62 2.25v4.38c-.002.438.112.87.33 1.25.22.378.537.689.92.9l35.79 20.41a2.44 2.44 0 0 0 2.45 0l35.79-20.41c.38-.211.697-.518.92-.89" fill="url(#prefix__a)"/><path fill-rule="evenodd" clip-rule="evenodd" d="M93.331 40.53v-2.56l5.11-2.46a16 16 0 0 0 9.11-15.44 16.2 16.2 0 0 0-1.6-6.1l-13.93 6.73L56.291.33a2.5 2.5 0 0 0-1.23-.32 2.4 2.4 0 0 0-1.22.33l-35.79 20.4c-.204.111-.39.253-.55.42l-14.87-7.19-.11.25a16 16 0 0 0 7.62 21.28l6.66 3.22v2.58l-12.16-5.93-.12.25a16.18 16.18 0 0 0 7.66 21.39l4.62 2.25v4.38a2.43 2.43 0 0 0 1.25 2.15l35.79 20.39a2.5 2.5 0 0 0 1.22.33 2.5 2.5 0 0 0 1.23-.33l35.78-20.39a2.37 2.37 0 0 0 .92-.91 2.4 2.4 0 0 0 .34-1.25v-5.14l3.06-1.49a16.15 16.15 0 0 0 7.55-21.63z" fill="url(#prefix__b)"/><path fill-rule="evenodd" clip-rule="evenodd" d="M23.13 24.21a2.48 2.48 0 0 0-1.24 2.15v34.81a2.48 2.48 0 0 0 1.24 2.15l30.16 17.41a2.48 2.48 0 0 0 2.47 0l30.21-17.41a2.48 2.48 0 0 0 1.24-2.15V26.36a2.48 2.48 0 0 0-1.24-2.15L55.81 6.8a2.48 2.48 0 0 0-2.47 0z" fill="url(#prefix__c)"/><path fill-rule="evenodd" clip-rule="evenodd" d="M22.221 25.12a2.5 2.5 0 0 1 .91-.91L53.292 6.8a2.48 2.48 0 0 1 2.47 0l30.21 17.41a2.48 2.48 0 0 1 1.24 2.15v34.81a2.479 2.479 0 0 1-1.24 2.15l-30.16 17.41a2.48 2.48 0 0 1-2.47 0l-30.16-17.41a2.48 2.48 0 0 1-1.24-2.15V26.36c-.017-.43.08-.858.28-1.24m1.06-.65 30.17-17.42a2.19 2.19 0 0 1 2.16 0l30.16 17.4c.335.193.612.473.8.81.192.332.292.708.29 1.09v34.81c.008.38-.092.755-.29 1.08a2.14 2.14 0 0 1-.8.81l-30.16 17.41a2.17 2.17 0 0 1-2.17 0l-30.16-17.41a2.3 2.3 0 0 1-.8-.81 2.1 2.1 0 0 1-.29-1.08V26.35a2.17 2.17 0 0 1 .29-1.09c.191-.33.467-.603.8-.79" fill="url(#prefix__d)"/><path fill-rule="evenodd" clip-rule="evenodd" d="M25.291 58.81c.001.352.094.697.27 1 .18.3.43.55.73.73l27 15.35a2 2 0 0 0 1 .26c.35.003.696-.087 1-.26l27-15.35a2 2 0 0 0 1-1.73V28.16a2 2 0 0 0-.27-1 1.9 1.9 0 0 0-.74-.73l-27-15.36a2 2 0 0 0-1-.25 2.1 2.1 0 0 0-1 .25l-27 15.36a1.9 1.9 0 0 0-.73.73 1.9 1.9 0 0 0-.27 1z" fill="url(#prefix__e)"/><path fill-rule="evenodd" clip-rule="evenodd" d="M50.59 15.81c-.35-.53-3.22.76-6.39 2.89s-5.45 4.27-5.1 4.81 3.22-.77 6.39-2.88 5.48-4.29 5.1-4.82" fill="#fff" opacity=".6"/><path fill-rule="evenodd" clip-rule="evenodd" d="m55.51 70.54 23.3-13.36a1.73 1.73 0 0 0 .87-1.5V28.97a1.7 1.7 0 0 0-.87-1.5L55.51 14.1a1.73 1.73 0 0 0-1.69 0l-23.3 13.37a1.7 1.7 0 0 0-.64.63c-.151.265-.23.565-.23.87v26.68a1.73 1.73 0 0 0 .87 1.5l23.3 13.36c.258.143.546.219.84.22a1.8 1.8 0 0 0 .85-.19" fill="url(#prefix__f)"/><path fill-rule="evenodd" clip-rule="evenodd" d="M48.801 16.97c-.36-.53-2.42.23-4.6 1.68s-3.65 3.08-3.3 3.61 2.42-.22 4.59-1.68 3.66-3.03 3.31-3.61" fill="#fff" opacity=".6"/><path fill-rule="evenodd" clip-rule="evenodd" d="M47.141 18.14c-.29-.42-1.54-.08-2.8.77s-2.06 1.87-1.77 2.29 1.52.07 2.79-.77 2.05-1.87 1.78-2.29" fill="#fff" opacity=".6"/><path fill-rule="evenodd" clip-rule="evenodd" d="M46.56 18.53c-.28-.43-1.28-.26-2.22.38s-1.49 1.49-1.2 1.91 1.27.24 2.22-.39 1.48-1.46 1.2-1.9" fill="#fff" opacity=".6"/><path fill-rule="evenodd" clip-rule="evenodd" d="M76.621 67.12c-.31-.57-3.28.47-6.63 2.3s-5.81 3.78-5.5 4.34 3.27-.48 6.61-2.31 5.87-3.77 5.52-4.33" fill="#fff"/><path fill-rule="evenodd" clip-rule="evenodd" d="M74.722 68.16c-.31-.57-2.42 0-4.72 1.26s-3.92 2.74-3.61 3.3 2.42 0 4.72-1.27 3.92-2.73 3.61-3.29" fill="#fff"/><path fill-rule="evenodd" clip-rule="evenodd" d="M72.971 69.13c-.25-.45-1.52-.21-2.86.52s-2.21 1.68-2 2.12 1.52.21 2.85-.52 2.25-1.68 2.01-2.12" fill="#fff"/><path fill-rule="evenodd" clip-rule="evenodd" d="M72.361 69.46c-.25-.44-1.25-.36-2.25.19s-1.61 1.35-1.36 1.79 1.24.36 2.24-.19 1.61-1.35 1.37-1.79" fill="#fff"/><path fill-rule="evenodd" clip-rule="evenodd" d="M58.35 14.06 77.97 25.4c.14.08.28.16.41.25l.4.28c.13.1.26.2.38.31q.186.155.35.33c.12.11.23.23.34.35s.21.25.31.38l.28.39c.09.14.18.28.26.42l.23.43a8 8 0 0 1 .36.9c.05.15.1.31.14.47s.07.31.1.47.06.32.08.49 0 .32 0 .48V55.5c0 .17-.05.32-.08.48s-.06.32-.1.47-.09.32-.14.47-.11.31-.17.46-.12.3-.19.44l-.23.43c-.08.14-.17.28-.26.42l-.28.39c-.1.13-.2.26-.31.38s-.22.24-.34.35q-.164.178-.35.33c-.12.11-.25.21-.38.31l-.4.28-.41.26-19.65 11.34c-.14.09-.28.16-.43.24l-.44.2q-.224.106-.46.18l-.46.15-.48.11-.48.08h-1.94l-.48-.08-.48-.11-.46-.15q-.235-.073-.46-.18l-.44-.2c-.15-.08-.29-.15-.43-.24L31.26 60.97l-.41-.26-.4-.28c-.13-.1-.26-.2-.38-.31a4 4 0 0 1-.35-.33c-.12-.11-.23-.23-.34-.35a6 6 0 0 1-.31-.38l-.28-.39a5.783 5.783 0 0 1-.48-.85 3.5 3.5 0 0 1-.2-.44c-.06-.15-.12-.31-.17-.46s-.1-.31-.14-.47a8 8 0 0 1-.1-.47c-.03-.16-.06-.32-.08-.48s0-.33 0-.49V30.87c0-.16.05-.33.08-.49s.06-.31.1-.47.09-.31.14-.47.11-.3.17-.46a4 4 0 0 1 .2-.44c.07-.15.14-.29.22-.43s.17-.28.26-.41.18-.27.28-.4.2-.26.31-.38.22-.24.34-.35q.164-.176.35-.33c.12-.11.25-.21.38-.31l.4-.28c.13-.09.27-.17.41-.25l19.65-11.34q.207-.134.43-.24l.44-.21.46-.17c.15-.06.3-.1.46-.15l.48-.11.48-.08.48-.05h.98l.48.05.48.08.48.11c.16 0 .31.09.46.15l.46.17.44.21q.223.106.43.24M45.49 35.59h3.53V60.1l5.61 6 5.62-6V35.57h4.13l.19-.07.19-.09.17-.1.17-.12.15-.14.14-.15.12-.17.1-.17a2 2 0 0 0 .09-.19q.081-.187.12-.39v-.2q.007-.104 0-.21a1.3 1.3 0 0 0 0-.2v-.21a2 2 0 0 0-.21-.57 2 2 0 0 0-.1-.18l-.12-.16-.14-.16-.15-.13-.17-.13-.17-.1-.19-.09-.19-.07h-7.66v-5.13l.14-.11.13-.12.12-.13.11-.13.11-.13.1-.14.09-.15.09-.15s.05-.11.08-.16l.07-.16.06-.16v-.16l.08-.34v-.35a1 1 0 0 0 0-.17.5.5 0 0 0 0-.17 1 1 0 0 0 0-.18v-.34l-.08-.34v-.17l-.06-.16a.8.8 0 0 1-.07-.16l-.08-.15-.09-.15-.09-.15-.1-.14a1 1 0 0 0-.11-.14l-.11-.13-.12-.12-.13-.12-.13-.11-.14-.11-.15-.09-.15-.09-.15-.08-.16-.08-.16-.06-.16-.06h-2.05l-.17.06-.16.06-.15.08-.16.08-.15.09-.14.09-.14.11a.7.7 0 0 0-.13.11l-.13.12-.12.12-.12.13-.1.14a.7.7 0 0 0-.1.14l-.1.15-.16.3-.07.16-.06.16-.1.34v1.55q.02.087.05.17.019.084.05.16l.06.16q.025.085.07.16l.08.16q.035.08.08.15l.1.15.1.14.1.13.12.13.12.13.13.12.13.11v5.14h-7.66l-.19.07-.19.09-.17.11a1 1 0 0 0-.17.12l-.15.14a1 1 0 0 0-.14.15l-.12.16a2 2 0 0 0-.1.18 1.5 1.5 0 0 0-.16.38 1.3 1.3 0 0 0 0 .19v.21a1.3 1.3 0 0 0 0 .2q-.008.105 0 .21v.2a2 2 0 0 0 0 .2l.07.19.09.18q.05.094.11.18l.12.16.14.15.15.14.16.12.18.11.18.08.2.07h.4q.1.02.2.02" fill="url(#prefix__g)"/><path d="m69.242 42.74-.36 2.47h-13.64v.27l-1.26 8.91a2.06 2.06 0 0 0 2.12 2.45h18l.06-.42.62-4.37-1.54 1.37h-13l.41-3 .24-1.79h14.36l.16-1.13 1.15-8.18.42-3h-20.48l-.45 3.16-.29 2-.09.68v.27h6.84v-.27l.3-2.47h6.87zm-16.38-2.08.56-1.19 1.42-3h-6.87l-4.72 9.66-2.19 4.48-.95-4.89-1.79-9.25h-7.35l.69 1 .39 2 3.42 17.37h9.69zm-19.82 19.18-4.17-21.19-3.52-5.18h15.41l1.5 7.77 3.8-7.77h7.81v-.15h26.54l-1.56 11.12-2.17 15.4h-20.62a5.05 5.05 0 0 1-5.09-5.87l.46-3.31-4.34 9.17h-7.24l-.07.15v-.15z" fill="#134B2E"/><defs><linearGradient id="prefix__a" x1="54.03" y1="1.491" x2="55.09" y2="87.311" gradientUnits="userSpaceOnUse"><stop stop-color="#2A7746"/><stop offset="1" stop-color="#0E4528"/></linearGradient><linearGradient id="prefix__b" x1="54.031" y1=".021" x2="55.091" y2="85.721" gradientUnits="userSpaceOnUse"><stop stop-color="#C0E48A"/><stop offset="1" stop-color="#198034"/></linearGradient><linearGradient id="prefix__c" x1="54.211" y1="8.15" x2="54.861" y2="81.07" gradientUnits="userSpaceOnUse"><stop stop-color="#073D24"/><stop offset="1" stop-color="#77E189"/></linearGradient><linearGradient id="prefix__d" x1="54.201" y1="6.47" x2="54.851" y2="81.06" gradientUnits="userSpaceOnUse"><stop stop-color="#0F482B"/><stop offset=".51" stop-color="#78B864"/><stop offset="1" stop-color="#F0FFF7"/></linearGradient><linearGradient id="prefix__e" x1="53.981" y1="10.831" x2="54.551" y2="74.281" gradientUnits="userSpaceOnUse"><stop stop-color="#6ED481"/><stop offset="1" stop-color="#044424"/></linearGradient><linearGradient id="prefix__f" x1="54.41" y1="13.92" x2="54.91" y2="70.76" gradientUnits="userSpaceOnUse"><stop stop-color="#fff" stop-opacity=".4"/><stop offset=".16" stop-color="#fff" stop-opacity=".06"/><stop offset=".33" stop-color="#fff" stop-opacity="0"/></linearGradient><linearGradient id="prefix__g" x1="54.36" y1="13.041" x2="54.9" y2="73.341" gradientUnits="userSpaceOnUse"><stop stop-color="#fff" stop-opacity=".6"/><stop offset=".11" stop-color="#fff" stop-opacity=".6"/><stop offset="1" stop-color="#fff" stop-opacity="0"/></linearGradient></defs></svg>