<svg width="77" height="88" viewBox="0 0 77 88" fill="none" xmlns="http://www.w3.org/2000/svg">
<path fill-rule="evenodd" clip-rule="evenodd" d="M0.330002 23.13C0.116107 23.5121 0.00256775 23.9422 0 24.38V65.12C0.00153859 65.5593 0.118805 65.9905 0.339996 66.37C0.555235 66.7502 0.869788 67.0648 1.25 67.2801L36.97 87.67C37.3395 87.8879 37.761 88.002 38.19 88C38.6222 88.0023 39.047 87.8883 39.42 87.67L75.16 67.2801C75.5386 67.0603 75.8532 66.7453 76.0725 66.3664C76.2918 65.9875 76.4081 65.5578 76.41 65.12V24.38C76.4081 23.9423 76.2918 23.5126 76.0725 23.1337C75.8532 22.7548 75.5386 22.4398 75.16 22.22L39.42 1.82999C39.047 1.61169 38.6222 1.49776 38.19 1.50003C37.761 1.49807 37.3395 1.61205 36.97 1.82999L1.23 22.22C0.8564 22.4405 0.546325 22.754 0.330002 23.13Z" fill="url(#paint0_linear_1234_39186)"/>
<path fill-rule="evenodd" clip-rule="evenodd" d="M38.21 86.5C38.6422 86.5023 39.067 86.3883 39.44 86.17L75.18 65.7701C75.5598 65.5588 75.8745 65.2475 76.09 64.87C76.3112 64.4905 76.4285 64.0593 76.43 63.62V22.88C76.4281 22.4423 76.3117 22.0126 76.0925 21.6337C75.8732 21.2548 75.5586 20.9398 75.18 20.72L39.44 0.329989C39.067 0.111693 38.6422 -0.00224256 38.21 3.34427e-05C37.781 -0.00192533 37.3595 0.112051 36.99 0.329989L1.25 20.72C0.869788 20.9352 0.555235 21.2498 0.339996 21.63C0.118805 22.0096 0.00153859 22.4407 0 22.88V63.63C0.00256775 64.0679 0.116107 64.498 0.330002 64.88C0.551862 65.2586 0.869069 65.5722 1.25 65.7899L36.97 86.17C37.3453 86.3914 37.7743 86.5056 38.21 86.5Z" fill="url(#paint1_linear_1234_39186)"/>
<path fill-rule="evenodd" clip-rule="evenodd" d="M39.4599 6.77054C39.0832 6.55233 38.6552 6.43834 38.2199 6.44046C37.7848 6.43977 37.3571 6.55366 36.9799 6.77054L6.82988 24.1804C6.45401 24.4013 6.14077 24.7146 5.91987 25.0905C5.70167 25.4672 5.58776 25.8952 5.58987 26.3305V61.1505C5.58919 61.5857 5.703 62.0133 5.91987 62.3905C6.14077 62.7664 6.45401 63.0795 6.82988 63.3004L36.9699 80.7105C37.3488 80.9231 37.7754 81.0366 38.2099 81.0404C38.6446 81.0379 39.0714 80.9244 39.4499 80.7105L69.6099 63.3004C69.9829 63.0793 70.2928 62.766 70.5099 62.3905C70.7267 62.0133 70.8406 61.5857 70.8399 61.1505V26.3305C70.842 25.8952 70.7281 25.4672 70.5099 25.0905C70.2928 24.715 69.9829 24.4016 69.6099 24.1804L39.4599 6.77054Z" fill="url(#paint2_linear_1234_39186)"/>
<path fill-rule="evenodd" clip-rule="evenodd" d="M38.2199 6.44047C38.6552 6.43835 39.0832 6.55234 39.4599 6.77055L69.6199 24.1805C69.9929 24.4016 70.3028 24.715 70.5199 25.0905C70.7381 25.4672 70.852 25.8952 70.8499 26.3305V61.1506C70.8506 61.5857 70.7368 62.0133 70.5199 62.3905C70.3028 62.766 69.9929 63.0793 69.6199 63.3005L39.4599 80.7105C39.0814 80.9244 38.6546 81.0379 38.2199 81.0404C37.7854 81.0366 37.3588 80.9232 36.9799 80.7105L6.82988 63.3005C6.45401 63.0796 6.14077 62.7664 5.91987 62.3905C5.703 62.0133 5.58919 61.5857 5.58987 61.1506V26.3305C5.58776 25.8952 5.70167 25.4672 5.91987 25.0905C6.14077 24.7146 6.45401 24.4014 6.82988 24.1805L36.9699 6.77055C37.35 6.55197 37.7814 6.43802 38.2199 6.44047ZM38.2199 6.74052C38.6024 6.73942 38.9785 6.8395 39.3099 7.03056L69.4699 24.4405C69.7992 24.6327 70.0718 24.9088 70.2599 25.2405C70.4541 25.5706 70.5544 25.9475 70.5499 26.3305V61.1506C70.5598 61.5342 70.4591 61.9125 70.2599 62.2405C70.0714 62.572 69.7989 62.8478 69.4699 63.0404L39.3199 80.4505C38.9845 80.6406 38.6054 80.7406 38.2199 80.7405C37.8375 80.7402 37.4618 80.6402 37.1299 80.4505L6.96988 63.0404C6.63493 62.8487 6.35575 62.5731 6.15988 62.2405C5.97051 61.9089 5.87381 61.5324 5.87988 61.1506V26.3305C5.87667 25.949 5.97319 25.5733 6.15988 25.2405C6.35575 24.908 6.63493 24.6322 6.96988 24.4405L37.1099 7.03056C37.4477 6.83742 37.8307 6.73731 38.2199 6.74052Z" fill="url(#paint3_linear_1234_39186)"/>
<path fill-rule="evenodd" clip-rule="evenodd" d="M9.74071 27.1799C9.56445 27.4838 9.47133 27.8287 9.4707 28.1799V58.84C9.47133 59.1912 9.56445 59.5361 9.74071 59.84C9.9205 60.1395 10.1712 60.3902 10.4707 60.5699L37.4707 75.9199C37.7724 76.1003 38.1194 76.1906 38.4707 76.1799C38.8217 76.1878 39.168 76.0978 39.4707 75.9199L66.4707 60.5699C66.7744 60.3946 67.0267 60.1425 67.2022 59.8389C67.3778 59.5352 67.4703 59.1907 67.4707 58.84V28.1799C67.4665 27.8292 67.3736 27.4852 67.2007 27.1799C67.0213 26.8793 66.7661 26.6311 66.4607 26.46L39.4607 11.1C39.1567 10.9244 38.8118 10.832 38.4607 10.832C38.1096 10.832 37.7647 10.9244 37.4607 11.1L10.4607 26.46C10.1609 26.6316 9.91232 26.8801 9.74071 27.1799Z" fill="url(#paint4_linear_1234_39186)"/>
<g opacity="0.6">
<path fill-rule="evenodd" clip-rule="evenodd" d="M34.5311 15.8905C34.1811 15.3605 31.3112 16.6505 28.1412 18.7805C24.9712 20.9105 22.6812 23.0504 23.0412 23.5904C23.4012 24.1304 26.2612 22.8204 29.4312 20.7104C32.6012 18.6004 34.8911 16.4205 34.5311 15.8905Z" fill="white"/>
</g>
<path fill-rule="evenodd" clip-rule="evenodd" d="M39.4499 70.6206L62.7499 57.2606C63.0148 57.106 63.2352 56.8855 63.3899 56.6206C63.5402 56.3589 63.6195 56.0624 63.6199 55.7606V29.0806C63.6228 28.7755 63.5436 28.4752 63.3905 28.2113C63.2374 27.9474 63.0161 27.7295 62.7499 27.5806L39.4499 14.2106C39.1917 14.0661 38.9007 13.9902 38.6049 13.9902C38.309 13.9902 38.018 14.0661 37.7598 14.2106L14.4599 27.5806C14.1933 27.7286 13.9721 27.9464 13.8199 28.2106C13.6682 28.4754 13.5889 28.7754 13.5899 29.0806V55.7606C13.5902 56.0624 13.6695 56.3589 13.8199 56.6206C13.9718 56.8876 14.1929 57.1086 14.4599 57.2606L37.7598 70.6206C38.0169 70.7633 38.3058 70.839 38.5999 70.8406C38.8971 70.8389 39.1892 70.7634 39.4499 70.6206Z" fill="url(#paint5_linear_1234_39186)"/>
<g opacity="0.6">
<path fill-rule="evenodd" clip-rule="evenodd" d="M32.7311 17.0908C32.3811 16.5608 30.3211 17.3209 28.1411 18.7709C25.9611 20.2209 24.4811 21.8508 24.8411 22.3808C25.2011 22.9108 27.2611 22.1608 29.4311 20.7008C31.6011 19.2408 33.0911 17.6308 32.7311 17.0908Z" fill="white"/>
</g>
<g opacity="0.6">
<path fill-rule="evenodd" clip-rule="evenodd" d="M31.0712 18.2208C30.7912 17.8008 29.5412 18.1408 28.2812 18.9908C27.0212 19.8408 26.2212 20.8608 26.5012 21.2808C26.7812 21.7008 28.0312 21.3608 29.2912 20.5108C30.5512 19.6608 31.3512 18.6408 31.0712 18.2208Z" fill="white"/>
</g>
<g opacity="0.6">
<path fill-rule="evenodd" clip-rule="evenodd" d="M30.5008 18.6109C30.2108 18.1809 29.2208 18.3609 28.2708 18.9909C27.3208 19.6209 26.7908 20.4809 27.0708 20.9009C27.3508 21.3209 28.3508 21.1409 29.2908 20.5109C30.2308 19.8809 30.7808 19.0209 30.5008 18.6109Z" fill="white"/>
</g>
<path fill-rule="evenodd" clip-rule="evenodd" d="M60.5606 67.2002C60.2506 66.6302 57.2807 67.6702 53.9307 69.5002C50.5807 71.3302 48.1207 73.2802 48.4307 73.8402C48.7407 74.4002 51.7007 73.3603 55.0407 71.5303C58.3807 69.7003 60.8606 67.7602 60.5606 67.2002Z" fill="white"/>
<path fill-rule="evenodd" clip-rule="evenodd" d="M58.6608 68.2409C58.3508 67.6709 56.2308 68.2409 53.9408 69.5009C51.6508 70.7609 50.0208 72.2408 50.3308 72.8008C50.6408 73.3608 52.7508 72.8009 55.0508 71.5309C57.3508 70.2609 58.9708 68.8009 58.6608 68.2409Z" fill="white"/>
<path fill-rule="evenodd" clip-rule="evenodd" d="M56.9005 69.21C56.6605 68.76 55.3805 69 54.0505 69.73C52.7205 70.46 51.8405 71.41 52.0505 71.85C52.2605 72.29 53.5705 72.06 54.9005 71.33C56.2305 70.6 57.1405 69.65 56.9005 69.21Z" fill="white"/>
<path fill-rule="evenodd" clip-rule="evenodd" d="M56.3011 69.5409C56.0511 69.1009 55.0511 69.181 54.0511 69.731C53.0511 70.281 52.4411 71.081 52.6811 71.521C52.9211 71.961 53.9311 71.881 54.9311 71.331C55.9311 70.781 56.5411 69.9709 56.3011 69.5409Z" fill="white"/>
<path fill-rule="evenodd" clip-rule="evenodd" d="M42.2914 14.1401L61.9714 25.48L62.3914 25.73L62.7914 26.0101L63.1714 26.32C63.2953 26.4221 63.4122 26.5324 63.5214 26.6501C63.6414 26.7601 63.7514 26.88 63.8614 27L64.1714 27.3801L64.4514 27.7701C64.5414 27.9101 64.6214 28.05 64.7014 28.19C64.7878 28.3279 64.8647 28.4716 64.9314 28.62C65.0014 28.77 65.0714 28.91 65.1314 29.06C65.1914 29.21 65.2514 29.3701 65.3014 29.5201C65.3514 29.6701 65.4014 29.83 65.4414 29.99C65.4814 30.15 65.5114 30.3 65.5414 30.46C65.5714 30.62 65.6014 30.78 65.6214 30.94C65.6414 31.1 65.6214 31.27 65.6214 31.43C65.6214 31.59 65.6214 31.75 65.6214 31.92V54.6C65.6214 54.77 65.6214 54.93 65.6214 55.09C65.6214 55.25 65.6214 55.41 65.6214 55.58C65.6214 55.75 65.5714 55.9 65.5414 56.06C65.5114 56.22 65.4814 56.3801 65.4414 56.5301C65.4014 56.6801 65.3514 56.85 65.3014 57C65.2514 57.1501 65.1914 57.31 65.1314 57.46C65.0714 57.61 65.0014 57.7501 64.9314 57.9001C64.8647 58.0485 64.7878 58.1921 64.7014 58.33C64.6214 58.47 64.5414 58.6101 64.4514 58.75L64.1714 59.1401L63.8614 59.5201C63.7514 59.6401 63.6414 59.76 63.5214 59.87C63.4122 59.9877 63.2953 60.0979 63.1714 60.2L62.7914 60.5101L62.3914 60.79L61.9714 61.05L42.3314 72.3901L41.9014 72.6301L41.4614 72.83C41.3123 72.9003 41.1586 72.9605 41.0014 73.0101L40.5414 73.1501L40.0614 73.2701L39.5814 73.35H39.1014H38.6114H38.1214H37.6314L37.1514 73.2701C36.9925 73.2395 36.8356 73.1994 36.6814 73.1501L36.2114 73.0101C36.0581 72.9587 35.9078 72.8986 35.7614 72.83L35.3214 72.6301L34.8914 72.3901L15.2414 61.05L14.8314 60.79L14.4314 60.5101C14.3014 60.4101 14.1714 60.31 14.0514 60.2L13.6914 59.87L13.3614 59.5201C13.2514 59.4001 13.1514 59.2701 13.0514 59.1401L12.7714 58.75C12.6814 58.6101 12.5914 58.47 12.5114 58.33C12.4314 58.19 12.3514 58.0501 12.2814 57.9001L12.0814 57.46C12.0214 57.31 11.9714 57.1501 11.9214 57C11.8714 56.85 11.8214 56.6901 11.7814 56.5301C11.7414 56.3701 11.7014 56.22 11.6714 56.06C11.6414 55.9 11.6714 55.74 11.6014 55.58C11.5314 55.42 11.6014 55.25 11.6014 55.09C11.6014 54.93 11.6014 54.77 11.6014 54.6V31.97C11.6014 31.8 11.6014 31.64 11.6014 31.48C11.6014 31.32 11.6014 31.16 11.6014 30.99C11.6014 30.82 11.6014 30.6701 11.6714 30.5101C11.7414 30.3501 11.7414 30.2 11.7814 30.04C11.8214 29.88 11.8714 29.73 11.9214 29.57C11.9714 29.41 12.0214 29.26 12.0814 29.11L12.2814 28.67C12.3514 28.52 12.4314 28.38 12.5114 28.24C12.5914 28.1 12.6814 27.96 12.7714 27.82L13.0514 27.43C13.1514 27.3 13.2514 27.17 13.3614 27.05L13.6914 26.7L14.0514 26.37C14.1714 26.26 14.3014 26.16 14.4314 26.06L14.8314 25.7801C14.9614 25.6901 15.1014 25.6101 15.2414 25.5301L34.8914 14.19C35.0291 14.1003 35.1728 14.0201 35.3214 13.95L35.7614 13.74L36.2114 13.57L36.6814 13.42L37.1514 13.31L37.6314 13.23C37.7946 13.2207 37.9582 13.2207 38.1214 13.23H38.6114H39.1014C39.2613 13.2202 39.4216 13.2202 39.5814 13.23L40.0614 13.31L40.5414 13.42C40.6914 13.42 40.8514 13.51 41.0014 13.57L41.4614 13.74L41.9014 13.95C42.0343 14.0072 42.1645 14.0707 42.2914 14.1401ZM29.4314 35.67H32.9714V60.18L38.5914 66.18L44.2114 60.18V35.6501H47.9314H48.1414L48.3314 35.6L48.5314 35.5301L48.7114 35.44L48.8914 35.34L49.0514 35.22C49.1061 35.1786 49.1563 35.1317 49.2014 35.08L49.3414 34.93L49.4714 34.7601C49.4714 34.7001 49.5414 34.65 49.5714 34.58L49.6614 34.4001C49.6891 34.3384 49.7125 34.2749 49.7314 34.21C49.7314 34.14 49.7314 34.0701 49.7314 34.0101V33.81C49.7364 33.7401 49.7364 33.6699 49.7314 33.6C49.7367 33.5335 49.7367 33.4666 49.7314 33.4001V33.19C49.7314 33.13 49.7314 33.06 49.7314 32.99C49.7125 32.9252 49.6891 32.8616 49.6614 32.8L49.5714 32.61L49.4714 32.44L49.3414 32.2701L49.2014 32.12C49.1563 32.0684 49.1061 32.0214 49.0514 31.98L48.8914 31.86L48.7114 31.7601L48.5314 31.67L48.3314 31.6H48.1414H47.9314H40.6814V26.47L40.8214 26.36L40.9414 26.24C40.9865 26.2017 41.0268 26.158 41.0614 26.11L41.1814 25.98L41.2914 25.85L41.3914 25.7L41.4814 25.56L41.5714 25.41L41.6414 25.25C41.6707 25.1995 41.6942 25.1458 41.7114 25.09C41.7417 25.0411 41.7621 24.9867 41.7714 24.93L41.8314 24.7701C41.8314 24.7101 41.8314 24.65 41.8314 24.6C41.835 24.5434 41.835 24.4866 41.8314 24.43C41.8358 24.3734 41.8358 24.3166 41.8314 24.2601C41.8363 24.2002 41.8363 24.1399 41.8314 24.08C41.8367 24.0235 41.8367 23.9665 41.8314 23.91V23.74C41.8364 23.6801 41.8364 23.6199 41.8314 23.56C41.8362 23.5034 41.8362 23.4466 41.8314 23.3901C41.8369 23.3335 41.8369 23.2766 41.8314 23.22C41.8371 23.1635 41.8371 23.1065 41.8314 23.05C41.8314 22.99 41.8314 22.9401 41.8314 22.8801C41.8102 22.8248 41.7934 22.7679 41.7814 22.71L41.7114 22.55L41.6414 22.3901L41.5714 22.24L41.4814 22.09L41.3914 21.94L41.2914 21.8L41.1814 21.66L41.0714 21.5301L40.9414 21.41L40.8214 21.29L40.6814 21.18L40.5414 21.07L40.4014 20.98L40.2514 20.8901L40.1014 20.81L39.9414 20.73L39.7814 20.67L39.6214 20.61H39.4514H39.2814H39.1114H38.9414H38.2414H38.0714H37.9014H37.7314H37.5614L37.4014 20.67L37.2414 20.73L37.0814 20.81L36.9314 20.8901L36.7814 20.98L36.6414 21.07L36.5014 21.18L36.3614 21.29L36.2414 21.41L36.1214 21.5301L36.0014 21.66L35.8914 21.8L35.7914 21.94L35.7014 22.09L35.6114 22.24L35.5414 22.3901L35.4714 22.55C35.4444 22.6004 35.4242 22.6542 35.4114 22.71L35.3514 22.8801C35.3514 22.9401 35.3514 22.99 35.3514 23.05C35.3514 23.11 35.3514 23.16 35.3514 23.22C35.3459 23.2766 35.3459 23.3335 35.3514 23.3901C35.3466 23.4466 35.3466 23.5034 35.3514 23.56C35.3465 23.6199 35.3465 23.6801 35.3514 23.74V23.91C35.3461 23.9665 35.3461 24.0235 35.3514 24.08C35.3465 24.1399 35.3465 24.2002 35.3514 24.2601C35.3471 24.3166 35.3471 24.3734 35.3514 24.43C35.3514 24.48 35.3514 24.54 35.3514 24.6C35.3514 24.66 35.3514 24.7101 35.3514 24.7701L35.4114 24.93C35.4253 24.9854 35.4455 25.0391 35.4714 25.09C35.4886 25.1458 35.5121 25.1995 35.5414 25.25L35.6114 25.41L35.7014 25.56L35.7914 25.7L35.8914 25.85L36.0014 25.98L36.1214 26.11L36.2414 26.24L36.3614 26.36L36.5014 26.47V31.61H29.2414H29.0414H28.8414L28.6514 31.68L28.4614 31.7701L28.2914 31.87C28.2306 31.9077 28.1737 31.9512 28.1214 32L27.9714 32.1401C27.9197 32.1851 27.8728 32.2353 27.8314 32.29L27.7114 32.45L27.6014 32.6301C27.5706 32.6881 27.5439 32.7482 27.5214 32.81C27.4937 32.875 27.4703 32.9419 27.4514 33.0101C27.4301 33.0721 27.4134 33.1355 27.4014 33.2C27.3917 33.2697 27.3917 33.3403 27.4014 33.41C27.3964 33.4765 27.3964 33.5435 27.4014 33.61C27.3964 33.6799 27.3964 33.7501 27.4014 33.82C27.3925 33.8864 27.3925 33.9537 27.4014 34.0201C27.4272 34.154 27.4675 34.2847 27.5214 34.41L27.6114 34.59L27.7114 34.7701C27.7517 34.8258 27.7951 34.8791 27.8414 34.93L27.9714 35.08C28.02 35.1319 28.0736 35.1788 28.1314 35.22L28.2914 35.34L28.4714 35.45L28.6514 35.5301L28.8414 35.6L29.0414 35.6501H29.2414L29.4314 35.67Z" fill="url(#paint6_linear_1234_39186)"/>
<path d="M44.7913 44.2407L41.9713 44.6407L42.0813 43.8807L34.5213 59.8807H27.2812L27.2012 60.0308V59.8807H20.4713L16.3013 38.6907L12.7812 33.5107H28.1913L29.6913 41.2808L33.4913 33.5107H46.9713L46.6013 34.2906L59.2913 32.5107L55.4613 59.8807H42.5612L44.7913 44.2407ZM45.5112 41.1107L48.3213 40.7107L48.2113 41.5007L47.8813 43.8007L46.0513 56.8007H52.8913L55.3712 39.0507L55.8112 35.9607L52.7213 36.3907L46.0513 37.3307L45.9613 37.9807L45.6212 40.2906L45.5112 41.1107ZM28.7413 56.8407H32.6212L40.8513 39.4707L42.2713 36.4707H35.3613L30.6413 46.1307L28.4512 50.6107L27.5013 45.7207L25.7113 36.4707H18.4413L19.1212 37.4707L19.5213 39.4707L22.9413 56.8407H28.7413Z" fill="#3D2D55"/>
<defs>
<linearGradient id="paint0_linear_1234_39186" x1="37.82" y1="1.51003" x2="38.58" y2="85.43" gradientUnits="userSpaceOnUse">
<stop stop-color="#D1D0FB"/>
<stop offset="1" stop-color="#0C0A16"/>
</linearGradient>
<linearGradient id="paint1_linear_1234_39186" x1="37.82" y1="0.0100334" x2="38.58" y2="83.84" gradientUnits="userSpaceOnUse">
<stop stop-color="#C8C8EC"/>
<stop offset="0.44" stop-color="#847AB7"/>
<stop offset="1" stop-color="#3D2E53"/>
</linearGradient>
<linearGradient id="paint2_linear_1234_39186" x1="37.8999" y1="8.14046" x2="38.5599" y2="81.0704" gradientUnits="userSpaceOnUse">
<stop stop-color="#392952"/>
<stop offset="1" stop-color="#BEBCE4"/>
</linearGradient>
<linearGradient id="paint3_linear_1234_39186" x1="37.8999" y1="6.45047" x2="38.5499" y2="81.0404" gradientUnits="userSpaceOnUse">
<stop stop-color="#43335A"/>
<stop offset="0.53" stop-color="#C7C2F0"/>
<stop offset="1" stop-color="white"/>
</linearGradient>
<linearGradient id="paint4_linear_1234_39186" x1="38.1607" y1="10.84" x2="38.7407" y2="74.3099" gradientUnits="userSpaceOnUse">
<stop stop-color="#D7D3FD"/>
<stop offset="0.48" stop-color="#847AB7"/>
<stop offset="1" stop-color="#46385D"/>
</linearGradient>
<linearGradient id="paint5_linear_1234_39186" x1="38.3499" y1="14.0006" x2="38.8499" y2="70.8406" gradientUnits="userSpaceOnUse">
<stop stop-color="white" stop-opacity="0.4"/>
<stop offset="0.16" stop-color="white" stop-opacity="0.06"/>
<stop offset="0.33" stop-color="white" stop-opacity="0"/>
</linearGradient>
<linearGradient id="paint6_linear_1234_39186" x1="38.3014" y1="13.12" x2="38.8414" y2="73.42" gradientUnits="userSpaceOnUse">
<stop stop-color="white" stop-opacity="0.6"/>
<stop offset="0.11" stop-color="white" stop-opacity="0.6"/>
<stop offset="1" stop-color="white" stop-opacity="0"/>
</linearGradient>
</defs>
</svg>
