<svg width="104" height="88" fill="none" xmlns="http://www.w3.org/2000/svg"><path fill-rule="evenodd" clip-rule="evenodd" d="m17.27 68.05 34.29 19.64a2.42 2.42 0 0 0 2.37 0l34.29-19.64a2.36 2.36 0 0 0 1.2-2.06v-5l2.93-1.44a15.58 15.58 0 0 0 7.23-20.82l-10.16 5v-2.47l4.89-2.37a15.47 15.47 0 0 0 7.2-20.73l-13.35 6.47-14.14-8.09a14.87 14.87 0 0 0 .77-14.37L62.87 8l2.25-2.7a2.43 2.43 0 0 0 .53-1.23 2.47 2.47 0 0 0-.21-1.31 2.39 2.39 0 0 0-2.15-1.36H42.53a2.36 2.36 0 0 0-2.18 1.42 2.38 2.38 0 0 0 .42 2.56l3.11 3.4-13.65-6.69-.18.39a14.83 14.83 0 0 0 1.11 14.23l-14.51 8.3L2.5 18.15l-.19.39A15.48 15.48 0 0 0 9.7 38.88l6.37 3.1v2.48l-11.65-5.7-.18.39a15.59 15.59 0 0 0 7.41 20.43l4.42 2.17v4.22a2.36 2.36 0 0 0 1.2 2.06z" fill="url(#prefix__a)"/><path fill-rule="evenodd" clip-rule="evenodd" d="M94.31 37.49a15.48 15.48 0 0 0 7.2-20.74l-13.35 6.48-14.14-8.1A14.84 14.84 0 0 0 74.79.77L62.87 6.6l2.25-2.7a2.53 2.53 0 0 0 .53-1.22 2.5 2.5 0 0 0-.21-1.32A2.39 2.39 0 0 0 63.29 0H42.53a2.36 2.36 0 0 0-2.18 1.42 2.45 2.45 0 0 0-.17 1.34c.078.451.283.87.59 1.21l3.11 3.41L30.23.69l-.18.39a14.85 14.85 0 0 0 1.11 14.24l-14.51 8.3L2.5 16.75l-.19.4A15.48 15.48 0 0 0 9.7 37.49l6.37 3.09v2.47l-11.65-5.7-.18.39a15.58 15.58 0 0 0 7.41 20.44l4.42 2.16v4.23a2.36 2.36 0 0 0 1.2 2.06l34.29 19.64a2.42 2.42 0 0 0 2.37 0l34.29-19.64a2.36 2.36 0 0 0 1.2-2.06v-4.95l2.93-1.44a15.59 15.59 0 0 0 7.23-20.83l-10.16 5v-2.47z" fill="url(#prefix__b)"/><path fill-rule="evenodd" clip-rule="evenodd" d="M83.18 62.54c.21-.36.321-.771.32-1.19V27.97a2.4 2.4 0 0 0-.32-1.19 2.3 2.3 0 0 0-.87-.86L53.41 9.23a2.35 2.35 0 0 0-2.37 0l-28.9 16.74a2.3 2.3 0 0 0-.87.86 2.4 2.4 0 0 0-.3 1.14v33.37c0 .419.11.83.32 1.19.21.361.51.66.87.87l28.9 16.69a2.35 2.35 0 0 0 2.37 0l28.9-16.69c.352-.21.645-.505.85-.86" fill="url(#prefix__c)"/><path fill-rule="evenodd" clip-rule="evenodd" d="M83.501 61.35c0 .419-.11.83-.32 1.19s-.51.66-.87.87l-28.9 16.69a2.35 2.35 0 0 1-2.37 0l-28.9-16.69a2.4 2.4 0 0 1-.87-.87 2.36 2.36 0 0 1-.32-1.19V27.97c.002-.417.112-.827.32-1.19a2.3 2.3 0 0 1 .87-.86l28.9-16.69a2.35 2.35 0 0 1 2.37 0l28.9 16.69c.362.204.662.502.87.86.208.363.319.773.32 1.19zm-.3 0a2 2 0 0 1-.28 1 2 2 0 0 1-.76.76l-28.9 16.69a2 2 0 0 1-1 .28 2.1 2.1 0 0 1-1-.28l-28.9-16.69a2.05 2.05 0 0 1-.76-.76 2.1 2.1 0 0 1-.28-1V27.97a2.06 2.06 0 0 1 1.04-1.75l28.9-16.69a2.05 2.05 0 0 1 2.07 0l28.91 16.69a2.07 2.07 0 0 1 1 1.79z" fill="url(#prefix__d)"/><path fill-rule="evenodd" clip-rule="evenodd" d="m25.18 60.76 25.87 14.72c.287.163.61.25.94.25a1.94 1.94 0 0 0 .94-.25l25.86-14.72a1.8 1.8 0 0 0 .7-.7 1.9 1.9 0 0 0 .26-.95V29.73a1.87 1.87 0 0 0-1-1.65L52.97 13.37a1.84 1.84 0 0 0-.94-.25 1.8 1.8 0 0 0-.93.25l-25.88 14.7c-.288.171-.529.412-.7.7a1.9 1.9 0 0 0-.26 1v29.38a1.93 1.93 0 0 0 1 1.65z" fill="url(#prefix__e)"/><path fill-rule="evenodd" clip-rule="evenodd" d="M47.871 18.82c-.35-.51-3.12.741-6.19 2.801s-5.3 4.15-5 4.67 3.12-.74 6.2-2.81 5.33-4.14 4.99-4.66" fill="#fff" opacity=".6"/><path fill-rule="evenodd" clip-rule="evenodd" d="M50.97 71.85a1.64 1.64 0 0 0 1.64 0l22.57-12.94c.258-.145.47-.36.61-.62a1.63 1.63 0 0 0 .23-.84V31.61a1.8 1.8 0 0 0-.22-.85 1.73 1.73 0 0 0-.62-.61L52.61 17.21a1.6 1.6 0 0 0-.82-.22 1.6 1.6 0 0 0-.82.22L28.4 30.15a1.73 1.73 0 0 0-.62.61c-.142.261-.218.553-.22.85v25.84c0 .294.077.584.22.84.149.258.363.472.62.62z" fill="url(#prefix__f)"/><path fill-rule="evenodd" clip-rule="evenodd" d="M46.12 19.97c-.35-.51-2.33.22-4.45 1.63s-3.54 3-3.19 3.49 2.33-.21 4.44-1.63 3.54-2.95 3.2-3.49" fill="#fff" opacity=".6"/><path fill-rule="evenodd" clip-rule="evenodd" d="M44.51 21.07c-.27-.41-1.49-.08-2.71.74s-2 1.82-1.72 2.23 1.5.08 2.72-.74 1.99-1.82 1.71-2.23" fill="#fff" opacity=".6"/><path fill-rule="evenodd" clip-rule="evenodd" d="M43.971 21.45c-.28-.41-1.24-.25-2.15.36s-1.43 1.44-1.16 1.85 1.24.25 2.15-.36 1.42-1.44 1.16-1.85" fill="#fff" opacity=".6"/><path fill-rule="evenodd" clip-rule="evenodd" d="M73.09 68.53c-.3-.54-3.17.46-6.42 2.24s-5.64 3.66-5.34 4.21 3.17-.46 6.42-2.25 5.64-3.65 5.34-4.2" fill="#fff"/><path fill-rule="evenodd" clip-rule="evenodd" d="M71.242 69.54c-.29-.54-2.34 0-4.57 1.23s-3.79 2.65-3.49 3.19 2.34 0 4.57-1.23 3.79-2.64 3.49-3.19" fill="#fff"/><path fill-rule="evenodd" clip-rule="evenodd" d="M69.55 70.47c-.24-.43-1.48-.21-2.77.5s-2.15 1.63-1.91 2.06 1.48.22 2.77-.49 2.15-1.63 1.91-2.07" fill="#fff"/><path fill-rule="evenodd" clip-rule="evenodd" d="M68.97 70.8c-.23-.43-1.21-.36-2.17.17s-1.56 1.31-1.32 1.74 1.21.36 2.18-.17 1.53-1.31 1.31-1.74" fill="#fff"/><path fill-rule="evenodd" clip-rule="evenodd" d="m55.26 15.97 18.56 10.71.39.24.38.26.36.29.33.32.32.33.29.36.27.37.24.39.22.41.18.42c.06.14.11.29.16.43s.09.29.13.44.07.3.1.45 0 .31.07.46 0 .3 0 .46v22.81c0 .15 0 .3-.07.45s-.06.3-.1.45-.08.3-.13.44-.1.29-.16.44l-.18.42c-.07.13-.14.27-.22.4s-.16.27-.24.39l-.27.38c-.09.12-.19.24-.29.35s-.21.23-.32.34l-.33.31-.36.29-.38.27-.39.24-18.56 10.72-.41.22-.41.19-.43.17-.44.14-.45.1a4 4 0 0 1-.46.08h-1.84a4 4 0 0 1-.45-.08l-.45-.1-.44-.14-.43-.17-.42-.19-.4-.22-18.56-10.72-.4-.24-.37-.27-.36-.29-.34-.31c-.1-.11-.21-.22-.31-.34s-.2-.23-.29-.35a3 3 0 0 1-.27-.38 2.5 2.5 0 0 1-.24-.39c-.08-.13-.15-.27-.22-.4s-.13-.28-.19-.42-.11-.29-.16-.44-.09-.29-.13-.44q-.06-.225-.09-.45a4 4 0 0 1-.07-.45 4 4 0 0 1 0-.46V32.31a3.4 3.4 0 0 1 0-.46q.02-.231.07-.46c0-.15.06-.3.09-.45s.09-.29.13-.44l.16-.43c.06-.14.12-.28.19-.42l.22-.41a4 4 0 0 1 .24-.39q.122-.195.27-.37l.29-.36.31-.33.34-.32.36-.29.37-.26.4-.24 18.56-10.71.4-.23.42-.19.43-.17.44-.14.45-.1.45-.08h1.84l.46.08.45.1.44.14.43.17.41.19zM43.11 36.31h3.33v23.16l5.31 5.69 5.3-5.69V36.29h3.9l.19-.07.17-.08.17-.1.15-.12a2.6 2.6 0 0 0 .39-.42l.1-.17q.047-.086.08-.18.042-.087.07-.18c0-.06 0-.12.05-.19v-.77c0-.06 0-.12-.05-.19a1.4 1.4 0 0 0-.07-.18 1 1 0 0 0-.08-.17l-.1-.17a2 2 0 0 0-.12-.15l-.13-.15-.14-.13-.15-.11-.17-.1-.17-.09-.19-.06h-7.23v-4.85l.13-.1.12-.11.11-.12.11-.12.1-.13.1-.14.09-.13q.035-.077.08-.15l.07-.14.07-.15a1 1 0 0 0 0-.16 1 1 0 0 0 .05-.15v-.32a1 1 0 0 0 0-.17 1 1 0 0 0 0-.16 1 1 0 0 0 0-.16v-.28a1 1 0 0 0 0-.16v-.65l-.1-.3a1 1 0 0 0-.07-.15l-.07-.15-.08-.14-.09-.14-.1-.14-.1-.13-.11-.12-.11-.12-.12-.11-.13-.1-.13-.1-.13-.09-.15-.09-.14-.07-.15-.07-.15-.07h-2.25l-.15.07-.15.07-.14.07-.14.09-.14.09-.13.1-.13.1-.12.11-.11.12-.11.12-.1.13-.1.14a.6.6 0 0 0-.08.14l-.09.14-.07.15-.07.15-.1.3c0 .06 0 .11-.05.16v.16a1 1 0 0 0 0 .17 1 1 0 0 0 0 .16v.49a1 1 0 0 0 0 .16 1 1 0 0 0 0 .17l.08.32a1 1 0 0 0 0 .15q.02.083.05.16.042.073.07.15l.07.14.09.15.08.13.1.14q.054.063.1.13l.11.12.11.12.12.11.13.1v4.86h-7.24l-.18.07-.17.08q-.09.042-.17.1l-.16.11-.14.13-.13.15-.11.15-.1.17-.09.17-.06.19a1 1 0 0 0 0 .18v.77a1 1 0 0 0 0 .19q.03.093.07.18a1.4 1.4 0 0 0 .18.34q.056.084.12.16l.13.14.14.13.15.11.17.1.17.08.19.07h.37q.127.096.27.16z" fill="url(#prefix__g)"/><path d="m67.5 50.97-.36 2.47H53.49l-.06.42-.44 3h18.07a2.85 2.85 0 0 0 2.77-2.45l2.14-15 .42-3H55.87v.38l-.23 1.68-.19 1.32h13.68l-.43 3-.25 1.79H56.09l-.06.42-.41 3h12.35zm-14.29-7.51-7.77 16.4H38.2l-.08.15v-.15h-6.71l-4.17-21.19-3.52-5.18h15.41l1.5 7.77 3.8-7.77h8.83v-.11h26.59l-3 21.45a5.83 5.83 0 0 1-5.74 5H49.52l1.38-9.42h1.35zm-3.34-7h-3.59l-4.72 9.66-2.19 4.48-.95-4.89-1.79-9.25h-7.27l.68 1 .4 2 3.42 17.37h9.68l8.23-17.37.91-1.92.51-1.08z" fill="#344E66"/><defs><linearGradient id="prefix__a" x1="51.72" y1="1.43" x2="52.74" y2="87.3" gradientUnits="userSpaceOnUse"><stop stop-color="#577990"/><stop offset="1" stop-color="#132431"/></linearGradient><linearGradient id="prefix__b" x1="51.72" y1=".01" x2="52.74" y2="85.6" gradientUnits="userSpaceOnUse"><stop stop-color="#9FC4D0"/><stop offset=".44" stop-color="#DEF7FF"/><stop offset=".74" stop-color="#65899C"/><stop offset="1" stop-color="#2B3846"/></linearGradient><linearGradient id="prefix__c" x1="51.921" y1="10.531" x2="52.541" y2="80.441" gradientUnits="userSpaceOnUse"><stop stop-color="#324D65"/><stop offset=".43" stop-color="#709AB6"/><stop offset="1" stop-color="#D6F2FD"/></linearGradient><linearGradient id="prefix__d" x1="51.911" y1="8.931" x2="52.541" y2="80.421" gradientUnits="userSpaceOnUse"><stop stop-color="#374553"/><stop offset=".51" stop-color="#C2E5EE"/><stop offset="1" stop-color="#F0FAFF"/></linearGradient><linearGradient id="prefix__e" x1="51.69" y1="13.13" x2="52.25" y2="73.9" gradientUnits="userSpaceOnUse"><stop stop-color="#D3F7FF"/><stop offset="1" stop-color="#325265"/></linearGradient><linearGradient id="prefix__f" x1="51.56" y1="16.99" x2="52.041" y2="72.07" gradientUnits="userSpaceOnUse"><stop stop-color="#fff" stop-opacity=".4"/><stop offset=".16" stop-color="#fff" stop-opacity=".06"/><stop offset=".33" stop-color="#fff" stop-opacity="0"/></linearGradient><linearGradient id="prefix__g" x1="51.49" y1="15.03" x2="52" y2="72.001" gradientUnits="userSpaceOnUse"><stop stop-color="#fff" stop-opacity=".6"/><stop offset=".11" stop-color="#fff" stop-opacity=".6"/><stop offset="1" stop-color="#fff" stop-opacity="0"/></linearGradient></defs></svg>