<svg width="108" height="88" viewBox="0 0 108 88" fill="none" xmlns="http://www.w3.org/2000/svg">
<path fill-rule="evenodd" clip-rule="evenodd" d="M92.9701 66.3607C93.1882 65.9804 93.3021 65.5492 93.3001 65.1107V59.9707L96.3601 58.4707C99.2512 57.0812 101.664 54.8642 103.293 52.1011C104.922 49.3379 105.694 46.153 105.51 42.9507C105.381 40.8259 104.837 38.7469 103.91 36.8307L93.3001 42.0107V39.4407L98.4101 36.9707C100.329 36.0621 102.047 34.7809 103.466 33.2015C104.884 31.6222 105.974 29.7765 106.672 27.7717C107.37 25.767 107.662 23.6434 107.531 21.5247C107.4 19.4059 106.849 17.3343 105.91 15.4307L91.9901 22.1606L56.2601 1.79065C55.888 1.57463 55.4654 1.46094 55.0351 1.46094C54.6048 1.46094 54.1822 1.57463 53.8101 1.79065L18.0201 22.1907C17.8182 22.3046 17.6332 22.446 17.4701 22.6107L2.60011 15.4207L2.49009 15.6707C0.677739 19.5071 0.463437 23.9063 1.8943 27.9008C3.32516 31.8952 6.28401 35.1576 10.1201 36.9707L16.7701 40.1807V42.7708L4.61012 36.8307L4.49009 37.0707C2.69462 40.9281 2.49184 45.3377 3.92573 49.3436C5.35962 53.3495 8.31461 56.6289 12.1501 58.4707L16.7701 60.7207V65.1007C16.7681 65.5392 16.882 65.9704 17.1001 66.3507C17.3195 66.7286 17.6375 67.0397 18.0201 67.2507L53.8101 87.6606C54.1822 87.8767 54.6048 87.9905 55.0351 87.9905C55.4654 87.9905 55.888 87.8767 56.2601 87.6606L92.0501 67.2507C92.4294 67.0397 92.7466 66.7328 92.9701 66.3607Z" fill="url(#paint0_linear_1234_39242)"/>
<path fill-rule="evenodd" clip-rule="evenodd" d="M93.3313 40.5308V37.9707L98.4413 35.5108C101.328 34.1409 103.738 31.9382 105.362 29.1864C106.985 26.4346 107.748 23.2597 107.551 20.0707C107.423 17.9521 106.88 15.8794 105.951 13.9707L92.0213 20.7007L56.2913 0.330713C55.9156 0.120292 55.492 0.0101461 55.0613 0.010767C54.6324 0.00880824 54.2108 0.122785 53.8413 0.340723L18.0513 20.7407C17.8472 20.8513 17.6617 20.9929 17.5013 21.1607L2.63133 13.9707L2.52132 14.2207C0.714588 18.0538 0.502212 22.4471 1.93077 26.4365C3.35933 30.426 6.31216 33.6858 10.1413 35.5008L16.8013 38.7207V41.3007L4.64134 35.3708L4.52132 35.6208C2.73164 39.4775 2.53193 43.8836 3.96538 47.8864C5.39882 51.8892 8.35021 55.1669 12.1813 57.0108L16.8013 59.2608V63.6408C16.7967 64.0785 16.9104 64.5093 17.1304 64.8877C17.3505 65.2662 17.6686 65.5781 18.0513 65.7907L53.8413 86.1807C54.2127 86.3942 54.633 86.508 55.0613 86.5108C55.4928 86.5079 55.9164 86.3942 56.2913 86.1807L92.0713 65.7907C92.4565 65.5786 92.775 65.2636 92.9913 64.8808C93.2171 64.5031 93.3347 64.0707 93.3313 63.6308V58.4907L96.3913 57.0008C98.3118 56.0814 100.032 54.7913 101.452 53.2047C102.872 51.6182 103.964 49.7665 104.666 47.7563C105.367 45.746 105.665 43.6167 105.54 41.4911C105.416 39.3655 104.873 37.2855 103.941 35.3708L93.3313 40.5308Z" fill="url(#paint1_linear_1234_39242)"/>
<path fill-rule="evenodd" clip-rule="evenodd" d="M23.1307 24.2101C22.7526 24.4281 22.4387 24.742 22.2207 25.1201C22.0025 25.4968 21.8886 25.9248 21.8907 26.3601V61.17C21.8871 61.6055 22.0011 62.0339 22.2207 62.41C22.4387 62.7882 22.7526 63.1021 23.1307 63.3201L53.2907 80.7301C53.6665 80.9459 54.0923 81.0594 54.5257 81.0594C54.9591 81.0594 55.3849 80.9459 55.7607 80.7301L85.9707 63.3201C86.3488 63.1021 86.6627 62.7882 86.8807 62.41C87.1003 62.0339 87.2143 61.6055 87.2107 61.17V26.3601C87.2128 25.9248 87.0989 25.4968 86.8807 25.1201C86.6627 24.742 86.3488 24.4281 85.9707 24.2101L55.8107 6.80005C55.4349 6.58424 55.0091 6.4707 54.5757 6.4707C54.1423 6.4707 53.7165 6.58424 53.3407 6.80005L23.1307 24.2101Z" fill="url(#paint2_linear_1234_39242)"/>
<path fill-rule="evenodd" clip-rule="evenodd" d="M22.2214 25.1201C22.4394 24.742 22.7533 24.4281 23.1315 24.2101L53.2915 6.80005C53.6673 6.58424 54.0931 6.4707 54.5264 6.4707C54.9598 6.4707 55.3856 6.58424 55.7615 6.80005L85.9714 24.2101C86.3496 24.4281 86.6635 24.742 86.8814 25.1201C87.0997 25.4968 87.2135 25.9248 87.2114 26.3601V61.17C87.215 61.6055 87.101 62.0339 86.8814 62.41C86.6635 62.7882 86.3496 63.1021 85.9714 63.3201L55.8114 80.7301C55.4356 80.9459 55.0098 81.0594 54.5765 81.0594C54.1431 81.0594 53.7173 80.9459 53.3414 80.7301L23.1814 63.3201C22.8033 63.1021 22.4894 62.7882 22.2714 62.41C22.0519 62.0339 21.9379 61.6055 21.9414 61.17V26.3601C21.9241 25.9293 22.0206 25.5016 22.2214 25.1201ZM23.2814 24.4701L53.4515 7.05005C53.7808 6.86336 54.1529 6.76526 54.5314 6.76526C54.91 6.76526 55.2821 6.86336 55.6115 7.05005L85.7714 24.4501C86.1063 24.6429 86.3828 24.9229 86.5714 25.2601C86.7625 25.5916 86.8626 25.9676 86.8615 26.3501V61.16C86.8694 61.5403 86.7688 61.915 86.5714 62.2401C86.3828 62.5774 86.1063 62.8572 85.7714 63.05L55.6115 80.4601C55.2816 80.6505 54.9074 80.7509 54.5264 80.7509C54.1455 80.7509 53.7713 80.6505 53.4414 80.4601L23.2814 63.05C22.9511 62.8514 22.676 62.5729 22.4815 62.2401C22.288 61.9133 22.1877 61.5398 22.1914 61.16V26.3501C22.1903 25.9676 22.2904 25.5916 22.4815 25.2601C22.6722 24.9296 22.9485 24.6566 23.2814 24.4701Z" fill="url(#paint3_linear_1234_39242)"/>
<path fill-rule="evenodd" clip-rule="evenodd" d="M25.2913 58.8105C25.292 59.1618 25.3851 59.5067 25.5613 59.8105C25.7411 60.1101 25.9918 60.3607 26.2913 60.5405L53.2913 75.8906C53.5962 76.0634 53.941 76.1531 54.2913 76.1506C54.6417 76.1531 54.9865 76.0634 55.2913 75.8906L82.2913 60.5405C82.5951 60.3652 82.8474 60.1131 83.0229 59.8094C83.1984 59.5058 83.291 59.1613 83.2913 58.8105V28.1605C83.2907 27.8093 83.1976 27.4644 83.0213 27.1605C82.8465 26.8538 82.5904 26.6012 82.2813 26.4305L55.2813 11.0706C54.9756 10.9013 54.6308 10.8151 54.2813 10.8206C53.9324 10.8195 53.5887 10.9054 53.2813 11.0706L26.2813 26.4305C25.9753 26.6018 25.7226 26.8545 25.5513 27.1605C25.3714 27.4628 25.278 27.8088 25.2813 28.1605L25.2913 58.8105Z" fill="url(#paint4_linear_1234_39242)"/>
<g opacity="0.6">
<path fill-rule="evenodd" clip-rule="evenodd" d="M50.5899 15.8104C50.2399 15.2804 47.3699 16.5704 44.1999 18.7004C41.0299 20.8304 38.7499 22.9705 39.0999 23.5105C39.4499 24.0505 42.3199 22.7404 45.4899 20.6304C48.6599 18.5204 50.9699 16.3404 50.5899 15.8104Z" fill="white"/>
</g>
<path fill-rule="evenodd" clip-rule="evenodd" d="M55.5104 70.5403L78.8104 57.1803C79.0753 57.0257 79.2958 56.8052 79.4504 56.5403C79.6008 56.2786 79.6801 55.9821 79.6804 55.6803V28.9703C79.6833 28.6652 79.6041 28.365 79.451 28.1011C79.298 27.8372 79.0767 27.6193 78.8104 27.4703L55.5104 14.1003C55.2522 13.9558 54.9613 13.8799 54.6654 13.8799C54.3695 13.8799 54.0786 13.9558 53.8204 14.1003L30.5204 27.4703C30.2538 27.6184 30.0326 27.8362 29.8804 28.1003C29.7288 28.3652 29.6495 28.6652 29.6504 28.9703V55.6504C29.6507 55.9522 29.73 56.2487 29.8804 56.5104C30.0324 56.7773 30.2534 56.9984 30.5204 57.1504L53.8204 70.5104C54.0775 70.6531 54.3664 70.7287 54.6604 70.7303C54.9551 70.738 55.247 70.6726 55.5104 70.5403Z" fill="url(#paint5_linear_1234_39242)"/>
<g opacity="0.6">
<path fill-rule="evenodd" clip-rule="evenodd" d="M48.8011 16.9707C48.4411 16.4407 46.3811 17.2007 44.2011 18.6507C42.0211 20.1007 40.5511 21.7307 40.9011 22.2607C41.2511 22.7907 43.3211 22.0407 45.4911 20.5807C47.6611 19.1207 49.1511 17.5507 48.8011 16.9707Z" fill="white"/>
</g>
<g opacity="0.6">
<path fill-rule="evenodd" clip-rule="evenodd" d="M47.1412 18.1407C46.8512 17.7207 45.6012 18.0606 44.3412 18.9106C43.0812 19.7606 42.2812 20.7806 42.5712 21.2006C42.8612 21.6206 44.0912 21.2706 45.3612 20.4306C46.6312 19.5906 47.4112 18.5607 47.1412 18.1407Z" fill="white"/>
</g>
<g opacity="0.6">
<path fill-rule="evenodd" clip-rule="evenodd" d="M46.5601 18.5305C46.2801 18.1005 45.2801 18.2704 44.3401 18.9104C43.4001 19.5504 42.8501 20.4004 43.1401 20.8204C43.4301 21.2404 44.4101 21.0604 45.3601 20.4304C46.3101 19.8004 46.8401 18.9705 46.5601 18.5305Z" fill="white"/>
</g>
<path fill-rule="evenodd" clip-rule="evenodd" d="M76.6212 67.1201C76.3112 66.5501 73.3412 67.59 69.9912 69.42C66.6412 71.25 64.1812 73.2001 64.4912 73.7601C64.8012 74.3201 67.7612 73.2801 71.1012 71.4501C74.4412 69.6201 76.9712 67.6801 76.6212 67.1201Z" fill="white"/>
<path fill-rule="evenodd" clip-rule="evenodd" d="M74.7215 68.1608C74.4115 67.5908 72.3015 68.1608 70.0015 69.4208C67.7015 70.6808 66.0815 72.1609 66.3915 72.7209C66.7015 73.2809 68.8115 72.7208 71.1115 71.4509C73.4115 70.1809 75.0315 68.7208 74.7215 68.1608Z" fill="white"/>
<path fill-rule="evenodd" clip-rule="evenodd" d="M72.9713 69.1309C72.7213 68.6809 71.4513 68.9209 70.1113 69.6509C68.7713 70.3809 67.9013 71.3309 68.1113 71.7709C68.3213 72.2109 69.6313 71.9809 70.9613 71.2509C72.2913 70.5209 73.2113 69.5709 72.9713 69.1309Z" fill="white"/>
<path fill-rule="evenodd" clip-rule="evenodd" d="M72.3614 69.4608C72.1114 69.0208 71.1114 69.1009 70.1114 69.6509C69.1114 70.2009 68.5014 71.0008 68.7514 71.4408C69.0014 71.8808 69.9913 71.8009 70.9913 71.2509C71.9913 70.7009 72.6014 69.9008 72.3614 69.4608Z" fill="white"/>
<path fill-rule="evenodd" clip-rule="evenodd" d="M58.3502 14.0608L77.9702 25.4009C78.1102 25.4809 78.2502 25.5609 78.3802 25.6509L78.7802 25.9308C78.9102 26.0308 79.0402 26.1308 79.1602 26.2408C79.2841 26.3429 79.401 26.4531 79.5102 26.5708C79.6302 26.6808 79.7402 26.8008 79.8502 26.9208C79.9602 27.0408 80.0602 27.1708 80.1602 27.3008L80.4402 27.6908C80.5302 27.8308 80.6202 27.9708 80.7002 28.1108L80.9302 28.5408C81.0002 28.6908 81.0602 28.8308 81.1202 28.9808C81.1802 29.1308 81.2402 29.2908 81.2902 29.4408C81.3402 29.5908 81.3902 29.7508 81.4302 29.9108C81.4702 30.0708 81.5002 30.2209 81.5302 30.3809C81.5602 30.5409 81.5902 30.7008 81.6102 30.8708C81.6302 31.0408 81.6102 31.1908 81.6102 31.3508C81.6102 31.5108 81.6102 31.6808 81.6102 31.8408V54.5209C81.6102 54.6909 81.6102 54.8509 81.6102 55.0109C81.6102 55.1709 81.6102 55.3309 81.6102 55.5009C81.6102 55.6709 81.5602 55.8208 81.5302 55.9808C81.5002 56.1408 81.4702 56.3008 81.4302 56.4508C81.3902 56.6008 81.3402 56.7708 81.2902 56.9208C81.2402 57.0708 81.1802 57.2309 81.1202 57.3809C81.0602 57.5309 81.0002 57.6808 80.9302 57.8208L80.7002 58.2509C80.6202 58.3909 80.5302 58.5308 80.4402 58.6708L80.1602 59.0608C80.0602 59.1908 79.9602 59.3208 79.8502 59.4408C79.7402 59.5608 79.6302 59.6808 79.5102 59.7908C79.401 59.9084 79.2841 60.0188 79.1602 60.1208C79.0402 60.2309 78.9102 60.3308 78.7802 60.4308L78.3802 60.7108L77.9702 60.9708L58.3202 72.3108C58.1802 72.4008 58.0402 72.4708 57.8902 72.5508L57.4502 72.7509C57.3011 72.8211 57.1474 72.8812 56.9902 72.9308L56.5302 73.0808L56.0502 73.1908L55.5702 73.2709H55.0902H54.6002H54.1102H53.6302L53.1502 73.1908L52.6702 73.0808L52.2102 72.9308C52.053 72.8812 51.8993 72.8211 51.7502 72.7509L51.3102 72.5508C51.1602 72.4708 51.0202 72.4008 50.8802 72.3108L31.2602 60.9708L30.8502 60.7108L30.4502 60.4308C30.3202 60.3308 30.1902 60.2309 30.0702 60.1208C29.9464 60.0188 29.8294 59.9084 29.7202 59.7908C29.6002 59.6808 29.4902 59.5608 29.3802 59.4408C29.2702 59.3208 29.1702 59.1908 29.0702 59.0608L28.7902 58.6708C28.7002 58.5308 28.6102 58.3909 28.5302 58.2509C28.4502 58.1109 28.3802 57.9708 28.3102 57.8208C28.2335 57.6789 28.1667 57.532 28.1102 57.3809C28.0502 57.2309 27.9902 57.0708 27.9402 56.9208C27.8902 56.7708 27.8402 56.6108 27.8002 56.4508C27.7602 56.2908 27.7302 56.1408 27.7002 55.9808C27.6702 55.8208 27.6402 55.6609 27.6202 55.5009C27.6002 55.3409 27.6202 55.1709 27.6202 55.0109C27.6202 54.8509 27.6202 54.6909 27.6202 54.5209V31.8408C27.6202 31.6808 27.6202 31.5108 27.6202 31.3508C27.6202 31.1908 27.6202 31.0308 27.6202 30.8708C27.6202 30.7108 27.6702 30.5409 27.7002 30.3809C27.7302 30.2209 27.7602 30.0708 27.8002 29.9108C27.8402 29.7508 27.8902 29.6008 27.9402 29.4408C27.9902 29.2808 28.0502 29.1408 28.1102 28.9808C28.1686 28.8305 28.2353 28.6836 28.3102 28.5408C28.3802 28.3908 28.4502 28.2508 28.5302 28.1108C28.6102 27.9708 28.7002 27.8308 28.7902 27.7008C28.8802 27.5708 28.9702 27.4308 29.0702 27.3008C29.1702 27.1708 29.2702 27.0408 29.3802 26.9208C29.4902 26.8008 29.6002 26.6808 29.7202 26.5708C29.8294 26.4531 29.9464 26.3429 30.0702 26.2408C30.1902 26.1308 30.3202 26.0308 30.4502 25.9308L30.8502 25.6509C30.9802 25.5609 31.1202 25.4809 31.2602 25.4009L50.9102 14.0608C51.0479 13.9711 51.1916 13.8909 51.3402 13.8208L51.7802 13.6108L52.2402 13.4408C52.3902 13.3808 52.5402 13.3408 52.7002 13.2908L53.1802 13.1808L53.6602 13.1008L54.1402 13.0508H54.6302H55.1202L55.6002 13.1008L56.0802 13.1808L56.5602 13.2908C56.7202 13.2908 56.8702 13.3808 57.0202 13.4408L57.4802 13.6108L57.9202 13.8208C58.0688 13.8909 58.2125 13.9711 58.3502 14.0608ZM45.4902 35.5908H49.0202V60.1008L54.6302 66.1008L60.2502 60.1008V35.5708H63.9702H64.1802H64.3802L64.5702 35.5009L64.7602 35.4108L64.9302 35.3108L65.1002 35.1908L65.2502 35.0508L65.3902 34.9009L65.5102 34.7308L65.6102 34.5608C65.6443 34.4995 65.6744 34.4361 65.7002 34.3708C65.7542 34.2456 65.7944 34.1148 65.8202 33.9808V33.7809C65.8252 33.711 65.8252 33.6407 65.8202 33.5708C65.8255 33.5042 65.8255 33.4374 65.8202 33.3708V33.1608C65.8071 33.0933 65.7904 33.0265 65.7702 32.9608C65.7513 32.8959 65.7279 32.8325 65.7002 32.7709C65.6743 32.7089 65.6442 32.6488 65.6102 32.5908C65.5808 32.5288 65.5473 32.4686 65.5102 32.4108L65.3902 32.2509L65.2502 32.0908L65.1002 31.9608L64.9302 31.8308L64.7602 31.7308L64.5702 31.6409L64.3802 31.5708H64.1802H63.9702H56.7202V26.4408L56.8602 26.3308L56.9902 26.2108L57.1102 26.0808L57.2202 25.9508L57.3302 25.8208L57.4302 25.6808L57.5202 25.5309L57.6102 25.3809C57.6102 25.3809 57.6602 25.2708 57.6902 25.2208L57.7602 25.0608L57.8202 24.9009C57.8202 24.9009 57.8202 24.7908 57.8202 24.7408C57.8601 24.5708 57.8601 24.5708 57.9001 24.4008L57.9002 24.2308C57.9002 24.1708 57.9002 24.1108 57.9002 24.0508C57.9055 23.9942 57.9055 23.9374 57.9002 23.8809C57.9103 23.8246 57.9103 23.767 57.9002 23.7108C57.9052 23.6509 57.9052 23.5908 57.9002 23.5309C57.9002 23.4709 57.9002 23.4208 57.9002 23.3608V23.1908C57.8601 23.0208 57.8601 23.0208 57.8201 22.8508L57.8202 22.6808L57.7602 22.5209C57.7309 22.4704 57.7074 22.4167 57.6902 22.3608L57.6102 22.2108L57.5202 22.0608L57.4302 21.9108L57.3302 21.7709C57.2967 21.7218 57.26 21.675 57.2202 21.6309L57.1102 21.5009L56.9902 21.3809L56.8602 21.2609L56.7302 21.1509L56.5902 21.0408L56.4402 20.9508L56.2902 20.8608L56.1402 20.7809L55.9802 20.7008L55.8202 20.6409L55.6602 20.5808H55.4902H55.3202H55.1502H54.9802H54.2902H54.1102H53.9402H53.7702H53.6102L53.4402 20.6409L53.2802 20.7008L53.1302 20.7809L52.9702 20.8608L52.8202 20.9508L52.6802 21.0408L52.5402 21.1509C52.4925 21.182 52.4489 21.219 52.4102 21.2609L52.2802 21.3809L52.1602 21.5009L52.0402 21.6309L51.9402 21.7709C51.9013 21.8133 51.8678 21.8602 51.8402 21.9108L51.7402 22.0608C51.6602 22.2108 51.6603 22.2108 51.5803 22.3608L51.5102 22.5209L51.4502 22.6808C51.4003 22.8508 51.4003 22.8509 51.3503 23.0209L51.3502 23.1908V23.3608C51.3502 23.4208 51.3502 23.4709 51.3502 23.5309C51.3502 23.5909 51.3502 23.6508 51.3502 23.7108V23.8809C51.3502 23.9409 51.3502 24.0008 51.3502 24.0508C51.3502 24.1008 51.3502 24.1708 51.3502 24.2308V24.4009V24.5708C51.3636 24.6284 51.3803 24.6852 51.4002 24.7408C51.4124 24.7955 51.4291 24.849 51.4502 24.9009L51.5102 25.0608C51.5274 25.1166 51.5509 25.1703 51.5802 25.2208L51.6602 25.3809C51.6829 25.4329 51.7097 25.483 51.7402 25.5309L51.8402 25.6808L51.9402 25.8208L52.0402 25.9508L52.1602 26.0808L52.2802 26.2108L52.4102 26.3308L52.5402 26.4408V31.5808H45.2802H45.0802H44.8802L44.6902 31.6509L44.5002 31.7408L44.3302 31.8508C44.269 31.884 44.2119 31.9242 44.1602 31.9708L44.0102 32.1108C43.9585 32.1559 43.9116 32.2062 43.8702 32.2609L43.7502 32.4208C43.7131 32.4786 43.6797 32.5388 43.6502 32.6008C43.6162 32.6588 43.5862 32.7189 43.5602 32.7809C43.5325 32.8459 43.5091 32.9127 43.4902 32.9808C43.4857 33.0441 43.4857 33.1075 43.4902 33.1708V33.3809C43.4852 33.4474 43.4852 33.5142 43.4902 33.5808C43.4852 33.6507 43.4852 33.7209 43.4902 33.7908V33.9908C43.4856 34.0574 43.4856 34.1242 43.4902 34.1908L43.5602 34.3809L43.6502 34.5608C43.6832 34.623 43.72 34.6831 43.7602 34.7408L43.8802 34.9009L44.0202 35.0508L44.1702 35.1908L44.3302 35.3108L44.5102 35.4208L44.6902 35.5009L44.8902 35.5708H45.0802H45.2902C45.3562 35.583 45.4231 35.5898 45.4902 35.5908Z" fill="url(#paint6_linear_1234_39242)"/>
<path d="M69.2415 42.7404L68.8816 45.2103H55.2415V45.4803L53.9816 54.3904C53.9221 54.6967 53.9331 55.0125 54.0135 55.314C54.094 55.6154 54.2419 55.8947 54.4461 56.1306C54.6502 56.3666 54.9054 56.5531 55.1921 56.676C55.4789 56.799 55.7899 56.8551 56.1016 56.8403H74.1016L74.1616 56.4203L74.7816 52.0503L73.2415 53.4203H60.2415L60.6516 50.4203L60.8916 48.6304H75.2516L75.4116 47.5004L76.5616 39.3203L76.9816 36.3203H56.5016L56.0515 39.4803L55.7616 41.4803L55.6716 42.1603V42.4303H62.5116V42.1603L62.8116 39.6903H69.6815L69.2415 42.7404ZM52.8616 40.6603L53.4216 39.4703L54.8416 36.4703H47.9716L43.2516 46.1304L41.0616 50.6104L40.1116 45.7203L38.3216 36.4703H30.9716L31.6616 37.4703L32.0515 39.4703L35.4716 56.8403H45.1616L52.8616 40.6603ZM33.0416 59.8403L28.8716 38.6504L25.3516 33.4703H40.7616L42.2616 41.2404L46.0616 33.4703H53.8716V33.3203H80.4116L78.8516 44.4403L76.6815 59.8403H56.0616C55.32 59.8561 54.5841 59.7083 53.9062 59.4075C53.2282 59.1067 52.6249 58.6602 52.139 58.0999C51.6531 57.5395 51.2966 56.879 51.0948 56.1653C50.893 55.4516 50.851 54.7022 50.9716 53.9703L51.4315 50.6603L47.0916 59.8303H39.8516L39.7816 59.9803V59.8303L33.0416 59.8403Z" fill="#134B2E"/>
<defs>
<linearGradient id="paint0_linear_1234_39242" x1="54.0301" y1="1.49073" x2="55.0901" y2="87.3107" gradientUnits="userSpaceOnUse">
<stop stop-color="#2A7746"/>
<stop offset="1" stop-color="#0E4528"/>
</linearGradient>
<linearGradient id="paint1_linear_1234_39242" x1="54.0313" y1="0.020767" x2="55.0913" y2="85.7208" gradientUnits="userSpaceOnUse">
<stop stop-color="#C0E48A"/>
<stop offset="1" stop-color="#198034"/>
</linearGradient>
<linearGradient id="paint2_linear_1234_39242" x1="54.2107" y1="8.15008" x2="54.8607" y2="81.0701" gradientUnits="userSpaceOnUse">
<stop stop-color="#073D24"/>
<stop offset="1" stop-color="#77E189"/>
</linearGradient>
<linearGradient id="paint3_linear_1234_39242" x1="54.2014" y1="6.47008" x2="54.8514" y2="81.0601" gradientUnits="userSpaceOnUse">
<stop stop-color="#0F482B"/>
<stop offset="0.51" stop-color="#78B864"/>
<stop offset="1" stop-color="#F0FFF7"/>
</linearGradient>
<linearGradient id="paint4_linear_1234_39242" x1="53.9813" y1="10.8306" x2="54.5513" y2="74.2806" gradientUnits="userSpaceOnUse">
<stop stop-color="#6ED481"/>
<stop offset="1" stop-color="#044424"/>
</linearGradient>
<linearGradient id="paint5_linear_1234_39242" x1="54.4104" y1="13.9203" x2="54.9104" y2="70.7603" gradientUnits="userSpaceOnUse">
<stop stop-color="white" stop-opacity="0.4"/>
<stop offset="0.16" stop-color="white" stop-opacity="0.06"/>
<stop offset="0.33" stop-color="white" stop-opacity="0"/>
</linearGradient>
<linearGradient id="paint6_linear_1234_39242" x1="54.3602" y1="13.0408" x2="54.9002" y2="73.3409" gradientUnits="userSpaceOnUse">
<stop stop-color="white" stop-opacity="0.6"/>
<stop offset="0.11" stop-color="white" stop-opacity="0.6"/>
<stop offset="1" stop-color="white" stop-opacity="0"/>
</linearGradient>
</defs>
</svg>
