<svg width="275" height="146" viewBox="0 0 275 146" fill="none" xmlns="http://www.w3.org/2000/svg">
<g filter="url(#filter0_b_2021_60905)">
<path d="M221.31 0H0V95.5952L50.1984 145.794H275V53.6905L221.31 0Z" fill="#F5F5F5" fill-opacity="0.2"/>
</g>
<rect x="7.85938" y="6.98438" width="10.4762" height="3.49206" fill="#D9D9D9"/>
<rect x="7.85938" y="12.2227" width="10.4762" height="3.49206" fill="#D9D9D9"/>
<rect x="7.85938" y="17.4609" width="10.4762" height="3.49206" fill="#D9D9D9"/>
<rect x="7.85938" y="22.6992" width="10.4762" height="3.49206" fill="#D9D9D9"/>
<rect x="7.85938" y="27.9375" width="10.4762" height="3.49206" fill="#D9D9D9"/>
<rect x="7.85938" y="33.1758" width="10.4762" height="3.49206" fill="#D9D9D9"/>
<rect x="7.85938" y="38.4141" width="10.4762" height="3.49206" fill="#D9D9D9"/>
<rect x="7.85938" y="43.6523" width="10.4762" height="3.49206" fill="#D9D9D9"/>
<path d="M13.0977 7.42188H59.3675" stroke="#D9D9D9"/>
<circle cx="61.5497" cy="7.42082" r="2.18254" stroke="#D9D9D9"/>
<path d="M8.29687 44.5234L8.29687 69.8409" stroke="#D9D9D9"/>
<circle cx="8.29402" cy="72.0224" r="2.18254" transform="rotate(90 8.29402 72.0224)" stroke="#D9D9D9"/>
<rect x="268.016" y="139.68" width="10.4762" height="3.49206" transform="rotate(180 268.016 139.68)" fill="#D9D9D9"/>
<rect x="268.016" y="134.441" width="10.4762" height="3.49206" transform="rotate(180 268.016 134.441)" fill="#D9D9D9"/>
<rect x="268.016" y="129.203" width="10.4762" height="3.49206" transform="rotate(180 268.016 129.203)" fill="#D9D9D9"/>
<rect x="268.016" y="123.965" width="10.4762" height="3.49206" transform="rotate(180 268.016 123.965)" fill="#D9D9D9"/>
<rect x="268.016" y="118.727" width="10.4762" height="3.49206" transform="rotate(180 268.016 118.727)" fill="#D9D9D9"/>
<rect x="268.016" y="113.488" width="10.4762" height="3.49206" transform="rotate(180 268.016 113.488)" fill="#D9D9D9"/>
<rect x="268.016" y="108.25" width="10.4762" height="3.49206" transform="rotate(180 268.016 108.25)" fill="#D9D9D9"/>
<rect x="268.016" y="103.012" width="10.4762" height="3.49206" transform="rotate(180 268.016 103.012)" fill="#D9D9D9"/>
<path d="M262.777 139.242L216.508 139.242" stroke="#D9D9D9"/>
<circle cx="214.325" cy="139.243" r="2.18254" transform="rotate(180 214.325 139.243)" stroke="#D9D9D9"/>
<path d="M267.578 102.141L267.578 76.8232" stroke="#D9D9D9"/>
<circle cx="267.581" cy="74.6417" r="2.18254" transform="rotate(-90 267.581 74.6417)" stroke="#D9D9D9"/>
<defs>
<filter id="filter0_b_2021_60905" x="-24" y="-24" width="323" height="193.793" filterUnits="userSpaceOnUse" color-interpolation-filters="sRGB">
<feFlood flood-opacity="0" result="BackgroundImageFix"/>
<feGaussianBlur in="BackgroundImageFix" stdDeviation="12"/>
<feComposite in2="SourceAlpha" operator="in" result="effect1_backgroundBlur_2021_60905"/>
<feBlend mode="normal" in="SourceGraphic" in2="effect1_backgroundBlur_2021_60905" result="shape"/>
</filter>
</defs>
</svg>
