<svg width="275" height="146" fill="none" xmlns="http://www.w3.org/2000/svg"><g filter="url(#prefix__a)"><path d="M221.31 0H0v95.595l50.198 50.199H275V53.69z" fill="#F5F5F5" fill-opacity=".2"/></g><path fill="#D9D9D9" d="M7.859 6.984h10.476v3.492H7.859zm0 5.239h10.476v3.492H7.859zm0 5.238h10.476v3.492H7.859zm0 5.238h10.476v3.492H7.859zm0 5.239h10.476v3.492H7.859zm0 5.238h10.476v3.492H7.859zm0 5.238h10.476v3.492H7.859zm0 5.238h10.476v3.492H7.859z"/><path d="M13.098 7.422h46.27" stroke="#D9D9D9"/><circle cx="61.55" cy="7.421" r="2.183" stroke="#D9D9D9"/><path d="M8.297 44.523v25.318" stroke="#D9D9D9"/><circle cx="8.294" cy="72.022" r="2.183" transform="rotate(90 8.294 72.022)" stroke="#D9D9D9"/><path fill="#D9D9D9" d="M268.016 139.68H257.54v-3.492h10.476zm0-5.239H257.54v-3.492h10.476zm0-5.238H257.54v-3.492h10.476zm0-5.238H257.54v-3.492h10.476zm0-5.238H257.54v-3.492h10.476zm0-5.239H257.54v-3.492h10.476zm0-5.238H257.54v-3.492h10.476zm0-5.238H257.54V99.52h10.476z"/><path d="M262.777 139.242h-46.269" stroke="#D9D9D9"/><circle cx="214.325" cy="139.243" r="2.183" transform="rotate(180 214.325 139.243)" stroke="#D9D9D9"/><path d="M267.578 102.141V76.823" stroke="#D9D9D9"/><circle cx="267.581" cy="74.642" r="2.183" transform="rotate(-90 267.581 74.642)" stroke="#D9D9D9"/><defs><filter id="prefix__a" x="-24" y="-24" width="323" height="193.793" filterUnits="userSpaceOnUse" color-interpolation-filters="sRGB"><feFlood flood-opacity="0" result="BackgroundImageFix"/><feGaussianBlur in="BackgroundImageFix" stdDeviation="12"/><feComposite in2="SourceAlpha" operator="in" result="effect1_backgroundBlur_2021_60905"/><feBlend in="SourceGraphic" in2="effect1_backgroundBlur_2021_60905" result="shape"/></filter></defs></svg>