<svg width="71" height="18" fill="none" xmlns="http://www.w3.org/2000/svg"><g filter="url(#prefix__a)"><path d="M10.008 1.228 16.47.202l-.252 1.71-3.834.612-.252 1.782h4.104l-.252 1.71H15.3l-1.008 7.146h-2.574l1.008-7.146h-.846l-1.008 7.146H8.316zm-6.57 5.31.072-.522H.936l.252-1.71h1.206L2.178 3.28h2.394l.216 1.026h.666l.504-1.026h2.394l-.504 1.026h1.206l-.252 1.71H6.246l-.072.522h2.214l-.234 1.71H5.94l-.522 3.726q-.09.522-.504.864-.396.324-.918.324H1.638l1.008-1.026.558-3.888H.972l.234-1.71zm.756-5.31.072-.504-.45-.522h3.258L6.93 1.228h2.214l-.252 1.71H1.71l.252-1.71zm1.998 7.524h1.71l.036 3.42h-1.71zm-4.41 3.42H.072l1.008-3.42h1.71zM24.389 1.534l-.18-1.296h3.024l.18 1.296h1.62l.324-.702-.144-.594h3.348l-.558 1.296h1.152l-.792 5.598h-9.918l.792-5.598zm7.56 6.048-.738 5.274h-9.234l.738-5.274zM21.437 11.83l-4.896 1.026.27-1.998 1.242-.252.648-4.608h-1.206l.252-1.782h1.206l.432-2.988-.504-.684h3.204l-.522 3.672h.936l-.252 1.782h-.936l-.576 4.032.972-.198zm5.184-6.102.396-2.79H25.27l-.09.576h1.296l.198 1.71H25.36l-.198-1.602-.288 2.106zm4.014-2.214.09-.576h-1.71l-.396 2.79h1.71l.288-2.088-.576 1.584h-1.314l.63-1.71zm-2.358 8.046.108-.756h-3.006l-.108.756zM25.54 9.616h3.006l.09-.684H25.63zm18.178-4.608-.612.162-.792 5.634h5.634l.684-.684-.378 2.736h-8.91l.99-7.02-.756.18.234-1.71.756-.18.288-2.034-.378-.522h3.132l-.27 1.872.612-.144.342-2.412-.504-.684h3.114l-.342 2.448 3.006-.738-.828 5.958a1.6 1.6 0 0 1-.45.882q-.36.342-.81.342h-1.728l.558-.792.576-4.068-.558.144-.756 5.4h-2.52zm-5.256 6.822-5.256 1.026.27-1.998 1.314-.252.63-4.518h-1.278l.252-1.782h1.278l.432-3.078-.522-.684h3.33l-.54 3.762h1.134l-.252 1.782h-1.134l-.558 3.978 1.17-.234zm26.405 1.026h-9.63l.234-1.71h.774l1.134-8.1h2.844l-1.134 8.1h.72L61.25.868 60.8.202h3.672l-.576 4.104h2.16l-.234 1.71h-2.16l-.72 5.13h2.16zm-9.792-1.026-5.238 1.026.27-1.998 1.314-.252.63-4.518h-1.278l.252-1.782h1.278l.432-3.078-.522-.684h3.33l-.54 3.762h1.134l-.252 1.782h-1.134l-.558 3.978 1.152-.234z" fill="#fff"/></g><defs><filter id="prefix__a" x=".072" y=".202" width="69.984" height="16.96" filterUnits="userSpaceOnUse" color-interpolation-filters="sRGB"><feFlood flood-opacity="0" result="BackgroundImageFix"/><feColorMatrix in="SourceAlpha" values="0 0 0 0 0 0 0 0 0 0 0 0 0 0 0 0 0 0 127 0" result="hardAlpha"/><feOffset dx="4" dy="4"/><feColorMatrix values="0 0 0 0 0.654902 0 0 0 0 0.960784 0 0 0 0 0.133333 0 0 0 0.2 0"/><feBlend in2="BackgroundImageFix" result="effect1_dropShadow_5795_79912"/><feBlend in="SourceGraphic" in2="effect1_dropShadow_5795_79912" result="shape"/></filter></defs></svg>