<svg width="121" height="120" fill="none" xmlns="http://www.w3.org/2000/svg"><path fill-rule="evenodd" clip-rule="evenodd" d="M85.885 10.967a4.251 4.251 0 0 1 8.483.569l-.586 8.725a4.251 4.251 0 0 1-8.483-.569zm4.31-.737a1.024 1.024 0 0 0-1.09.953l-.586 8.725a1.024 1.024 0 1 0 2.043.137l.586-8.725a1.024 1.024 0 0 0-.953-1.09m3.748 18.84a4.25 4.25 0 0 1 4.526-3.957l8.726.586a4.252 4.252 0 0 1-.569 8.483l-8.726-.586a4.25 4.25 0 0 1-3.957-4.526m4.31-.737a1.024 1.024 0 0 0-.137 2.044l8.726.585a1.024 1.024 0 0 0 .137-2.043zm1.461 27.692-12.47-24.207-.088.046a11.28 11.28 0 0 0-6.607-6.347l-16.695-6.05a11.3 11.3 0 0 0-9.117.627L6.529 45.515c-5.518 2.91-7.632 9.742-4.723 15.26L14.064 84.02c2.89 5.48 9.651 7.603 15.15 4.78-2.212 5.355.003 11.607 5.243 14.325l23.513 12.198c5.452 2.829 12.165.782 15.112-4.607l8.856-16.198a22.52 22.52 0 0 0 15.972 6.615c12.476 0 22.59-10.114 22.59-22.59 0-11.869-9.153-21.6-20.786-22.519m-3.63.002-8.562-16.622-4.323 16.749a11.3 11.3 0 0 1-5.668 7.168l-43.8 23.097.24.125-1.474 2.841a8.07 8.07 0 0 0 3.446 10.877l23.513 12.198a8.07 8.07 0 0 0 10.794-3.291l9.44-17.267a22.5 22.5 0 0 1-4.37-13.358c0-11.861 9.143-21.588 20.765-22.517M79.45 28.552a8.07 8.07 0 0 1 5.063 9.6l-4.437 17.195a8.07 8.07 0 0 1-4.049 5.12L27.818 85.89a8.07 8.07 0 0 1-10.9-3.374L4.662 59.27a8.07 8.07 0 0 1 3.373-10.9l48.208-25.421a8.07 8.07 0 0 1 6.512-.449zM27.952 80.885l5.01-2.642a4.84 4.84 0 0 0 2.024-6.54L24.051 50.964a4.84 4.84 0 0 0-6.54-2.023L12.5 51.583a4.84 4.84 0 0 0-2.024 6.54L21.412 78.86a4.84 4.84 0 0 0 6.54 2.024m3.189-37.64a1.614 1.614 0 0 0-2.841 1.53l13.233 24.56a1.614 1.614 0 1 0 2.84-1.53zm35.31 7.677a8.299 8.299 0 1 1-7.741-14.68 8.299 8.299 0 0 1 7.741 14.68m12.097 27.622c0-10.694 8.668-19.363 19.362-19.363s19.363 8.67 19.363 19.363c0 10.694-8.669 19.363-19.363 19.363s-19.362-8.67-19.362-19.363m15.328-10.488a4.034 4.034 0 0 1 8.068 0v9.681a4.034 4.034 0 0 1-8.068 0zm4.034-.807a.807.807 0 0 0-.807.807v9.681a.807.807 0 0 0 1.614 0v-9.681a.807.807 0 0 0-.807-.807m0 25.817a4.034 4.034 0 1 1 0-8.068 4.034 4.034 0 0 1 0 8.068m-.807-4.034a.807.807 0 1 0 1.614 0 .807.807 0 0 0-1.614 0" fill="url(#prefix__a)" fill-opacity=".5" opacity=".5"/><defs><linearGradient id="prefix__a" x1=".5" y1="52.665" x2="116.964" y2="72.395" gradientUnits="userSpaceOnUse"><stop stop-color="#BEBEBE" stop-opacity=".2"/><stop offset=".344" stop-color="#BEBEBE" stop-opacity=".8"/><stop offset=".698" stop-color="#BEBEBE" stop-opacity=".8"/><stop offset="1" stop-color="#BEBEBE" stop-opacity=".2"/></linearGradient></defs></svg>