<svg width="343" height="480" viewBox="0 0 343 480" fill="none" xmlns="http://www.w3.org/2000/svg">
<path d="M0 16C0 7.16344 7.16344 0 16 0H143.246C148.143 0 152.77 2.24232 155.804 6.08569L176.196 31.9143C179.23 35.7577 183.857 38 188.754 38H327C335.837 38 343 45.1634 343 54V448.175C343 449.386 342.452 450.532 341.508 451.291L333.598 457.659C332.888 458.231 332.003 458.543 331.09 458.543H321.655C320.595 458.543 319.579 458.963 318.829 459.712L303.184 475.325C300.185 478.319 296.12 480 291.882 480H37.3959C32.1385 480 27.2167 477.417 24.2295 473.091L2.83365 442.104C0.988333 439.431 0 436.261 0 433.013V16Z" fill="black" fill-opacity="0.6"/>
<path d="M0.5 16C0.5 7.43958 7.43959 0.5 16 0.5H143.246C147.99 0.5 152.473 2.67225 155.412 6.39551L175.803 32.2241C178.932 36.1876 183.704 38.5 188.754 38.5H327C335.56 38.5 342.5 45.4396 342.5 54V448.175C342.5 449.235 342.02 450.237 341.195 450.902L333.285 457.269C332.663 457.77 331.888 458.043 331.09 458.043H321.655C320.463 458.043 319.319 458.516 318.476 459.358L302.831 474.971C299.925 477.871 295.987 479.5 291.882 479.5H37.3959C32.3028 479.5 27.5348 476.998 24.641 472.807L3.2451 441.82C1.45745 439.231 0.5 436.159 0.5 433.013V16Z" stroke="url(#paint0_linear_5799_109213)" stroke-opacity="0.8"/>
<path fill-rule="evenodd" clip-rule="evenodd" d="M203 26.1123H208.455V31.7483H201.182L187.848 14.8404H183V8.5H189.667L203 26.1123ZM224.345 26.1123H218.891L205.557 8.5H198.891V14.8404H203.739L217.072 31.7483H224.345V26.1123ZM234.781 26.1123H240.236V31.7483H232.963L219.63 14.8404H214.781V8.5H221.448L234.781 26.1123ZM256.123 26.1123H250.668L237.335 8.5H230.668V14.8404H235.516L248.85 31.7483H256.123V26.1123ZM266.559 26.1123H272.013V31.7483H264.74L251.407 14.8404H246.559V8.5H253.225L266.559 26.1123ZM287.904 26.1123H282.449L269.116 8.5H262.449V14.8404H267.298L280.631 31.7483H287.904V26.1123ZM298.336 26.1123H303.79V31.7483H296.518L283.184 14.8404H278.336V8.5H285.003L298.336 26.1123ZM314.227 26.1123H319.681V31.7483H312.408L299.075 14.8404H294.227V8.5H300.893L314.227 26.1123Z" fill="white" fill-opacity="0.9"/>
<defs>
<linearGradient id="paint0_linear_5799_109213" x1="-32.4177" y1="-4.29724e-05" x2="412.089" y2="140.372" gradientUnits="userSpaceOnUse">
<stop stop-color="white"/>
<stop offset="0.536458" stop-color="white" stop-opacity="0.1"/>
<stop offset="1" stop-color="white"/>
</linearGradient>
</defs>
</svg>
