<svg xmlns="http://www.w3.org/2000/svg" width="44" height="24" fill="none" data-c="1"><path fill="#fff" fill-opacity=".9" d="M20.08 23.952H7.792V4.464h4.344V1.032h3.528v3.432h4.416zM7.312 4.512v3.96H5.776v2.52l1.536-.384v4.056l-1.536.408v1.368q0 3.216-.264 4.728-.24 1.512-1.08 2.136-.84.648-2.616.648H.904v-5.88h.672q.36 0 .504-.456.168-.48.192-1.68l-1.776.48v-4.104l1.848-.432V8.472H.52v-3.96h1.824V1.08h3.432v3.432zm3.864 6.936h1.152V8.304h-1.152zm4.272-3.144v3.144h1.176V8.304zm-3.12 9.792v-3.072h-1.152v3.072zm4.296-3.072h-1.176v3.072h1.176zM33.28 6.936V3.408q1.248-.024 1.656-.768.432-.744.432-1.968h2.424v1.08h5.904q.024 4.728-1.08 7.008-1.08 2.28-3.216 3t-6.096.72V8.472q1.704 0 2.448-.12l-.264-1.776q-.96.36-2.208.36m-8.352-4.728h3.144q0 1.32.168 1.968.192.624.576.888V1.248h3.72v11.328h-3.72V6.504q-2.16-.264-3.024-1.368t-.864-2.928m10.92 4.128 2.736-.024.168 1.152q.936-.696 1.344-2.16h-3.144a2.73 2.73 0 0 1-1.104 1.032m-10.92 6.192v-4.32q1.08 0 1.704-.36.648-.384.672-1.176h1.08q0 2.64-.312 3.864-.312 1.2-1.008 1.584t-2.136.408m17.4 5.592h.912v5.832h-.912q-3.408 0-5.352-.648-1.944-.624-2.976-2.16-1.032 1.536-3 2.16-1.944.648-5.352.648h-.936V18.12h.936q2.376 0 3.528-.144 1.152-.168 1.752-.792H24.76v-3.528h7.2q.024-.264.024-.864h4.056l.024.864h7.128v3.528h-5.976q.648.624 1.776.792 1.152.144 3.336.144"/></svg>