<svg width="80" height="80" fill="none" xmlns="http://www.w3.org/2000/svg"><mask id="prefix__b" style="mask-type:alpha" maskUnits="userSpaceOnUse" x="0" y="0" width="80" height="80"><path fill="url(#prefix__a)" d="M0 0h79.667v80H0z"/></mask><g mask="url(#prefix__b)" stroke-width="2"><path d="m43.788 7.587.009.005.009.006 25.056 15.008c2.67 1.606 4.228 4.373 4.228 7.708v30.1c0 3.258-1.561 6.103-4.227 7.707h-.001L43.806 83.13l-.001.001c-2.663 1.6-5.726 1.608-8.48-.004l-.004-.002-25.047-15.003h-.001c-2.67-1.606-4.228-4.372-4.228-7.708v-30.1c0-3.257 1.561-6.103 4.228-7.706v-.001L35.33 7.598l.009-.005c2.747-1.683 5.794-1.675 8.45-.006ZM27.982 36.208h3.477v31.929l.255.284 7.148 7.994.745.834.745-.834 7.148-7.994.255-.285V36.209h3.477c2.08 0 3.67-1.707 3.67-3.773 0-2.067-1.59-3.774-3.67-3.774H43.2V23.26a5.54 5.54 0 0 0 1.65-3.957c0-2.964-2.377-5.486-5.32-5.486-2.945 0-5.32 2.522-5.32 5.486 0 1.508.61 2.947 1.649 3.957v5.402h-8.033c-2.08 0-3.671 1.707-3.671 3.774v.025l.001.025c.104 2.055 1.775 3.723 3.827 3.723Z" stroke="url(#prefix__c)"/><path d="m43.788 7.587.009.005.009.006 25.056 15.008c2.67 1.606 4.228 4.373 4.228 7.708v30.1c0 3.258-1.561 6.103-4.227 7.707h-.001L43.806 83.13l-.001.001c-2.663 1.6-5.726 1.608-8.48-.004l-.004-.002-25.047-15.003h-.001c-2.67-1.606-4.228-4.372-4.228-7.708v-30.1c0-3.257 1.561-6.103 4.228-7.706v-.001L35.33 7.598l.009-.005c2.747-1.683 5.794-1.675 8.45-.006ZM27.982 36.208h3.477v31.929l.255.284 7.148 7.994.745.834.745-.834 7.148-7.994.255-.285V36.209h3.477c2.08 0 3.67-1.707 3.67-3.773 0-2.067-1.59-3.774-3.67-3.774H43.2V23.26a5.54 5.54 0 0 0 1.65-3.957c0-2.964-2.377-5.486-5.32-5.486-2.945 0-5.32 2.522-5.32 5.486 0 1.508.61 2.947 1.649 3.957v5.402h-8.033c-2.08 0-3.671 1.707-3.671 3.774v.025l.001.025c.104 2.055 1.775 3.723 3.827 3.723Z" stroke="url(#prefix__d)"/></g><defs><linearGradient id="prefix__a" x1="37.74" y1="58.154" x2="40.494" y2="72.947" gradientUnits="userSpaceOnUse"><stop stop-color="#02030D"/><stop offset="1" stop-color="#02030D" stop-opacity="0"/></linearGradient><linearGradient id="prefix__c" x1="5.045" y1="85.333" x2="74.09" y2="85.333" gradientUnits="userSpaceOnUse"><stop stop-color="#FBEC6B"/><stop offset=".178" stop-color="#FF1F58"/><stop offset=".375" stop-color="#FE63FC"/><stop offset=".582" stop-color="#0391FF"/><stop offset=".79" stop-color="#00F9F5"/><stop offset="1" stop-color="#01FF8E"/></linearGradient><linearGradient id="prefix__d" x1="14.646" y1="55.73" x2="4.99" y2="50.153" gradientUnits="userSpaceOnUse"><stop stop-color="#1E1E1E" stop-opacity="0"/><stop offset="1" stop-color="#1E1E1E" stop-opacity=".6"/></linearGradient></defs></svg>