<svg width="16" height="16" fill="none" xmlns="http://www.w3.org/2000/svg"><path fill-rule="evenodd" clip-rule="evenodd" d="M2.594 3.255a5 5 0 0 0-.301-.005h-.168a.625.625 0 1 1 0-1.25h.185c.133 0 .265 0 .378.008.125.01.271.032.423.099.213.094.395.246.526.438.094.137.142.276.174.398.029.11.052.239.076.369l.004.018.1.545h8.15c.195 0 .38 0 .533.014.165.014.365.048.557.163.26.156.454.4.548.689.069.213.057.416.034.58-.021.152-.063.332-.106.521l-.99 4.292c-.03.123-.057.246-.09.35a1.3 1.3 0 0 1-.181.377 1.25 1.25 0 0 1-.52.414 1.3 1.3 0 0 1-.409.092c-.109.008-.236.008-.363.008H4.625a.625.625 0 0 1-.615-.511L2.662 3.557a5 5 0 0 0-.06-.296L2.6 3.255zm1.628 1.87.923 5h5.992c.151 0 .231 0 .289-.005h.006l.001-.005c.017-.056.036-.133.07-.28l.98-4.25c.051-.221.08-.347.092-.438l.002-.012-.012-.001a6 6 0 0 0-.447-.009zM4 13.25a1.25 1.25 0 1 1 2.5 0 1.25 1.25 0 0 1-2.5 0m6.25 0a1.25 1.25 0 1 1 2.5 0 1.25 1.25 0 0 1-2.5 0" fill="url(#prefix__a)"/><defs><linearGradient id="prefix__a" x1="10" y1="13" x2="4.5" y2="3" gradientUnits="userSpaceOnUse"><stop stop-color="#6E4EFF"/><stop offset="1" stop-color="#31FEF3"/></linearGradient></defs></svg>