<svg width="116" height="32" fill="none" xmlns="http://www.w3.org/2000/svg"><g filter="url(#prefix__a)"><path d="M37.28 10.928h2.087l.096-.6-.912-.912h4.872l-.216 1.512h2.928l-.312 2.28h-2.928l-.288 1.92h2.376l-.312 2.28h-2.376l-.264 1.92h2.376l-.336 2.28h-2.376l-.264 1.92h2.952l-.312 2.256h-8.88l-.048.384H31.4l1.848-13.2-.768.24.384-2.736 4.704-1.536zm-9.985 1.104.336-2.352-.6-.696h4.728l-.432 3.048h.792l-.288 2.136h-.816l-.36 2.592.624-.192-.36 2.496-.6.192-.744 5.352q-.12.696-.648 1.152a1.84 1.84 0 0 1-1.2.432h-3.72l1.608-2.16.48-3.456-1.368.432.36-2.52 1.344-.408.552-3.912h-1.272L26 12.032zm8.208 11.496h2.112l.264-1.92h-2.112zm.6-4.2h2.088l.264-1.92h-2.088zm.576-4.2h2.112l.264-1.92h-2.088zm19.846-1.44h10.392l-.336 2.28h-11.76l-1.632 2.184-1.128 8.016h-4.416l.816-5.856h-1.824l3.264-4.344H47.91l.336-2.28h3.384l.432-.576h4.896zm1.44 6.696.048-.288 3.168-1.488h-5.928l.288-2.016h10.536l-.36 2.472-3.072 1.32h4.008l-.288 2.16h-4.344l-.288 2.064q-.096.672-.648 1.128-.528.432-1.224.432H55.35l2.112-2.16.192-1.464h-4.056l.288-2.16zm-6.336-8.352h-3.408l.288-2.064h3.408l.024-.12-.768-.912h5.016l-.144 1.032h4.104l.024-.12-.768-.912h5.016l-.144 1.032h3.384l-.288 2.064h-3.408l-.072.552H59.79l.072-.552h-4.128l-.072.552h-4.104zm37.199 2.616-.312 2.28h-6.84l-.288 2.04h5.927l-.335 2.28h-5.928l-.289 2.064h7.752l-.335 2.496H77.475l-4.487-1.272-.312 1.272H68.57l1.776-6.936-.503-.816h4.824l-1.033 3.96 2.64.744.84-5.832h-6.84l.313-2.28zm-4.273-2.064h-9.12l-.192 1.368h-5.015l.504-3.648h7.296l.072-.48-.792-.888h5.471l-.191 1.368h7.296l-.505 3.648h-5.016zM98.21 24.44l1.08-1.344.384-2.76h-.936l-.816 5.88h-3.648l.816-5.88h-.888l-.576 4.104H90.89l.888-6.384h3.648l.12-.912h-4.08l.312-2.28h4.104l.192-1.368h-1.272l-.216.912H91.85l1.032-4.104h2.736l-.24.912h1.008l.192-1.368-.768-.912h4.56l-.336 2.28h3.432l-.312 2.28h-3.432l-.192 1.368h4.104l-.312 2.28h-4.128l-.12.912h3.648l-.744 5.4a1.16 1.16 0 0 1-.408.696 1.03 1.03 0 0 1-.72.288zm5.712 1.368 2.136-2.28 1.896-13.464-.576-.672h4.32l-2.088 14.784a1.9 1.9 0 0 1-.624 1.176q-.528.456-1.224.456zm3.168-14.592-1.728 12.312h-2.496l1.728-12.312z" fill="#fff"/></g><path fill-rule="evenodd" clip-rule="evenodd" d="M32 16c0 8.837-7.163 16-16 16S0 24.837 0 16 7.163 0 16 0s16 16 16 16" fill="url(#prefix__b)"/><defs><linearGradient id="prefix__b" x1="-17.079" y1="28.54" x2="8" y2="44.539" gradientUnits="userSpaceOnUse"><stop stop-color="#A7F522"/><stop offset="1" stop-color="#DCF8A6" stop-opacity=".01"/></linearGradient><filter id="prefix__a" x="24.007" y="8.936" width="91.69" height="21.28" filterUnits="userSpaceOnUse" color-interpolation-filters="sRGB"><feFlood flood-opacity="0" result="BackgroundImageFix"/><feColorMatrix in="SourceAlpha" values="0 0 0 0 0 0 0 0 0 0 0 0 0 0 0 0 0 0 127 0" result="hardAlpha"/><feOffset dx="4" dy="4"/><feColorMatrix values="0 0 0 0 0.654902 0 0 0 0 0.960784 0 0 0 0 0.133333 0 0 0 0.2 0"/><feBlend in2="BackgroundImageFix" result="effect1_dropShadow_4449_43505"/><feBlend in="SourceGraphic" in2="effect1_dropShadow_4449_43505" result="shape"/></filter></defs></svg>