<svg width="238" height="117" fill="none" xmlns="http://www.w3.org/2000/svg"><path d="m0 0 44.5 117H28zm0 0 87.5 117h-20zm0 0 8 117H0zm0 0 149 117h-29.5zm0 0 238 105v12h-34.5zm0 0 238 43.5V69zm0 0h238v12.5z" fill="currentColor" fill-opacity=".8"/><path d="m137 76.5 3.5-6.5-7.5 1zM154.5 56l5 5.5h-10zm38 14-1.5 4.5-6.5-5zM204 84h-10.5l5.5-10.5z" fill="currentColor" fill-opacity=".6"/><circle cx="172" cy="75" r="2" fill="currentColor" fill-opacity=".6"/><circle cx="214.5" cy="63.5" r="3.5" fill="currentColor" fill-opacity=".6"/></svg>