<svg xmlns="http://www.w3.org/2000/svg" width="45" height="23" fill="none" data-c="1"><path fill="#fff" fill-opacity=".9" d="M9.344 8.984v3.6H6.632q.192 2.088.792 3.168.624 1.056 1.92 1.32v5.88H9.2q-2.952 0-4.344-3.72-1.368 3.72-4.32 3.72H.344v-5.88q1.32-.264 1.92-1.32.624-1.08.792-3.168H.344v-3.6h2.712v-3H.704V2.408h2.352V.08h3.576v2.328h2.376v3.576H6.632v3zm.48 3.6V.08H20.48v12.504h-3.24V3.32h-4.2v9.264zm-.072 10.368v-5.88q2.04 0 3-1.896.984-1.92.984-5.52V4.16h2.736v5.496q0 3.432-.696 6.48-.696 3.024-2.232 4.92-1.512 1.896-3.792 1.896m11.592 0H19.16q-1.584 0-2.616-.744-1.008-.744-1.008-2.784 0-.792.168-1.776.192-.96.456-1.848.264-.912.504-1.464l.264-.72h1.896l-.144.288q-.12.24-.24.672a4.6 4.6 0 0 0-.096.984q0 .6.24.96t.552.48q.312.096.312.072h1.896zm3.912-8.424V.08h11.136v14.448h-3.144V3.896H28.52v10.632zm19.128.744q0 3.216-.24 4.728t-1.248 2.232-3.288.72h-2.16v-5.88h1.416q.888 0 1.224-.408.36-.432.432-1.248.096-.816.096-2.976V.08h3.768zm-7.08-.984V3.512h2.472v10.776zm-.552 2.808v5.856q-2.208 0-3.672-.792-1.44-.768-2.256-2.328-.864 1.56-2.304 2.328-1.44.792-3.648.792v-5.856q1.704 0 2.664-.624.96-.648 1.368-2.232t.408-4.392V5.12h3.024v4.728q0 2.808.408 4.392t1.344 2.232q.936.624 2.664.624"/></svg>