<svg width="66" height="66" fill="none" xmlns="http://www.w3.org/2000/svg"><circle cx="33" cy="33" r="30.5" fill="#fff" stroke="#A7F522" stroke-width="5"/><circle cx="33" cy="33" r="22" fill="#A7F522"/><path fill="#A7F522" d="m44.723 18.242 9.983-6.659 2.467 3.7-9.983 6.658z"/><path d="M29.818 49c3.927-5.47 7.99-10.326 11.01-13.744 1.782-2.018 3.456-3.853 5.059-5.504a119 119 0 0 1 4.27-4.154c2.356-2.197 5.11-4.632 6.843-5.675L54.788 17c-3.207 2-6.295 4.136-8.678 5.778-1.39.957-2.678 1.876-3.893 2.752-1.203.868-2.446 1.82-3.756 2.82a200 200 0 0 0-8.026 6.48l-7.1-6.685L15 34.692z" fill="#fff"/></svg>