<svg xmlns="http://www.w3.org/2000/svg" width="45" height="24" fill="none" data-c="1"><path fill="#fff" fill-opacity=".9" d="M16.832 18.12h4.08v5.832H8.456V18.12h4.152v-3.864h-4.92V10.08h4.92V6.504q-2.448.048-4.152.048V2.76q3.528 0 5.472-.168t2.736-.528q.816-.384.816-1.056h3.384q0 2.256-.912 3.408-.912 1.128-3.12 1.632v4.032h4.824v4.176h-4.824zM6.992 7.368v16.584H3.056V12.288q-1.128.48-2.4.48V7.776Q1.52 7.68 2.48 6.96t1.632-2.208q.696-1.488.696-3.72h3.12q0 3.6-.936 6.336m35.928 5.496v3.456q-.024 3.072-.288 4.56t-1.392 2.28-3.6.792h-2.544v-5.88h2.04q1.632 0 2.16-1.752h-3.792q-.672 3.384-2.856 5.472t-6.12 2.16v-5.88q3.576 0 5.112-1.752h-5.016v-3.456h6.168v-.984q-3.096.48-7.584.48V8.472q3.36 0 5.472-.168-.576-.528-1.248-1.32-1.392.648-3.384.648V2.784q1.68 0 2.496-.216.84-.216 1.152-.672t.312-1.368h2.976q0 .648-.096 1.296h9.744v3.312q-.408 1.848-1.68 3.168h3.48v3.912H42.56q-3.696 0-6.672-1.008v1.656zm-7.656-5.256q2.616-.792 3.552-2.472h-7.08l-.144.12a7.6 7.6 0 0 0 1.584 1.416q.864.552 2.088.936"/></svg>