<svg width="121" height="115" fill="none" xmlns="http://www.w3.org/2000/svg"><path fill-rule="evenodd" clip-rule="evenodd" d="M11.655 6.141a3.988 3.988 0 1 1 6.715-4.305l4.428 6.907a3.988 3.988 0 1 1-6.715 4.305zm2.84-2.961a.96.96 0 0 0-.291 1.327l4.428 6.907a.96.96 0 1 0 1.617-1.037L15.821 3.47a.96.96 0 0 0-1.327-.29m4.585 44.614c0-19.56 16.684-35.98 36.674-35.98 19.469 0 35.802 15.574 36.641 34.455-8.31 2.866-14.28 10.756-14.28 20.04 0 3.312.76 6.448 2.116 9.24-7.624 9.842-16.886 18.154-21.865 22.337a4.03 4.03 0 0 1-5.225-.002c-4.717-3.962-13.284-11.636-20.658-20.808-7.426-9.235-13.403-19.7-13.403-29.282m62.794 30.567c-3.827 4.828-7.99 9.258-11.809 12.995 6.12.762 11.448 2.019 15.415 3.636 2.233.91 4.116 1.967 5.465 3.179 1.348 1.208 2.308 2.709 2.308 4.467 0 2.202-1.491 3.991-3.438 5.362-1.988 1.401-4.766 2.6-8.063 3.582-6.613 1.97-15.659 3.166-25.586 3.166s-18.973-1.196-25.586-3.166c-3.297-.982-6.075-2.181-8.063-3.582-1.947-1.371-3.437-3.16-3.437-5.362 0-1.758.96-3.259 2.307-4.467 1.35-1.212 3.232-2.269 5.465-3.179 3.809-1.553 8.873-2.773 14.687-3.543-3.683-3.598-7.693-7.846-11.416-12.476-7.5-9.328-14.07-20.496-14.07-31.179 0-21.284 18.092-39.008 39.701-39.008 20.821 0 38.377 16.454 39.63 36.692a21.3 21.3 0 0 1 3.924-.362c11.704 0 21.192 9.488 21.192 21.192s-9.488 21.193-21.192 21.193c-7.227 0-13.609-3.618-17.434-9.14M67.386 93.92a175 175 0 0 1-7.073 6.283 7.055 7.055 0 0 1-9.12-.002 175 175 0 0 1-6.816-6.042c-6.701.712-12.385 2.006-16.382 3.636-2.063.84-3.595 1.738-4.586 2.628-.994.892-1.302 1.638-1.302 2.214 0 .725.5 1.723 2.153 2.887 1.613 1.136 4.044 2.22 7.185 3.155 6.261 1.865 15.002 3.041 24.721 3.041 9.72 0 18.46-1.176 24.722-3.041 3.14-.935 5.572-2.019 7.184-3.155 1.653-1.164 2.153-2.162 2.153-2.887 0-.576-.307-1.322-1.301-2.214-.992-.89-2.524-1.787-4.587-2.628-4.113-1.678-10.013-3-16.969-3.697zM55.752 60.297c7.03 0 12.73-5.595 12.73-12.498S62.782 35.3 55.752 35.3s-12.73 5.596-12.73 12.498c0 6.903 5.7 12.498 12.73 12.498M.774 15.493a3.99 3.99 0 0 0 2.264 5.166l7.642 2.985a3.988 3.988 0 0 0 2.902-7.43L5.94 13.23a3.99 3.99 0 0 0-5.166 2.263M4.14 17.84a.96.96 0 0 1 .699-1.79l7.642 2.986a.96.96 0 1 1-.7 1.79zm77.003 48.47c0-10.033 8.132-18.165 18.165-18.165s18.165 8.132 18.165 18.164-8.133 18.165-18.165 18.165-18.165-8.132-18.165-18.165m14.38-9.84a3.784 3.784 0 0 1 7.569 0v9.083a3.784 3.784 0 1 1-7.569 0zm3.785-.757a.757.757 0 0 0-.757.757v9.083a.757.757 0 1 0 1.514 0v-9.083a.757.757 0 0 0-.757-.757m0 24.22a3.784 3.784 0 1 1 0-7.569 3.784 3.784 0 0 1 0 7.57m-.757-3.784a.757.757 0 1 0 1.514 0 .757.757 0 0 0-1.514 0" fill="url(#prefix__a)" fill-opacity=".5"/><defs><linearGradient id="prefix__a" x1=".5" y1="47.812" x2="117.25" y2="66.702" gradientUnits="userSpaceOnUse"><stop stop-color="#BEBEBE" stop-opacity=".2"/><stop offset=".344" stop-color="#BEBEBE" stop-opacity=".8"/><stop offset=".698" stop-color="#BEBEBE" stop-opacity=".8"/><stop offset="1" stop-color="#BEBEBE" stop-opacity=".2"/></linearGradient></defs></svg>