<svg width="12" height="15" fill="none" xmlns="http://www.w3.org/2000/svg"><path d="M4.333 11.5c-.366 0-.68-.13-.941-.392A1.284 1.284 0 013 10.166v-8c0-.366.13-.68.392-.941.26-.261.575-.392.941-.392h6c.367 0 .68.13.942.392.261.26.392.575.392.941v8c0 .367-.13.68-.392.942a1.284 1.284 0 01-.942.392h-6zm0-2.334a1 1 0 001 1h4a1 1 0 001-1v-6a1 1 0 00-1-1h-4a1 1 0 00-1 1v6zm-2.666 5c-.367 0-.68-.13-.942-.391a1.284 1.284 0 01-.392-.942V4.166a.667.667 0 111.334 0v8.667h6.666a.667.667 0 010 1.333H1.667z" fill="#A7F522"/></svg>