<svg width="12" height="15" viewBox="0 0 12 15" fill="none" xmlns="http://www.w3.org/2000/svg">
<path d="M4.33333 11.4997C3.96666 11.4997 3.65277 11.3691 3.39166 11.108C3.13055 10.8469 2.99999 10.533 2.99999 10.1663V2.16634C2.99999 1.79967 3.13055 1.48579 3.39166 1.22467C3.65277 0.963563 3.96666 0.833008 4.33333 0.833008H10.3333C10.7 0.833008 11.0139 0.963563 11.275 1.22467C11.5361 1.48579 11.6667 1.79967 11.6667 2.16634V10.1663C11.6667 10.533 11.5361 10.8469 11.275 11.108C11.0139 11.3691 10.7 11.4997 10.3333 11.4997H4.33333ZM4.33333 9.16634C4.33333 9.71863 4.78104 10.1663 5.33333 10.1663H9.33333C9.88561 10.1663 10.3333 9.71863 10.3333 9.16634V3.16634C10.3333 2.61406 9.88561 2.16634 9.33333 2.16634H5.33333C4.78104 2.16634 4.33333 2.61406 4.33333 3.16634V9.16634ZM1.66666 14.1663C1.29999 14.1663 0.986106 14.0358 0.724995 13.7747C0.463884 13.5136 0.333328 13.1997 0.333328 12.833V4.16634C0.333328 3.79815 0.631805 3.49967 0.999995 3.49967C1.36818 3.49967 1.66666 3.79815 1.66666 4.16634V12.833H8.33333C8.70152 12.833 8.99999 13.1315 8.99999 13.4997C8.99999 13.8679 8.70152 14.1663 8.33333 14.1663H1.66666Z" fill="#A7F522"/>
</svg>
